<?xml version="1.0" encoding="UTF-8" standalone="no"?><svg xmlns="http://www.w3.org/2000/svg" xmlns:xlink="http://www.w3.org/1999/xlink" contentStyleType="text/css" height="708px" preserveAspectRatio="none" style="width:1596px;height:708px;background:#FFFFFF;" version="1.1" viewBox="0 0 1596 708" width="1596px" zoomAndPan="magnify"><defs/><g><rect fill="#FFFFFF" height="496.9688" style="stroke:#181818;stroke-width:1.0;" width="10" x="136.5" y="112.7988"/><rect fill="#FFFFFF" height="29.3105" style="stroke:#181818;stroke-width:1.0;" width="10" x="272.5" y="142.1094"/><rect fill="#FFFFFF" height="424.3477" style="stroke:#181818;stroke-width:1.0;" width="10" x="423.5" y="171.4199"/><rect fill="#FFFFFF" height="29.3105" style="stroke:#181818;stroke-width:1.0;" width="10" x="563.5" y="200.7305"/><rect fill="#FFFFFF" height="336.416" style="stroke:#181818;stroke-width:1.0;" width="10" x="692.5" y="230.041"/><rect fill="#FFFFFF" height="29.3105" style="stroke:#181818;stroke-width:1.0;" width="10" x="815" y="317.9727"/><rect fill="#FFFFFF" height="117.2422" style="stroke:#181818;stroke-width:1.0;" width="10" x="931" y="347.2832"/><rect fill="#FFFFFF" height="29.3105" style="stroke:#181818;stroke-width:1.0;" width="10" x="1052" y="405.9043"/><rect fill="#FFFFFF" height="43.3105" style="stroke:#181818;stroke-width:1.0;" width="10" x="1052" y="493.8359"/><rect fill="#FFFFFF" height="29.3105" style="stroke:#181818;stroke-width:1.0;" width="10" x="1437.5" y="259.3516"/><line style="stroke:#181818;stroke-width:0.5;stroke-dasharray:5.0,5.0;" x1="23" x2="23" y1="81.4883" y2="627.7676"/><line style="stroke:#181818;stroke-width:0.5;stroke-dasharray:5.0,5.0;" x1="141" x2="141" y1="81.4883" y2="627.7676"/><line style="stroke:#181818;stroke-width:0.5;stroke-dasharray:5.0,5.0;" x1="277" x2="277" y1="81.4883" y2="627.7676"/><line style="stroke:#181818;stroke-width:0.5;stroke-dasharray:5.0,5.0;" x1="428" x2="428" y1="81.4883" y2="627.7676"/><line style="stroke:#181818;stroke-width:0.5;stroke-dasharray:5.0,5.0;" x1="568" x2="568" y1="81.4883" y2="627.7676"/><line style="stroke:#181818;stroke-width:0.5;stroke-dasharray:5.0,5.0;" x1="697" x2="697" y1="81.4883" y2="627.7676"/><line style="stroke:#181818;stroke-width:0.5;stroke-dasharray:5.0,5.0;" x1="820" x2="820" y1="81.4883" y2="627.7676"/><line style="stroke:#181818;stroke-width:0.5;stroke-dasharray:5.0,5.0;" x1="936" x2="936" y1="81.4883" y2="627.7676"/><line style="stroke:#181818;stroke-width:0.5;stroke-dasharray:5.0,5.0;" x1="1057" x2="1057" y1="81.4883" y2="627.7676"/><line style="stroke:#181818;stroke-width:0.5;stroke-dasharray:5.0,5.0;" x1="1191" x2="1191" y1="81.4883" y2="627.7676"/><line style="stroke:#181818;stroke-width:0.5;stroke-dasharray:5.0,5.0;" x1="1337" x2="1337" y1="81.4883" y2="627.7676"/><line style="stroke:#181818;stroke-width:0.5;stroke-dasharray:5.0,5.0;" x1="1442" x2="1442" y1="81.4883" y2="627.7676"/><line style="stroke:#181818;stroke-width:0.5;stroke-dasharray:5.0,5.0;" x1="1538" x2="1538" y1="81.4883" y2="627.7676"/><text fill="#000000" font-family="sans-serif" font-size="14" lengthAdjust="spacing" textLength="31" x="5" y="78.5352">User</text><ellipse cx="23.5" cy="13.5" fill="#E2E2F0" rx="8" ry="8" style="stroke:#181818;stroke-width:0.5;"/><path d="M23.5,21.5 L23.5,48.5 M10.5,29.5 L36.5,29.5 M23.5,48.5 L10.5,63.5 M23.5,48.5 L36.5,63.5 " fill="none" style="stroke:#181818;stroke-width:0.5;"/><text fill="#000000" font-family="sans-serif" font-size="14" lengthAdjust="spacing" textLength="31" x="5" y="640.3027">User</text><ellipse cx="23.5" cy="651.7559" fill="#E2E2F0" rx="8" ry="8" style="stroke:#181818;stroke-width:0.5;"/><path d="M23.5,659.7559 L23.5,686.7559 M10.5,667.7559 L36.5,667.7559 M23.5,686.7559 L10.5,701.7559 M23.5,686.7559 L36.5,701.7559 " fill="none" style="stroke:#181818;stroke-width:0.5;"/><rect fill="#E2E2F0" height="30.4883" rx="2.5" ry="2.5" style="stroke:#181818;stroke-width:0.5;" width="109" x="87" y="50"/><text fill="#000000" font-family="sans-serif" font-size="14" lengthAdjust="spacing" textLength="95" x="94" y="70.5352">ElevatorRoute</text><rect fill="#E2E2F0" height="30.4883" rx="2.5" ry="2.5" style="stroke:#181818;stroke-width:0.5;" width="109" x="87" y="626.7676"/><text fill="#000000" font-family="sans-serif" font-size="14" lengthAdjust="spacing" textLength="95" x="94" y="647.3027">ElevatorRoute</text><rect fill="#E2E2F0" height="30.4883" rx="2.5" ry="2.5" style="stroke:#181818;stroke-width:0.5;" width="143" x="206" y="50"/><text fill="#000000" font-family="sans-serif" font-size="14" lengthAdjust="spacing" textLength="129" x="213" y="70.5352">IElevatorController</text><rect fill="#E2E2F0" height="30.4883" rx="2.5" ry="2.5" style="stroke:#181818;stroke-width:0.5;" width="143" x="206" y="626.7676"/><text fill="#000000" font-family="sans-serif" font-size="14" lengthAdjust="spacing" textLength="129" x="213" y="647.3027">IElevatorController</text><rect fill="#E2E2F0" height="30.4883" rx="2.5" ry="2.5" style="stroke:#181818;stroke-width:0.5;" width="139" x="359" y="50"/><text fill="#000000" font-family="sans-serif" font-size="14" lengthAdjust="spacing" textLength="125" x="366" y="70.5352">ElevatorController</text><rect fill="#E2E2F0" height="30.4883" rx="2.5" ry="2.5" style="stroke:#181818;stroke-width:0.5;" width="139" x="359" y="626.7676"/><text fill="#000000" font-family="sans-serif" font-size="14" lengthAdjust="spacing" textLength="125" x="366" y="647.3027">ElevatorController</text><rect fill="#E2E2F0" height="30.4883" rx="2.5" ry="2.5" style="stroke:#181818;stroke-width:0.5;" width="121" x="508" y="50"/><text fill="#000000" font-family="sans-serif" font-size="14" lengthAdjust="spacing" textLength="107" x="515" y="70.5352">IElevatorService</text><rect fill="#E2E2F0" height="30.4883" rx="2.5" ry="2.5" style="stroke:#181818;stroke-width:0.5;" width="121" x="508" y="626.7676"/><text fill="#000000" font-family="sans-serif" font-size="14" lengthAdjust="spacing" textLength="107" x="515" y="647.3027">IElevatorService</text><rect fill="#E2E2F0" height="30.4883" rx="2.5" ry="2.5" style="stroke:#181818;stroke-width:0.5;" width="117" x="639" y="50"/><text fill="#000000" font-family="sans-serif" font-size="14" lengthAdjust="spacing" textLength="103" x="646" y="70.5352">ElevatorService</text><rect fill="#E2E2F0" height="30.4883" rx="2.5" ry="2.5" style="stroke:#181818;stroke-width:0.5;" width="117" x="639" y="626.7676"/><text fill="#000000" font-family="sans-serif" font-size="14" lengthAdjust="spacing" textLength="103" x="646" y="647.3027">ElevatorService</text><rect fill="#E2E2F0" height="30.4883" rx="2.5" ry="2.5" style="stroke:#181818;stroke-width:0.5;" width="108" x="766" y="50"/><text fill="#000000" font-family="sans-serif" font-size="14" lengthAdjust="spacing" textLength="94" x="773" y="70.5352">IElevatorRepo</text><rect fill="#E2E2F0" height="30.4883" rx="2.5" ry="2.5" style="stroke:#181818;stroke-width:0.5;" width="108" x="766" y="626.7676"/><text fill="#000000" font-family="sans-serif" font-size="14" lengthAdjust="spacing" textLength="94" x="773" y="647.3027">IElevatorRepo</text><rect fill="#E2E2F0" height="30.4883" rx="2.5" ry="2.5" style="stroke:#181818;stroke-width:0.5;" width="104" x="884" y="50"/><text fill="#000000" font-family="sans-serif" font-size="14" lengthAdjust="spacing" textLength="90" x="891" y="70.5352">ElevatorRepo</text><rect fill="#E2E2F0" height="30.4883" rx="2.5" ry="2.5" style="stroke:#181818;stroke-width:0.5;" width="104" x="884" y="626.7676"/><text fill="#000000" font-family="sans-serif" font-size="14" lengthAdjust="spacing" textLength="90" x="891" y="647.3027">ElevatorRepo</text><rect fill="#E2E2F0" height="30.4883" rx="2.5" ry="2.5" style="stroke:#181818;stroke-width:0.5;" width="98" x="1008" y="50"/><text fill="#000000" font-family="sans-serif" font-size="14" lengthAdjust="spacing" textLength="84" x="1015" y="70.5352">ElevatorMap</text><rect fill="#E2E2F0" height="30.4883" rx="2.5" ry="2.5" style="stroke:#181818;stroke-width:0.5;" width="98" x="1008" y="626.7676"/><text fill="#000000" font-family="sans-serif" font-size="14" lengthAdjust="spacing" textLength="84" x="1015" y="647.3027">ElevatorMap</text><rect fill="#E2E2F0" height="30.4883" rx="2.5" ry="2.5" style="stroke:#181818;stroke-width:0.5;" width="150" x="1116" y="50"/><text fill="#000000" font-family="sans-serif" font-size="14" lengthAdjust="spacing" textLength="136" x="1123" y="70.5352">IElevatorPersistence</text><rect fill="#E2E2F0" height="30.4883" rx="2.5" ry="2.5" style="stroke:#181818;stroke-width:0.5;" width="150" x="1116" y="626.7676"/><text fill="#000000" font-family="sans-serif" font-size="14" lengthAdjust="spacing" textLength="136" x="1123" y="647.3027">IElevatorPersistence</text><rect fill="#E2E2F0" height="30.4883" rx="2.5" ry="2.5" style="stroke:#181818;stroke-width:0.5;" width="122" x="1276" y="50"/><text fill="#000000" font-family="sans-serif" font-size="14" lengthAdjust="spacing" textLength="108" x="1283" y="70.5352">ElevatorSchema</text><rect fill="#E2E2F0" height="30.4883" rx="2.5" ry="2.5" style="stroke:#181818;stroke-width:0.5;" width="122" x="1276" y="626.7676"/><text fill="#000000" font-family="sans-serif" font-size="14" lengthAdjust="spacing" textLength="108" x="1283" y="647.3027">ElevatorSchema</text><rect fill="#E2E2F0" height="30.4883" rx="2.5" ry="2.5" style="stroke:#181818;stroke-width:0.5;" width="69" x="1408" y="50"/><text fill="#000000" font-family="sans-serif" font-size="14" lengthAdjust="spacing" textLength="55" x="1415" y="70.5352">Elevator</text><rect fill="#E2E2F0" height="30.4883" rx="2.5" ry="2.5" style="stroke:#181818;stroke-width:0.5;" width="69" x="1408" y="626.7676"/><text fill="#000000" font-family="sans-serif" font-size="14" lengthAdjust="spacing" textLength="55" x="1415" y="647.3027">Elevator</text><rect fill="#E2E2F0" height="30.4883" rx="2.5" ry="2.5" style="stroke:#181818;stroke-width:0.5;" width="103" x="1487" y="50"/><text fill="#000000" font-family="sans-serif" font-size="14" lengthAdjust="spacing" textLength="89" x="1494" y="70.5352">IElevatorDTO</text><rect fill="#E2E2F0" height="30.4883" rx="2.5" ry="2.5" style="stroke:#181818;stroke-width:0.5;" width="103" x="1487" y="626.7676"/><text fill="#000000" font-family="sans-serif" font-size="14" lengthAdjust="spacing" textLength="89" x="1494" y="647.3027">IElevatorDTO</text><rect fill="#FFFFFF" height="496.9688" style="stroke:#181818;stroke-width:1.0;" width="10" x="136.5" y="112.7988"/><rect fill="#FFFFFF" height="29.3105" style="stroke:#181818;stroke-width:1.0;" width="10" x="272.5" y="142.1094"/><rect fill="#FFFFFF" height="424.3477" style="stroke:#181818;stroke-width:1.0;" width="10" x="423.5" y="171.4199"/><rect fill="#FFFFFF" height="29.3105" style="stroke:#181818;stroke-width:1.0;" width="10" x="563.5" y="200.7305"/><rect fill="#FFFFFF" height="336.416" style="stroke:#181818;stroke-width:1.0;" width="10" x="692.5" y="230.041"/><rect fill="#FFFFFF" height="29.3105" style="stroke:#181818;stroke-width:1.0;" width="10" x="815" y="317.9727"/><rect fill="#FFFFFF" height="117.2422" style="stroke:#181818;stroke-width:1.0;" width="10" x="931" y="347.2832"/><rect fill="#FFFFFF" height="29.3105" style="stroke:#181818;stroke-width:1.0;" width="10" x="1052" y="405.9043"/><rect fill="#FFFFFF" height="43.3105" style="stroke:#181818;stroke-width:1.0;" width="10" x="1052" y="493.8359"/><rect fill="#FFFFFF" height="29.3105" style="stroke:#181818;stroke-width:1.0;" width="10" x="1437.5" y="259.3516"/><polygon fill="#181818" points="124.5,108.7988,134.5,112.7988,124.5,116.7988,128.5,112.7988" style="stroke:#181818;stroke-width:1.0;"/><line style="stroke:#181818;stroke-width:1.0;" x1="23.5" x2="130.5" y1="112.7988" y2="112.7988"/><text fill="#000000" font-family="sans-serif" font-size="13" lengthAdjust="spacing" textLength="94" x="30.5" y="108.0566">Create Elevator</text><polygon fill="#181818" points="260.5,138.1094,270.5,142.1094,260.5,146.1094,264.5,142.1094" style="stroke:#181818;stroke-width:1.0;"/><line style="stroke:#181818;stroke-width:1.0;" x1="146.5" x2="266.5" y1="142.1094" y2="142.1094"/><text fill="#000000" font-family="sans-serif" font-size="13" lengthAdjust="spacing" textLength="96" x="153.5" y="137.3672">createElevator()</text><polygon fill="#181818" points="411.5,167.4199,421.5,171.4199,411.5,175.4199,415.5,171.4199" style="stroke:#181818;stroke-width:1.0;"/><line style="stroke:#181818;stroke-width:1.0;" x1="277.5" x2="417.5" y1="171.4199" y2="171.4199"/><text fill="#000000" font-family="sans-serif" font-size="13" lengthAdjust="spacing" textLength="96" x="284.5" y="166.6777">createElevator()</text><polygon fill="#181818" points="551.5,196.7305,561.5,200.7305,551.5,204.7305,555.5,200.7305" style="stroke:#181818;stroke-width:1.0;"/><line style="stroke:#181818;stroke-width:1.0;" x1="433.5" x2="557.5" y1="200.7305" y2="200.7305"/><text fill="#000000" font-family="sans-serif" font-size="13" lengthAdjust="spacing" textLength="96" x="440.5" y="195.9883">createElevator()</text><polygon fill="#181818" points="680.5,226.041,690.5,230.041,680.5,234.041,684.5,230.041" style="stroke:#181818;stroke-width:1.0;"/><line style="stroke:#181818;stroke-width:1.0;" x1="568.5" x2="686.5" y1="230.041" y2="230.041"/><text fill="#000000" font-family="sans-serif" font-size="13" lengthAdjust="spacing" textLength="96" x="575.5" y="225.2988">createElevator()</text><polygon fill="#181818" points="1425.5,255.3516,1435.5,259.3516,1425.5,263.3516,1429.5,259.3516" style="stroke:#181818;stroke-width:1.0;"/><line style="stroke:#181818;stroke-width:1.0;" x1="702.5" x2="1431.5" y1="259.3516" y2="259.3516"/><text fill="#000000" font-family="sans-serif" font-size="13" lengthAdjust="spacing" textLength="46" x="709.5" y="254.6094">create()</text><polygon fill="#181818" points="713.5,284.6621,703.5,288.6621,713.5,292.6621,709.5,288.6621" style="stroke:#181818;stroke-width:1.0;"/><line style="stroke:#181818;stroke-width:1.0;" x1="707.5" x2="1441.5" y1="288.6621" y2="288.6621"/><text fill="#000000" font-family="sans-serif" font-size="13" lengthAdjust="spacing" textLength="50" x="719.5" y="283.9199">Elevator</text><polygon fill="#181818" points="803,313.9727,813,317.9727,803,321.9727,807,317.9727" style="stroke:#181818;stroke-width:1.0;"/><line style="stroke:#181818;stroke-width:1.0;" x1="702.5" x2="809" y1="317.9727" y2="317.9727"/><text fill="#000000" font-family="sans-serif" font-size="13" lengthAdjust="spacing" textLength="36" x="709.5" y="313.2305">save()</text><polygon fill="#181818" points="919,343.2832,929,347.2832,919,351.2832,923,347.2832" style="stroke:#181818;stroke-width:1.0;"/><line style="stroke:#181818;stroke-width:1.0;" x1="820" x2="925" y1="347.2832" y2="347.2832"/><text fill="#000000" font-family="sans-serif" font-size="13" lengthAdjust="spacing" textLength="36" x="827" y="342.541">save()</text><polygon fill="#181818" points="1325,372.5938,1335,376.5938,1325,380.5938,1329,376.5938" style="stroke:#181818;stroke-width:1.0;"/><line style="stroke:#181818;stroke-width:1.0;" x1="941" x2="1331" y1="376.5938" y2="376.5938"/><text fill="#000000" font-family="sans-serif" font-size="13" lengthAdjust="spacing" textLength="58" x="948" y="371.8516">findOne()</text><polygon fill="#181818" points="1040,401.9043,1050,405.9043,1040,409.9043,1044,405.9043" style="stroke:#181818;stroke-width:1.0;"/><line style="stroke:#181818;stroke-width:1.0;" x1="941" x2="1046" y1="405.9043" y2="405.9043"/><text fill="#000000" font-family="sans-serif" font-size="13" lengthAdjust="spacing" textLength="92" x="948" y="401.1621">toPersistence()</text><polygon fill="#181818" points="952,431.2148,942,435.2148,952,439.2148,948,435.2148" style="stroke:#181818;stroke-width:1.0;"/><line style="stroke:#181818;stroke-width:1.0;" x1="946" x2="1056" y1="435.2148" y2="435.2148"/><text fill="#000000" font-family="sans-serif" font-size="13" lengthAdjust="spacing" textLength="50" x="958" y="430.4727">Elevator</text><polygon fill="#181818" points="1325,460.5254,1335,464.5254,1325,468.5254,1329,464.5254" style="stroke:#181818;stroke-width:1.0;"/><line style="stroke:#181818;stroke-width:1.0;" x1="936" x2="1331" y1="464.5254" y2="464.5254"/><text fill="#000000" font-family="sans-serif" font-size="13" lengthAdjust="spacing" textLength="46" x="943" y="459.7832">create()</text><polygon fill="#181818" points="1040,489.8359,1050,493.8359,1040,497.8359,1044,493.8359" style="stroke:#181818;stroke-width:1.0;"/><line style="stroke:#181818;stroke-width:1.0;" x1="702.5" x2="1046" y1="493.8359" y2="493.8359"/><text fill="#000000" font-family="sans-serif" font-size="13" lengthAdjust="spacing" textLength="49" x="709.5" y="489.0938">toDTO()</text><polygon fill="#181818" points="1526.5,503.8359,1536.5,507.8359,1526.5,511.8359,1530.5,507.8359" style="stroke:#181818;stroke-width:1.0;"/><line style="stroke:#181818;stroke-width:1.0;" x1="1062" x2="1532.5" y1="507.8359" y2="507.8359"/><polygon fill="#181818" points="713.5,533.1465,703.5,537.1465,713.5,541.1465,709.5,537.1465" style="stroke:#181818;stroke-width:1.0;"/><line style="stroke:#181818;stroke-width:1.0;" x1="707.5" x2="1056" y1="537.1465" y2="537.1465"/><text fill="#000000" font-family="sans-serif" font-size="13" lengthAdjust="spacing" textLength="78" x="719.5" y="532.4043">ElevatorDTO</text><polygon fill="#181818" points="444.5,562.457,434.5,566.457,444.5,570.457,440.5,566.457" style="stroke:#181818;stroke-width:1.0;"/><line style="stroke:#181818;stroke-width:1.0;" x1="438.5" x2="696.5" y1="566.457" y2="566.457"/><text fill="#000000" font-family="sans-serif" font-size="13" lengthAdjust="spacing" textLength="78" x="450.5" y="561.7148">ElevatorDTO</text><polygon fill="#181818" points="157.5,591.7676,147.5,595.7676,157.5,599.7676,153.5,595.7676" style="stroke:#181818;stroke-width:1.0;"/><line style="stroke:#181818;stroke-width:1.0;" x1="151.5" x2="427.5" y1="595.7676" y2="595.7676"/><text fill="#000000" font-family="sans-serif" font-size="13" lengthAdjust="spacing" textLength="187" x="163.5" y="591.0254">res.json(ElevatorDTO).status()</text><polygon fill="#181818" points="34.5,605.7676,24.5,609.7676,34.5,613.7676,30.5,609.7676" style="stroke:#181818;stroke-width:1.0;"/><line style="stroke:#181818;stroke-width:1.0;" x1="28.5" x2="140.5" y1="609.7676" y2="609.7676"/><!--MD5=[975c913c8336544fecd686fd86b498c6]
@startuml
'https://plantuml.com/sequence-diagram

actor User
participant ElevatorRoute
participant IElevatorController
participant ElevatorController
participant IElevatorService
participant ElevatorService
participant IElevatorRepo
participant ElevatorRepo
participant ElevatorMap
participant IElevatorPersistence
participant ElevatorSchema
participant Elevator
participant IElevatorDTO

User -> ElevatorRoute: Create Elevator
activate ElevatorRoute
ElevatorRoute -> IElevatorController : createElevator()
activate IElevatorController
IElevatorController -> ElevatorController : createElevator()
deactivate IElevatorController
activate ElevatorController
ElevatorController -> IElevatorService : createElevator()
activate IElevatorService
IElevatorService -> ElevatorService : createElevator()
deactivate IElevatorService
activate ElevatorService
ElevatorService -> Elevator : create()
activate Elevator
Elevator -> ElevatorService : Elevator
deactivate Elevator
ElevatorService -> IElevatorRepo: save()
activate IElevatorRepo
IElevatorRepo -> ElevatorRepo : save()
deactivate IElevatorRepo
activate ElevatorRepo
ElevatorRepo -> ElevatorSchema : findOne()
ElevatorRepo -> ElevatorMap : toPersistence()
activate ElevatorMap
ElevatorMap -> ElevatorRepo : Elevator
deactivate ElevatorMap
ElevatorRepo -> ElevatorSchema: create()
deactivate ElevatorRepo
ElevatorService -> ElevatorMap : toDTO()
activate ElevatorMap
ElevatorMap -> IElevatorDTO
ElevatorMap -> ElevatorService : ElevatorDTO
deactivate ElevatorMap
ElevatorService -> ElevatorController : ElevatorDTO
deactivate ElevatorService
ElevatorController -> ElevatorRoute : res.json(ElevatorDTO).status()
deactivate ElevatorController
ElevatorRoute -> User
deactivate ElevatorRoute
@enduml

@startuml

actor User
participant ElevatorRoute
participant IElevatorController
participant ElevatorController
participant IElevatorService
participant ElevatorService
participant IElevatorRepo
participant ElevatorRepo
participant ElevatorMap
participant IElevatorPersistence
participant ElevatorSchema
participant Elevator
participant IElevatorDTO

User -> ElevatorRoute: Create Elevator
activate ElevatorRoute
ElevatorRoute -> IElevatorController : createElevator()
activate IElevatorController
IElevatorController -> ElevatorController : createElevator()
deactivate IElevatorController
activate ElevatorController
ElevatorController -> IElevatorService : createElevator()
activate IElevatorService
IElevatorService -> ElevatorService : createElevator()
deactivate IElevatorService
activate ElevatorService
ElevatorService -> Elevator : create()
activate Elevator
Elevator -> ElevatorService : Elevator
deactivate Elevator
ElevatorService -> IElevatorRepo: save()
activate IElevatorRepo
IElevatorRepo -> ElevatorRepo : save()
deactivate IElevatorRepo
activate ElevatorRepo
ElevatorRepo -> ElevatorSchema : findOne()
ElevatorRepo -> ElevatorMap : toPersistence()
activate ElevatorMap
ElevatorMap -> ElevatorRepo : Elevator
deactivate ElevatorMap
ElevatorRepo -> ElevatorSchema: create()
deactivate ElevatorRepo
ElevatorService -> ElevatorMap : toDTO()
activate ElevatorMap
ElevatorMap -> IElevatorDTO
ElevatorMap -> ElevatorService : ElevatorDTO
deactivate ElevatorMap
ElevatorService -> ElevatorController : ElevatorDTO
deactivate ElevatorService
ElevatorController -> ElevatorRoute : res.json(ElevatorDTO).status()
deactivate ElevatorController
ElevatorRoute -> User
deactivate ElevatorRoute
@enduml

PlantUML version 1.2022.7(Mon Aug 22 18:01:30 WEST 2022)
(GPL source distribution)
Java Runtime: Java(TM) SE Runtime Environment
JVM: Java HotSpot(TM) 64-Bit Server VM
Default Encoding: UTF-8
Language: pt
Country: PT
--></g></svg>