<?xml version="1.0" encoding="us-ascii" standalone="no"?><svg xmlns="http://www.w3.org/2000/svg" xmlns:xlink="http://www.w3.org/1999/xlink" contentStyleType="text/css" height="855px" preserveAspectRatio="none" style="width:1971px;height:855px;background:#FFFFFF;" version="1.1" viewBox="0 0 1971 855" width="1971px" zoomAndPan="magnify"><defs/><g><rect fill="#FFFFFF" height="669.5293" style="stroke:#181818;stroke-width:1.0;" width="10" x="17.5" y="93.6211"/><rect fill="#FFFFFF" height="31.291" style="stroke:#181818;stroke-width:1.0;" width="10" x="193.5" y="116.9121"/><rect fill="#FFFFFF" height="61.291" style="stroke:#181818;stroke-width:1.0;" width="10" x="193.5" y="179.4941"/><rect fill="#FFFFFF" height="31.291" style="stroke:#181818;stroke-width:1.0;" width="10" x="193.5" y="722.8594"/><rect fill="#FFFFFF" height="512.0742" style="stroke:#181818;stroke-width:1.0;" width="10" x="370.5" y="210.7852"/><rect fill="#FFFFFF" height="419.4922" style="stroke:#181818;stroke-width:1.0;" width="10" x="547.5" y="272.0762"/><rect fill="#FFFFFF" height="31.291" style="stroke:#181818;stroke-width:1.0;" width="10" x="770.5" y="303.3672"/><rect fill="#FFFFFF" height="325.6191" style="stroke:#181818;stroke-width:1.0;" width="10" x="993.5" y="334.6582"/><rect fill="#FFFFFF" height="31.291" style="stroke:#181818;stroke-width:1.0;" width="10" x="1216.5" y="365.9492"/><rect fill="#FFFFFF" height="231.7461" style="stroke:#181818;stroke-width:1.0;" width="10" x="1439.5" y="397.2402"/><rect fill="#FFFFFF" height="61.291" style="stroke:#181818;stroke-width:1.0;" width="10" x="1565.5" y="428.5313"/><rect fill="#FFFFFF" height="61.291" style="stroke:#181818;stroke-width:1.0;" width="10" x="1691.5" y="459.8223"/><rect fill="#FFFFFF" height="45.291" style="stroke:#181818;stroke-width:1.0;" width="10" x="1800.5" y="552.4043"/><line style="stroke:#181818;stroke-width:0.5;stroke-dasharray:5.0,5.0;" x1="22" x2="22" y1="83.6211" y2="772.1504"/><line style="stroke:#181818;stroke-width:0.5;stroke-dasharray:5.0,5.0;" x1="198" x2="198" y1="83.6211" y2="772.1504"/><line style="stroke:#181818;stroke-width:0.5;stroke-dasharray:5.0,5.0;" x1="375" x2="375" y1="83.6211" y2="772.1504"/><line style="stroke:#181818;stroke-width:0.5;stroke-dasharray:5.0,5.0;" x1="552.5" x2="552.5" y1="83.6211" y2="772.1504"/><line style="stroke:#181818;stroke-width:0.5;stroke-dasharray:5.0,5.0;" x1="775.5" x2="775.5" y1="83.6211" y2="772.1504"/><line style="stroke:#181818;stroke-width:0.5;stroke-dasharray:5.0,5.0;" x1="998.5" x2="998.5" y1="83.6211" y2="772.1504"/><line style="stroke:#181818;stroke-width:0.5;stroke-dasharray:5.0,5.0;" x1="1221" x2="1221" y1="83.6211" y2="772.1504"/><line style="stroke:#181818;stroke-width:0.5;stroke-dasharray:5.0,5.0;" x1="1444" x2="1444" y1="83.6211" y2="772.1504"/><line style="stroke:#181818;stroke-width:0.5;stroke-dasharray:5.0,5.0;" x1="1570.5" x2="1570.5" y1="83.6211" y2="772.1504"/><line style="stroke:#181818;stroke-width:0.5;stroke-dasharray:5.0,5.0;" x1="1696.5" x2="1696.5" y1="83.6211" y2="772.1504"/><line style="stroke:#181818;stroke-width:0.5;stroke-dasharray:5.0,5.0;" x1="1805.5" x2="1805.5" y1="83.6211" y2="772.1504"/><line style="stroke:#181818;stroke-width:0.5;stroke-dasharray:5.0,5.0;" x1="1914.5" x2="1914.5" y1="83.6211" y2="772.1504"/><text fill="#000000" font-family="sans-serif" font-size="14" lengthAdjust="spacing" textLength="29" x="5" y="80.1074">User</text><ellipse cx="22.5" cy="13.5" fill="#E2E2F0" rx="8" ry="8" style="stroke:#181818;stroke-width:0.5;"/><path d="M22.5,21.5 L22.5,48.5 M9.5,29.5 L35.5,29.5 M22.5,48.5 L9.5,63.5 M22.5,48.5 L35.5,63.5 " fill="none" style="stroke:#181818;stroke-width:0.5;"/><text fill="#000000" font-family="sans-serif" font-size="14" lengthAdjust="spacing" textLength="29" x="5" y="786.2578">User</text><ellipse cx="22.5" cy="798.2715" fill="#E2E2F0" rx="8" ry="8" style="stroke:#181818;stroke-width:0.5;"/><path d="M22.5,806.2715 L22.5,833.2715 M9.5,814.2715 L35.5,814.2715 M22.5,833.2715 L9.5,848.2715 M22.5,833.2715 L35.5,848.2715 " fill="none" style="stroke:#181818;stroke-width:0.5;"/><rect fill="#E2E2F0" height="32.6211" rx="2.5" ry="2.5" style="stroke:#181818;stroke-width:0.5;" width="41" x="178" y="50"/><text fill="#000000" font-family="sans-serif" font-size="14" lengthAdjust="spacing" textLength="27" x="185" y="72.1074">SPA</text><rect fill="#E2E2F0" height="32.6211" rx="2.5" ry="2.5" style="stroke:#181818;stroke-width:0.5;" width="41" x="178" y="771.1504"/><text fill="#000000" font-family="sans-serif" font-size="14" lengthAdjust="spacing" textLength="27" x="185" y="793.2578">SPA</text><rect fill="#E2E2F0" height="32.6211" rx="2.5" ry="2.5" style="stroke:#181818;stroke-width:0.5;" width="35" x="358" y="50"/><text fill="#000000" font-family="sans-serif" font-size="14" lengthAdjust="spacing" textLength="21" x="365" y="72.1074">MD</text><rect fill="#E2E2F0" height="32.6211" rx="2.5" ry="2.5" style="stroke:#181818;stroke-width:0.5;" width="35" x="358" y="771.1504"/><text fill="#000000" font-family="sans-serif" font-size="14" lengthAdjust="spacing" textLength="21" x="365" y="793.2578">MD</text><rect fill="#E2E2F0" height="32.6211" rx="2.5" ry="2.5" style="stroke:#181818;stroke-width:0.5;" width="106" x="499.5" y="50"/><text fill="#000000" font-family="sans-serif" font-size="14" lengthAdjust="spacing" textLength="92" x="506.5" y="72.1074">passageRoute</text><rect fill="#E2E2F0" height="32.6211" rx="2.5" ry="2.5" style="stroke:#181818;stroke-width:0.5;" width="106" x="499.5" y="771.1504"/><text fill="#000000" font-family="sans-serif" font-size="14" lengthAdjust="spacing" textLength="92" x="506.5" y="793.2578">passageRoute</text><rect fill="#E2E2F0" height="32.6211" rx="2.5" ry="2.5" style="stroke:#181818;stroke-width:0.5;" width="134" x="708.5" y="50"/><text fill="#000000" font-family="sans-serif" font-size="14" lengthAdjust="spacing" textLength="120" x="715.5" y="72.1074">IPassageController</text><rect fill="#E2E2F0" height="32.6211" rx="2.5" ry="2.5" style="stroke:#181818;stroke-width:0.5;" width="134" x="708.5" y="771.1504"/><text fill="#000000" font-family="sans-serif" font-size="14" lengthAdjust="spacing" textLength="120" x="715.5" y="793.2578">IPassageController</text><rect fill="#E2E2F0" height="32.6211" rx="2.5" ry="2.5" style="stroke:#181818;stroke-width:0.5;" width="130" x="933.5" y="50"/><text fill="#000000" font-family="sans-serif" font-size="14" lengthAdjust="spacing" textLength="116" x="940.5" y="72.1074">passageController</text><rect fill="#E2E2F0" height="32.6211" rx="2.5" ry="2.5" style="stroke:#181818;stroke-width:0.5;" width="130" x="933.5" y="771.1504"/><text fill="#000000" font-family="sans-serif" font-size="14" lengthAdjust="spacing" textLength="116" x="940.5" y="793.2578">passageController</text><rect fill="#E2E2F0" height="32.6211" rx="2.5" ry="2.5" style="stroke:#181818;stroke-width:0.5;" width="119" x="1162" y="50"/><text fill="#000000" font-family="sans-serif" font-size="14" lengthAdjust="spacing" textLength="105" x="1169" y="72.1074">IPassageService</text><rect fill="#E2E2F0" height="32.6211" rx="2.5" ry="2.5" style="stroke:#181818;stroke-width:0.5;" width="119" x="1162" y="771.1504"/><text fill="#000000" font-family="sans-serif" font-size="14" lengthAdjust="spacing" textLength="105" x="1169" y="793.2578">IPassageService</text><rect fill="#E2E2F0" height="32.6211" rx="2.5" ry="2.5" style="stroke:#181818;stroke-width:0.5;" width="115" x="1387" y="50"/><text fill="#000000" font-family="sans-serif" font-size="14" lengthAdjust="spacing" textLength="101" x="1394" y="72.1074">passageService</text><rect fill="#E2E2F0" height="32.6211" rx="2.5" ry="2.5" style="stroke:#181818;stroke-width:0.5;" width="115" x="1387" y="771.1504"/><text fill="#000000" font-family="sans-serif" font-size="14" lengthAdjust="spacing" textLength="101" x="1394" y="793.2578">passageService</text><rect fill="#E2E2F0" height="32.6211" rx="2.5" ry="2.5" style="stroke:#181818;stroke-width:0.5;" width="106" x="1517.5" y="50"/><text fill="#000000" font-family="sans-serif" font-size="14" lengthAdjust="spacing" textLength="92" x="1524.5" y="72.1074">IPassageRepo</text><rect fill="#E2E2F0" height="32.6211" rx="2.5" ry="2.5" style="stroke:#181818;stroke-width:0.5;" width="106" x="1517.5" y="771.1504"/><text fill="#000000" font-family="sans-serif" font-size="14" lengthAdjust="spacing" textLength="92" x="1524.5" y="793.2578">IPassageRepo</text><rect fill="#E2E2F0" height="32.6211" rx="2.5" ry="2.5" style="stroke:#181818;stroke-width:0.5;" width="102" x="1645.5" y="50"/><text fill="#000000" font-family="sans-serif" font-size="14" lengthAdjust="spacing" textLength="88" x="1652.5" y="72.1074">passageRepo</text><rect fill="#E2E2F0" height="32.6211" rx="2.5" ry="2.5" style="stroke:#181818;stroke-width:0.5;" width="102" x="1645.5" y="771.1504"/><text fill="#000000" font-family="sans-serif" font-size="14" lengthAdjust="spacing" textLength="88" x="1652.5" y="793.2578">passageRepo</text><rect fill="#E2E2F0" height="32.6211" rx="2.5" ry="2.5" style="stroke:#181818;stroke-width:0.5;" width="96" x="1757.5" y="50"/><text fill="#000000" font-family="sans-serif" font-size="14" lengthAdjust="spacing" textLength="82" x="1764.5" y="72.1074">PassageMap</text><rect fill="#E2E2F0" height="32.6211" rx="2.5" ry="2.5" style="stroke:#181818;stroke-width:0.5;" width="96" x="1757.5" y="771.1504"/><text fill="#000000" font-family="sans-serif" font-size="14" lengthAdjust="spacing" textLength="82" x="1764.5" y="793.2578">PassageMap</text><rect fill="#E2E2F0" height="32.6211" rx="2.5" ry="2.5" style="stroke:#181818;stroke-width:0.5;" width="102" x="1863.5" y="50"/><text fill="#000000" font-family="sans-serif" font-size="14" lengthAdjust="spacing" textLength="88" x="1870.5" y="72.1074">IPassageDTO</text><rect fill="#E2E2F0" height="32.6211" rx="2.5" ry="2.5" style="stroke:#181818;stroke-width:0.5;" width="102" x="1863.5" y="771.1504"/><text fill="#000000" font-family="sans-serif" font-size="14" lengthAdjust="spacing" textLength="88" x="1870.5" y="793.2578">IPassageDTO</text><rect fill="#FFFFFF" height="669.5293" style="stroke:#181818;stroke-width:1.0;" width="10" x="17.5" y="93.6211"/><rect fill="#FFFFFF" height="31.291" style="stroke:#181818;stroke-width:1.0;" width="10" x="193.5" y="116.9121"/><rect fill="#FFFFFF" height="61.291" style="stroke:#181818;stroke-width:1.0;" width="10" x="193.5" y="179.4941"/><rect fill="#FFFFFF" height="31.291" style="stroke:#181818;stroke-width:1.0;" width="10" x="193.5" y="722.8594"/><rect fill="#FFFFFF" height="512.0742" style="stroke:#181818;stroke-width:1.0;" width="10" x="370.5" y="210.7852"/><rect fill="#FFFFFF" height="419.4922" style="stroke:#181818;stroke-width:1.0;" width="10" x="547.5" y="272.0762"/><rect fill="#FFFFFF" height="31.291" style="stroke:#181818;stroke-width:1.0;" width="10" x="770.5" y="303.3672"/><rect fill="#FFFFFF" height="325.6191" style="stroke:#181818;stroke-width:1.0;" width="10" x="993.5" y="334.6582"/><rect fill="#FFFFFF" height="31.291" style="stroke:#181818;stroke-width:1.0;" width="10" x="1216.5" y="365.9492"/><rect fill="#FFFFFF" height="231.7461" style="stroke:#181818;stroke-width:1.0;" width="10" x="1439.5" y="397.2402"/><rect fill="#FFFFFF" height="61.291" style="stroke:#181818;stroke-width:1.0;" width="10" x="1565.5" y="428.5313"/><rect fill="#FFFFFF" height="61.291" style="stroke:#181818;stroke-width:1.0;" width="10" x="1691.5" y="459.8223"/><rect fill="#FFFFFF" height="45.291" style="stroke:#181818;stroke-width:1.0;" width="10" x="1800.5" y="552.4043"/><polygon fill="#181818" points="181.5,112.9121,191.5,116.9121,181.5,120.9121,185.5,116.9121" style="stroke:#181818;stroke-width:1.0;"/><line style="stroke:#181818;stroke-width:1.0;" x1="27.5" x2="187.5" y1="116.9121" y2="116.9121"/><text fill="#000000" font-family="sans-serif" font-size="13" lengthAdjust="spacing" textLength="76" x="34.5" y="111.6494">Get Passage</text><polygon fill="#181818" points="38.5,144.2031,28.5,148.2031,38.5,152.2031,34.5,148.2031" style="stroke:#181818;stroke-width:1.0;"/><line style="stroke:#181818;stroke-width:1.0;stroke-dasharray:2.0,2.0;" x1="32.5" x2="197.5" y1="148.2031" y2="148.2031"/><text fill="#000000" font-family="sans-serif" font-size="13" lengthAdjust="spacing" textLength="84" x="44.5" y="142.9404">Requests data</text><polygon fill="#181818" points="181.5,175.4941,191.5,179.4941,181.5,183.4941,185.5,179.4941" style="stroke:#181818;stroke-width:1.0;"/><line style="stroke:#181818;stroke-width:1.0;" x1="27.5" x2="187.5" y1="179.4941" y2="179.4941"/><text fill="#000000" font-family="sans-serif" font-size="13" lengthAdjust="spacing" textLength="147" x="34.5" y="174.2314">data {builidng1, building2}</text><polygon fill="#181818" points="358.5,206.7852,368.5,210.7852,358.5,214.7852,362.5,210.7852" style="stroke:#181818;stroke-width:1.0;"/><line style="stroke:#181818;stroke-width:1.0;" x1="203.5" x2="364.5" y1="210.7852" y2="210.7852"/><text fill="#000000" font-family="sans-serif" font-size="13" lengthAdjust="spacing" textLength="148" x="210.5" y="205.5225">GET /:building1/:building2</text><polygon fill="#181818" points="535.5,268.0762,545.5,272.0762,535.5,276.0762,539.5,272.0762" style="stroke:#181818;stroke-width:1.0;"/><line style="stroke:#181818;stroke-width:1.0;" x1="380.5" x2="541.5" y1="272.0762" y2="272.0762"/><text fill="#000000" font-family="sans-serif" font-size="13" lengthAdjust="spacing" textLength="148" x="387.5" y="266.8135">GET /:building1/:building2</text><polygon fill="#181818" points="758.5,299.3672,768.5,303.3672,758.5,307.3672,762.5,303.3672" style="stroke:#181818;stroke-width:1.0;"/><line style="stroke:#181818;stroke-width:1.0;" x1="557.5" x2="764.5" y1="303.3672" y2="303.3672"/><text fill="#000000" font-family="sans-serif" font-size="13" lengthAdjust="spacing" textLength="194" x="564.5" y="298.1045">getPassagesBetween2Buildings()</text><polygon fill="#181818" points="981.5,330.6582,991.5,334.6582,981.5,338.6582,985.5,334.6582" style="stroke:#181818;stroke-width:1.0;"/><line style="stroke:#181818;stroke-width:1.0;" x1="775.5" x2="987.5" y1="334.6582" y2="334.6582"/><text fill="#000000" font-family="sans-serif" font-size="13" lengthAdjust="spacing" textLength="194" x="782.5" y="329.3955">getPassagesBetween2Buildings()</text><polygon fill="#181818" points="1204.5,361.9492,1214.5,365.9492,1204.5,369.9492,1208.5,365.9492" style="stroke:#181818;stroke-width:1.0;"/><line style="stroke:#181818;stroke-width:1.0;" x1="1003.5" x2="1210.5" y1="365.9492" y2="365.9492"/><text fill="#000000" font-family="sans-serif" font-size="13" lengthAdjust="spacing" textLength="194" x="1010.5" y="360.6865">getPassagesBetween2Buildings()</text><polygon fill="#181818" points="1427.5,393.2402,1437.5,397.2402,1427.5,401.2402,1431.5,397.2402" style="stroke:#181818;stroke-width:1.0;"/><line style="stroke:#181818;stroke-width:1.0;" x1="1221.5" x2="1433.5" y1="397.2402" y2="397.2402"/><text fill="#000000" font-family="sans-serif" font-size="13" lengthAdjust="spacing" textLength="194" x="1228.5" y="391.9775">getPassagesBetween2Buildings()</text><polygon fill="#181818" points="1553.5,424.5313,1563.5,428.5313,1553.5,432.5313,1557.5,428.5313" style="stroke:#181818;stroke-width:1.0;"/><line style="stroke:#181818;stroke-width:1.0;" x1="1449.5" x2="1559.5" y1="428.5313" y2="428.5313"/><text fill="#000000" font-family="sans-serif" font-size="13" lengthAdjust="spacing" textLength="97" x="1456.5" y="423.2686">findByBuildings()</text><polygon fill="#181818" points="1679.5,455.8223,1689.5,459.8223,1679.5,463.8223,1683.5,459.8223" style="stroke:#181818;stroke-width:1.0;"/><line style="stroke:#181818;stroke-width:1.0;" x1="1575.5" x2="1685.5" y1="459.8223" y2="459.8223"/><text fill="#000000" font-family="sans-serif" font-size="13" lengthAdjust="spacing" textLength="97" x="1582.5" y="454.5596">findByBuildings()</text><polygon fill="#181818" points="1460.5,517.1133,1450.5,521.1133,1460.5,525.1133,1456.5,521.1133" style="stroke:#181818;stroke-width:1.0;"/><line style="stroke:#181818;stroke-width:1.0;stroke-dasharray:2.0,2.0;" x1="1454.5" x2="1695.5" y1="521.1133" y2="521.1133"/><text fill="#000000" font-family="sans-serif" font-size="13" lengthAdjust="spacing" textLength="57" x="1466.5" y="515.8506">passage[]</text><polygon fill="#181818" points="1788.5,548.4043,1798.5,552.4043,1788.5,556.4043,1792.5,552.4043" style="stroke:#181818;stroke-width:1.0;"/><line style="stroke:#181818;stroke-width:1.0;" x1="1449.5" x2="1794.5" y1="552.4043" y2="552.4043"/><text fill="#000000" font-family="sans-serif" font-size="13" lengthAdjust="spacing" textLength="45" x="1456.5" y="547.1416">toDTO()</text><polygon fill="#181818" points="1902.5,562.4043,1912.5,566.4043,1902.5,570.4043,1906.5,566.4043" style="stroke:#181818;stroke-width:1.0;"/><line style="stroke:#181818;stroke-width:1.0;" x1="1810.5" x2="1908.5" y1="566.4043" y2="566.4043"/><polygon fill="#181818" points="1460.5,593.6953,1450.5,597.6953,1460.5,601.6953,1456.5,597.6953" style="stroke:#181818;stroke-width:1.0;"/><line style="stroke:#181818;stroke-width:1.0;stroke-dasharray:2.0,2.0;" x1="1454.5" x2="1804.5" y1="597.6953" y2="597.6953"/><text fill="#000000" font-family="sans-serif" font-size="13" lengthAdjust="spacing" textLength="83" x="1466.5" y="592.4326">passageDTO[]</text><polygon fill="#181818" points="1014.5,624.9863,1004.5,628.9863,1014.5,632.9863,1010.5,628.9863" style="stroke:#181818;stroke-width:1.0;"/><line style="stroke:#181818;stroke-width:1.0;stroke-dasharray:2.0,2.0;" x1="1008.5" x2="1443.5" y1="628.9863" y2="628.9863"/><text fill="#000000" font-family="sans-serif" font-size="13" lengthAdjust="spacing" textLength="83" x="1020.5" y="623.7236">passageDTO[]</text><polygon fill="#181818" points="568.5,656.2773,558.5,660.2773,568.5,664.2773,564.5,660.2773" style="stroke:#181818;stroke-width:1.0;"/><line style="stroke:#181818;stroke-width:1.0;stroke-dasharray:2.0,2.0;" x1="562.5" x2="997.5" y1="660.2773" y2="660.2773"/><text fill="#000000" font-family="sans-serif" font-size="13" lengthAdjust="spacing" textLength="396" x="574.5" y="655.0146">passageController -&gt; passageRoute : res.json(passageDTO).status()</text><polygon fill="#181818" points="391.5,687.5684,381.5,691.5684,391.5,695.5684,387.5,691.5684" style="stroke:#181818;stroke-width:1.0;"/><line style="stroke:#181818;stroke-width:1.0;stroke-dasharray:2.0,2.0;" x1="385.5" x2="551.5" y1="691.5684" y2="691.5684"/><text fill="#000000" font-family="sans-serif" font-size="13" lengthAdjust="spacing" textLength="44" x="397.5" y="686.3057">status()</text><polygon fill="#181818" points="214.5,718.8594,204.5,722.8594,214.5,726.8594,210.5,722.8594" style="stroke:#181818;stroke-width:1.0;"/><line style="stroke:#181818;stroke-width:1.0;stroke-dasharray:2.0,2.0;" x1="208.5" x2="374.5" y1="722.8594" y2="722.8594"/><text fill="#000000" font-family="sans-serif" font-size="13" lengthAdjust="spacing" textLength="44" x="220.5" y="717.5967">status()</text><polygon fill="#181818" points="38.5,750.1504,28.5,754.1504,38.5,758.1504,34.5,754.1504" style="stroke:#181818;stroke-width:1.0;"/><line style="stroke:#181818;stroke-width:1.0;stroke-dasharray:2.0,2.0;" x1="32.5" x2="197.5" y1="754.1504" y2="754.1504"/><text fill="#000000" font-family="sans-serif" font-size="13" lengthAdjust="spacing" textLength="92" x="44.5" y="748.8877">Shows list/Error</text><!--SRC=[dLHDJy904BtpA_Oc99O6ZZsGY13ZWKW0JyR3sevbJUckkrk8CVvtTsdhVh1KzDAqdJTlFjzSRQLa8ebZLk1ILhjYcD9TBE2zWZA5A2CuvtZNw-5KKeuU1V0UmroIb325H-lbZVEzc3cV30k1SrZHIe9Zk5_MbbjQIawBmgDbdTRMUGryJr88UOPChTiA60rcwVzly0lCWZoppSEnBsIF9TIjqGyKJNHRK8Bku8V3u7J7j3bIC0rFq4etMqY1CYnnBmC7wZ9g1FfygKX1iZ8VNIFzcf4o7ty58apKE7GQymsAanOvCgzZuwFcvWLMheh07k25LDxCBN_5TpftnPg3R7wBASW3G3cUDhoYFp3CWQK9y9ci_nB4gZuGnY_EMSn00jw6_gF6Te5z9bFTnTo1qbfslouZ6p-eBHuLyfMKsVIZiuAZd1mtQvz-PR4r6IYWqQh57MfCy-FfsQPWfmnMdKRpobzIfN4xA-iYM42hFVecs9QEh1JKJSmvDsvUqUHapSxpX6TfBwWdx0In3XMrskSWXc-2bdqJTp0K4ilAMxAp6cckG7kNEdphux6OHVNb2sFLpJfxLHNzUaiF0XL4o7ZEEUNUWVi6]--></g></svg>