<?xml version="1.0" encoding="us-ascii" standalone="no"?><svg xmlns="http://www.w3.org/2000/svg" xmlns:xlink="http://www.w3.org/1999/xlink" contentStyleType="text/css" height="1551px" preserveAspectRatio="none" style="width:2173px;height:1551px;background:#FFFFFF;" version="1.1" viewBox="0 0 2173 1551" width="2173px" zoomAndPan="magnify"><defs/><g><rect fill="#FFFFFF" height="1333.1855" style="stroke:#181818;stroke-width:1.0;" width="10" x="364.5" y="116.9121"/><rect fill="#FFFFFF" height="31.291" style="stroke:#181818;stroke-width:1.0;" width="10" x="494.5" y="148.2031"/><rect fill="#FFFFFF" height="1256.6035" style="stroke:#181818;stroke-width:1.0;" width="10" x="636.5" y="179.4941"/><rect fill="#FFFFFF" height="31.291" style="stroke:#181818;stroke-width:1.0;" width="10" x="771" y="210.7852"/><rect fill="#FFFFFF" height="1162.7305" style="stroke:#181818;stroke-width:1.0;" width="10" x="898" y="242.0762"/><rect fill="#FFFFFF" height="61.291" style="stroke:#181818;stroke-width:1.0;" width="10" x="1050" y="768.8594"/><rect fill="#FFFFFF" height="61.291" style="stroke:#181818;stroke-width:1.0;" width="10" x="1050" y="892.7324"/><rect fill="#FFFFFF" height="61.291" style="stroke:#181818;stroke-width:1.0;" width="10" x="1050" y="1016.6055"/><rect fill="#FFFFFF" height="31.291" style="stroke:#181818;stroke-width:1.0;" width="10" x="1050" y="1140.4785"/><rect fill="#FFFFFF" height="61.291" style="stroke:#181818;stroke-width:1.0;" width="10" x="1202" y="800.1504"/><rect fill="#FFFFFF" height="61.291" style="stroke:#181818;stroke-width:1.0;" width="10" x="1202" y="924.0234"/><rect fill="#FFFFFF" height="61.291" style="stroke:#181818;stroke-width:1.0;" width="10" x="1202" y="1047.8965"/><rect fill="#FFFFFF" height="125.1641" style="stroke:#181818;stroke-width:1.0;" width="10" x="1202" y="1171.7695"/><rect fill="#FFFFFF" height="31.291" style="stroke:#181818;stroke-width:1.0;" width="10" x="1319" y="1234.3516"/><rect fill="#FFFFFF" height="45.291" style="stroke:#181818;stroke-width:1.0;" width="10" x="1319" y="1328.2246"/><rect fill="#FFFFFF" height="61.291" style="stroke:#181818;stroke-width:1.0;" width="10" x="1824.5" y="273.3672"/><rect fill="#FFFFFF" height="61.291" style="stroke:#181818;stroke-width:1.0;" width="10" x="1824.5" y="397.2402"/><rect fill="#FFFFFF" height="61.291" style="stroke:#181818;stroke-width:1.0;" width="10" x="1927" y="521.1133"/><rect fill="#FFFFFF" height="61.291" style="stroke:#181818;stroke-width:1.0;" width="10" x="1927" y="644.9863"/><rect fill="#FFFFFF" height="61.291" style="stroke:#181818;stroke-width:1.0;" width="10" x="2027.5" y="304.6582"/><rect fill="#FFFFFF" height="61.291" style="stroke:#181818;stroke-width:1.0;" width="10" x="2027.5" y="428.5313"/><rect fill="#FFFFFF" height="61.291" style="stroke:#181818;stroke-width:1.0;" width="10" x="2124" y="552.4043"/><rect fill="#FFFFFF" height="61.291" style="stroke:#181818;stroke-width:1.0;" width="10" x="2124" y="676.2773"/><line style="stroke:#181818;stroke-width:0.5;stroke-dasharray:5.0,5.0;" x1="22" x2="22" y1="83.6211" y2="1468.0977"/><line style="stroke:#181818;stroke-width:0.5;stroke-dasharray:5.0,5.0;" x1="369.5" x2="369.5" y1="83.6211" y2="1468.0977"/><line style="stroke:#181818;stroke-width:0.5;stroke-dasharray:5.0,5.0;" x1="499.5" x2="499.5" y1="83.6211" y2="1468.0977"/><line style="stroke:#181818;stroke-width:0.5;stroke-dasharray:5.0,5.0;" x1="641.5" x2="641.5" y1="83.6211" y2="1468.0977"/><line style="stroke:#181818;stroke-width:0.5;stroke-dasharray:5.0,5.0;" x1="775.5" x2="775.5" y1="83.6211" y2="1468.0977"/><line style="stroke:#181818;stroke-width:0.5;stroke-dasharray:5.0,5.0;" x1="902.5" x2="902.5" y1="83.6211" y2="1468.0977"/><line style="stroke:#181818;stroke-width:0.5;stroke-dasharray:5.0,5.0;" x1="1055" x2="1055" y1="83.6211" y2="1468.0977"/><line style="stroke:#181818;stroke-width:0.5;stroke-dasharray:5.0,5.0;" x1="1207" x2="1207" y1="83.6211" y2="1468.0977"/><line style="stroke:#181818;stroke-width:0.5;stroke-dasharray:5.0,5.0;" x1="1324" x2="1324" y1="83.6211" y2="1468.0977"/><line style="stroke:#181818;stroke-width:0.5;stroke-dasharray:5.0,5.0;" x1="1455" x2="1455" y1="83.6211" y2="1468.0977"/><line style="stroke:#181818;stroke-width:0.5;stroke-dasharray:5.0,5.0;" x1="1597" x2="1597" y1="83.6211" y2="1468.0977"/><line style="stroke:#181818;stroke-width:0.5;stroke-dasharray:5.0,5.0;" x1="1718" x2="1718" y1="83.6211" y2="1468.0977"/><line style="stroke:#181818;stroke-width:0.5;stroke-dasharray:5.0,5.0;" x1="1829" x2="1829" y1="83.6211" y2="1468.0977"/><line style="stroke:#181818;stroke-width:0.5;stroke-dasharray:5.0,5.0;" x1="1932" x2="1932" y1="83.6211" y2="1468.0977"/><line style="stroke:#181818;stroke-width:0.5;stroke-dasharray:5.0,5.0;" x1="2032" x2="2032" y1="83.6211" y2="1468.0977"/><line style="stroke:#181818;stroke-width:0.5;stroke-dasharray:5.0,5.0;" x1="2129" x2="2129" y1="83.6211" y2="1468.0977"/><text fill="#000000" font-family="sans-serif" font-size="14" lengthAdjust="spacing" textLength="29" x="5" y="80.1074">User</text><ellipse cx="22.5" cy="13.5" fill="#E2E2F0" rx="8" ry="8" style="stroke:#181818;stroke-width:0.5;"/><path d="M22.5,21.5 L22.5,48.5 M9.5,29.5 L35.5,29.5 M22.5,48.5 L9.5,63.5 M22.5,48.5 L35.5,63.5 " fill="none" style="stroke:#181818;stroke-width:0.5;"/><text fill="#000000" font-family="sans-serif" font-size="14" lengthAdjust="spacing" textLength="29" x="5" y="1482.2051">User</text><ellipse cx="22.5" cy="1494.2188" fill="#E2E2F0" rx="8" ry="8" style="stroke:#181818;stroke-width:0.5;"/><path d="M22.5,1502.2188 L22.5,1529.2188 M9.5,1510.2188 L35.5,1510.2188 M22.5,1529.2188 L9.5,1544.2188 M22.5,1529.2188 L35.5,1544.2188 " fill="none" style="stroke:#181818;stroke-width:0.5;"/><rect fill="#E2E2F0" height="32.6211" rx="2.5" ry="2.5" style="stroke:#181818;stroke-width:0.5;" width="106" x="316.5" y="50"/><text fill="#000000" font-family="sans-serif" font-size="14" lengthAdjust="spacing" textLength="92" x="323.5" y="72.1074">passageRoute</text><rect fill="#E2E2F0" height="32.6211" rx="2.5" ry="2.5" style="stroke:#181818;stroke-width:0.5;" width="106" x="316.5" y="1467.0977"/><text fill="#000000" font-family="sans-serif" font-size="14" lengthAdjust="spacing" textLength="92" x="323.5" y="1489.2051">passageRoute</text><rect fill="#E2E2F0" height="32.6211" rx="2.5" ry="2.5" style="stroke:#181818;stroke-width:0.5;" width="134" x="432.5" y="50"/><text fill="#000000" font-family="sans-serif" font-size="14" lengthAdjust="spacing" textLength="120" x="439.5" y="72.1074">IPassageController</text><rect fill="#E2E2F0" height="32.6211" rx="2.5" ry="2.5" style="stroke:#181818;stroke-width:0.5;" width="134" x="432.5" y="1467.0977"/><text fill="#000000" font-family="sans-serif" font-size="14" lengthAdjust="spacing" textLength="120" x="439.5" y="1489.2051">IPassageController</text><rect fill="#E2E2F0" height="32.6211" rx="2.5" ry="2.5" style="stroke:#181818;stroke-width:0.5;" width="130" x="576.5" y="50"/><text fill="#000000" font-family="sans-serif" font-size="14" lengthAdjust="spacing" textLength="116" x="583.5" y="72.1074">passageController</text><rect fill="#E2E2F0" height="32.6211" rx="2.5" ry="2.5" style="stroke:#181818;stroke-width:0.5;" width="130" x="576.5" y="1467.0977"/><text fill="#000000" font-family="sans-serif" font-size="14" lengthAdjust="spacing" textLength="116" x="583.5" y="1489.2051">passageController</text><rect fill="#E2E2F0" height="32.6211" rx="2.5" ry="2.5" style="stroke:#181818;stroke-width:0.5;" width="119" x="716.5" y="50"/><text fill="#000000" font-family="sans-serif" font-size="14" lengthAdjust="spacing" textLength="105" x="723.5" y="72.1074">IPassageService</text><rect fill="#E2E2F0" height="32.6211" rx="2.5" ry="2.5" style="stroke:#181818;stroke-width:0.5;" width="119" x="716.5" y="1467.0977"/><text fill="#000000" font-family="sans-serif" font-size="14" lengthAdjust="spacing" textLength="105" x="723.5" y="1489.2051">IPassageService</text><rect fill="#E2E2F0" height="32.6211" rx="2.5" ry="2.5" style="stroke:#181818;stroke-width:0.5;" width="115" x="845.5" y="50"/><text fill="#000000" font-family="sans-serif" font-size="14" lengthAdjust="spacing" textLength="101" x="852.5" y="72.1074">passageService</text><rect fill="#E2E2F0" height="32.6211" rx="2.5" ry="2.5" style="stroke:#181818;stroke-width:0.5;" width="115" x="845.5" y="1467.0977"/><text fill="#000000" font-family="sans-serif" font-size="14" lengthAdjust="spacing" textLength="101" x="852.5" y="1489.2051">passageService</text><rect fill="#E2E2F0" height="32.6211" rx="2.5" ry="2.5" style="stroke:#181818;stroke-width:0.5;" width="106" x="1002" y="50"/><text fill="#000000" font-family="sans-serif" font-size="14" lengthAdjust="spacing" textLength="92" x="1009" y="72.1074">IPassageRepo</text><rect fill="#E2E2F0" height="32.6211" rx="2.5" ry="2.5" style="stroke:#181818;stroke-width:0.5;" width="106" x="1002" y="1467.0977"/><text fill="#000000" font-family="sans-serif" font-size="14" lengthAdjust="spacing" textLength="92" x="1009" y="1489.2051">IPassageRepo</text><rect fill="#E2E2F0" height="32.6211" rx="2.5" ry="2.5" style="stroke:#181818;stroke-width:0.5;" width="102" x="1156" y="50"/><text fill="#000000" font-family="sans-serif" font-size="14" lengthAdjust="spacing" textLength="88" x="1163" y="72.1074">passageRepo</text><rect fill="#E2E2F0" height="32.6211" rx="2.5" ry="2.5" style="stroke:#181818;stroke-width:0.5;" width="102" x="1156" y="1467.0977"/><text fill="#000000" font-family="sans-serif" font-size="14" lengthAdjust="spacing" textLength="88" x="1163" y="1489.2051">passageRepo</text><rect fill="#E2E2F0" height="32.6211" rx="2.5" ry="2.5" style="stroke:#181818;stroke-width:0.5;" width="96" x="1276" y="50"/><text fill="#000000" font-family="sans-serif" font-size="14" lengthAdjust="spacing" textLength="82" x="1283" y="72.1074">PassageMap</text><rect fill="#E2E2F0" height="32.6211" rx="2.5" ry="2.5" style="stroke:#181818;stroke-width:0.5;" width="96" x="1276" y="1467.0977"/><text fill="#000000" font-family="sans-serif" font-size="14" lengthAdjust="spacing" textLength="82" x="1283" y="1489.2051">PassageMap</text><rect fill="#E2E2F0" height="32.6211" rx="2.5" ry="2.5" style="stroke:#181818;stroke-width:0.5;" width="146" x="1382" y="50"/><text fill="#000000" font-family="sans-serif" font-size="14" lengthAdjust="spacing" textLength="132" x="1389" y="72.1074">IPassagePersistence</text><rect fill="#E2E2F0" height="32.6211" rx="2.5" ry="2.5" style="stroke:#181818;stroke-width:0.5;" width="146" x="1382" y="1467.0977"/><text fill="#000000" font-family="sans-serif" font-size="14" lengthAdjust="spacing" textLength="132" x="1389" y="1489.2051">IPassagePersistence</text><rect fill="#E2E2F0" height="32.6211" rx="2.5" ry="2.5" style="stroke:#181818;stroke-width:0.5;" width="119" x="1538" y="50"/><text fill="#000000" font-family="sans-serif" font-size="14" lengthAdjust="spacing" textLength="105" x="1545" y="72.1074">passageSchema</text><rect fill="#E2E2F0" height="32.6211" rx="2.5" ry="2.5" style="stroke:#181818;stroke-width:0.5;" width="119" x="1538" y="1467.0977"/><text fill="#000000" font-family="sans-serif" font-size="14" lengthAdjust="spacing" textLength="105" x="1545" y="1489.2051">passageSchema</text><rect fill="#E2E2F0" height="32.6211" rx="2.5" ry="2.5" style="stroke:#181818;stroke-width:0.5;" width="102" x="1667" y="50"/><text fill="#000000" font-family="sans-serif" font-size="14" lengthAdjust="spacing" textLength="88" x="1674" y="72.1074">IPassageDTO</text><rect fill="#E2E2F0" height="32.6211" rx="2.5" ry="2.5" style="stroke:#181818;stroke-width:0.5;" width="102" x="1667" y="1467.0977"/><text fill="#000000" font-family="sans-serif" font-size="14" lengthAdjust="spacing" textLength="88" x="1674" y="1489.2051">IPassageDTO</text><rect fill="#E2E2F0" height="32.6211" rx="2.5" ry="2.5" style="stroke:#181818;stroke-width:0.5;" width="101" x="1779" y="50"/><text fill="#000000" font-family="sans-serif" font-size="14" lengthAdjust="spacing" textLength="87" x="1786" y="72.1074">IBuildingRepo</text><rect fill="#E2E2F0" height="32.6211" rx="2.5" ry="2.5" style="stroke:#181818;stroke-width:0.5;" width="101" x="1779" y="1467.0977"/><text fill="#000000" font-family="sans-serif" font-size="14" lengthAdjust="spacing" textLength="87" x="1786" y="1489.2051">IBuildingRepo</text><rect fill="#E2E2F0" height="32.6211" rx="2.5" ry="2.5" style="stroke:#181818;stroke-width:0.5;" width="84" x="1890" y="50"/><text fill="#000000" font-family="sans-serif" font-size="14" lengthAdjust="spacing" textLength="70" x="1897" y="72.1074">IFloorRepo</text><rect fill="#E2E2F0" height="32.6211" rx="2.5" ry="2.5" style="stroke:#181818;stroke-width:0.5;" width="84" x="1890" y="1467.0977"/><text fill="#000000" font-family="sans-serif" font-size="14" lengthAdjust="spacing" textLength="70" x="1897" y="1489.2051">IFloorRepo</text><rect fill="#E2E2F0" height="32.6211" rx="2.5" ry="2.5" style="stroke:#181818;stroke-width:0.5;" width="97" x="1984" y="50"/><text fill="#000000" font-family="sans-serif" font-size="14" lengthAdjust="spacing" textLength="83" x="1991" y="72.1074">buildingRepo</text><rect fill="#E2E2F0" height="32.6211" rx="2.5" ry="2.5" style="stroke:#181818;stroke-width:0.5;" width="97" x="1984" y="1467.0977"/><text fill="#000000" font-family="sans-serif" font-size="14" lengthAdjust="spacing" textLength="83" x="1991" y="1489.2051">buildingRepo</text><rect fill="#E2E2F0" height="32.6211" rx="2.5" ry="2.5" style="stroke:#181818;stroke-width:0.5;" width="76" x="2091" y="50"/><text fill="#000000" font-family="sans-serif" font-size="14" lengthAdjust="spacing" textLength="62" x="2098" y="72.1074">floorRepo</text><rect fill="#E2E2F0" height="32.6211" rx="2.5" ry="2.5" style="stroke:#181818;stroke-width:0.5;" width="76" x="2091" y="1467.0977"/><text fill="#000000" font-family="sans-serif" font-size="14" lengthAdjust="spacing" textLength="62" x="2098" y="1489.2051">floorRepo</text><rect fill="#FFFFFF" height="1333.1855" style="stroke:#181818;stroke-width:1.0;" width="10" x="364.5" y="116.9121"/><rect fill="#FFFFFF" height="31.291" style="stroke:#181818;stroke-width:1.0;" width="10" x="494.5" y="148.2031"/><rect fill="#FFFFFF" height="1256.6035" style="stroke:#181818;stroke-width:1.0;" width="10" x="636.5" y="179.4941"/><rect fill="#FFFFFF" height="31.291" style="stroke:#181818;stroke-width:1.0;" width="10" x="771" y="210.7852"/><rect fill="#FFFFFF" height="1162.7305" style="stroke:#181818;stroke-width:1.0;" width="10" x="898" y="242.0762"/><rect fill="#FFFFFF" height="61.291" style="stroke:#181818;stroke-width:1.0;" width="10" x="1050" y="768.8594"/><rect fill="#FFFFFF" height="61.291" style="stroke:#181818;stroke-width:1.0;" width="10" x="1050" y="892.7324"/><rect fill="#FFFFFF" height="61.291" style="stroke:#181818;stroke-width:1.0;" width="10" x="1050" y="1016.6055"/><rect fill="#FFFFFF" height="31.291" style="stroke:#181818;stroke-width:1.0;" width="10" x="1050" y="1140.4785"/><rect fill="#FFFFFF" height="61.291" style="stroke:#181818;stroke-width:1.0;" width="10" x="1202" y="800.1504"/><rect fill="#FFFFFF" height="61.291" style="stroke:#181818;stroke-width:1.0;" width="10" x="1202" y="924.0234"/><rect fill="#FFFFFF" height="61.291" style="stroke:#181818;stroke-width:1.0;" width="10" x="1202" y="1047.8965"/><rect fill="#FFFFFF" height="125.1641" style="stroke:#181818;stroke-width:1.0;" width="10" x="1202" y="1171.7695"/><rect fill="#FFFFFF" height="31.291" style="stroke:#181818;stroke-width:1.0;" width="10" x="1319" y="1234.3516"/><rect fill="#FFFFFF" height="45.291" style="stroke:#181818;stroke-width:1.0;" width="10" x="1319" y="1328.2246"/><rect fill="#FFFFFF" height="61.291" style="stroke:#181818;stroke-width:1.0;" width="10" x="1824.5" y="273.3672"/><rect fill="#FFFFFF" height="61.291" style="stroke:#181818;stroke-width:1.0;" width="10" x="1824.5" y="397.2402"/><rect fill="#FFFFFF" height="61.291" style="stroke:#181818;stroke-width:1.0;" width="10" x="1927" y="521.1133"/><rect fill="#FFFFFF" height="61.291" style="stroke:#181818;stroke-width:1.0;" width="10" x="1927" y="644.9863"/><rect fill="#FFFFFF" height="61.291" style="stroke:#181818;stroke-width:1.0;" width="10" x="2027.5" y="304.6582"/><rect fill="#FFFFFF" height="61.291" style="stroke:#181818;stroke-width:1.0;" width="10" x="2027.5" y="428.5313"/><rect fill="#FFFFFF" height="61.291" style="stroke:#181818;stroke-width:1.0;" width="10" x="2124" y="552.4043"/><rect fill="#FFFFFF" height="61.291" style="stroke:#181818;stroke-width:1.0;" width="10" x="2124" y="676.2773"/><polygon fill="#181818" points="352.5,112.9121,362.5,116.9121,352.5,120.9121,356.5,116.9121" style="stroke:#181818;stroke-width:1.0;"/><line style="stroke:#181818;stroke-width:1.0;" x1="22.5" x2="358.5" y1="116.9121" y2="116.9121"/><text fill="#000000" font-family="sans-serif" font-size="13" lengthAdjust="spacing" textLength="323" x="29.5" y="111.6494">PUT /{id, building1,building2,pisobuilding1,pisobuilding2}</text><polygon fill="#181818" points="482.5,144.2031,492.5,148.2031,482.5,152.2031,486.5,148.2031" style="stroke:#181818;stroke-width:1.0;"/><line style="stroke:#181818;stroke-width:1.0;" x1="374.5" x2="488.5" y1="148.2031" y2="148.2031"/><text fill="#000000" font-family="sans-serif" font-size="13" lengthAdjust="spacing" textLength="98" x="381.5" y="142.9404">updatePassage()</text><polygon fill="#181818" points="624.5,175.4941,634.5,179.4941,624.5,183.4941,628.5,179.4941" style="stroke:#181818;stroke-width:1.0;"/><line style="stroke:#181818;stroke-width:1.0;" x1="499.5" x2="630.5" y1="179.4941" y2="179.4941"/><text fill="#000000" font-family="sans-serif" font-size="13" lengthAdjust="spacing" textLength="98" x="506.5" y="174.2314">updatePassage()</text><polygon fill="#181818" points="759,206.7852,769,210.7852,759,214.7852,763,210.7852" style="stroke:#181818;stroke-width:1.0;"/><line style="stroke:#181818;stroke-width:1.0;" x1="646.5" x2="765" y1="210.7852" y2="210.7852"/><text fill="#000000" font-family="sans-serif" font-size="13" lengthAdjust="spacing" textLength="98" x="653.5" y="205.5225">updatePassage()</text><polygon fill="#181818" points="886,238.0762,896,242.0762,886,246.0762,890,242.0762" style="stroke:#181818;stroke-width:1.0;"/><line style="stroke:#181818;stroke-width:1.0;" x1="776" x2="892" y1="242.0762" y2="242.0762"/><text fill="#000000" font-family="sans-serif" font-size="13" lengthAdjust="spacing" textLength="98" x="783" y="236.8135">updatePassage()</text><polygon fill="#181818" points="1812.5,269.3672,1822.5,273.3672,1812.5,277.3672,1816.5,273.3672" style="stroke:#181818;stroke-width:1.0;"/><line style="stroke:#181818;stroke-width:1.0;" x1="908" x2="1818.5" y1="273.3672" y2="273.3672"/><text fill="#000000" font-family="sans-serif" font-size="13" lengthAdjust="spacing" textLength="78" x="915" y="268.1045">findByName()</text><polygon fill="#181818" points="2015.5,300.6582,2025.5,304.6582,2015.5,308.6582,2019.5,304.6582" style="stroke:#181818;stroke-width:1.0;"/><line style="stroke:#181818;stroke-width:1.0;" x1="1834.5" x2="2021.5" y1="304.6582" y2="304.6582"/><text fill="#000000" font-family="sans-serif" font-size="13" lengthAdjust="spacing" textLength="78" x="1841.5" y="299.3955">findByName()</text><polygon fill="#181818" points="919,361.9492,909,365.9492,919,369.9492,915,365.9492" style="stroke:#181818;stroke-width:1.0;"/><line style="stroke:#181818;stroke-width:1.0;stroke-dasharray:2.0,2.0;" x1="913" x2="2031.5" y1="365.9492" y2="365.9492"/><text fill="#000000" font-family="sans-serif" font-size="13" lengthAdjust="spacing" textLength="44" x="925" y="360.6865">building</text><polygon fill="#181818" points="1812.5,393.2402,1822.5,397.2402,1812.5,401.2402,1816.5,397.2402" style="stroke:#181818;stroke-width:1.0;"/><line style="stroke:#181818;stroke-width:1.0;" x1="908" x2="1818.5" y1="397.2402" y2="397.2402"/><text fill="#000000" font-family="sans-serif" font-size="13" lengthAdjust="spacing" textLength="78" x="915" y="391.9775">findByName()</text><polygon fill="#181818" points="2015.5,424.5313,2025.5,428.5313,2015.5,432.5313,2019.5,428.5313" style="stroke:#181818;stroke-width:1.0;"/><line style="stroke:#181818;stroke-width:1.0;" x1="1834.5" x2="2021.5" y1="428.5313" y2="428.5313"/><text fill="#000000" font-family="sans-serif" font-size="13" lengthAdjust="spacing" textLength="78" x="1841.5" y="423.2686">findByName()</text><polygon fill="#181818" points="919,485.8223,909,489.8223,919,493.8223,915,489.8223" style="stroke:#181818;stroke-width:1.0;"/><line style="stroke:#181818;stroke-width:1.0;stroke-dasharray:2.0,2.0;" x1="913" x2="2031.5" y1="489.8223" y2="489.8223"/><text fill="#000000" font-family="sans-serif" font-size="13" lengthAdjust="spacing" textLength="44" x="925" y="484.5596">building</text><polygon fill="#181818" points="1915,517.1133,1925,521.1133,1915,525.1133,1919,521.1133" style="stroke:#181818;stroke-width:1.0;"/><line style="stroke:#181818;stroke-width:1.0;" x1="908" x2="1921" y1="521.1133" y2="521.1133"/><text fill="#000000" font-family="sans-serif" font-size="13" lengthAdjust="spacing" textLength="78" x="915" y="515.8506">findByName()</text><polygon fill="#181818" points="2112,548.4043,2122,552.4043,2112,556.4043,2116,552.4043" style="stroke:#181818;stroke-width:1.0;"/><line style="stroke:#181818;stroke-width:1.0;" x1="1937" x2="2118" y1="552.4043" y2="552.4043"/><text fill="#000000" font-family="sans-serif" font-size="13" lengthAdjust="spacing" textLength="78" x="1944" y="547.1416">findByName()</text><polygon fill="#181818" points="919,609.6953,909,613.6953,919,617.6953,915,613.6953" style="stroke:#181818;stroke-width:1.0;"/><line style="stroke:#181818;stroke-width:1.0;stroke-dasharray:2.0,2.0;" x1="913" x2="2128" y1="613.6953" y2="613.6953"/><text fill="#000000" font-family="sans-serif" font-size="13" lengthAdjust="spacing" textLength="24" x="925" y="608.4326">floor</text><polygon fill="#181818" points="1915,640.9863,1925,644.9863,1915,648.9863,1919,644.9863" style="stroke:#181818;stroke-width:1.0;"/><line style="stroke:#181818;stroke-width:1.0;" x1="908" x2="1921" y1="644.9863" y2="644.9863"/><text fill="#000000" font-family="sans-serif" font-size="13" lengthAdjust="spacing" textLength="78" x="915" y="639.7236">findByName()</text><polygon fill="#181818" points="2112,672.2773,2122,676.2773,2112,680.2773,2116,676.2773" style="stroke:#181818;stroke-width:1.0;"/><line style="stroke:#181818;stroke-width:1.0;" x1="1937" x2="2118" y1="676.2773" y2="676.2773"/><text fill="#000000" font-family="sans-serif" font-size="13" lengthAdjust="spacing" textLength="78" x="1944" y="671.0146">findByName()</text><polygon fill="#181818" points="919,733.5684,909,737.5684,919,741.5684,915,737.5684" style="stroke:#181818;stroke-width:1.0;"/><line style="stroke:#181818;stroke-width:1.0;stroke-dasharray:2.0,2.0;" x1="913" x2="2128" y1="737.5684" y2="737.5684"/><text fill="#000000" font-family="sans-serif" font-size="13" lengthAdjust="spacing" textLength="24" x="925" y="732.3057">floor</text><polygon fill="#181818" points="1038,764.8594,1048,768.8594,1038,772.8594,1042,768.8594" style="stroke:#181818;stroke-width:1.0;"/><line style="stroke:#181818;stroke-width:1.0;" x1="908" x2="1044" y1="768.8594" y2="768.8594"/><text fill="#000000" font-family="sans-serif" font-size="13" lengthAdjust="spacing" textLength="77" x="915" y="763.5967">findByPisos()</text><polygon fill="#181818" points="1190,796.1504,1200,800.1504,1190,804.1504,1194,800.1504" style="stroke:#181818;stroke-width:1.0;"/><line style="stroke:#181818;stroke-width:1.0;" x1="1060" x2="1196" y1="800.1504" y2="800.1504"/><text fill="#000000" font-family="sans-serif" font-size="13" lengthAdjust="spacing" textLength="77" x="1067" y="794.8877">findByPisos()</text><polygon fill="#181818" points="919,857.4414,909,861.4414,919,865.4414,915,861.4414" style="stroke:#181818;stroke-width:1.0;"/><line style="stroke:#181818;stroke-width:1.0;stroke-dasharray:2.0,2.0;" x1="913" x2="1206" y1="861.4414" y2="861.4414"/><text fill="#000000" font-family="sans-serif" font-size="13" lengthAdjust="spacing" textLength="45" x="925" y="856.1787">boolean</text><polygon fill="#181818" points="1038,888.7324,1048,892.7324,1038,896.7324,1042,892.7324" style="stroke:#181818;stroke-width:1.0;"/><line style="stroke:#181818;stroke-width:1.0;" x1="908" x2="1044" y1="892.7324" y2="892.7324"/><text fill="#000000" font-family="sans-serif" font-size="13" lengthAdjust="spacing" textLength="123" x="915" y="887.4697">findByPisosReverse()</text><polygon fill="#181818" points="1190,920.0234,1200,924.0234,1190,928.0234,1194,924.0234" style="stroke:#181818;stroke-width:1.0;"/><line style="stroke:#181818;stroke-width:1.0;" x1="1060" x2="1196" y1="924.0234" y2="924.0234"/><text fill="#000000" font-family="sans-serif" font-size="13" lengthAdjust="spacing" textLength="123" x="1067" y="918.7607">findByPisosReverse()</text><polygon fill="#181818" points="919,981.3145,909,985.3145,919,989.3145,915,985.3145" style="stroke:#181818;stroke-width:1.0;"/><line style="stroke:#181818;stroke-width:1.0;stroke-dasharray:2.0,2.0;" x1="913" x2="1206" y1="985.3145" y2="985.3145"/><text fill="#000000" font-family="sans-serif" font-size="13" lengthAdjust="spacing" textLength="45" x="925" y="980.0518">boolean</text><polygon fill="#181818" points="1038,1012.6055,1048,1016.6055,1038,1020.6055,1042,1016.6055" style="stroke:#181818;stroke-width:1.0;"/><line style="stroke:#181818;stroke-width:1.0;" x1="908" x2="1044" y1="1016.6055" y2="1016.6055"/><text fill="#000000" font-family="sans-serif" font-size="13" lengthAdjust="spacing" textLength="98" x="915" y="1011.3428">findByDomainId()</text><polygon fill="#181818" points="1190,1043.8965,1200,1047.8965,1190,1051.8965,1194,1047.8965" style="stroke:#181818;stroke-width:1.0;"/><line style="stroke:#181818;stroke-width:1.0;" x1="1060" x2="1196" y1="1047.8965" y2="1047.8965"/><text fill="#000000" font-family="sans-serif" font-size="13" lengthAdjust="spacing" textLength="98" x="1067" y="1042.6338">findByDomainId()</text><polygon fill="#181818" points="919,1105.1875,909,1109.1875,919,1113.1875,915,1109.1875" style="stroke:#181818;stroke-width:1.0;"/><line style="stroke:#181818;stroke-width:1.0;stroke-dasharray:2.0,2.0;" x1="913" x2="1206" y1="1109.1875" y2="1109.1875"/><text fill="#000000" font-family="sans-serif" font-size="13" lengthAdjust="spacing" textLength="49" x="925" y="1103.9248">passage</text><polygon fill="#181818" points="1038,1136.4785,1048,1140.4785,1038,1144.4785,1042,1140.4785" style="stroke:#181818;stroke-width:1.0;"/><line style="stroke:#181818;stroke-width:1.0;" x1="908" x2="1044" y1="1140.4785" y2="1140.4785"/><text fill="#000000" font-family="sans-serif" font-size="13" lengthAdjust="spacing" textLength="34" x="915" y="1135.2158">save()</text><polygon fill="#181818" points="1190,1167.7695,1200,1171.7695,1190,1175.7695,1194,1171.7695" style="stroke:#181818;stroke-width:1.0;"/><line style="stroke:#181818;stroke-width:1.0;" x1="1055" x2="1196" y1="1171.7695" y2="1171.7695"/><text fill="#000000" font-family="sans-serif" font-size="13" lengthAdjust="spacing" textLength="34" x="1062" y="1166.5068">save()</text><polygon fill="#181818" points="1585.5,1199.0605,1595.5,1203.0605,1585.5,1207.0605,1589.5,1203.0605" style="stroke:#181818;stroke-width:1.0;"/><line style="stroke:#181818;stroke-width:1.0;" x1="1212" x2="1591.5" y1="1203.0605" y2="1203.0605"/><text fill="#000000" font-family="sans-serif" font-size="13" lengthAdjust="spacing" textLength="52" x="1219" y="1197.7979">findOne()</text><polygon fill="#181818" points="1307,1230.3516,1317,1234.3516,1307,1238.3516,1311,1234.3516" style="stroke:#181818;stroke-width:1.0;"/><line style="stroke:#181818;stroke-width:1.0;" x1="1212" x2="1313" y1="1234.3516" y2="1234.3516"/><text fill="#000000" font-family="sans-serif" font-size="13" lengthAdjust="spacing" textLength="88" x="1219" y="1229.0889">toPersistence()</text><polygon fill="#181818" points="1223,1261.6426,1213,1265.6426,1223,1269.6426,1219,1265.6426" style="stroke:#181818;stroke-width:1.0;"/><line style="stroke:#181818;stroke-width:1.0;stroke-dasharray:2.0,2.0;" x1="1217" x2="1323" y1="1265.6426" y2="1265.6426"/><text fill="#000000" font-family="sans-serif" font-size="13" lengthAdjust="spacing" textLength="49" x="1229" y="1260.3799">passage</text><polygon fill="#181818" points="1585.5,1292.9336,1595.5,1296.9336,1585.5,1300.9336,1589.5,1296.9336" style="stroke:#181818;stroke-width:1.0;"/><line style="stroke:#181818;stroke-width:1.0;" x1="1207" x2="1591.5" y1="1296.9336" y2="1296.9336"/><text fill="#000000" font-family="sans-serif" font-size="13" lengthAdjust="spacing" textLength="44" x="1214" y="1291.6709">create()</text><polygon fill="#181818" points="1307,1324.2246,1317,1328.2246,1307,1332.2246,1311,1328.2246" style="stroke:#181818;stroke-width:1.0;"/><line style="stroke:#181818;stroke-width:1.0;" x1="908" x2="1313" y1="1328.2246" y2="1328.2246"/><text fill="#000000" font-family="sans-serif" font-size="13" lengthAdjust="spacing" textLength="45" x="915" y="1322.9619">toDTO()</text><polygon fill="#181818" points="1706,1338.2246,1716,1342.2246,1706,1346.2246,1710,1342.2246" style="stroke:#181818;stroke-width:1.0;"/><line style="stroke:#181818;stroke-width:1.0;" x1="1329" x2="1712" y1="1342.2246" y2="1342.2246"/><polygon fill="#181818" points="919,1369.5156,909,1373.5156,919,1377.5156,915,1373.5156" style="stroke:#181818;stroke-width:1.0;"/><line style="stroke:#181818;stroke-width:1.0;stroke-dasharray:2.0,2.0;" x1="913" x2="1323" y1="1373.5156" y2="1373.5156"/><text fill="#000000" font-family="sans-serif" font-size="13" lengthAdjust="spacing" textLength="75" x="925" y="1368.2529">passageDTO</text><polygon fill="#181818" points="657.5,1400.8066,647.5,1404.8066,657.5,1408.8066,653.5,1404.8066" style="stroke:#181818;stroke-width:1.0;"/><line style="stroke:#181818;stroke-width:1.0;stroke-dasharray:2.0,2.0;" x1="651.5" x2="902" y1="1404.8066" y2="1404.8066"/><text fill="#000000" font-family="sans-serif" font-size="13" lengthAdjust="spacing" textLength="75" x="663.5" y="1399.5439">passageDTO</text><polygon fill="#181818" points="385.5,1432.0977,375.5,1436.0977,385.5,1440.0977,381.5,1436.0977" style="stroke:#181818;stroke-width:1.0;"/><line style="stroke:#181818;stroke-width:1.0;stroke-dasharray:2.0,2.0;" x1="379.5" x2="640.5" y1="1436.0977" y2="1436.0977"/><text fill="#000000" font-family="sans-serif" font-size="13" lengthAdjust="spacing" textLength="177" x="391.5" y="1430.835">res.json(passageDTO).status()</text><polygon fill="#181818" points="33.5,1446.0977,23.5,1450.0977,33.5,1454.0977,29.5,1450.0977" style="stroke:#181818;stroke-width:1.0;"/><line style="stroke:#181818;stroke-width:1.0;stroke-dasharray:2.0,2.0;" x1="27.5" x2="368.5" y1="1450.0977" y2="1450.0977"/><!--SRC=[vLTDJ-Cm4BttL_Ys8FL3SCo10ukGUc2fkl03J38jHedjjPrAQBN_VHsQn6Dd4bN00UtU6dlUytlZwMJoxTavRRFLIfTSkhegbxcgLXP-rI1pM1I2xmslPZEUEsNOemKpqzmuaGljuvdcrl8zR5Nj8DfORuuxtvLqHfKbZHlPxS0_mHn43XIIskfWMz2AL9ckj_5tN9Cy6p1MMDSaWfIGFqF5IUJDmtsyVbsBiX1oFv2mlYsLCeFbfx7uNHy-Qow3BQwYEyZOvl61hNwBOjvpNCoxNvTpBQmAw_Zfyazpn-B07QIt6XwQuuOtop9Mwy83svspyq15r05145n4h0FQ0gQ8K_rHTH579cLsYeskx59eC31EHeZlw5BbeRhJKw9AyeViX2okNt_mAfORrLkCyIHFft149OYrHzmHrO9AGnU1EPBo_ZzDzl_ySOUXEQ1eZ-sxm1Woj0biAj3j0XjbvsqRGtUeI_sxHj3xexUoyJtIKgtWw0P3K2-UPC2l8w8fO7KJ5QTK2LnY0Zt4d-Hk2mV_feEFcoI8lf3N6rLn8TV5XtnI99_YiLrudyUCMNvuxmMsq37bKt8ImkD4rERgNZQiIM2Ok7oKKsZ2mkBHN8O0Yu5o8cVHI3UkCMEv0HyV-vvEUABTptWdQBwAPaBQpQ08cj19JxsgaS69vg672pmJ9TEaPp9WbozMoRD0URwqZhlQahaRpbpjuEYftxuUY7Gt0Ny1]--></g></svg>