<?xml version="1.0" encoding="us-ascii" standalone="no"?><svg xmlns="http://www.w3.org/2000/svg" xmlns:xlink="http://www.w3.org/1999/xlink" contentStyleType="text/css" height="746px" preserveAspectRatio="none" style="width:1552px;height:746px;background:#FFFFFF;" version="1.1" viewBox="0 0 1552 746" width="1552px" zoomAndPan="magnify"><defs/><g><rect fill="#FFFFFF" height="528.6563" style="stroke:#181818;stroke-width:1.0;" width="10" x="133.5" y="116.9121"/><rect fill="#FFFFFF" height="31.291" style="stroke:#181818;stroke-width:1.0;" width="10" x="263.5" y="148.2031"/><rect fill="#FFFFFF" height="452.0742" style="stroke:#181818;stroke-width:1.0;" width="10" x="405.5" y="179.4941"/><rect fill="#FFFFFF" height="31.291" style="stroke:#181818;stroke-width:1.0;" width="10" x="540" y="210.7852"/><rect fill="#FFFFFF" height="358.2012" style="stroke:#181818;stroke-width:1.0;" width="10" x="667" y="242.0762"/><rect fill="#FFFFFF" height="31.291" style="stroke:#181818;stroke-width:1.0;" width="10" x="787.5" y="335.9492"/><rect fill="#FFFFFF" height="125.1641" style="stroke:#181818;stroke-width:1.0;" width="10" x="901.5" y="367.2402"/><rect fill="#FFFFFF" height="31.291" style="stroke:#181818;stroke-width:1.0;" width="10" x="1018.5" y="429.8223"/><rect fill="#FFFFFF" height="45.291" style="stroke:#181818;stroke-width:1.0;" width="10" x="1018.5" y="523.6953"/><rect fill="#FFFFFF" height="31.291" style="stroke:#181818;stroke-width:1.0;" width="10" x="1395.5" y="273.3672"/><line style="stroke:#181818;stroke-width:0.5;stroke-dasharray:5.0,5.0;" x1="22" x2="22" y1="83.6211" y2="663.5684"/><line style="stroke:#181818;stroke-width:0.5;stroke-dasharray:5.0,5.0;" x1="138.5" x2="138.5" y1="83.6211" y2="663.5684"/><line style="stroke:#181818;stroke-width:0.5;stroke-dasharray:5.0,5.0;" x1="268.5" x2="268.5" y1="83.6211" y2="663.5684"/><line style="stroke:#181818;stroke-width:0.5;stroke-dasharray:5.0,5.0;" x1="410.5" x2="410.5" y1="83.6211" y2="663.5684"/><line style="stroke:#181818;stroke-width:0.5;stroke-dasharray:5.0,5.0;" x1="544.5" x2="544.5" y1="83.6211" y2="663.5684"/><line style="stroke:#181818;stroke-width:0.5;stroke-dasharray:5.0,5.0;" x1="671.5" x2="671.5" y1="83.6211" y2="663.5684"/><line style="stroke:#181818;stroke-width:0.5;stroke-dasharray:5.0,5.0;" x1="792.5" x2="792.5" y1="83.6211" y2="663.5684"/><line style="stroke:#181818;stroke-width:0.5;stroke-dasharray:5.0,5.0;" x1="906.5" x2="906.5" y1="83.6211" y2="663.5684"/><line style="stroke:#181818;stroke-width:0.5;stroke-dasharray:5.0,5.0;" x1="1023.5" x2="1023.5" y1="83.6211" y2="663.5684"/><line style="stroke:#181818;stroke-width:0.5;stroke-dasharray:5.0,5.0;" x1="1154.5" x2="1154.5" y1="83.6211" y2="663.5684"/><line style="stroke:#181818;stroke-width:0.5;stroke-dasharray:5.0,5.0;" x1="1296.5" x2="1296.5" y1="83.6211" y2="663.5684"/><line style="stroke:#181818;stroke-width:0.5;stroke-dasharray:5.0,5.0;" x1="1400.5" x2="1400.5" y1="83.6211" y2="663.5684"/><line style="stroke:#181818;stroke-width:0.5;stroke-dasharray:5.0,5.0;" x1="1495.5" x2="1495.5" y1="83.6211" y2="663.5684"/><text fill="#000000" font-family="sans-serif" font-size="14" lengthAdjust="spacing" textLength="29" x="5" y="80.1074">User</text><ellipse cx="22.5" cy="13.5" fill="#E2E2F0" rx="8" ry="8" style="stroke:#181818;stroke-width:0.5;"/><path d="M22.5,21.5 L22.5,48.5 M9.5,29.5 L35.5,29.5 M22.5,48.5 L9.5,63.5 M22.5,48.5 L35.5,63.5 " fill="none" style="stroke:#181818;stroke-width:0.5;"/><text fill="#000000" font-family="sans-serif" font-size="14" lengthAdjust="spacing" textLength="29" x="5" y="677.6758">User</text><ellipse cx="22.5" cy="689.6895" fill="#E2E2F0" rx="8" ry="8" style="stroke:#181818;stroke-width:0.5;"/><path d="M22.5,697.6895 L22.5,724.6895 M9.5,705.6895 L35.5,705.6895 M22.5,724.6895 L9.5,739.6895 M22.5,724.6895 L35.5,739.6895 " fill="none" style="stroke:#181818;stroke-width:0.5;"/><rect fill="#E2E2F0" height="32.6211" rx="2.5" ry="2.5" style="stroke:#181818;stroke-width:0.5;" width="106" x="85.5" y="50"/><text fill="#000000" font-family="sans-serif" font-size="14" lengthAdjust="spacing" textLength="92" x="92.5" y="72.1074">passageRoute</text><rect fill="#E2E2F0" height="32.6211" rx="2.5" ry="2.5" style="stroke:#181818;stroke-width:0.5;" width="106" x="85.5" y="662.5684"/><text fill="#000000" font-family="sans-serif" font-size="14" lengthAdjust="spacing" textLength="92" x="92.5" y="684.6758">passageRoute</text><rect fill="#E2E2F0" height="32.6211" rx="2.5" ry="2.5" style="stroke:#181818;stroke-width:0.5;" width="134" x="201.5" y="50"/><text fill="#000000" font-family="sans-serif" font-size="14" lengthAdjust="spacing" textLength="120" x="208.5" y="72.1074">IPassageController</text><rect fill="#E2E2F0" height="32.6211" rx="2.5" ry="2.5" style="stroke:#181818;stroke-width:0.5;" width="134" x="201.5" y="662.5684"/><text fill="#000000" font-family="sans-serif" font-size="14" lengthAdjust="spacing" textLength="120" x="208.5" y="684.6758">IPassageController</text><rect fill="#E2E2F0" height="32.6211" rx="2.5" ry="2.5" style="stroke:#181818;stroke-width:0.5;" width="130" x="345.5" y="50"/><text fill="#000000" font-family="sans-serif" font-size="14" lengthAdjust="spacing" textLength="116" x="352.5" y="72.1074">passageController</text><rect fill="#E2E2F0" height="32.6211" rx="2.5" ry="2.5" style="stroke:#181818;stroke-width:0.5;" width="130" x="345.5" y="662.5684"/><text fill="#000000" font-family="sans-serif" font-size="14" lengthAdjust="spacing" textLength="116" x="352.5" y="684.6758">passageController</text><rect fill="#E2E2F0" height="32.6211" rx="2.5" ry="2.5" style="stroke:#181818;stroke-width:0.5;" width="119" x="485.5" y="50"/><text fill="#000000" font-family="sans-serif" font-size="14" lengthAdjust="spacing" textLength="105" x="492.5" y="72.1074">IPassageService</text><rect fill="#E2E2F0" height="32.6211" rx="2.5" ry="2.5" style="stroke:#181818;stroke-width:0.5;" width="119" x="485.5" y="662.5684"/><text fill="#000000" font-family="sans-serif" font-size="14" lengthAdjust="spacing" textLength="105" x="492.5" y="684.6758">IPassageService</text><rect fill="#E2E2F0" height="32.6211" rx="2.5" ry="2.5" style="stroke:#181818;stroke-width:0.5;" width="115" x="614.5" y="50"/><text fill="#000000" font-family="sans-serif" font-size="14" lengthAdjust="spacing" textLength="101" x="621.5" y="72.1074">passageService</text><rect fill="#E2E2F0" height="32.6211" rx="2.5" ry="2.5" style="stroke:#181818;stroke-width:0.5;" width="115" x="614.5" y="662.5684"/><text fill="#000000" font-family="sans-serif" font-size="14" lengthAdjust="spacing" textLength="101" x="621.5" y="684.6758">passageService</text><rect fill="#E2E2F0" height="32.6211" rx="2.5" ry="2.5" style="stroke:#181818;stroke-width:0.5;" width="106" x="739.5" y="50"/><text fill="#000000" font-family="sans-serif" font-size="14" lengthAdjust="spacing" textLength="92" x="746.5" y="72.1074">IPassageRepo</text><rect fill="#E2E2F0" height="32.6211" rx="2.5" ry="2.5" style="stroke:#181818;stroke-width:0.5;" width="106" x="739.5" y="662.5684"/><text fill="#000000" font-family="sans-serif" font-size="14" lengthAdjust="spacing" textLength="92" x="746.5" y="684.6758">IPassageRepo</text><rect fill="#E2E2F0" height="32.6211" rx="2.5" ry="2.5" style="stroke:#181818;stroke-width:0.5;" width="102" x="855.5" y="50"/><text fill="#000000" font-family="sans-serif" font-size="14" lengthAdjust="spacing" textLength="88" x="862.5" y="72.1074">passageRepo</text><rect fill="#E2E2F0" height="32.6211" rx="2.5" ry="2.5" style="stroke:#181818;stroke-width:0.5;" width="102" x="855.5" y="662.5684"/><text fill="#000000" font-family="sans-serif" font-size="14" lengthAdjust="spacing" textLength="88" x="862.5" y="684.6758">passageRepo</text><rect fill="#E2E2F0" height="32.6211" rx="2.5" ry="2.5" style="stroke:#181818;stroke-width:0.5;" width="96" x="975.5" y="50"/><text fill="#000000" font-family="sans-serif" font-size="14" lengthAdjust="spacing" textLength="82" x="982.5" y="72.1074">PassageMap</text><rect fill="#E2E2F0" height="32.6211" rx="2.5" ry="2.5" style="stroke:#181818;stroke-width:0.5;" width="96" x="975.5" y="662.5684"/><text fill="#000000" font-family="sans-serif" font-size="14" lengthAdjust="spacing" textLength="82" x="982.5" y="684.6758">PassageMap</text><rect fill="#E2E2F0" height="32.6211" rx="2.5" ry="2.5" style="stroke:#181818;stroke-width:0.5;" width="146" x="1081.5" y="50"/><text fill="#000000" font-family="sans-serif" font-size="14" lengthAdjust="spacing" textLength="132" x="1088.5" y="72.1074">IPassagePersistence</text><rect fill="#E2E2F0" height="32.6211" rx="2.5" ry="2.5" style="stroke:#181818;stroke-width:0.5;" width="146" x="1081.5" y="662.5684"/><text fill="#000000" font-family="sans-serif" font-size="14" lengthAdjust="spacing" textLength="132" x="1088.5" y="684.6758">IPassagePersistence</text><rect fill="#E2E2F0" height="32.6211" rx="2.5" ry="2.5" style="stroke:#181818;stroke-width:0.5;" width="119" x="1237.5" y="50"/><text fill="#000000" font-family="sans-serif" font-size="14" lengthAdjust="spacing" textLength="105" x="1244.5" y="72.1074">passageSchema</text><rect fill="#E2E2F0" height="32.6211" rx="2.5" ry="2.5" style="stroke:#181818;stroke-width:0.5;" width="119" x="1237.5" y="662.5684"/><text fill="#000000" font-family="sans-serif" font-size="14" lengthAdjust="spacing" textLength="105" x="1244.5" y="684.6758">passageSchema</text><rect fill="#E2E2F0" height="32.6211" rx="2.5" ry="2.5" style="stroke:#181818;stroke-width:0.5;" width="68" x="1366.5" y="50"/><text fill="#000000" font-family="sans-serif" font-size="14" lengthAdjust="spacing" textLength="54" x="1373.5" y="72.1074">passage</text><rect fill="#E2E2F0" height="32.6211" rx="2.5" ry="2.5" style="stroke:#181818;stroke-width:0.5;" width="68" x="1366.5" y="662.5684"/><text fill="#000000" font-family="sans-serif" font-size="14" lengthAdjust="spacing" textLength="54" x="1373.5" y="684.6758">passage</text><rect fill="#E2E2F0" height="32.6211" rx="2.5" ry="2.5" style="stroke:#181818;stroke-width:0.5;" width="102" x="1444.5" y="50"/><text fill="#000000" font-family="sans-serif" font-size="14" lengthAdjust="spacing" textLength="88" x="1451.5" y="72.1074">IPassageDTO</text><rect fill="#E2E2F0" height="32.6211" rx="2.5" ry="2.5" style="stroke:#181818;stroke-width:0.5;" width="102" x="1444.5" y="662.5684"/><text fill="#000000" font-family="sans-serif" font-size="14" lengthAdjust="spacing" textLength="88" x="1451.5" y="684.6758">IPassageDTO</text><rect fill="#FFFFFF" height="528.6563" style="stroke:#181818;stroke-width:1.0;" width="10" x="133.5" y="116.9121"/><rect fill="#FFFFFF" height="31.291" style="stroke:#181818;stroke-width:1.0;" width="10" x="263.5" y="148.2031"/><rect fill="#FFFFFF" height="452.0742" style="stroke:#181818;stroke-width:1.0;" width="10" x="405.5" y="179.4941"/><rect fill="#FFFFFF" height="31.291" style="stroke:#181818;stroke-width:1.0;" width="10" x="540" y="210.7852"/><rect fill="#FFFFFF" height="358.2012" style="stroke:#181818;stroke-width:1.0;" width="10" x="667" y="242.0762"/><rect fill="#FFFFFF" height="31.291" style="stroke:#181818;stroke-width:1.0;" width="10" x="787.5" y="335.9492"/><rect fill="#FFFFFF" height="125.1641" style="stroke:#181818;stroke-width:1.0;" width="10" x="901.5" y="367.2402"/><rect fill="#FFFFFF" height="31.291" style="stroke:#181818;stroke-width:1.0;" width="10" x="1018.5" y="429.8223"/><rect fill="#FFFFFF" height="45.291" style="stroke:#181818;stroke-width:1.0;" width="10" x="1018.5" y="523.6953"/><rect fill="#FFFFFF" height="31.291" style="stroke:#181818;stroke-width:1.0;" width="10" x="1395.5" y="273.3672"/><polygon fill="#181818" points="121.5,112.9121,131.5,116.9121,121.5,120.9121,125.5,116.9121" style="stroke:#181818;stroke-width:1.0;"/><line style="stroke:#181818;stroke-width:1.0;" x1="22.5" x2="127.5" y1="116.9121" y2="116.9121"/><text fill="#000000" font-family="sans-serif" font-size="13" lengthAdjust="spacing" textLength="92" x="29.5" y="111.6494">update passage</text><polygon fill="#181818" points="251.5,144.2031,261.5,148.2031,251.5,152.2031,255.5,148.2031" style="stroke:#181818;stroke-width:1.0;"/><line style="stroke:#181818;stroke-width:1.0;" x1="143.5" x2="257.5" y1="148.2031" y2="148.2031"/><text fill="#000000" font-family="sans-serif" font-size="13" lengthAdjust="spacing" textLength="98" x="150.5" y="142.9404">updatePassage()</text><polygon fill="#181818" points="393.5,175.4941,403.5,179.4941,393.5,183.4941,397.5,179.4941" style="stroke:#181818;stroke-width:1.0;"/><line style="stroke:#181818;stroke-width:1.0;" x1="268.5" x2="399.5" y1="179.4941" y2="179.4941"/><text fill="#000000" font-family="sans-serif" font-size="13" lengthAdjust="spacing" textLength="98" x="275.5" y="174.2314">updatePassage()</text><polygon fill="#181818" points="528,206.7852,538,210.7852,528,214.7852,532,210.7852" style="stroke:#181818;stroke-width:1.0;"/><line style="stroke:#181818;stroke-width:1.0;" x1="415.5" x2="534" y1="210.7852" y2="210.7852"/><text fill="#000000" font-family="sans-serif" font-size="13" lengthAdjust="spacing" textLength="98" x="422.5" y="205.5225">updatePassage()</text><polygon fill="#181818" points="655,238.0762,665,242.0762,655,246.0762,659,242.0762" style="stroke:#181818;stroke-width:1.0;"/><line style="stroke:#181818;stroke-width:1.0;" x1="545" x2="661" y1="242.0762" y2="242.0762"/><text fill="#000000" font-family="sans-serif" font-size="13" lengthAdjust="spacing" textLength="98" x="552" y="236.8135">updatePassage()</text><polygon fill="#181818" points="1383.5,269.3672,1393.5,273.3672,1383.5,277.3672,1387.5,273.3672" style="stroke:#181818;stroke-width:1.0;"/><line style="stroke:#181818;stroke-width:1.0;" x1="677" x2="1389.5" y1="273.3672" y2="273.3672"/><text fill="#000000" font-family="sans-serif" font-size="13" lengthAdjust="spacing" textLength="44" x="684" y="268.1045">create()</text><polygon fill="#181818" points="688,300.6582,678,304.6582,688,308.6582,684,304.6582" style="stroke:#181818;stroke-width:1.0;"/><line style="stroke:#181818;stroke-width:1.0;" x1="682" x2="1399.5" y1="304.6582" y2="304.6582"/><text fill="#000000" font-family="sans-serif" font-size="13" lengthAdjust="spacing" textLength="49" x="694" y="299.3955">passage</text><polygon fill="#181818" points="775.5,331.9492,785.5,335.9492,775.5,339.9492,779.5,335.9492" style="stroke:#181818;stroke-width:1.0;"/><line style="stroke:#181818;stroke-width:1.0;" x1="677" x2="781.5" y1="335.9492" y2="335.9492"/><text fill="#000000" font-family="sans-serif" font-size="13" lengthAdjust="spacing" textLength="34" x="684" y="330.6865">save()</text><polygon fill="#181818" points="889.5,363.2402,899.5,367.2402,889.5,371.2402,893.5,367.2402" style="stroke:#181818;stroke-width:1.0;"/><line style="stroke:#181818;stroke-width:1.0;" x1="792.5" x2="895.5" y1="367.2402" y2="367.2402"/><text fill="#000000" font-family="sans-serif" font-size="13" lengthAdjust="spacing" textLength="34" x="799.5" y="361.9775">save()</text><polygon fill="#181818" points="1285,394.5313,1295,398.5313,1285,402.5313,1289,398.5313" style="stroke:#181818;stroke-width:1.0;"/><line style="stroke:#181818;stroke-width:1.0;" x1="911.5" x2="1291" y1="398.5313" y2="398.5313"/><text fill="#000000" font-family="sans-serif" font-size="13" lengthAdjust="spacing" textLength="52" x="918.5" y="393.2686">findOne()</text><polygon fill="#181818" points="1006.5,425.8223,1016.5,429.8223,1006.5,433.8223,1010.5,429.8223" style="stroke:#181818;stroke-width:1.0;"/><line style="stroke:#181818;stroke-width:1.0;" x1="911.5" x2="1012.5" y1="429.8223" y2="429.8223"/><text fill="#000000" font-family="sans-serif" font-size="13" lengthAdjust="spacing" textLength="88" x="918.5" y="424.5596">toPersistence()</text><polygon fill="#181818" points="922.5,457.1133,912.5,461.1133,922.5,465.1133,918.5,461.1133" style="stroke:#181818;stroke-width:1.0;"/><line style="stroke:#181818;stroke-width:1.0;" x1="916.5" x2="1022.5" y1="461.1133" y2="461.1133"/><text fill="#000000" font-family="sans-serif" font-size="13" lengthAdjust="spacing" textLength="49" x="928.5" y="455.8506">passage</text><polygon fill="#181818" points="1285,488.4043,1295,492.4043,1285,496.4043,1289,492.4043" style="stroke:#181818;stroke-width:1.0;"/><line style="stroke:#181818;stroke-width:1.0;" x1="906.5" x2="1291" y1="492.4043" y2="492.4043"/><text fill="#000000" font-family="sans-serif" font-size="13" lengthAdjust="spacing" textLength="44" x="913.5" y="487.1416">create()</text><polygon fill="#181818" points="1006.5,519.6953,1016.5,523.6953,1006.5,527.6953,1010.5,523.6953" style="stroke:#181818;stroke-width:1.0;"/><line style="stroke:#181818;stroke-width:1.0;" x1="677" x2="1012.5" y1="523.6953" y2="523.6953"/><text fill="#000000" font-family="sans-serif" font-size="13" lengthAdjust="spacing" textLength="45" x="684" y="518.4326">toDTO()</text><polygon fill="#181818" points="1483.5,533.6953,1493.5,537.6953,1483.5,541.6953,1487.5,537.6953" style="stroke:#181818;stroke-width:1.0;"/><line style="stroke:#181818;stroke-width:1.0;" x1="1028.5" x2="1489.5" y1="537.6953" y2="537.6953"/><polygon fill="#181818" points="688,564.9863,678,568.9863,688,572.9863,684,568.9863" style="stroke:#181818;stroke-width:1.0;"/><line style="stroke:#181818;stroke-width:1.0;" x1="682" x2="1022.5" y1="568.9863" y2="568.9863"/><text fill="#000000" font-family="sans-serif" font-size="13" lengthAdjust="spacing" textLength="75" x="694" y="563.7236">passageDTO</text><polygon fill="#181818" points="426.5,596.2773,416.5,600.2773,426.5,604.2773,422.5,600.2773" style="stroke:#181818;stroke-width:1.0;"/><line style="stroke:#181818;stroke-width:1.0;" x1="420.5" x2="671" y1="600.2773" y2="600.2773"/><text fill="#000000" font-family="sans-serif" font-size="13" lengthAdjust="spacing" textLength="75" x="432.5" y="595.0146">passageDTO</text><polygon fill="#181818" points="154.5,627.5684,144.5,631.5684,154.5,635.5684,150.5,631.5684" style="stroke:#181818;stroke-width:1.0;"/><line style="stroke:#181818;stroke-width:1.0;" x1="148.5" x2="409.5" y1="631.5684" y2="631.5684"/><text fill="#000000" font-family="sans-serif" font-size="13" lengthAdjust="spacing" textLength="177" x="160.5" y="626.3057">res.json(passageDTO).status()</text><polygon fill="#181818" points="33.5,641.5684,23.5,645.5684,33.5,649.5684,29.5,645.5684" style="stroke:#181818;stroke-width:1.0;"/><line style="stroke:#181818;stroke-width:1.0;" x1="27.5" x2="137.5" y1="645.5684" y2="645.5684"/><!--SRC=[ZLMnSiCW3Dtz5MnDXiIxXoxjqg6NNDf-08VLX9vj2E1yVo4EGGOvbn6aztXwakoNatFQDdMjEpwuiU-sGlMrXVC8Wu1DA_dHyBwgk73Ai1yBfjBSE2cazlbCSslv4GvgT30BVEodo9iQd55TH-CMeX7y1UOY1L18AXHX1z2AL9dVt_8_kIPvzc2ij2uOGKeG9-Wv5I7PthztLHKCP9lNcMyD6tNB7TpHtcjvGHVHtNG85AN3B3BT8gjreYBwGH0aPJFMWhQ5HyIv_bcNYIUpTZzJHcn_3aq5B9CHuYDThZnDsS8hdbuOy0WiCat1b4E9YZb8J0P3Z-71RfZb5zAJwtZZ0nwqSBn32GUku6BmfeMX2AVXzvI_ScXtGs3D4jDo-Iodq39XyMW54Q0GJjWrMzvbYQX1fTUuGEHt9jrlxbEIyQQJnHJj3vaFIoedRhQOD0qzlEIQJr-JXXcmsp-hXbLYN6-juswqf77bIj-_IzT_165rYFy3]--></g></svg>