<?xml version="1.0" encoding="us-ascii" standalone="no"?><svg xmlns="http://www.w3.org/2000/svg" xmlns:xlink="http://www.w3.org/1999/xlink" contentStyleType="text/css" height="620px" preserveAspectRatio="none" style="width:1613px;height:620px;background:#FFFFFF;" version="1.1" viewBox="0 0 1613 620" width="1613px" zoomAndPan="magnify"><defs/><g><rect fill="#FFFFFF" height="411.2012" style="stroke:#181818;stroke-width:1.0;" width="10" x="189.5" y="116.9121"/><rect fill="#FFFFFF" height="31.291" style="stroke:#181818;stroke-width:1.0;" width="10" x="412.5" y="148.2031"/><rect fill="#FFFFFF" height="325.6191" style="stroke:#181818;stroke-width:1.0;" width="10" x="635.5" y="179.4941"/><rect fill="#FFFFFF" height="31.291" style="stroke:#181818;stroke-width:1.0;" width="10" x="858.5" y="210.7852"/><rect fill="#FFFFFF" height="231.7461" style="stroke:#181818;stroke-width:1.0;" width="10" x="1081.5" y="242.0762"/><rect fill="#FFFFFF" height="61.291" style="stroke:#181818;stroke-width:1.0;" width="10" x="1207.5" y="273.3672"/><rect fill="#FFFFFF" height="61.291" style="stroke:#181818;stroke-width:1.0;" width="10" x="1333.5" y="304.6582"/><rect fill="#FFFFFF" height="45.291" style="stroke:#181818;stroke-width:1.0;" width="10" x="1442.5" y="397.2402"/><line style="stroke:#181818;stroke-width:0.5;stroke-dasharray:5.0,5.0;" x1="22" x2="22" y1="83.6211" y2="537.1133"/><line style="stroke:#181818;stroke-width:0.5;stroke-dasharray:5.0,5.0;" x1="194.5" x2="194.5" y1="83.6211" y2="537.1133"/><line style="stroke:#181818;stroke-width:0.5;stroke-dasharray:5.0,5.0;" x1="417.5" x2="417.5" y1="83.6211" y2="537.1133"/><line style="stroke:#181818;stroke-width:0.5;stroke-dasharray:5.0,5.0;" x1="640.5" x2="640.5" y1="83.6211" y2="537.1133"/><line style="stroke:#181818;stroke-width:0.5;stroke-dasharray:5.0,5.0;" x1="863" x2="863" y1="83.6211" y2="537.1133"/><line style="stroke:#181818;stroke-width:0.5;stroke-dasharray:5.0,5.0;" x1="1086" x2="1086" y1="83.6211" y2="537.1133"/><line style="stroke:#181818;stroke-width:0.5;stroke-dasharray:5.0,5.0;" x1="1212.5" x2="1212.5" y1="83.6211" y2="537.1133"/><line style="stroke:#181818;stroke-width:0.5;stroke-dasharray:5.0,5.0;" x1="1338.5" x2="1338.5" y1="83.6211" y2="537.1133"/><line style="stroke:#181818;stroke-width:0.5;stroke-dasharray:5.0,5.0;" x1="1447.5" x2="1447.5" y1="83.6211" y2="537.1133"/><line style="stroke:#181818;stroke-width:0.5;stroke-dasharray:5.0,5.0;" x1="1556.5" x2="1556.5" y1="83.6211" y2="537.1133"/><text fill="#000000" font-family="sans-serif" font-size="14" lengthAdjust="spacing" textLength="29" x="5" y="80.1074">User</text><ellipse cx="22.5" cy="13.5" fill="#E2E2F0" rx="8" ry="8" style="stroke:#181818;stroke-width:0.5;"/><path d="M22.5,21.5 L22.5,48.5 M9.5,29.5 L35.5,29.5 M22.5,48.5 L9.5,63.5 M22.5,48.5 L35.5,63.5 " fill="none" style="stroke:#181818;stroke-width:0.5;"/><text fill="#000000" font-family="sans-serif" font-size="14" lengthAdjust="spacing" textLength="29" x="5" y="551.2207">User</text><ellipse cx="22.5" cy="563.2344" fill="#E2E2F0" rx="8" ry="8" style="stroke:#181818;stroke-width:0.5;"/><path d="M22.5,571.2344 L22.5,598.2344 M9.5,579.2344 L35.5,579.2344 M22.5,598.2344 L9.5,613.2344 M22.5,598.2344 L35.5,613.2344 " fill="none" style="stroke:#181818;stroke-width:0.5;"/><rect fill="#E2E2F0" height="32.6211" rx="2.5" ry="2.5" style="stroke:#181818;stroke-width:0.5;" width="106" x="141.5" y="50"/><text fill="#000000" font-family="sans-serif" font-size="14" lengthAdjust="spacing" textLength="92" x="148.5" y="72.1074">passageRoute</text><rect fill="#E2E2F0" height="32.6211" rx="2.5" ry="2.5" style="stroke:#181818;stroke-width:0.5;" width="106" x="141.5" y="536.1133"/><text fill="#000000" font-family="sans-serif" font-size="14" lengthAdjust="spacing" textLength="92" x="148.5" y="558.2207">passageRoute</text><rect fill="#E2E2F0" height="32.6211" rx="2.5" ry="2.5" style="stroke:#181818;stroke-width:0.5;" width="134" x="350.5" y="50"/><text fill="#000000" font-family="sans-serif" font-size="14" lengthAdjust="spacing" textLength="120" x="357.5" y="72.1074">IPassageController</text><rect fill="#E2E2F0" height="32.6211" rx="2.5" ry="2.5" style="stroke:#181818;stroke-width:0.5;" width="134" x="350.5" y="536.1133"/><text fill="#000000" font-family="sans-serif" font-size="14" lengthAdjust="spacing" textLength="120" x="357.5" y="558.2207">IPassageController</text><rect fill="#E2E2F0" height="32.6211" rx="2.5" ry="2.5" style="stroke:#181818;stroke-width:0.5;" width="130" x="575.5" y="50"/><text fill="#000000" font-family="sans-serif" font-size="14" lengthAdjust="spacing" textLength="116" x="582.5" y="72.1074">passageController</text><rect fill="#E2E2F0" height="32.6211" rx="2.5" ry="2.5" style="stroke:#181818;stroke-width:0.5;" width="130" x="575.5" y="536.1133"/><text fill="#000000" font-family="sans-serif" font-size="14" lengthAdjust="spacing" textLength="116" x="582.5" y="558.2207">passageController</text><rect fill="#E2E2F0" height="32.6211" rx="2.5" ry="2.5" style="stroke:#181818;stroke-width:0.5;" width="119" x="804" y="50"/><text fill="#000000" font-family="sans-serif" font-size="14" lengthAdjust="spacing" textLength="105" x="811" y="72.1074">IPassageService</text><rect fill="#E2E2F0" height="32.6211" rx="2.5" ry="2.5" style="stroke:#181818;stroke-width:0.5;" width="119" x="804" y="536.1133"/><text fill="#000000" font-family="sans-serif" font-size="14" lengthAdjust="spacing" textLength="105" x="811" y="558.2207">IPassageService</text><rect fill="#E2E2F0" height="32.6211" rx="2.5" ry="2.5" style="stroke:#181818;stroke-width:0.5;" width="115" x="1029" y="50"/><text fill="#000000" font-family="sans-serif" font-size="14" lengthAdjust="spacing" textLength="101" x="1036" y="72.1074">passageService</text><rect fill="#E2E2F0" height="32.6211" rx="2.5" ry="2.5" style="stroke:#181818;stroke-width:0.5;" width="115" x="1029" y="536.1133"/><text fill="#000000" font-family="sans-serif" font-size="14" lengthAdjust="spacing" textLength="101" x="1036" y="558.2207">passageService</text><rect fill="#E2E2F0" height="32.6211" rx="2.5" ry="2.5" style="stroke:#181818;stroke-width:0.5;" width="106" x="1159.5" y="50"/><text fill="#000000" font-family="sans-serif" font-size="14" lengthAdjust="spacing" textLength="92" x="1166.5" y="72.1074">IPassageRepo</text><rect fill="#E2E2F0" height="32.6211" rx="2.5" ry="2.5" style="stroke:#181818;stroke-width:0.5;" width="106" x="1159.5" y="536.1133"/><text fill="#000000" font-family="sans-serif" font-size="14" lengthAdjust="spacing" textLength="92" x="1166.5" y="558.2207">IPassageRepo</text><rect fill="#E2E2F0" height="32.6211" rx="2.5" ry="2.5" style="stroke:#181818;stroke-width:0.5;" width="102" x="1287.5" y="50"/><text fill="#000000" font-family="sans-serif" font-size="14" lengthAdjust="spacing" textLength="88" x="1294.5" y="72.1074">passageRepo</text><rect fill="#E2E2F0" height="32.6211" rx="2.5" ry="2.5" style="stroke:#181818;stroke-width:0.5;" width="102" x="1287.5" y="536.1133"/><text fill="#000000" font-family="sans-serif" font-size="14" lengthAdjust="spacing" textLength="88" x="1294.5" y="558.2207">passageRepo</text><rect fill="#E2E2F0" height="32.6211" rx="2.5" ry="2.5" style="stroke:#181818;stroke-width:0.5;" width="96" x="1399.5" y="50"/><text fill="#000000" font-family="sans-serif" font-size="14" lengthAdjust="spacing" textLength="82" x="1406.5" y="72.1074">PassageMap</text><rect fill="#E2E2F0" height="32.6211" rx="2.5" ry="2.5" style="stroke:#181818;stroke-width:0.5;" width="96" x="1399.5" y="536.1133"/><text fill="#000000" font-family="sans-serif" font-size="14" lengthAdjust="spacing" textLength="82" x="1406.5" y="558.2207">PassageMap</text><rect fill="#E2E2F0" height="32.6211" rx="2.5" ry="2.5" style="stroke:#181818;stroke-width:0.5;" width="102" x="1505.5" y="50"/><text fill="#000000" font-family="sans-serif" font-size="14" lengthAdjust="spacing" textLength="88" x="1512.5" y="72.1074">IPassageDTO</text><rect fill="#E2E2F0" height="32.6211" rx="2.5" ry="2.5" style="stroke:#181818;stroke-width:0.5;" width="102" x="1505.5" y="536.1133"/><text fill="#000000" font-family="sans-serif" font-size="14" lengthAdjust="spacing" textLength="88" x="1512.5" y="558.2207">IPassageDTO</text><rect fill="#FFFFFF" height="411.2012" style="stroke:#181818;stroke-width:1.0;" width="10" x="189.5" y="116.9121"/><rect fill="#FFFFFF" height="31.291" style="stroke:#181818;stroke-width:1.0;" width="10" x="412.5" y="148.2031"/><rect fill="#FFFFFF" height="325.6191" style="stroke:#181818;stroke-width:1.0;" width="10" x="635.5" y="179.4941"/><rect fill="#FFFFFF" height="31.291" style="stroke:#181818;stroke-width:1.0;" width="10" x="858.5" y="210.7852"/><rect fill="#FFFFFF" height="231.7461" style="stroke:#181818;stroke-width:1.0;" width="10" x="1081.5" y="242.0762"/><rect fill="#FFFFFF" height="61.291" style="stroke:#181818;stroke-width:1.0;" width="10" x="1207.5" y="273.3672"/><rect fill="#FFFFFF" height="61.291" style="stroke:#181818;stroke-width:1.0;" width="10" x="1333.5" y="304.6582"/><rect fill="#FFFFFF" height="45.291" style="stroke:#181818;stroke-width:1.0;" width="10" x="1442.5" y="397.2402"/><polygon fill="#181818" points="177.5,112.9121,187.5,116.9121,177.5,120.9121,181.5,116.9121" style="stroke:#181818;stroke-width:1.0;"/><line style="stroke:#181818;stroke-width:1.0;" x1="22.5" x2="183.5" y1="116.9121" y2="116.9121"/><text fill="#000000" font-family="sans-serif" font-size="13" lengthAdjust="spacing" textLength="148" x="29.5" y="111.6494">GET /:building1/:building2</text><polygon fill="#181818" points="400.5,144.2031,410.5,148.2031,400.5,152.2031,404.5,148.2031" style="stroke:#181818;stroke-width:1.0;"/><line style="stroke:#181818;stroke-width:1.0;" x1="199.5" x2="406.5" y1="148.2031" y2="148.2031"/><text fill="#000000" font-family="sans-serif" font-size="13" lengthAdjust="spacing" textLength="194" x="206.5" y="142.9404">getPassagesBetween2Buildings()</text><polygon fill="#181818" points="623.5,175.4941,633.5,179.4941,623.5,183.4941,627.5,179.4941" style="stroke:#181818;stroke-width:1.0;"/><line style="stroke:#181818;stroke-width:1.0;" x1="417.5" x2="629.5" y1="179.4941" y2="179.4941"/><text fill="#000000" font-family="sans-serif" font-size="13" lengthAdjust="spacing" textLength="194" x="424.5" y="174.2314">getPassagesBetween2Buildings()</text><polygon fill="#181818" points="846.5,206.7852,856.5,210.7852,846.5,214.7852,850.5,210.7852" style="stroke:#181818;stroke-width:1.0;"/><line style="stroke:#181818;stroke-width:1.0;" x1="645.5" x2="852.5" y1="210.7852" y2="210.7852"/><text fill="#000000" font-family="sans-serif" font-size="13" lengthAdjust="spacing" textLength="194" x="652.5" y="205.5225">getPassagesBetween2Buildings()</text><polygon fill="#181818" points="1069.5,238.0762,1079.5,242.0762,1069.5,246.0762,1073.5,242.0762" style="stroke:#181818;stroke-width:1.0;"/><line style="stroke:#181818;stroke-width:1.0;" x1="863.5" x2="1075.5" y1="242.0762" y2="242.0762"/><text fill="#000000" font-family="sans-serif" font-size="13" lengthAdjust="spacing" textLength="194" x="870.5" y="236.8135">getPassagesBetween2Buildings()</text><polygon fill="#181818" points="1195.5,269.3672,1205.5,273.3672,1195.5,277.3672,1199.5,273.3672" style="stroke:#181818;stroke-width:1.0;"/><line style="stroke:#181818;stroke-width:1.0;" x1="1091.5" x2="1201.5" y1="273.3672" y2="273.3672"/><text fill="#000000" font-family="sans-serif" font-size="13" lengthAdjust="spacing" textLength="97" x="1098.5" y="268.1045">findByBuildings()</text><polygon fill="#181818" points="1321.5,300.6582,1331.5,304.6582,1321.5,308.6582,1325.5,304.6582" style="stroke:#181818;stroke-width:1.0;"/><line style="stroke:#181818;stroke-width:1.0;" x1="1217.5" x2="1327.5" y1="304.6582" y2="304.6582"/><text fill="#000000" font-family="sans-serif" font-size="13" lengthAdjust="spacing" textLength="97" x="1224.5" y="299.3955">findByBuildings()</text><polygon fill="#181818" points="1102.5,361.9492,1092.5,365.9492,1102.5,369.9492,1098.5,365.9492" style="stroke:#181818;stroke-width:1.0;"/><line style="stroke:#181818;stroke-width:1.0;stroke-dasharray:2.0,2.0;" x1="1096.5" x2="1337.5" y1="365.9492" y2="365.9492"/><text fill="#000000" font-family="sans-serif" font-size="13" lengthAdjust="spacing" textLength="57" x="1108.5" y="360.6865">passage[]</text><polygon fill="#181818" points="1430.5,393.2402,1440.5,397.2402,1430.5,401.2402,1434.5,397.2402" style="stroke:#181818;stroke-width:1.0;"/><line style="stroke:#181818;stroke-width:1.0;" x1="1091.5" x2="1436.5" y1="397.2402" y2="397.2402"/><text fill="#000000" font-family="sans-serif" font-size="13" lengthAdjust="spacing" textLength="45" x="1098.5" y="391.9775">toDTO()</text><polygon fill="#181818" points="1544.5,407.2402,1554.5,411.2402,1544.5,415.2402,1548.5,411.2402" style="stroke:#181818;stroke-width:1.0;"/><line style="stroke:#181818;stroke-width:1.0;" x1="1452.5" x2="1550.5" y1="411.2402" y2="411.2402"/><polygon fill="#181818" points="1102.5,438.5313,1092.5,442.5313,1102.5,446.5313,1098.5,442.5313" style="stroke:#181818;stroke-width:1.0;"/><line style="stroke:#181818;stroke-width:1.0;stroke-dasharray:2.0,2.0;" x1="1096.5" x2="1446.5" y1="442.5313" y2="442.5313"/><text fill="#000000" font-family="sans-serif" font-size="13" lengthAdjust="spacing" textLength="83" x="1108.5" y="437.2686">passageDTO[]</text><polygon fill="#181818" points="656.5,469.8223,646.5,473.8223,656.5,477.8223,652.5,473.8223" style="stroke:#181818;stroke-width:1.0;"/><line style="stroke:#181818;stroke-width:1.0;stroke-dasharray:2.0,2.0;" x1="650.5" x2="1085.5" y1="473.8223" y2="473.8223"/><text fill="#000000" font-family="sans-serif" font-size="13" lengthAdjust="spacing" textLength="83" x="662.5" y="468.5596">passageDTO[]</text><polygon fill="#181818" points="210.5,501.1133,200.5,505.1133,210.5,509.1133,206.5,505.1133" style="stroke:#181818;stroke-width:1.0;"/><line style="stroke:#181818;stroke-width:1.0;stroke-dasharray:2.0,2.0;" x1="204.5" x2="639.5" y1="505.1133" y2="505.1133"/><text fill="#000000" font-family="sans-serif" font-size="13" lengthAdjust="spacing" textLength="396" x="216.5" y="499.8506">passageController -&gt; passageRoute : res.json(passageDTO).status()</text><polygon fill="#181818" points="33.5,515.1133,23.5,519.1133,33.5,523.1133,29.5,519.1133" style="stroke:#181818;stroke-width:1.0;"/><line style="stroke:#181818;stroke-width:1.0;stroke-dasharray:2.0,2.0;" x1="27.5" x2="188.5" y1="519.1133" y2="519.1133"/><!--SRC=[dLGzJyCm4DtpAxpH3ar4nmmT2WWn850f4s8moJKOfRQndIB-FMvnvBFZX8yjyjszktVtNivUZP6wB0hPKcwwVPjNObzeUE-0Lx2e6MqKtMSPhOnGv563oYHLXbLCsdmYgTQqWOte30I1c_llo8NWHecsJTUDHFlY1r07La6gCXNgopOWHNBA-DtbtrAPnBdStcNPaJ9Ph0Acf2JNLrjIb2yTQsl6ctF_kJokYXsepOgMW-ejtd115hK1uvxr6im705-k7QwUpJroOhi9F3_rNvhKCDKc9XTSC350TCf_SEml7IDvTh_6Jb3hqMDUNbznKwmostB7UBt-d6HmqbrGXlJq8meMRuA04pN2JYt6FJmzOmWvH40ylJbilH7M37WgP1sKYDPpD0-EJ4nbKyF10b-6SorM0vcDuwHlYGKQ6RiaSi95lVSLwFnD2pxpVUUvDjHqaSX6FUB-0XRwz4VDlW00]--></g></svg>