<?xml version="1.0" encoding="us-ascii" standalone="no"?><svg xmlns="http://www.w3.org/2000/svg" xmlns:xlink="http://www.w3.org/1999/xlink" contentStyleType="text/css" height="418px" preserveAspectRatio="none" style="width:647px;height:418px;background:#FFFFFF;" version="1.1" viewBox="0 0 647 418" width="647px" zoomAndPan="magnify"><defs/><g><rect fill="#FFFFFF" height="224.0371" style="stroke:#181818;stroke-width:1.0;" width="10" x="17.5" y="93.6211"/><rect fill="#FFFFFF" height="200.7461" style="stroke:#181818;stroke-width:1.0;" width="10" x="266.5" y="116.9121"/><rect fill="#FFFFFF" height="138.1641" style="stroke:#181818;stroke-width:1.0;" width="10" x="455.5" y="148.2031"/><rect fill="#FFFFFF" height="31.291" style="stroke:#181818;stroke-width:1.0;" width="10" x="598.5" y="223.7852"/><line style="stroke:#181818;stroke-width:0.5;stroke-dasharray:5.0,5.0;" x1="22" x2="22" y1="83.6211" y2="335.6582"/><line style="stroke:#181818;stroke-width:0.5;stroke-dasharray:5.0,5.0;" x1="271" x2="271" y1="83.6211" y2="335.6582"/><line style="stroke:#181818;stroke-width:0.5;stroke-dasharray:5.0,5.0;" x1="460.5" x2="460.5" y1="83.6211" y2="335.6582"/><line style="stroke:#181818;stroke-width:0.5;stroke-dasharray:5.0,5.0;" x1="603.5" x2="603.5" y1="83.6211" y2="335.6582"/><text fill="#000000" font-family="sans-serif" font-size="14" lengthAdjust="spacing" textLength="29" x="5" y="80.1074">User</text><ellipse cx="22.5" cy="13.5" fill="#E2E2F0" rx="8" ry="8" style="stroke:#181818;stroke-width:0.5;"/><path d="M22.5,21.5 L22.5,48.5 M9.5,29.5 L35.5,29.5 M22.5,48.5 L9.5,63.5 M22.5,48.5 L35.5,63.5 " fill="none" style="stroke:#181818;stroke-width:0.5;"/><text fill="#000000" font-family="sans-serif" font-size="14" lengthAdjust="spacing" textLength="29" x="5" y="349.7656">User</text><ellipse cx="22.5" cy="361.7793" fill="#E2E2F0" rx="8" ry="8" style="stroke:#181818;stroke-width:0.5;"/><path d="M22.5,369.7793 L22.5,396.7793 M9.5,377.7793 L35.5,377.7793 M22.5,396.7793 L9.5,411.7793 M22.5,396.7793 L35.5,411.7793 " fill="none" style="stroke:#181818;stroke-width:0.5;"/><rect fill="#E2E2F0" height="32.6211" rx="2.5" ry="2.5" style="stroke:#181818;stroke-width:0.5;" width="69" x="237" y="50"/><text fill="#000000" font-family="sans-serif" font-size="14" lengthAdjust="spacing" textLength="55" x="244" y="72.1074">Postman</text><rect fill="#E2E2F0" height="32.6211" rx="2.5" ry="2.5" style="stroke:#181818;stroke-width:0.5;" width="69" x="237" y="334.6582"/><text fill="#000000" font-family="sans-serif" font-size="14" lengthAdjust="spacing" textLength="55" x="244" y="356.7656">Postman</text><rect fill="#E2E2F0" height="51.2422" rx="2.5" ry="2.5" style="stroke:#181818;stroke-width:0.5;" width="92" x="414.5" y="31.3789"/><text fill="#000000" font-family="sans-serif" font-size="14" font-style="italic" lengthAdjust="spacing" textLength="78" x="421.5" y="53.4863">&#171;Container&#187;</text><text fill="#000000" font-family="sans-serif" font-size="14" lengthAdjust="spacing" textLength="46" x="437.5" y="72.1074">System</text><rect fill="#E2E2F0" height="51.2422" rx="2.5" ry="2.5" style="stroke:#181818;stroke-width:0.5;" width="92" x="414.5" y="334.6582"/><text fill="#000000" font-family="sans-serif" font-size="14" font-style="italic" lengthAdjust="spacing" textLength="78" x="421.5" y="356.7656">&#171;Container&#187;</text><text fill="#000000" font-family="sans-serif" font-size="14" lengthAdjust="spacing" textLength="46" x="437.5" y="375.3867">System</text><rect fill="#E2E2F0" height="32.6211" rx="2.5" ry="2.5" style="stroke:#181818;stroke-width:0.5;" width="76" x="565.5" y="50"/><text fill="#000000" font-family="sans-serif" font-size="14" lengthAdjust="spacing" textLength="62" x="572.5" y="72.1074">MongoDB</text><rect fill="#E2E2F0" height="32.6211" rx="2.5" ry="2.5" style="stroke:#181818;stroke-width:0.5;" width="76" x="565.5" y="334.6582"/><text fill="#000000" font-family="sans-serif" font-size="14" lengthAdjust="spacing" textLength="62" x="572.5" y="356.7656">MongoDB</text><rect fill="#FFFFFF" height="224.0371" style="stroke:#181818;stroke-width:1.0;" width="10" x="17.5" y="93.6211"/><rect fill="#FFFFFF" height="200.7461" style="stroke:#181818;stroke-width:1.0;" width="10" x="266.5" y="116.9121"/><rect fill="#FFFFFF" height="138.1641" style="stroke:#181818;stroke-width:1.0;" width="10" x="455.5" y="148.2031"/><rect fill="#FFFFFF" height="31.291" style="stroke:#181818;stroke-width:1.0;" width="10" x="598.5" y="223.7852"/><polygon fill="#181818" points="254.5,112.9121,264.5,116.9121,254.5,120.9121,258.5,116.9121" style="stroke:#181818;stroke-width:1.0;"/><line style="stroke:#181818;stroke-width:1.0;" x1="27.5" x2="260.5" y1="116.9121" y2="116.9121"/><text fill="#000000" font-family="sans-serif" font-size="13" font-weight="bold" lengthAdjust="spacing" textLength="7" x="34.5" y="111.6494">1</text><text fill="#000000" font-family="sans-serif" font-size="13" lengthAdjust="spacing" textLength="209" x="45.5" y="111.6494">Dar informa&#231;ao /:building1/:building2</text><polygon fill="#181818" points="443.5,144.2031,453.5,148.2031,443.5,152.2031,447.5,148.2031" style="stroke:#181818;stroke-width:1.0;"/><line style="stroke:#181818;stroke-width:1.0;" x1="276.5" x2="449.5" y1="148.2031" y2="148.2031"/><text fill="#000000" font-family="sans-serif" font-size="13" font-weight="bold" lengthAdjust="spacing" textLength="7" x="283.5" y="142.9404">2</text><text fill="#000000" font-family="sans-serif" font-size="13" lengthAdjust="spacing" textLength="148" x="294.5" y="142.9404">GET /:building1/:building2</text><line style="stroke:#181818;stroke-width:1.0;" x1="465.5" x2="507.5" y1="179.4941" y2="179.4941"/><line style="stroke:#181818;stroke-width:1.0;" x1="507.5" x2="507.5" y1="179.4941" y2="192.4941"/><line style="stroke:#181818;stroke-width:1.0;" x1="466.5" x2="507.5" y1="192.4941" y2="192.4941"/><polygon fill="#181818" points="476.5,188.4941,466.5,192.4941,476.5,196.4941,472.5,192.4941" style="stroke:#181818;stroke-width:1.0;"/><text fill="#000000" font-family="sans-serif" font-size="13" font-weight="bold" lengthAdjust="spacing" textLength="7" x="472.5" y="174.2314">3</text><text fill="#000000" font-family="sans-serif" font-size="13" lengthAdjust="spacing" textLength="82" x="483.5" y="174.2314">check request</text><polygon fill="#181818" points="586.5,219.7852,596.5,223.7852,586.5,227.7852,590.5,223.7852" style="stroke:#181818;stroke-width:1.0;"/><line style="stroke:#181818;stroke-width:1.0;" x1="465.5" x2="592.5" y1="223.7852" y2="223.7852"/><text fill="#000000" font-family="sans-serif" font-size="13" font-weight="bold" lengthAdjust="spacing" textLength="7" x="472.5" y="218.5225">4</text><text fill="#000000" font-family="sans-serif" font-size="13" lengthAdjust="spacing" textLength="41" x="483.5" y="218.5225">Search</text><polygon fill="#181818" points="476.5,251.0762,466.5,255.0762,476.5,259.0762,472.5,255.0762" style="stroke:#181818;stroke-width:1.0;"/><line style="stroke:#181818;stroke-width:1.0;stroke-dasharray:2.0,2.0;" x1="470.5" x2="602.5" y1="255.0762" y2="255.0762"/><text fill="#000000" font-family="sans-serif" font-size="13" font-weight="bold" lengthAdjust="spacing" textLength="7" x="482.5" y="249.8135">5</text><text fill="#000000" font-family="sans-serif" font-size="13" lengthAdjust="spacing" textLength="98" x="493.5" y="249.8135">Return passages</text><polygon fill="#181818" points="287.5,282.3672,277.5,286.3672,287.5,290.3672,283.5,286.3672" style="stroke:#181818;stroke-width:1.0;"/><line style="stroke:#181818;stroke-width:1.0;stroke-dasharray:2.0,2.0;" x1="281.5" x2="459.5" y1="286.3672" y2="286.3672"/><text fill="#000000" font-family="sans-serif" font-size="13" font-weight="bold" lengthAdjust="spacing" textLength="7" x="293.5" y="281.1045">6</text><text fill="#000000" font-family="sans-serif" font-size="13" lengthAdjust="spacing" textLength="144" x="304.5" y="281.1045">Return passages (JSON)</text><polygon fill="#181818" points="33.5,313.6582,23.5,317.6582,33.5,321.6582,29.5,317.6582" style="stroke:#181818;stroke-width:1.0;"/><line style="stroke:#181818;stroke-width:1.0;" x1="27.5" x2="270.5" y1="317.6582" y2="317.6582"/><text fill="#000000" font-family="sans-serif" font-size="13" font-weight="bold" lengthAdjust="spacing" textLength="7" x="39.5" y="312.3955">7</text><text fill="#000000" font-family="sans-serif" font-size="13" lengthAdjust="spacing" textLength="140" x="50.5" y="312.3955">Show Passages (JSON)</text><!--SRC=[XP11JiCm44NtESNiW4M8oZAgie0Yf4f0HU00KsT8B68xs6CG9-8WN0odZHK7XDX48-k_bvb_qZ4FhYoAeKVDNlNdmgZ2qQidBIXl9BOMLPQXPwEzsfCDis1ZuSc5UK3BKiWXiB0pZXNgnLlzuPWKhDTNHZDAJRQg5e5RerkpkJn8vHio7RtZ1_8gEg643LgG-jbOXL-VQA0ezrxsZTJjQXulPatS9Xg2R5gcX9lhnt_vOpYRc9GM7OaNi6D5ZfF0T4f8r8HMTBCh7XaJUQfx8FPMmu3EOKikQ-WN5_-nAEG71wVR-lxkBCMd4v863hM6_Jhp3hk_mTXTyZIItm00]--></g></svg>