<?xml version="1.0" encoding="UTF-8" standalone="no"?><svg xmlns="http://www.w3.org/2000/svg" xmlns:xlink="http://www.w3.org/1999/xlink" contentScriptType="application/ecmascript" contentStyleType="text/css" height="663px" preserveAspectRatio="none" style="width:1248px;height:663px;background:#FFFFFF;" version="1.1" viewBox="0 0 1248 663" width="1248px" zoomAndPan="magnify"><defs><filter height="300%" id="f1lk2k8jq4rwsb" width="300%" x="-1" y="-1"><feGaussianBlur result="blurOut" stdDeviation="2.0"/><feColorMatrix in="blurOut" result="blurOut2" type="matrix" values="0 0 0 0 0 0 0 0 0 0 0 0 0 0 0 0 0 0 .4 0"/><feOffset dx="4.0" dy="4.0" in="blurOut2" result="blurOut3"/><feBlend in="SourceGraphic" in2="blurOut3" mode="normal"/></filter></defs><g><rect fill="#FFFFFF" filter="url(#f1lk2k8jq4rwsb)" height="460.2734" style="stroke:#A80036;stroke-width:1.0;" width="10" x="17.5" y="99.6094"/><rect fill="#FFFFFF" filter="url(#f1lk2k8jq4rwsb)" height="437.9219" style="stroke:#A80036;stroke-width:1.0;" width="10" x="235.5" y="121.9609"/><rect fill="#FFFFFF" filter="url(#f1lk2k8jq4rwsb)" height="346.8672" style="stroke:#A80036;stroke-width:1.0;" width="10" x="482.5" y="182.6641"/><rect fill="#FFFFFF" filter="url(#f1lk2k8jq4rwsb)" height="255.8125" style="stroke:#A80036;stroke-width:1.0;" width="10" x="729.5" y="243.3672"/><rect fill="#FFFFFF" filter="url(#f1lk2k8jq4rwsb)" height="30.3516" style="stroke:#A80036;stroke-width:1.0;" width="10" x="873.5" y="273.7188"/><rect fill="#FFFFFF" filter="url(#f1lk2k8jq4rwsb)" height="30.3516" style="stroke:#A80036;stroke-width:1.0;" width="10" x="946.5" y="438.4766"/><rect fill="#FFFFFF" filter="url(#f1lk2k8jq4rwsb)" height="73.7031" style="stroke:#A80036;stroke-width:1.0;" width="10" x="1189.5" y="364.7734"/><line style="stroke:#A80036;stroke-width:1.0;stroke-dasharray:5.0,5.0;" x1="22" x2="22" y1="89.6094" y2="577.8828"/><line style="stroke:#A80036;stroke-width:1.0;stroke-dasharray:5.0,5.0;" x1="240.5" x2="240.5" y1="89.6094" y2="577.8828"/><line style="stroke:#A80036;stroke-width:1.0;stroke-dasharray:5.0,5.0;" x1="366" x2="366" y1="89.6094" y2="577.8828"/><line style="stroke:#A80036;stroke-width:1.0;stroke-dasharray:5.0,5.0;" x1="487.5" x2="487.5" y1="89.6094" y2="577.8828"/><line style="stroke:#A80036;stroke-width:1.0;stroke-dasharray:5.0,5.0;" x1="613.5" x2="613.5" y1="89.6094" y2="577.8828"/><line style="stroke:#A80036;stroke-width:1.0;stroke-dasharray:5.0,5.0;" x1="734" x2="734" y1="89.6094" y2="577.8828"/><line style="stroke:#A80036;stroke-width:1.0;stroke-dasharray:5.0,5.0;" x1="802" x2="802" y1="89.6094" y2="577.8828"/><line style="stroke:#A80036;stroke-width:1.0;stroke-dasharray:5.0,5.0;" x1="878" x2="878" y1="89.6094" y2="577.8828"/><line style="stroke:#A80036;stroke-width:1.0;stroke-dasharray:5.0,5.0;" x1="951" x2="951" y1="89.6094" y2="577.8828"/><line style="stroke:#A80036;stroke-width:1.0;stroke-dasharray:5.0,5.0;" x1="1008" x2="1008" y1="89.6094" y2="577.8828"/><line style="stroke:#A80036;stroke-width:1.0;stroke-dasharray:5.0,5.0;" x1="1086" x2="1086" y1="89.6094" y2="577.8828"/><line style="stroke:#A80036;stroke-width:1.0;stroke-dasharray:5.0,5.0;" x1="1194.5" x2="1194.5" y1="89.6094" y2="577.8828"/><text fill="#000000" font-family="sans-serif" font-size="14" lengthAdjust="spacing" textLength="29" x="5" y="86.5332">User</text><ellipse cx="22.5" cy="15" fill="#FEFECE" filter="url(#f1lk2k8jq4rwsb)" rx="8" ry="8" style="stroke:#A80036;stroke-width:2.0;"/><path d="M22.5,23 L22.5,50 M9.5,31 L35.5,31 M22.5,50 L9.5,65 M22.5,50 L35.5,65 " fill="none" filter="url(#f1lk2k8jq4rwsb)" style="stroke:#A80036;stroke-width:2.0;"/><text fill="#000000" font-family="sans-serif" font-size="14" lengthAdjust="spacing" textLength="29" x="5" y="591.416">User</text><ellipse cx="22.5" cy="604.4922" fill="#FEFECE" filter="url(#f1lk2k8jq4rwsb)" rx="8" ry="8" style="stroke:#A80036;stroke-width:2.0;"/><path d="M22.5,612.4922 L22.5,639.4922 M9.5,620.4922 L35.5,620.4922 M22.5,639.4922 L9.5,654.4922 M22.5,639.4922 L35.5,654.4922 " fill="none" filter="url(#f1lk2k8jq4rwsb)" style="stroke:#A80036;stroke-width:2.0;"/><rect fill="#FEFECE" filter="url(#f1lk2k8jq4rwsb)" height="31.6094" style="stroke:#A80036;stroke-width:1.5;" width="52" x="212.5" y="53"/><text fill="#000000" font-family="sans-serif" font-size="14" lengthAdjust="spacing" textLength="38" x="219.5" y="74.5332">Route</text><rect fill="#FEFECE" filter="url(#f1lk2k8jq4rwsb)" height="31.6094" style="stroke:#A80036;stroke-width:1.5;" width="52" x="212.5" y="576.8828"/><text fill="#000000" font-family="sans-serif" font-size="14" lengthAdjust="spacing" textLength="38" x="219.5" y="598.416">Route</text><rect fill="#FEFECE" filter="url(#f1lk2k8jq4rwsb)" height="31.6094" style="stroke:#A80036;stroke-width:1.5;" width="79" x="325" y="53"/><text fill="#000000" font-family="sans-serif" font-size="14" lengthAdjust="spacing" textLength="65" x="332" y="74.5332">IController</text><rect fill="#FEFECE" filter="url(#f1lk2k8jq4rwsb)" height="31.6094" style="stroke:#A80036;stroke-width:1.5;" width="79" x="325" y="576.8828"/><text fill="#000000" font-family="sans-serif" font-size="14" lengthAdjust="spacing" textLength="65" x="332" y="598.416">IController</text><rect fill="#FEFECE" filter="url(#f1lk2k8jq4rwsb)" height="31.6094" style="stroke:#A80036;stroke-width:1.5;" width="76" x="447.5" y="53"/><text fill="#000000" font-family="sans-serif" font-size="14" lengthAdjust="spacing" textLength="62" x="454.5" y="74.5332">Controller</text><rect fill="#FEFECE" filter="url(#f1lk2k8jq4rwsb)" height="31.6094" style="stroke:#A80036;stroke-width:1.5;" width="76" x="447.5" y="576.8828"/><text fill="#000000" font-family="sans-serif" font-size="14" lengthAdjust="spacing" textLength="62" x="454.5" y="598.416">Controller</text><rect fill="#FEFECE" filter="url(#f1lk2k8jq4rwsb)" height="31.6094" style="stroke:#A80036;stroke-width:1.5;" width="64" x="579.5" y="53"/><text fill="#000000" font-family="sans-serif" font-size="14" lengthAdjust="spacing" textLength="50" x="586.5" y="74.5332">IService</text><rect fill="#FEFECE" filter="url(#f1lk2k8jq4rwsb)" height="31.6094" style="stroke:#A80036;stroke-width:1.5;" width="64" x="579.5" y="576.8828"/><text fill="#000000" font-family="sans-serif" font-size="14" lengthAdjust="spacing" textLength="50" x="586.5" y="598.416">IService</text><rect fill="#FEFECE" filter="url(#f1lk2k8jq4rwsb)" height="31.6094" style="stroke:#A80036;stroke-width:1.5;" width="61" x="702" y="53"/><text fill="#000000" font-family="sans-serif" font-size="14" lengthAdjust="spacing" textLength="47" x="709" y="74.5332">Service</text><rect fill="#FEFECE" filter="url(#f1lk2k8jq4rwsb)" height="31.6094" style="stroke:#A80036;stroke-width:1.5;" width="61" x="702" y="576.8828"/><text fill="#000000" font-family="sans-serif" font-size="14" lengthAdjust="spacing" textLength="47" x="709" y="598.416">Service</text><rect fill="#FEFECE" filter="url(#f1lk2k8jq4rwsb)" height="31.6094" style="stroke:#A80036;stroke-width:1.5;" width="47" x="777" y="53"/><text fill="#000000" font-family="sans-serif" font-size="14" lengthAdjust="spacing" textLength="33" x="784" y="74.5332">Floor</text><rect fill="#FEFECE" filter="url(#f1lk2k8jq4rwsb)" height="31.6094" style="stroke:#A80036;stroke-width:1.5;" width="47" x="777" y="576.8828"/><text fill="#000000" font-family="sans-serif" font-size="14" lengthAdjust="spacing" textLength="33" x="784" y="598.416">Floor</text><rect fill="#FEFECE" filter="url(#f1lk2k8jq4rwsb)" height="31.6094" style="stroke:#A80036;stroke-width:1.5;" width="77" x="838" y="53"/><text fill="#000000" font-family="sans-serif" font-size="14" lengthAdjust="spacing" textLength="63" x="845" y="74.5332">FloorDTO</text><rect fill="#FEFECE" filter="url(#f1lk2k8jq4rwsb)" height="31.6094" style="stroke:#A80036;stroke-width:1.5;" width="77" x="838" y="576.8828"/><text fill="#000000" font-family="sans-serif" font-size="14" lengthAdjust="spacing" textLength="63" x="845" y="598.416">FloorDTO</text><rect fill="#FEFECE" filter="url(#f1lk2k8jq4rwsb)" height="31.6094" style="stroke:#A80036;stroke-width:1.5;" width="41" x="929" y="53"/><text fill="#000000" font-family="sans-serif" font-size="14" lengthAdjust="spacing" textLength="27" x="936" y="74.5332">Map</text><rect fill="#FEFECE" filter="url(#f1lk2k8jq4rwsb)" height="31.6094" style="stroke:#A80036;stroke-width:1.5;" width="41" x="929" y="576.8828"/><text fill="#000000" font-family="sans-serif" font-size="14" lengthAdjust="spacing" textLength="27" x="936" y="598.416">Map</text><rect fill="#FEFECE" filter="url(#f1lk2k8jq4rwsb)" height="31.6094" style="stroke:#A80036;stroke-width:1.5;" width="44" x="984" y="53"/><text fill="#000000" font-family="sans-serif" font-size="14" lengthAdjust="spacing" textLength="30" x="991" y="74.5332">IMap</text><rect fill="#FEFECE" filter="url(#f1lk2k8jq4rwsb)" height="31.6094" style="stroke:#A80036;stroke-width:1.5;" width="44" x="984" y="576.8828"/><text fill="#000000" font-family="sans-serif" font-size="14" lengthAdjust="spacing" textLength="30" x="991" y="598.416">IMap</text><rect fill="#FEFECE" filter="url(#f1lk2k8jq4rwsb)" height="31.6094" style="stroke:#A80036;stroke-width:1.5;" width="85" x="1042" y="53"/><text fill="#000000" font-family="sans-serif" font-size="14" lengthAdjust="spacing" textLength="71" x="1049" y="74.5332">IRepository</text><rect fill="#FEFECE" filter="url(#f1lk2k8jq4rwsb)" height="31.6094" style="stroke:#A80036;stroke-width:1.5;" width="85" x="1042" y="576.8828"/><text fill="#000000" font-family="sans-serif" font-size="14" lengthAdjust="spacing" textLength="71" x="1049" y="598.416">IRepository</text><text fill="#000000" font-family="sans-serif" font-size="14" lengthAdjust="spacing" textLength="68" x="1157.5" y="86.5332">Repository</text><path d="M1176.5,36 C1176.5,26 1194.5,26 1194.5,26 C1194.5,26 1212.5,26 1212.5,36 L1212.5,62 C1212.5,72 1194.5,72 1194.5,72 C1194.5,72 1176.5,72 1176.5,62 L1176.5,36 " fill="#FEFECE" filter="url(#f1lk2k8jq4rwsb)" style="stroke:#000000;stroke-width:1.5;"/><path d="M1176.5,36 C1176.5,46 1194.5,46 1194.5,46 C1194.5,46 1212.5,46 1212.5,36 " fill="none" style="stroke:#000000;stroke-width:1.5;"/><text fill="#000000" font-family="sans-serif" font-size="14" lengthAdjust="spacing" textLength="68" x="1157.5" y="591.416">Repository</text><path d="M1176.5,604.4922 C1176.5,594.4922 1194.5,594.4922 1194.5,594.4922 C1194.5,594.4922 1212.5,594.4922 1212.5,604.4922 L1212.5,630.4922 C1212.5,640.4922 1194.5,640.4922 1194.5,640.4922 C1194.5,640.4922 1176.5,640.4922 1176.5,630.4922 L1176.5,604.4922 " fill="#FEFECE" filter="url(#f1lk2k8jq4rwsb)" style="stroke:#000000;stroke-width:1.5;"/><path d="M1176.5,604.4922 C1176.5,614.4922 1194.5,614.4922 1194.5,614.4922 C1194.5,614.4922 1212.5,614.4922 1212.5,604.4922 " fill="none" style="stroke:#000000;stroke-width:1.5;"/><rect fill="#FFFFFF" filter="url(#f1lk2k8jq4rwsb)" height="460.2734" style="stroke:#A80036;stroke-width:1.0;" width="10" x="17.5" y="99.6094"/><rect fill="#FFFFFF" filter="url(#f1lk2k8jq4rwsb)" height="437.9219" style="stroke:#A80036;stroke-width:1.0;" width="10" x="235.5" y="121.9609"/><rect fill="#FFFFFF" filter="url(#f1lk2k8jq4rwsb)" height="346.8672" style="stroke:#A80036;stroke-width:1.0;" width="10" x="482.5" y="182.6641"/><rect fill="#FFFFFF" filter="url(#f1lk2k8jq4rwsb)" height="255.8125" style="stroke:#A80036;stroke-width:1.0;" width="10" x="729.5" y="243.3672"/><rect fill="#FFFFFF" filter="url(#f1lk2k8jq4rwsb)" height="30.3516" style="stroke:#A80036;stroke-width:1.0;" width="10" x="873.5" y="273.7188"/><rect fill="#FFFFFF" filter="url(#f1lk2k8jq4rwsb)" height="30.3516" style="stroke:#A80036;stroke-width:1.0;" width="10" x="946.5" y="438.4766"/><rect fill="#FFFFFF" filter="url(#f1lk2k8jq4rwsb)" height="73.7031" style="stroke:#A80036;stroke-width:1.0;" width="10" x="1189.5" y="364.7734"/><polygon fill="#A80036" points="223.5,117.9609,233.5,121.9609,223.5,125.9609,227.5,121.9609" style="stroke:#A80036;stroke-width:1.0;"/><line style="stroke:#A80036;stroke-width:1.0;" x1="27.5" x2="229.5" y1="121.9609" y2="121.9609"/><text fill="#000000" font-family="sans-serif" font-size="13" lengthAdjust="spacing" textLength="189" x="34.5" y="117.1045">Request to create a floor (POST)</text><polygon fill="#A80036" points="354.5,148.3125,364.5,152.3125,354.5,156.3125,358.5,152.3125" style="stroke:#A80036;stroke-width:1.0;"/><line style="stroke:#A80036;stroke-width:1.0;" x1="245.5" x2="360.5" y1="152.3125" y2="152.3125"/><text fill="#000000" font-family="sans-serif" font-size="13" lengthAdjust="spacing" textLength="97" x="252.5" y="147.4561">createFloor(floor)</text><polygon fill="#A80036" points="470.5,178.6641,480.5,182.6641,470.5,186.6641,474.5,182.6641" style="stroke:#A80036;stroke-width:1.0;"/><line style="stroke:#A80036;stroke-width:1.0;" x1="366.5" x2="476.5" y1="182.6641" y2="182.6641"/><text fill="#000000" font-family="sans-serif" font-size="13" lengthAdjust="spacing" textLength="97" x="373.5" y="177.8076">createFloor(floor)</text><polygon fill="#A80036" points="601.5,209.0156,611.5,213.0156,601.5,217.0156,605.5,213.0156" style="stroke:#A80036;stroke-width:1.0;"/><line style="stroke:#A80036;stroke-width:1.0;" x1="492.5" x2="607.5" y1="213.0156" y2="213.0156"/><text fill="#000000" font-family="sans-serif" font-size="13" lengthAdjust="spacing" textLength="97" x="499.5" y="208.1592">createFloor(floor)</text><polygon fill="#A80036" points="717.5,239.3672,727.5,243.3672,717.5,247.3672,721.5,243.3672" style="stroke:#A80036;stroke-width:1.0;"/><line style="stroke:#A80036;stroke-width:1.0;" x1="613.5" x2="723.5" y1="243.3672" y2="243.3672"/><text fill="#000000" font-family="sans-serif" font-size="13" lengthAdjust="spacing" textLength="97" x="620.5" y="238.5107">createFloor(floor)</text><polygon fill="#A80036" points="861.5,269.7188,871.5,273.7188,861.5,277.7188,865.5,273.7188" style="stroke:#A80036;stroke-width:1.0;"/><line style="stroke:#A80036;stroke-width:1.0;" x1="739.5" x2="867.5" y1="273.7188" y2="273.7188"/><text fill="#000000" font-family="sans-serif" font-size="13" lengthAdjust="spacing" textLength="68" x="746.5" y="268.8623">create(floor)</text><polygon fill="#A80036" points="750.5,300.0703,740.5,304.0703,750.5,308.0703,746.5,304.0703" style="stroke:#A80036;stroke-width:1.0;"/><line style="stroke:#A80036;stroke-width:1.0;stroke-dasharray:2.0,2.0;" x1="744.5" x2="877.5" y1="304.0703" y2="304.0703"/><text fill="#000000" font-family="sans-serif" font-size="13" lengthAdjust="spacing" textLength="100" x="756.5" y="299.2139">Retrieve floorDTO</text><polygon fill="#A80036" points="1074.5,330.4219,1084.5,334.4219,1074.5,338.4219,1078.5,334.4219" style="stroke:#A80036;stroke-width:1.0;"/><line style="stroke:#A80036;stroke-width:1.0;" x1="739.5" x2="1080.5" y1="334.4219" y2="334.4219"/><text fill="#000000" font-family="sans-serif" font-size="13" lengthAdjust="spacing" textLength="84" x="746.5" y="329.5654">save(floorDTO)</text><polygon fill="#A80036" points="1177.5,360.7734,1187.5,364.7734,1177.5,368.7734,1181.5,364.7734" style="stroke:#A80036;stroke-width:1.0;"/><line style="stroke:#A80036;stroke-width:1.0;" x1="1086.5" x2="1183.5" y1="364.7734" y2="364.7734"/><text fill="#000000" font-family="sans-serif" font-size="13" lengthAdjust="spacing" textLength="84" x="1093.5" y="359.917">save(floorDTO)</text><line style="stroke:#A80036;stroke-width:1.0;" x1="1199.5" x2="1241.5" y1="395.125" y2="395.125"/><line style="stroke:#A80036;stroke-width:1.0;" x1="1241.5" x2="1241.5" y1="395.125" y2="408.125"/><line style="stroke:#A80036;stroke-width:1.0;" x1="1200.5" x2="1241.5" y1="408.125" y2="408.125"/><polygon fill="#A80036" points="1210.5,404.125,1200.5,408.125,1210.5,412.125,1206.5,408.125" style="stroke:#A80036;stroke-width:1.0;"/><text fill="#000000" font-family="sans-serif" font-size="13" lengthAdjust="spacing" textLength="26" x="1206.5" y="390.2686">save</text><polygon fill="#A80036" points="967.5,434.4766,957.5,438.4766,967.5,442.4766,963.5,438.4766" style="stroke:#A80036;stroke-width:1.0;"/><line style="stroke:#A80036;stroke-width:1.0;" x1="961.5" x2="1193.5" y1="438.4766" y2="438.4766"/><text fill="#000000" font-family="sans-serif" font-size="13" lengthAdjust="spacing" textLength="98" x="973.5" y="433.6201">ToDTO(floorDTO)</text><polygon fill="#A80036" points="750.5,464.8281,740.5,468.8281,750.5,472.8281,746.5,468.8281" style="stroke:#A80036;stroke-width:1.0;"/><line style="stroke:#A80036;stroke-width:1.0;stroke-dasharray:2.0,2.0;" x1="744.5" x2="950.5" y1="468.8281" y2="468.8281"/><text fill="#000000" font-family="sans-serif" font-size="13" lengthAdjust="spacing" textLength="100" x="756.5" y="463.9717">Retrieve floorDTO</text><polygon fill="#A80036" points="503.5,495.1797,493.5,499.1797,503.5,503.1797,499.5,499.1797" style="stroke:#A80036;stroke-width:1.0;"/><line style="stroke:#A80036;stroke-width:1.0;stroke-dasharray:2.0,2.0;" x1="497.5" x2="733.5" y1="499.1797" y2="499.1797"/><text fill="#000000" font-family="sans-serif" font-size="13" lengthAdjust="spacing" textLength="100" x="509.5" y="494.3232">Retrieve floorDTO</text><polygon fill="#A80036" points="256.5,525.5313,246.5,529.5313,256.5,533.5313,252.5,529.5313" style="stroke:#A80036;stroke-width:1.0;"/><line style="stroke:#A80036;stroke-width:1.0;stroke-dasharray:2.0,2.0;" x1="250.5" x2="486.5" y1="529.5313" y2="529.5313"/><text fill="#000000" font-family="sans-serif" font-size="13" lengthAdjust="spacing" textLength="100" x="262.5" y="524.6748">Retrieve floorDTO</text><polygon fill="#A80036" points="33.5,555.8828,23.5,559.8828,33.5,563.8828,29.5,559.8828" style="stroke:#A80036;stroke-width:1.0;"/><line style="stroke:#A80036;stroke-width:1.0;stroke-dasharray:2.0,2.0;" x1="27.5" x2="239.5" y1="559.8828" y2="559.8828"/><text fill="#000000" font-family="sans-serif" font-size="13" lengthAdjust="spacing" textLength="85" x="39.5" y="555.0264">200 ok , JSON</text><!--MD5=[93964a4873272613f67d20401d322b3e]
@startuml
'http://plantuml.com/skinparam.html

actor User
participant FloorRoute as "Route"
participant IFloorController as "IController"
participant floorController as "Controller"
participant IFloorService as "IService"
participant floorService as "Service"
participant floor as "Floor"
participant floorDTO as "FloorDTO"
participant floorMap as "Map"
participant IFloorMap as "IMap"
participant IFloorRepository as "IRepository"
database floorRepository as "Repository"

activate User
User -> FloorRoute : Request to create a floor (POST)
activate FloorRoute
FloorRoute -> IFloorController : createFloor(floor)
IFloorController -> floorController : createFloor(floor)

activate floorController
floorController -> IFloorService : createFloor(floor)

IFloorService -> floorService : createFloor(floor)
activate floorService

floorService -> floorDTO : create(floor)
activate floorDTO
floorDTO - -> floorService : Retrieve floorDTO
deactivate floorDTO
floorService -> IFloorRepository : save(floorDTO)

IFloorRepository -> floorRepository : save(floorDTO)

activate floorRepository
floorRepository -> floorRepository : save
floorRepository -> floorMap : ToDTO(floorDTO)
deactivate floorRepository

activate floorMap
floorMap - -> floorService : Retrieve floorDTO
deactivate floorMap

floorService - -> floorController : Retrieve floorDTO
deactivate floorService
floorController - -> FloorRoute : Retrieve floorDTO
deactivate floorController
FloorRoute - -> User : 200 ok , JSON
deactivate FloorRoute
deactivate User

@enduml

@startuml

actor User
participant FloorRoute as "Route"
participant IFloorController as "IController"
participant floorController as "Controller"
participant IFloorService as "IService"
participant floorService as "Service"
participant floor as "Floor"
participant floorDTO as "FloorDTO"
participant floorMap as "Map"
participant IFloorMap as "IMap"
participant IFloorRepository as "IRepository"
database floorRepository as "Repository"

activate User
User -> FloorRoute : Request to create a floor (POST)
activate FloorRoute
FloorRoute -> IFloorController : createFloor(floor)
IFloorController -> floorController : createFloor(floor)

activate floorController
floorController -> IFloorService : createFloor(floor)

IFloorService -> floorService : createFloor(floor)
activate floorService

floorService -> floorDTO : create(floor)
activate floorDTO
floorDTO - -> floorService : Retrieve floorDTO
deactivate floorDTO
floorService -> IFloorRepository : save(floorDTO)

IFloorRepository -> floorRepository : save(floorDTO)

activate floorRepository
floorRepository -> floorRepository : save
floorRepository -> floorMap : ToDTO(floorDTO)
deactivate floorRepository

activate floorMap
floorMap - -> floorService : Retrieve floorDTO
deactivate floorMap

floorService - -> floorController : Retrieve floorDTO
deactivate floorService
floorController - -> FloorRoute : Retrieve floorDTO
deactivate floorController
FloorRoute - -> User : 200 ok , JSON
deactivate FloorRoute
deactivate User

@enduml

PlantUML version 1.2021.11(Sat Oct 02 14:26:11 BST 2021)
(GPL source distribution)
Java Runtime: OpenJDK Runtime Environment
JVM: OpenJDK 64-Bit Server VM
Default Encoding: Cp1252
Language: pt
Country: PT
--></g></svg>