<?xml version="1.0" encoding="UTF-8" standalone="no"?><svg xmlns="http://www.w3.org/2000/svg" xmlns:xlink="http://www.w3.org/1999/xlink" contentScriptType="application/ecmascript" contentStyleType="text/css" height="1041px" preserveAspectRatio="none" style="width:1725px;height:1041px;background:#FFFFFF;" version="1.1" viewBox="0 0 1725 1041" width="1725px" zoomAndPan="magnify"><defs><filter height="300%" id="ft6ef8d1mi9fl" width="300%" x="-1" y="-1"><feGaussianBlur result="blurOut" stdDeviation="2.0"/><feColorMatrix in="blurOut" result="blurOut2" type="matrix" values="0 0 0 0 0 0 0 0 0 0 0 0 0 0 0 0 0 0 .4 0"/><feOffset dx="4.0" dy="4.0" in="blurOut2" result="blurOut3"/><feBlend in="SourceGraphic" in2="blurOut3" mode="normal"/></filter></defs><g><rect fill="#FFFFFF" filter="url(#ft6ef8d1mi9fl)" height="816.0859" style="stroke:#A80036;stroke-width:1.0;" width="10" x="281.5" y="121.9609"/><rect fill="#FFFFFF" filter="url(#ft6ef8d1mi9fl)" height="30.3516" style="stroke:#A80036;stroke-width:1.0;" width="10" x="391.5" y="152.3125"/><rect fill="#FFFFFF" filter="url(#ft6ef8d1mi9fl)" height="741.3828" style="stroke:#A80036;stroke-width:1.0;" width="10" x="513.5" y="182.6641"/><rect fill="#FFFFFF" filter="url(#ft6ef8d1mi9fl)" height="30.3516" style="stroke:#A80036;stroke-width:1.0;" width="10" x="628" y="213.0156"/><rect fill="#FFFFFF" filter="url(#ft6ef8d1mi9fl)" height="650.3281" style="stroke:#A80036;stroke-width:1.0;" width="10" x="735" y="243.3672"/><rect fill="#FFFFFF" filter="url(#ft6ef8d1mi9fl)" height="60.3516" style="stroke:#A80036;stroke-width:1.0;" width="10" x="862" y="394.7734"/><rect fill="#FFFFFF" filter="url(#ft6ef8d1mi9fl)" height="60.3516" style="stroke:#A80036;stroke-width:1.0;" width="10" x="862" y="515.8281"/><rect fill="#FFFFFF" filter="url(#ft6ef8d1mi9fl)" height="30.3516" style="stroke:#A80036;stroke-width:1.0;" width="10" x="862" y="636.8828"/><rect fill="#FFFFFF" filter="url(#ft6ef8d1mi9fl)" height="60.3516" style="stroke:#A80036;stroke-width:1.0;" width="10" x="989" y="425.125"/><rect fill="#FFFFFF" filter="url(#ft6ef8d1mi9fl)" height="60.3516" style="stroke:#A80036;stroke-width:1.0;" width="10" x="989" y="546.1797"/><rect fill="#FFFFFF" filter="url(#ft6ef8d1mi9fl)" height="121.4063" style="stroke:#A80036;stroke-width:1.0;" width="10" x="989" y="667.2344"/><rect fill="#FFFFFF" filter="url(#ft6ef8d1mi9fl)" height="30.3516" style="stroke:#A80036;stroke-width:1.0;" width="10" x="1106" y="727.9375"/><rect fill="#FFFFFF" filter="url(#ft6ef8d1mi9fl)" height="44.3516" style="stroke:#A80036;stroke-width:1.0;" width="10" x="1106" y="818.9922"/><rect fill="#FFFFFF" filter="url(#ft6ef8d1mi9fl)" height="60.3516" style="stroke:#A80036;stroke-width:1.0;" width="10" x="1546.5" y="273.7188"/><rect fill="#FFFFFF" filter="url(#ft6ef8d1mi9fl)" height="60.3516" style="stroke:#A80036;stroke-width:1.0;" width="10" x="1659.5" y="304.0703"/><line style="stroke:#A80036;stroke-width:1.0;stroke-dasharray:5.0,5.0;" x1="22" x2="22" y1="89.6094" y2="956.0469"/><line style="stroke:#A80036;stroke-width:1.0;stroke-dasharray:5.0,5.0;" x1="286.5" x2="286.5" y1="89.6094" y2="956.0469"/><line style="stroke:#A80036;stroke-width:1.0;stroke-dasharray:5.0,5.0;" x1="396.5" x2="396.5" y1="89.6094" y2="956.0469"/><line style="stroke:#A80036;stroke-width:1.0;stroke-dasharray:5.0,5.0;" x1="518.5" x2="518.5" y1="89.6094" y2="956.0469"/><line style="stroke:#A80036;stroke-width:1.0;stroke-dasharray:5.0,5.0;" x1="632.5" x2="632.5" y1="89.6094" y2="956.0469"/><line style="stroke:#A80036;stroke-width:1.0;stroke-dasharray:5.0,5.0;" x1="739.5" x2="739.5" y1="89.6094" y2="956.0469"/><line style="stroke:#A80036;stroke-width:1.0;stroke-dasharray:5.0,5.0;" x1="867" x2="867" y1="89.6094" y2="956.0469"/><line style="stroke:#A80036;stroke-width:1.0;stroke-dasharray:5.0,5.0;" x1="994" x2="994" y1="89.6094" y2="956.0469"/><line style="stroke:#A80036;stroke-width:1.0;stroke-dasharray:5.0,5.0;" x1="1111" x2="1111" y1="89.6094" y2="956.0469"/><line style="stroke:#A80036;stroke-width:1.0;stroke-dasharray:5.0,5.0;" x1="1224" x2="1224" y1="89.6094" y2="956.0469"/><line style="stroke:#A80036;stroke-width:1.0;stroke-dasharray:5.0,5.0;" x1="1346" x2="1346" y1="89.6094" y2="956.0469"/><line style="stroke:#A80036;stroke-width:1.0;stroke-dasharray:5.0,5.0;" x1="1447" x2="1447" y1="89.6094" y2="956.0469"/><line style="stroke:#A80036;stroke-width:1.0;stroke-dasharray:5.0,5.0;" x1="1551" x2="1551" y1="89.6094" y2="956.0469"/><line style="stroke:#A80036;stroke-width:1.0;stroke-dasharray:5.0,5.0;" x1="1664" x2="1664" y1="89.6094" y2="956.0469"/><text fill="#000000" font-family="sans-serif" font-size="14" lengthAdjust="spacing" textLength="29" x="5" y="86.5332">User</text><ellipse cx="22.5" cy="15" fill="#FEFECE" filter="url(#ft6ef8d1mi9fl)" rx="8" ry="8" style="stroke:#A80036;stroke-width:2.0;"/><path d="M22.5,23 L22.5,50 M9.5,31 L35.5,31 M22.5,50 L9.5,65 M22.5,50 L35.5,65 " fill="none" filter="url(#ft6ef8d1mi9fl)" style="stroke:#A80036;stroke-width:2.0;"/><text fill="#000000" font-family="sans-serif" font-size="14" lengthAdjust="spacing" textLength="29" x="5" y="969.5801">User</text><ellipse cx="22.5" cy="982.6563" fill="#FEFECE" filter="url(#ft6ef8d1mi9fl)" rx="8" ry="8" style="stroke:#A80036;stroke-width:2.0;"/><path d="M22.5,990.6563 L22.5,1017.6563 M9.5,998.6563 L35.5,998.6563 M22.5,1017.6563 L9.5,1032.6563 M22.5,1017.6563 L35.5,1032.6563 " fill="none" filter="url(#ft6ef8d1mi9fl)" style="stroke:#A80036;stroke-width:2.0;"/><rect fill="#FEFECE" filter="url(#ft6ef8d1mi9fl)" height="31.6094" style="stroke:#A80036;stroke-width:1.5;" width="80" x="244.5" y="53"/><text fill="#000000" font-family="sans-serif" font-size="14" lengthAdjust="spacing" textLength="66" x="251.5" y="74.5332">floorRoute</text><rect fill="#FEFECE" filter="url(#ft6ef8d1mi9fl)" height="31.6094" style="stroke:#A80036;stroke-width:1.5;" width="80" x="244.5" y="955.0469"/><text fill="#000000" font-family="sans-serif" font-size="14" lengthAdjust="spacing" textLength="66" x="251.5" y="976.5801">floorRoute</text><rect fill="#FEFECE" filter="url(#ft6ef8d1mi9fl)" height="31.6094" style="stroke:#A80036;stroke-width:1.5;" width="112" x="338.5" y="53"/><text fill="#000000" font-family="sans-serif" font-size="14" lengthAdjust="spacing" textLength="98" x="345.5" y="74.5332">IFloorController</text><rect fill="#FEFECE" filter="url(#ft6ef8d1mi9fl)" height="31.6094" style="stroke:#A80036;stroke-width:1.5;" width="112" x="338.5" y="955.0469"/><text fill="#000000" font-family="sans-serif" font-size="14" lengthAdjust="spacing" textLength="98" x="345.5" y="976.5801">IFloorController</text><rect fill="#FEFECE" filter="url(#ft6ef8d1mi9fl)" height="31.6094" style="stroke:#A80036;stroke-width:1.5;" width="104" x="464.5" y="53"/><text fill="#000000" font-family="sans-serif" font-size="14" lengthAdjust="spacing" textLength="90" x="471.5" y="74.5332">floorController</text><rect fill="#FEFECE" filter="url(#ft6ef8d1mi9fl)" height="31.6094" style="stroke:#A80036;stroke-width:1.5;" width="104" x="464.5" y="955.0469"/><text fill="#000000" font-family="sans-serif" font-size="14" lengthAdjust="spacing" textLength="90" x="471.5" y="976.5801">floorController</text><rect fill="#FEFECE" filter="url(#ft6ef8d1mi9fl)" height="31.6094" style="stroke:#A80036;stroke-width:1.5;" width="97" x="582.5" y="53"/><text fill="#000000" font-family="sans-serif" font-size="14" lengthAdjust="spacing" textLength="83" x="589.5" y="74.5332">IFloorService</text><rect fill="#FEFECE" filter="url(#ft6ef8d1mi9fl)" height="31.6094" style="stroke:#A80036;stroke-width:1.5;" width="97" x="582.5" y="955.0469"/><text fill="#000000" font-family="sans-serif" font-size="14" lengthAdjust="spacing" textLength="83" x="589.5" y="976.5801">IFloorService</text><rect fill="#FEFECE" filter="url(#ft6ef8d1mi9fl)" height="31.6094" style="stroke:#A80036;stroke-width:1.5;" width="89" x="693.5" y="53"/><text fill="#000000" font-family="sans-serif" font-size="14" lengthAdjust="spacing" textLength="75" x="700.5" y="74.5332">floorService</text><rect fill="#FEFECE" filter="url(#ft6ef8d1mi9fl)" height="31.6094" style="stroke:#A80036;stroke-width:1.5;" width="89" x="693.5" y="955.0469"/><text fill="#000000" font-family="sans-serif" font-size="14" lengthAdjust="spacing" textLength="75" x="700.5" y="976.5801">floorService</text><rect fill="#FEFECE" filter="url(#ft6ef8d1mi9fl)" height="31.6094" style="stroke:#A80036;stroke-width:1.5;" width="84" x="823" y="53"/><text fill="#000000" font-family="sans-serif" font-size="14" lengthAdjust="spacing" textLength="70" x="830" y="74.5332">IFloorRepo</text><rect fill="#FEFECE" filter="url(#ft6ef8d1mi9fl)" height="31.6094" style="stroke:#A80036;stroke-width:1.5;" width="84" x="823" y="955.0469"/><text fill="#000000" font-family="sans-serif" font-size="14" lengthAdjust="spacing" textLength="70" x="830" y="976.5801">IFloorRepo</text><rect fill="#FEFECE" filter="url(#ft6ef8d1mi9fl)" height="31.6094" style="stroke:#A80036;stroke-width:1.5;" width="76" x="954" y="53"/><text fill="#000000" font-family="sans-serif" font-size="14" lengthAdjust="spacing" textLength="62" x="961" y="74.5332">floorRepo</text><rect fill="#FEFECE" filter="url(#ft6ef8d1mi9fl)" height="31.6094" style="stroke:#A80036;stroke-width:1.5;" width="76" x="954" y="955.0469"/><text fill="#000000" font-family="sans-serif" font-size="14" lengthAdjust="spacing" textLength="62" x="961" y="976.5801">floorRepo</text><rect fill="#FEFECE" filter="url(#ft6ef8d1mi9fl)" height="31.6094" style="stroke:#A80036;stroke-width:1.5;" width="74" x="1072" y="53"/><text fill="#000000" font-family="sans-serif" font-size="14" lengthAdjust="spacing" textLength="60" x="1079" y="74.5332">FloorMap</text><rect fill="#FEFECE" filter="url(#ft6ef8d1mi9fl)" height="31.6094" style="stroke:#A80036;stroke-width:1.5;" width="74" x="1072" y="955.0469"/><text fill="#000000" font-family="sans-serif" font-size="14" lengthAdjust="spacing" textLength="60" x="1079" y="976.5801">FloorMap</text><rect fill="#FEFECE" filter="url(#ft6ef8d1mi9fl)" height="31.6094" style="stroke:#A80036;stroke-width:1.5;" width="124" x="1160" y="53"/><text fill="#000000" font-family="sans-serif" font-size="14" lengthAdjust="spacing" textLength="110" x="1167" y="74.5332">IFloorPersistence</text><rect fill="#FEFECE" filter="url(#ft6ef8d1mi9fl)" height="31.6094" style="stroke:#A80036;stroke-width:1.5;" width="124" x="1160" y="955.0469"/><text fill="#000000" font-family="sans-serif" font-size="14" lengthAdjust="spacing" textLength="110" x="1167" y="976.5801">IFloorPersistence</text><rect fill="#FEFECE" filter="url(#ft6ef8d1mi9fl)" height="31.6094" style="stroke:#A80036;stroke-width:1.5;" width="93" x="1298" y="53"/><text fill="#000000" font-family="sans-serif" font-size="14" lengthAdjust="spacing" textLength="79" x="1305" y="74.5332">floorSchema</text><rect fill="#FEFECE" filter="url(#ft6ef8d1mi9fl)" height="31.6094" style="stroke:#A80036;stroke-width:1.5;" width="93" x="1298" y="955.0469"/><text fill="#000000" font-family="sans-serif" font-size="14" lengthAdjust="spacing" textLength="79" x="1305" y="976.5801">floorSchema</text><rect fill="#FEFECE" filter="url(#ft6ef8d1mi9fl)" height="31.6094" style="stroke:#A80036;stroke-width:1.5;" width="80" x="1405" y="53"/><text fill="#000000" font-family="sans-serif" font-size="14" lengthAdjust="spacing" textLength="66" x="1412" y="74.5332">IFloorDTO</text><rect fill="#FEFECE" filter="url(#ft6ef8d1mi9fl)" height="31.6094" style="stroke:#A80036;stroke-width:1.5;" width="80" x="1405" y="955.0469"/><text fill="#000000" font-family="sans-serif" font-size="14" lengthAdjust="spacing" textLength="66" x="1412" y="976.5801">IFloorDTO</text><rect fill="#FEFECE" filter="url(#ft6ef8d1mi9fl)" height="31.6094" style="stroke:#A80036;stroke-width:1.5;" width="101" x="1499" y="53"/><text fill="#000000" font-family="sans-serif" font-size="14" lengthAdjust="spacing" textLength="87" x="1506" y="74.5332">IBuildingRepo</text><rect fill="#FEFECE" filter="url(#ft6ef8d1mi9fl)" height="31.6094" style="stroke:#A80036;stroke-width:1.5;" width="101" x="1499" y="955.0469"/><text fill="#000000" font-family="sans-serif" font-size="14" lengthAdjust="spacing" textLength="87" x="1506" y="976.5801">IBuildingRepo</text><rect fill="#FEFECE" filter="url(#ft6ef8d1mi9fl)" height="31.6094" style="stroke:#A80036;stroke-width:1.5;" width="97" x="1614" y="53"/><text fill="#000000" font-family="sans-serif" font-size="14" lengthAdjust="spacing" textLength="83" x="1621" y="74.5332">buildingRepo</text><rect fill="#FEFECE" filter="url(#ft6ef8d1mi9fl)" height="31.6094" style="stroke:#A80036;stroke-width:1.5;" width="97" x="1614" y="955.0469"/><text fill="#000000" font-family="sans-serif" font-size="14" lengthAdjust="spacing" textLength="83" x="1621" y="976.5801">buildingRepo</text><rect fill="#FFFFFF" filter="url(#ft6ef8d1mi9fl)" height="816.0859" style="stroke:#A80036;stroke-width:1.0;" width="10" x="281.5" y="121.9609"/><rect fill="#FFFFFF" filter="url(#ft6ef8d1mi9fl)" height="30.3516" style="stroke:#A80036;stroke-width:1.0;" width="10" x="391.5" y="152.3125"/><rect fill="#FFFFFF" filter="url(#ft6ef8d1mi9fl)" height="741.3828" style="stroke:#A80036;stroke-width:1.0;" width="10" x="513.5" y="182.6641"/><rect fill="#FFFFFF" filter="url(#ft6ef8d1mi9fl)" height="30.3516" style="stroke:#A80036;stroke-width:1.0;" width="10" x="628" y="213.0156"/><rect fill="#FFFFFF" filter="url(#ft6ef8d1mi9fl)" height="650.3281" style="stroke:#A80036;stroke-width:1.0;" width="10" x="735" y="243.3672"/><rect fill="#FFFFFF" filter="url(#ft6ef8d1mi9fl)" height="60.3516" style="stroke:#A80036;stroke-width:1.0;" width="10" x="862" y="394.7734"/><rect fill="#FFFFFF" filter="url(#ft6ef8d1mi9fl)" height="60.3516" style="stroke:#A80036;stroke-width:1.0;" width="10" x="862" y="515.8281"/><rect fill="#FFFFFF" filter="url(#ft6ef8d1mi9fl)" height="30.3516" style="stroke:#A80036;stroke-width:1.0;" width="10" x="862" y="636.8828"/><rect fill="#FFFFFF" filter="url(#ft6ef8d1mi9fl)" height="60.3516" style="stroke:#A80036;stroke-width:1.0;" width="10" x="989" y="425.125"/><rect fill="#FFFFFF" filter="url(#ft6ef8d1mi9fl)" height="60.3516" style="stroke:#A80036;stroke-width:1.0;" width="10" x="989" y="546.1797"/><rect fill="#FFFFFF" filter="url(#ft6ef8d1mi9fl)" height="121.4063" style="stroke:#A80036;stroke-width:1.0;" width="10" x="989" y="667.2344"/><rect fill="#FFFFFF" filter="url(#ft6ef8d1mi9fl)" height="30.3516" style="stroke:#A80036;stroke-width:1.0;" width="10" x="1106" y="727.9375"/><rect fill="#FFFFFF" filter="url(#ft6ef8d1mi9fl)" height="44.3516" style="stroke:#A80036;stroke-width:1.0;" width="10" x="1106" y="818.9922"/><rect fill="#FFFFFF" filter="url(#ft6ef8d1mi9fl)" height="60.3516" style="stroke:#A80036;stroke-width:1.0;" width="10" x="1546.5" y="273.7188"/><rect fill="#FFFFFF" filter="url(#ft6ef8d1mi9fl)" height="60.3516" style="stroke:#A80036;stroke-width:1.0;" width="10" x="1659.5" y="304.0703"/><polygon fill="#A80036" points="269.5,117.9609,279.5,121.9609,269.5,125.9609,273.5,121.9609" style="stroke:#A80036;stroke-width:1.0;"/><line style="stroke:#A80036;stroke-width:1.0;" x1="22.5" x2="275.5" y1="121.9609" y2="121.9609"/><text fill="#000000" font-family="sans-serif" font-size="13" lengthAdjust="spacing" textLength="240" x="29.5" y="117.1045">PUT /{id, name,buildingName,description}</text><polygon fill="#A80036" points="379.5,148.3125,389.5,152.3125,379.5,156.3125,383.5,152.3125" style="stroke:#A80036;stroke-width:1.0;"/><line style="stroke:#A80036;stroke-width:1.0;" x1="291.5" x2="385.5" y1="152.3125" y2="152.3125"/><text fill="#000000" font-family="sans-serif" font-size="13" lengthAdjust="spacing" textLength="76" x="298.5" y="147.4561">updateFloor()</text><polygon fill="#A80036" points="501.5,178.6641,511.5,182.6641,501.5,186.6641,505.5,182.6641" style="stroke:#A80036;stroke-width:1.0;"/><line style="stroke:#A80036;stroke-width:1.0;" x1="396.5" x2="507.5" y1="182.6641" y2="182.6641"/><text fill="#000000" font-family="sans-serif" font-size="13" lengthAdjust="spacing" textLength="76" x="403.5" y="177.8076">updateFloor()</text><polygon fill="#A80036" points="616,209.0156,626,213.0156,616,217.0156,620,213.0156" style="stroke:#A80036;stroke-width:1.0;"/><line style="stroke:#A80036;stroke-width:1.0;" x1="523.5" x2="622" y1="213.0156" y2="213.0156"/><text fill="#000000" font-family="sans-serif" font-size="13" lengthAdjust="spacing" textLength="76" x="530.5" y="208.1592">updateFloor()</text><polygon fill="#A80036" points="723,239.3672,733,243.3672,723,247.3672,727,243.3672" style="stroke:#A80036;stroke-width:1.0;"/><line style="stroke:#A80036;stroke-width:1.0;" x1="633" x2="729" y1="243.3672" y2="243.3672"/><text fill="#000000" font-family="sans-serif" font-size="13" lengthAdjust="spacing" textLength="76" x="640" y="238.5107">updateFloor()</text><polygon fill="#A80036" points="1534.5,269.7188,1544.5,273.7188,1534.5,277.7188,1538.5,273.7188" style="stroke:#A80036;stroke-width:1.0;"/><line style="stroke:#A80036;stroke-width:1.0;" x1="745" x2="1540.5" y1="273.7188" y2="273.7188"/><text fill="#000000" font-family="sans-serif" font-size="13" lengthAdjust="spacing" textLength="78" x="752" y="268.8623">findByName()</text><polygon fill="#A80036" points="1647.5,300.0703,1657.5,304.0703,1647.5,308.0703,1651.5,304.0703" style="stroke:#A80036;stroke-width:1.0;"/><line style="stroke:#A80036;stroke-width:1.0;" x1="1556.5" x2="1653.5" y1="304.0703" y2="304.0703"/><text fill="#000000" font-family="sans-serif" font-size="13" lengthAdjust="spacing" textLength="78" x="1563.5" y="299.2139">findByName()</text><polygon fill="#A80036" points="756,360.4219,746,364.4219,756,368.4219,752,364.4219" style="stroke:#A80036;stroke-width:1.0;"/><line style="stroke:#A80036;stroke-width:1.0;stroke-dasharray:2.0,2.0;" x1="750" x2="1663.5" y1="364.4219" y2="364.4219"/><text fill="#000000" font-family="sans-serif" font-size="13" lengthAdjust="spacing" textLength="44" x="762" y="359.5654">building</text><polygon fill="#A80036" points="850,390.7734,860,394.7734,850,398.7734,854,394.7734" style="stroke:#A80036;stroke-width:1.0;"/><line style="stroke:#A80036;stroke-width:1.0;" x1="745" x2="856" y1="394.7734" y2="394.7734"/><text fill="#000000" font-family="sans-serif" font-size="13" lengthAdjust="spacing" textLength="78" x="752" y="389.917">findByName()</text><polygon fill="#A80036" points="977,421.125,987,425.125,977,429.125,981,425.125" style="stroke:#A80036;stroke-width:1.0;"/><line style="stroke:#A80036;stroke-width:1.0;" x1="872" x2="983" y1="425.125" y2="425.125"/><text fill="#000000" font-family="sans-serif" font-size="13" lengthAdjust="spacing" textLength="78" x="879" y="420.2686">findByName()</text><polygon fill="#A80036" points="756,481.4766,746,485.4766,756,489.4766,752,485.4766" style="stroke:#A80036;stroke-width:1.0;"/><line style="stroke:#A80036;stroke-width:1.0;stroke-dasharray:2.0,2.0;" x1="750" x2="993" y1="485.4766" y2="485.4766"/><text fill="#000000" font-family="sans-serif" font-size="13" lengthAdjust="spacing" textLength="24" x="762" y="480.6201">floor</text><polygon fill="#A80036" points="850,511.8281,860,515.8281,850,519.8281,854,515.8281" style="stroke:#A80036;stroke-width:1.0;"/><line style="stroke:#A80036;stroke-width:1.0;" x1="745" x2="856" y1="515.8281" y2="515.8281"/><text fill="#000000" font-family="sans-serif" font-size="13" lengthAdjust="spacing" textLength="98" x="752" y="510.9717">findByDomainId()</text><polygon fill="#A80036" points="977,542.1797,987,546.1797,977,550.1797,981,546.1797" style="stroke:#A80036;stroke-width:1.0;"/><line style="stroke:#A80036;stroke-width:1.0;" x1="872" x2="983" y1="546.1797" y2="546.1797"/><text fill="#000000" font-family="sans-serif" font-size="13" lengthAdjust="spacing" textLength="98" x="879" y="541.3232">findByDomainId()</text><polygon fill="#A80036" points="756,602.5313,746,606.5313,756,610.5313,752,606.5313" style="stroke:#A80036;stroke-width:1.0;"/><line style="stroke:#A80036;stroke-width:1.0;stroke-dasharray:2.0,2.0;" x1="750" x2="993" y1="606.5313" y2="606.5313"/><text fill="#000000" font-family="sans-serif" font-size="13" lengthAdjust="spacing" textLength="24" x="762" y="601.6748">floor</text><polygon fill="#A80036" points="850,632.8828,860,636.8828,850,640.8828,854,636.8828" style="stroke:#A80036;stroke-width:1.0;"/><line style="stroke:#A80036;stroke-width:1.0;" x1="745" x2="856" y1="636.8828" y2="636.8828"/><text fill="#000000" font-family="sans-serif" font-size="13" lengthAdjust="spacing" textLength="34" x="752" y="632.0264">save()</text><polygon fill="#A80036" points="977,663.2344,987,667.2344,977,671.2344,981,667.2344" style="stroke:#A80036;stroke-width:1.0;"/><line style="stroke:#A80036;stroke-width:1.0;" x1="867" x2="983" y1="667.2344" y2="667.2344"/><text fill="#000000" font-family="sans-serif" font-size="13" lengthAdjust="spacing" textLength="34" x="874" y="662.3779">save()</text><polygon fill="#A80036" points="1334.5,693.5859,1344.5,697.5859,1334.5,701.5859,1338.5,697.5859" style="stroke:#A80036;stroke-width:1.0;"/><line style="stroke:#A80036;stroke-width:1.0;" x1="999" x2="1340.5" y1="697.5859" y2="697.5859"/><text fill="#000000" font-family="sans-serif" font-size="13" lengthAdjust="spacing" textLength="52" x="1006" y="692.7295">findOne()</text><polygon fill="#A80036" points="1094,723.9375,1104,727.9375,1094,731.9375,1098,727.9375" style="stroke:#A80036;stroke-width:1.0;"/><line style="stroke:#A80036;stroke-width:1.0;" x1="999" x2="1100" y1="727.9375" y2="727.9375"/><text fill="#000000" font-family="sans-serif" font-size="13" lengthAdjust="spacing" textLength="88" x="1006" y="723.0811">toPersistence()</text><polygon fill="#A80036" points="1010,754.2891,1000,758.2891,1010,762.2891,1006,758.2891" style="stroke:#A80036;stroke-width:1.0;"/><line style="stroke:#A80036;stroke-width:1.0;stroke-dasharray:2.0,2.0;" x1="1004" x2="1110" y1="758.2891" y2="758.2891"/><text fill="#000000" font-family="sans-serif" font-size="13" lengthAdjust="spacing" textLength="24" x="1016" y="753.4326">floor</text><polygon fill="#A80036" points="1334.5,784.6406,1344.5,788.6406,1334.5,792.6406,1338.5,788.6406" style="stroke:#A80036;stroke-width:1.0;"/><line style="stroke:#A80036;stroke-width:1.0;" x1="994" x2="1340.5" y1="788.6406" y2="788.6406"/><text fill="#000000" font-family="sans-serif" font-size="13" lengthAdjust="spacing" textLength="44" x="1001" y="783.7842">create()</text><polygon fill="#A80036" points="1094,814.9922,1104,818.9922,1094,822.9922,1098,818.9922" style="stroke:#A80036;stroke-width:1.0;"/><line style="stroke:#A80036;stroke-width:1.0;" x1="745" x2="1100" y1="818.9922" y2="818.9922"/><text fill="#000000" font-family="sans-serif" font-size="13" lengthAdjust="spacing" textLength="45" x="752" y="814.1357">toDTO()</text><polygon fill="#A80036" points="1435,828.9922,1445,832.9922,1435,836.9922,1439,832.9922" style="stroke:#A80036;stroke-width:1.0;"/><line style="stroke:#A80036;stroke-width:1.0;" x1="1116" x2="1441" y1="832.9922" y2="832.9922"/><polygon fill="#A80036" points="756,859.3438,746,863.3438,756,867.3438,752,863.3438" style="stroke:#A80036;stroke-width:1.0;"/><line style="stroke:#A80036;stroke-width:1.0;stroke-dasharray:2.0,2.0;" x1="750" x2="1110" y1="863.3438" y2="863.3438"/><text fill="#000000" font-family="sans-serif" font-size="13" lengthAdjust="spacing" textLength="50" x="762" y="858.4873">floorDTO</text><polygon fill="#A80036" points="534.5,889.6953,524.5,893.6953,534.5,897.6953,530.5,893.6953" style="stroke:#A80036;stroke-width:1.0;"/><line style="stroke:#A80036;stroke-width:1.0;stroke-dasharray:2.0,2.0;" x1="528.5" x2="739" y1="893.6953" y2="893.6953"/><text fill="#000000" font-family="sans-serif" font-size="13" lengthAdjust="spacing" textLength="50" x="540.5" y="888.8389">floorDTO</text><polygon fill="#A80036" points="302.5,920.0469,292.5,924.0469,302.5,928.0469,298.5,924.0469" style="stroke:#A80036;stroke-width:1.0;"/><line style="stroke:#A80036;stroke-width:1.0;stroke-dasharray:2.0,2.0;" x1="296.5" x2="517.5" y1="924.0469" y2="924.0469"/><text fill="#000000" font-family="sans-serif" font-size="13" lengthAdjust="spacing" textLength="152" x="308.5" y="919.1904">res.json(floorDTO).status()</text><polygon fill="#A80036" points="33.5,934.0469,23.5,938.0469,33.5,942.0469,29.5,938.0469" style="stroke:#A80036;stroke-width:1.0;"/><line style="stroke:#A80036;stroke-width:1.0;stroke-dasharray:2.0,2.0;" x1="27.5" x2="285.5" y1="938.0469" y2="938.0469"/><!--MD5=[527fa0f63b6578fabdfc1caa82f567cd]
@startuml
'https://plantuml.com/sequence-diagram

actor User
participant floorRoute
participant IFloorController
participant floorController
participant IFloorService
participant floorService
participant IFloorRepo
participant floorRepo
participant FloorMap
participant IFloorPersistence
participant floorSchema
participant IFloorDTO
participant IBuildingRepo
participant buildingRepo


User -> floorRoute: PUT /{id, name,buildingName,description}
activate floorRoute
floorRoute -> IFloorController : updateFloor()
activate IFloorController
IFloorController -> floorController :  updateFloor()
deactivate IFloorController
activate floorController
floorController -> IFloorService : updateFloor()
activate IFloorService
IFloorService -> floorService : updateFloor()
deactivate IFloorService
activate floorService
floorService -> IBuildingRepo : findByName()
activate IBuildingRepo
IBuildingRepo -> buildingRepo : findByName()
activate buildingRepo
deactivate IBuildingRepo
buildingRepo - -> floorService : building
deactivate buildingRepo
floorService -> IFloorRepo : findByName()
activate IFloorRepo
IFloorRepo -> floorRepo: findByName()
activate floorRepo
deactivate IFloorRepo
floorRepo - -> floorService : floor
deactivate floorRepo
floorService -> IFloorRepo : findByDomainId()
activate IFloorRepo
IFloorRepo -> floorRepo : findByDomainId()
activate floorRepo
deactivate IFloorRepo
floorRepo - -> floorService : floor
deactivate floorRepo
floorService -> IFloorRepo: save()
activate IFloorRepo
IFloorRepo -> floorRepo : save()
deactivate IFloorRepo
activate floorRepo
floorRepo -> floorSchema : findOne()
floorRepo -> FloorMap : toPersistence()
activate FloorMap
FloorMap - -> floorRepo : floor
deactivate FloorMap
floorRepo -> floorSchema: create()
deactivate floorRepo
floorService -> FloorMap : toDTO()
activate FloorMap
FloorMap -> IFloorDTO
FloorMap - -> floorService : floorDTO
deactivate FloorMap
floorService - -> floorController : floorDTO
deactivate floorService
floorController - -> floorRoute : res.json(floorDTO).status()
deactivate floorController
floorRoute - -> User
deactivate floorRoute
@enduml

@startuml

actor User
participant floorRoute
participant IFloorController
participant floorController
participant IFloorService
participant floorService
participant IFloorRepo
participant floorRepo
participant FloorMap
participant IFloorPersistence
participant floorSchema
participant IFloorDTO
participant IBuildingRepo
participant buildingRepo


User -> floorRoute: PUT /{id, name,buildingName,description}
activate floorRoute
floorRoute -> IFloorController : updateFloor()
activate IFloorController
IFloorController -> floorController :  updateFloor()
deactivate IFloorController
activate floorController
floorController -> IFloorService : updateFloor()
activate IFloorService
IFloorService -> floorService : updateFloor()
deactivate IFloorService
activate floorService
floorService -> IBuildingRepo : findByName()
activate IBuildingRepo
IBuildingRepo -> buildingRepo : findByName()
activate buildingRepo
deactivate IBuildingRepo
buildingRepo - -> floorService : building
deactivate buildingRepo
floorService -> IFloorRepo : findByName()
activate IFloorRepo
IFloorRepo -> floorRepo: findByName()
activate floorRepo
deactivate IFloorRepo
floorRepo - -> floorService : floor
deactivate floorRepo
floorService -> IFloorRepo : findByDomainId()
activate IFloorRepo
IFloorRepo -> floorRepo : findByDomainId()
activate floorRepo
deactivate IFloorRepo
floorRepo - -> floorService : floor
deactivate floorRepo
floorService -> IFloorRepo: save()
activate IFloorRepo
IFloorRepo -> floorRepo : save()
deactivate IFloorRepo
activate floorRepo
floorRepo -> floorSchema : findOne()
floorRepo -> FloorMap : toPersistence()
activate FloorMap
FloorMap - -> floorRepo : floor
deactivate FloorMap
floorRepo -> floorSchema: create()
deactivate floorRepo
floorService -> FloorMap : toDTO()
activate FloorMap
FloorMap -> IFloorDTO
FloorMap - -> floorService : floorDTO
deactivate FloorMap
floorService - -> floorController : floorDTO
deactivate floorService
floorController - -> floorRoute : res.json(floorDTO).status()
deactivate floorController
floorRoute - -> User
deactivate floorRoute
@enduml

PlantUML version 1.2021.11(Sat Oct 02 14:26:11 BST 2021)
(GPL source distribution)
Java Runtime: OpenJDK Runtime Environment
JVM: OpenJDK 64-Bit Server VM
Default Encoding: Cp1252
Language: pt
Country: PT
--></g></svg>