<?xml version="1.0" encoding="us-ascii" standalone="no"?><svg xmlns="http://www.w3.org/2000/svg" xmlns:xlink="http://www.w3.org/1999/xlink" contentStyleType="text/css" height="739px" preserveAspectRatio="none" style="width:1783px;height:739px;background:#FFFFFF;" version="1.1" viewBox="0 0 1783 739" width="1783px" zoomAndPan="magnify"><defs/><g><rect fill="#FFFFFF" height="544.6563" style="stroke:#181818;stroke-width:1.0;" width="10" x="17.5" y="93.6211"/><rect fill="#FFFFFF" height="521.3652" style="stroke:#181818;stroke-width:1.0;" width="10" x="797.5" y="116.9121"/><rect fill="#FFFFFF" height="458.7832" style="stroke:#181818;stroke-width:1.0;" width="10" x="1533.5" y="148.2031"/><rect fill="#FFFFFF" height="31.291" style="stroke:#181818;stroke-width:1.0;" width="10" x="1734.5" y="223.7852"/><rect fill="#FFFFFF" height="31.291" style="stroke:#181818;stroke-width:1.0;" width="10" x="1734.5" y="330.6582"/><rect fill="#FFFFFF" height="31.291" style="stroke:#181818;stroke-width:1.0;" width="10" x="1734.5" y="437.5313"/><rect fill="#FFFFFF" height="31.291" style="stroke:#181818;stroke-width:1.0;" width="10" x="1734.5" y="544.4043"/><line style="stroke:#181818;stroke-width:0.5;stroke-dasharray:5.0,5.0;" x1="22" x2="22" y1="83.6211" y2="656.2773"/><line style="stroke:#181818;stroke-width:0.5;stroke-dasharray:5.0,5.0;" x1="802" x2="802" y1="83.6211" y2="656.2773"/><line style="stroke:#181818;stroke-width:0.5;stroke-dasharray:5.0,5.0;" x1="1538.5" x2="1538.5" y1="83.6211" y2="656.2773"/><line style="stroke:#181818;stroke-width:0.5;stroke-dasharray:5.0,5.0;" x1="1739.5" x2="1739.5" y1="83.6211" y2="656.2773"/><text fill="#000000" font-family="sans-serif" font-size="14" lengthAdjust="spacing" textLength="29" x="5" y="80.1074">User</text><ellipse cx="22.5" cy="13.5" fill="#E2E2F0" rx="8" ry="8" style="stroke:#181818;stroke-width:0.5;"/><path d="M22.5,21.5 L22.5,48.5 M9.5,29.5 L35.5,29.5 M22.5,48.5 L9.5,63.5 M22.5,48.5 L35.5,63.5 " fill="none" style="stroke:#181818;stroke-width:0.5;"/><text fill="#000000" font-family="sans-serif" font-size="14" lengthAdjust="spacing" textLength="29" x="5" y="670.3848">User</text><ellipse cx="22.5" cy="682.3984" fill="#E2E2F0" rx="8" ry="8" style="stroke:#181818;stroke-width:0.5;"/><path d="M22.5,690.3984 L22.5,717.3984 M9.5,698.3984 L35.5,698.3984 M22.5,717.3984 L9.5,732.3984 M22.5,717.3984 L35.5,732.3984 " fill="none" style="stroke:#181818;stroke-width:0.5;"/><rect fill="#E2E2F0" height="32.6211" rx="2.5" ry="2.5" style="stroke:#181818;stroke-width:0.5;" width="69" x="768" y="50"/><text fill="#000000" font-family="sans-serif" font-size="14" lengthAdjust="spacing" textLength="55" x="775" y="72.1074">Postman</text><rect fill="#E2E2F0" height="32.6211" rx="2.5" ry="2.5" style="stroke:#181818;stroke-width:0.5;" width="69" x="768" y="655.2773"/><text fill="#000000" font-family="sans-serif" font-size="14" lengthAdjust="spacing" textLength="55" x="775" y="677.3848">Postman</text><rect fill="#E2E2F0" height="51.2422" rx="2.5" ry="2.5" style="stroke:#181818;stroke-width:0.5;" width="92" x="1492.5" y="31.3789"/><text fill="#000000" font-family="sans-serif" font-size="14" font-style="italic" lengthAdjust="spacing" textLength="78" x="1499.5" y="53.4863">&#171;Container&#187;</text><text fill="#000000" font-family="sans-serif" font-size="14" lengthAdjust="spacing" textLength="46" x="1515.5" y="72.1074">System</text><rect fill="#E2E2F0" height="51.2422" rx="2.5" ry="2.5" style="stroke:#181818;stroke-width:0.5;" width="92" x="1492.5" y="655.2773"/><text fill="#000000" font-family="sans-serif" font-size="14" font-style="italic" lengthAdjust="spacing" textLength="78" x="1499.5" y="677.3848">&#171;Container&#187;</text><text fill="#000000" font-family="sans-serif" font-size="14" lengthAdjust="spacing" textLength="46" x="1515.5" y="696.0059">System</text><rect fill="#E2E2F0" height="32.6211" rx="2.5" ry="2.5" style="stroke:#181818;stroke-width:0.5;" width="76" x="1701.5" y="50"/><text fill="#000000" font-family="sans-serif" font-size="14" lengthAdjust="spacing" textLength="62" x="1708.5" y="72.1074">MongoDB</text><rect fill="#E2E2F0" height="32.6211" rx="2.5" ry="2.5" style="stroke:#181818;stroke-width:0.5;" width="76" x="1701.5" y="655.2773"/><text fill="#000000" font-family="sans-serif" font-size="14" lengthAdjust="spacing" textLength="62" x="1708.5" y="677.3848">MongoDB</text><rect fill="#FFFFFF" height="544.6563" style="stroke:#181818;stroke-width:1.0;" width="10" x="17.5" y="93.6211"/><rect fill="#FFFFFF" height="521.3652" style="stroke:#181818;stroke-width:1.0;" width="10" x="797.5" y="116.9121"/><rect fill="#FFFFFF" height="458.7832" style="stroke:#181818;stroke-width:1.0;" width="10" x="1533.5" y="148.2031"/><rect fill="#FFFFFF" height="31.291" style="stroke:#181818;stroke-width:1.0;" width="10" x="1734.5" y="223.7852"/><rect fill="#FFFFFF" height="31.291" style="stroke:#181818;stroke-width:1.0;" width="10" x="1734.5" y="330.6582"/><rect fill="#FFFFFF" height="31.291" style="stroke:#181818;stroke-width:1.0;" width="10" x="1734.5" y="437.5313"/><rect fill="#FFFFFF" height="31.291" style="stroke:#181818;stroke-width:1.0;" width="10" x="1734.5" y="544.4043"/><polygon fill="#181818" points="785.5,112.9121,795.5,116.9121,785.5,120.9121,789.5,116.9121" style="stroke:#181818;stroke-width:1.0;"/><line style="stroke:#181818;stroke-width:1.0;" x1="27.5" x2="791.5" y1="116.9121" y2="116.9121"/><text fill="#000000" font-family="sans-serif" font-size="13" font-weight="bold" lengthAdjust="spacing" textLength="7" x="34.5" y="111.6494">1</text><text fill="#000000" font-family="sans-serif" font-size="13" lengthAdjust="spacing" textLength="740" x="45.5" y="111.6494">Dar informa&#231;ao {id,map,passages:[{id,positionBuilding1,positionBuilding2}],elevator:{id,position},rooms:[{ id,position,distX,distY}]}</text><polygon fill="#181818" points="1521.5,144.2031,1531.5,148.2031,1521.5,152.2031,1525.5,148.2031" style="stroke:#181818;stroke-width:1.0;"/><line style="stroke:#181818;stroke-width:1.0;" x1="807.5" x2="1527.5" y1="148.2031" y2="148.2031"/><text fill="#000000" font-family="sans-serif" font-size="13" font-weight="bold" lengthAdjust="spacing" textLength="7" x="814.5" y="142.9404">2</text><text fill="#000000" font-family="sans-serif" font-size="13" lengthAdjust="spacing" textLength="696" x="825.5" y="142.9404">PATCH {id,map,passages:[{id,positionBuilding1,positionBuilding2}],elevator:{id,position},rooms:[{ id,position,distX,distY}]}</text><line style="stroke:#181818;stroke-width:1.0;" x1="1543.5" x2="1585.5" y1="179.4941" y2="179.4941"/><line style="stroke:#181818;stroke-width:1.0;" x1="1585.5" x2="1585.5" y1="179.4941" y2="192.4941"/><line style="stroke:#181818;stroke-width:1.0;" x1="1544.5" x2="1585.5" y1="192.4941" y2="192.4941"/><polygon fill="#181818" points="1554.5,188.4941,1544.5,192.4941,1554.5,196.4941,1550.5,192.4941" style="stroke:#181818;stroke-width:1.0;"/><text fill="#000000" font-family="sans-serif" font-size="13" font-weight="bold" lengthAdjust="spacing" textLength="7" x="1550.5" y="174.2314">3</text><text fill="#000000" font-family="sans-serif" font-size="13" lengthAdjust="spacing" textLength="166" x="1561.5" y="174.2314">check verifications passages</text><polygon fill="#181818" points="1722.5,219.7852,1732.5,223.7852,1722.5,227.7852,1726.5,223.7852" style="stroke:#181818;stroke-width:1.0;"/><line style="stroke:#181818;stroke-width:1.0;" x1="1543.5" x2="1728.5" y1="223.7852" y2="223.7852"/><text fill="#000000" font-family="sans-serif" font-size="13" font-weight="bold" lengthAdjust="spacing" textLength="7" x="1550.5" y="218.5225">4</text><text fill="#000000" font-family="sans-serif" font-size="13" lengthAdjust="spacing" textLength="88" x="1561.5" y="218.5225">Save passages</text><polygon fill="#181818" points="1554.5,251.0762,1544.5,255.0762,1554.5,259.0762,1550.5,255.0762" style="stroke:#181818;stroke-width:1.0;"/><line style="stroke:#181818;stroke-width:1.0;stroke-dasharray:2.0,2.0;" x1="1548.5" x2="1738.5" y1="255.0762" y2="255.0762"/><text fill="#000000" font-family="sans-serif" font-size="13" font-weight="bold" lengthAdjust="spacing" textLength="7" x="1560.5" y="249.8135">5</text><text fill="#000000" font-family="sans-serif" font-size="13" lengthAdjust="spacing" textLength="98" x="1571.5" y="249.8135">Return passages</text><line style="stroke:#181818;stroke-width:1.0;" x1="1543.5" x2="1585.5" y1="286.3672" y2="286.3672"/><line style="stroke:#181818;stroke-width:1.0;" x1="1585.5" x2="1585.5" y1="286.3672" y2="299.3672"/><line style="stroke:#181818;stroke-width:1.0;" x1="1544.5" x2="1585.5" y1="299.3672" y2="299.3672"/><polygon fill="#181818" points="1554.5,295.3672,1544.5,299.3672,1554.5,303.3672,1550.5,299.3672" style="stroke:#181818;stroke-width:1.0;"/><text fill="#000000" font-family="sans-serif" font-size="13" font-weight="bold" lengthAdjust="spacing" textLength="7" x="1550.5" y="281.1045">6</text><text fill="#000000" font-family="sans-serif" font-size="13" lengthAdjust="spacing" textLength="154" x="1561.5" y="281.1045">check verifications elevator</text><polygon fill="#181818" points="1722.5,326.6582,1732.5,330.6582,1722.5,334.6582,1726.5,330.6582" style="stroke:#181818;stroke-width:1.0;"/><line style="stroke:#181818;stroke-width:1.0;" x1="1543.5" x2="1728.5" y1="330.6582" y2="330.6582"/><text fill="#000000" font-family="sans-serif" font-size="13" font-weight="bold" lengthAdjust="spacing" textLength="7" x="1550.5" y="325.3955">7</text><text fill="#000000" font-family="sans-serif" font-size="13" lengthAdjust="spacing" textLength="76" x="1561.5" y="325.3955">Save elevator</text><polygon fill="#181818" points="1554.5,357.9492,1544.5,361.9492,1554.5,365.9492,1550.5,361.9492" style="stroke:#181818;stroke-width:1.0;"/><line style="stroke:#181818;stroke-width:1.0;stroke-dasharray:2.0,2.0;" x1="1548.5" x2="1738.5" y1="361.9492" y2="361.9492"/><text fill="#000000" font-family="sans-serif" font-size="13" font-weight="bold" lengthAdjust="spacing" textLength="7" x="1560.5" y="356.6865">8</text><text fill="#000000" font-family="sans-serif" font-size="13" lengthAdjust="spacing" textLength="86" x="1571.5" y="356.6865">Return elevator</text><line style="stroke:#181818;stroke-width:1.0;" x1="1543.5" x2="1585.5" y1="393.2402" y2="393.2402"/><line style="stroke:#181818;stroke-width:1.0;" x1="1585.5" x2="1585.5" y1="393.2402" y2="406.2402"/><line style="stroke:#181818;stroke-width:1.0;" x1="1544.5" x2="1585.5" y1="406.2402" y2="406.2402"/><polygon fill="#181818" points="1554.5,402.2402,1544.5,406.2402,1554.5,410.2402,1550.5,406.2402" style="stroke:#181818;stroke-width:1.0;"/><text fill="#000000" font-family="sans-serif" font-size="13" font-weight="bold" lengthAdjust="spacing" textLength="7" x="1550.5" y="387.9775">9</text><text fill="#000000" font-family="sans-serif" font-size="13" lengthAdjust="spacing" textLength="146" x="1561.5" y="387.9775">check verifications rooms</text><polygon fill="#181818" points="1722.5,433.5313,1732.5,437.5313,1722.5,441.5313,1726.5,437.5313" style="stroke:#181818;stroke-width:1.0;"/><line style="stroke:#181818;stroke-width:1.0;" x1="1543.5" x2="1728.5" y1="437.5313" y2="437.5313"/><text fill="#000000" font-family="sans-serif" font-size="13" font-weight="bold" lengthAdjust="spacing" textLength="14" x="1550.5" y="432.2686">10</text><text fill="#000000" font-family="sans-serif" font-size="13" lengthAdjust="spacing" textLength="68" x="1568.5" y="432.2686">Save rooms</text><polygon fill="#181818" points="1554.5,464.8223,1544.5,468.8223,1554.5,472.8223,1550.5,468.8223" style="stroke:#181818;stroke-width:1.0;"/><line style="stroke:#181818;stroke-width:1.0;stroke-dasharray:2.0,2.0;" x1="1548.5" x2="1738.5" y1="468.8223" y2="468.8223"/><text fill="#000000" font-family="sans-serif" font-size="13" font-weight="bold" lengthAdjust="spacing" textLength="14" x="1560.5" y="463.5596">11</text><text fill="#000000" font-family="sans-serif" font-size="13" lengthAdjust="spacing" textLength="78" x="1578.5" y="463.5596">Return rooms</text><line style="stroke:#181818;stroke-width:1.0;" x1="1543.5" x2="1585.5" y1="500.1133" y2="500.1133"/><line style="stroke:#181818;stroke-width:1.0;" x1="1585.5" x2="1585.5" y1="500.1133" y2="513.1133"/><line style="stroke:#181818;stroke-width:1.0;" x1="1544.5" x2="1585.5" y1="513.1133" y2="513.1133"/><polygon fill="#181818" points="1554.5,509.1133,1544.5,513.1133,1554.5,517.1133,1550.5,513.1133" style="stroke:#181818;stroke-width:1.0;"/><text fill="#000000" font-family="sans-serif" font-size="13" font-weight="bold" lengthAdjust="spacing" textLength="14" x="1550.5" y="494.8506">12</text><text fill="#000000" font-family="sans-serif" font-size="13" lengthAdjust="spacing" textLength="134" x="1568.5" y="494.8506">check verifications floor</text><polygon fill="#181818" points="1722.5,540.4043,1732.5,544.4043,1722.5,548.4043,1726.5,544.4043" style="stroke:#181818;stroke-width:1.0;"/><line style="stroke:#181818;stroke-width:1.0;" x1="1543.5" x2="1728.5" y1="544.4043" y2="544.4043"/><text fill="#000000" font-family="sans-serif" font-size="13" font-weight="bold" lengthAdjust="spacing" textLength="14" x="1550.5" y="539.1416">13</text><text fill="#000000" font-family="sans-serif" font-size="13" lengthAdjust="spacing" textLength="56" x="1568.5" y="539.1416">Save floor</text><polygon fill="#181818" points="1554.5,571.6953,1544.5,575.6953,1554.5,579.6953,1550.5,575.6953" style="stroke:#181818;stroke-width:1.0;"/><line style="stroke:#181818;stroke-width:1.0;stroke-dasharray:2.0,2.0;" x1="1548.5" x2="1738.5" y1="575.6953" y2="575.6953"/><text fill="#000000" font-family="sans-serif" font-size="13" font-weight="bold" lengthAdjust="spacing" textLength="14" x="1560.5" y="570.4326">14</text><text fill="#000000" font-family="sans-serif" font-size="13" lengthAdjust="spacing" textLength="66" x="1578.5" y="570.4326">Return floor</text><polygon fill="#181818" points="818.5,602.9863,808.5,606.9863,818.5,610.9863,814.5,606.9863" style="stroke:#181818;stroke-width:1.0;"/><line style="stroke:#181818;stroke-width:1.0;stroke-dasharray:2.0,2.0;" x1="812.5" x2="1537.5" y1="606.9863" y2="606.9863"/><text fill="#000000" font-family="sans-serif" font-size="13" font-weight="bold" lengthAdjust="spacing" textLength="14" x="824.5" y="601.7236">15</text><text fill="#000000" font-family="sans-serif" font-size="13" lengthAdjust="spacing" textLength="112" x="842.5" y="601.7236">Return floor (JSON)</text><polygon fill="#181818" points="33.5,634.2773,23.5,638.2773,33.5,642.2773,29.5,638.2773" style="stroke:#181818;stroke-width:1.0;"/><line style="stroke:#181818;stroke-width:1.0;" x1="27.5" x2="801.5" y1="638.2773" y2="638.2773"/><text fill="#000000" font-family="sans-serif" font-size="13" font-weight="bold" lengthAdjust="spacing" textLength="14" x="39.5" y="633.0146">16</text><text fill="#000000" font-family="sans-serif" font-size="13" lengthAdjust="spacing" textLength="106" x="57.5" y="633.0146">Show floor (JSON)</text><!--SRC=[nPFDIWCn483lVOhSLDXQzBX8mRO74THY5HJfOSnEjy5DPaso5P5z7X_45pFxapQbjDXUl8GmcM_ovMUEvjRc9kxryWoKBMHsoads3BuNg3Xs4m6f1jdfG6595V8LjPjpIvez6ZVFGLl1HUvODYPZ9QYrsEJJM9Jiuc98oe9GgFlzjOGRKYcD1dLHiG2BJTrgODs-hybYDWBDX9gHbl3p3SI-H199oACSZ84KJVnIHN8omWfIWq9aYL3fsKRal9n6cA7RYdGS8cMaYMHLXmNHA176FjNZSpajLvh-jDxGoRQ7ZTduyc5uzU-6ZKwdjGhz-1pv6rkW5ZF1eIfYcBSCyjktSS045hZAMExW7yydTiDDxj4MMgse13UuFwhvozYkjipOIsr97QvMFyXshsPvBwa6ETnebj6kcsgMzp9ga1r6QtqQGkpuUd9tUnAoxQSCkgPkTMStfu-jb6-s85HXlm00]--></g></svg>