<?xml version="1.0" encoding="us-ascii" standalone="no"?><svg xmlns="http://www.w3.org/2000/svg" xmlns:xlink="http://www.w3.org/1999/xlink" contentStyleType="text/css" height="870px" preserveAspectRatio="none" style="width:1330px;height:870px;background:#FFFFFF;" version="1.1" viewBox="0 0 1330 870" width="1330px" zoomAndPan="magnify"><defs/><g><rect fill="#FFFFFF" height="652.5293" style="stroke:#181818;stroke-width:1.0;" width="10" x="109.5" y="116.9121"/><rect fill="#FFFFFF" height="31.291" style="stroke:#181818;stroke-width:1.0;" width="10" x="220.5" y="148.2031"/><rect fill="#FFFFFF" height="575.9473" style="stroke:#181818;stroke-width:1.0;" width="10" x="343.5" y="179.4941"/><rect fill="#FFFFFF" height="31.291" style="stroke:#181818;stroke-width:1.0;" width="10" x="459" y="210.7852"/><rect fill="#FFFFFF" height="482.0742" style="stroke:#181818;stroke-width:1.0;" width="10" x="567" y="242.0762"/><rect fill="#FFFFFF" height="61.291" style="stroke:#181818;stroke-width:1.0;" width="10" x="694" y="273.3672"/><rect fill="#FFFFFF" height="31.291" style="stroke:#181818;stroke-width:1.0;" width="10" x="694" y="397.2402"/><rect fill="#FFFFFF" height="61.291" style="stroke:#181818;stroke-width:1.0;" width="10" x="821" y="304.6582"/><rect fill="#FFFFFF" height="264.3281" style="stroke:#181818;stroke-width:1.0;" width="10" x="821" y="428.5313"/><rect fill="#FFFFFF" height="31.291" style="stroke:#181818;stroke-width:1.0;" width="10" x="938" y="491.1133"/><rect fill="#FFFFFF" height="45.291" style="stroke:#181818;stroke-width:1.0;" width="10" x="938" y="616.2773"/><line style="stroke:#181818;stroke-width:0.5;stroke-dasharray:5.0,5.0;" x1="22" x2="22" y1="83.6211" y2="787.4414"/><line style="stroke:#181818;stroke-width:0.5;stroke-dasharray:5.0,5.0;" x1="114" x2="114" y1="83.6211" y2="787.4414"/><line style="stroke:#181818;stroke-width:0.5;stroke-dasharray:5.0,5.0;" x1="225" x2="225" y1="83.6211" y2="787.4414"/><line style="stroke:#181818;stroke-width:0.5;stroke-dasharray:5.0,5.0;" x1="348" x2="348" y1="83.6211" y2="787.4414"/><line style="stroke:#181818;stroke-width:0.5;stroke-dasharray:5.0,5.0;" x1="464" x2="464" y1="83.6211" y2="787.4414"/><line style="stroke:#181818;stroke-width:0.5;stroke-dasharray:5.0,5.0;" x1="572" x2="572" y1="83.6211" y2="787.4414"/><line style="stroke:#181818;stroke-width:0.5;stroke-dasharray:5.0,5.0;" x1="698.5" x2="698.5" y1="83.6211" y2="787.4414"/><line style="stroke:#181818;stroke-width:0.5;stroke-dasharray:5.0,5.0;" x1="825.5" x2="825.5" y1="83.6211" y2="787.4414"/><line style="stroke:#181818;stroke-width:0.5;stroke-dasharray:5.0,5.0;" x1="942.5" x2="942.5" y1="83.6211" y2="787.4414"/><line style="stroke:#181818;stroke-width:0.5;stroke-dasharray:5.0,5.0;" x1="1034.5" x2="1034.5" y1="83.6211" y2="787.4414"/><line style="stroke:#181818;stroke-width:0.5;stroke-dasharray:5.0,5.0;" x1="1151.5" x2="1151.5" y1="83.6211" y2="787.4414"/><line style="stroke:#181818;stroke-width:0.5;stroke-dasharray:5.0,5.0;" x1="1275.5" x2="1275.5" y1="83.6211" y2="787.4414"/><text fill="#000000" font-family="sans-serif" font-size="14" lengthAdjust="spacing" textLength="29" x="5" y="80.1074">User</text><ellipse cx="22.5" cy="13.5" fill="#E2E2F0" rx="8" ry="8" style="stroke:#181818;stroke-width:0.5;"/><path d="M22.5,21.5 L22.5,48.5 M9.5,29.5 L35.5,29.5 M22.5,48.5 L9.5,63.5 M22.5,48.5 L35.5,63.5 " fill="none" style="stroke:#181818;stroke-width:0.5;"/><text fill="#000000" font-family="sans-serif" font-size="14" lengthAdjust="spacing" textLength="29" x="5" y="801.5488">User</text><ellipse cx="22.5" cy="813.5625" fill="#E2E2F0" rx="8" ry="8" style="stroke:#181818;stroke-width:0.5;"/><path d="M22.5,821.5625 L22.5,848.5625 M9.5,829.5625 L35.5,829.5625 M22.5,848.5625 L9.5,863.5625 M22.5,848.5625 L35.5,863.5625 " fill="none" style="stroke:#181818;stroke-width:0.5;"/><rect fill="#E2E2F0" height="32.6211" rx="2.5" ry="2.5" style="stroke:#181818;stroke-width:0.5;" width="85" x="72" y="50"/><text fill="#000000" font-family="sans-serif" font-size="14" lengthAdjust="spacing" textLength="71" x="79" y="72.1074">robotRoute</text><rect fill="#E2E2F0" height="32.6211" rx="2.5" ry="2.5" style="stroke:#181818;stroke-width:0.5;" width="85" x="72" y="786.4414"/><text fill="#000000" font-family="sans-serif" font-size="14" lengthAdjust="spacing" textLength="71" x="79" y="808.5488">robotRoute</text><rect fill="#E2E2F0" height="32.6211" rx="2.5" ry="2.5" style="stroke:#181818;stroke-width:0.5;" width="117" x="167" y="50"/><text fill="#000000" font-family="sans-serif" font-size="14" lengthAdjust="spacing" textLength="103" x="174" y="72.1074">IRobotController</text><rect fill="#E2E2F0" height="32.6211" rx="2.5" ry="2.5" style="stroke:#181818;stroke-width:0.5;" width="117" x="167" y="786.4414"/><text fill="#000000" font-family="sans-serif" font-size="14" lengthAdjust="spacing" textLength="103" x="174" y="808.5488">IRobotController</text><rect fill="#E2E2F0" height="32.6211" rx="2.5" ry="2.5" style="stroke:#181818;stroke-width:0.5;" width="109" x="294" y="50"/><text fill="#000000" font-family="sans-serif" font-size="14" lengthAdjust="spacing" textLength="95" x="301" y="72.1074">robotController</text><rect fill="#E2E2F0" height="32.6211" rx="2.5" ry="2.5" style="stroke:#181818;stroke-width:0.5;" width="109" x="294" y="786.4414"/><text fill="#000000" font-family="sans-serif" font-size="14" lengthAdjust="spacing" textLength="95" x="301" y="808.5488">robotController</text><rect fill="#E2E2F0" height="32.6211" rx="2.5" ry="2.5" style="stroke:#181818;stroke-width:0.5;" width="102" x="413" y="50"/><text fill="#000000" font-family="sans-serif" font-size="14" lengthAdjust="spacing" textLength="88" x="420" y="72.1074">IRobotService</text><rect fill="#E2E2F0" height="32.6211" rx="2.5" ry="2.5" style="stroke:#181818;stroke-width:0.5;" width="102" x="413" y="786.4414"/><text fill="#000000" font-family="sans-serif" font-size="14" lengthAdjust="spacing" textLength="88" x="420" y="808.5488">IRobotService</text><rect fill="#E2E2F0" height="32.6211" rx="2.5" ry="2.5" style="stroke:#181818;stroke-width:0.5;" width="94" x="525" y="50"/><text fill="#000000" font-family="sans-serif" font-size="14" lengthAdjust="spacing" textLength="80" x="532" y="72.1074">robotService</text><rect fill="#E2E2F0" height="32.6211" rx="2.5" ry="2.5" style="stroke:#181818;stroke-width:0.5;" width="94" x="525" y="786.4414"/><text fill="#000000" font-family="sans-serif" font-size="14" lengthAdjust="spacing" textLength="80" x="532" y="808.5488">robotService</text><rect fill="#E2E2F0" height="32.6211" rx="2.5" ry="2.5" style="stroke:#181818;stroke-width:0.5;" width="89" x="654.5" y="50"/><text fill="#000000" font-family="sans-serif" font-size="14" lengthAdjust="spacing" textLength="75" x="661.5" y="72.1074">IRobotRepo</text><rect fill="#E2E2F0" height="32.6211" rx="2.5" ry="2.5" style="stroke:#181818;stroke-width:0.5;" width="89" x="654.5" y="786.4414"/><text fill="#000000" font-family="sans-serif" font-size="14" lengthAdjust="spacing" textLength="75" x="661.5" y="808.5488">IRobotRepo</text><rect fill="#E2E2F0" height="32.6211" rx="2.5" ry="2.5" style="stroke:#181818;stroke-width:0.5;" width="81" x="785.5" y="50"/><text fill="#000000" font-family="sans-serif" font-size="14" lengthAdjust="spacing" textLength="67" x="792.5" y="72.1074">robotRepo</text><rect fill="#E2E2F0" height="32.6211" rx="2.5" ry="2.5" style="stroke:#181818;stroke-width:0.5;" width="81" x="785.5" y="786.4414"/><text fill="#000000" font-family="sans-serif" font-size="14" lengthAdjust="spacing" textLength="67" x="792.5" y="808.5488">robotRepo</text><rect fill="#E2E2F0" height="32.6211" rx="2.5" ry="2.5" style="stroke:#181818;stroke-width:0.5;" width="79" x="903.5" y="50"/><text fill="#000000" font-family="sans-serif" font-size="14" lengthAdjust="spacing" textLength="65" x="910.5" y="72.1074">RobotMap</text><rect fill="#E2E2F0" height="32.6211" rx="2.5" ry="2.5" style="stroke:#181818;stroke-width:0.5;" width="79" x="903.5" y="786.4414"/><text fill="#000000" font-family="sans-serif" font-size="14" lengthAdjust="spacing" textLength="65" x="910.5" y="808.5488">RobotMap</text><rect fill="#E2E2F0" height="32.6211" rx="2.5" ry="2.5" style="stroke:#181818;stroke-width:0.5;" width="85" x="992.5" y="50"/><text fill="#000000" font-family="sans-serif" font-size="14" lengthAdjust="spacing" textLength="71" x="999.5" y="72.1074">IRobotDTO</text><rect fill="#E2E2F0" height="32.6211" rx="2.5" ry="2.5" style="stroke:#181818;stroke-width:0.5;" width="85" x="992.5" y="786.4414"/><text fill="#000000" font-family="sans-serif" font-size="14" lengthAdjust="spacing" textLength="71" x="999.5" y="808.5488">IRobotDTO</text><rect fill="#E2E2F0" height="32.6211" rx="2.5" ry="2.5" style="stroke:#181818;stroke-width:0.5;" width="129" x="1087.5" y="50"/><text fill="#000000" font-family="sans-serif" font-size="14" lengthAdjust="spacing" textLength="115" x="1094.5" y="72.1074">IRobotPersistence</text><rect fill="#E2E2F0" height="32.6211" rx="2.5" ry="2.5" style="stroke:#181818;stroke-width:0.5;" width="129" x="1087.5" y="786.4414"/><text fill="#000000" font-family="sans-serif" font-size="14" lengthAdjust="spacing" textLength="115" x="1094.5" y="808.5488">IRobotPersistence</text><rect fill="#E2E2F0" height="32.6211" rx="2.5" ry="2.5" style="stroke:#181818;stroke-width:0.5;" width="98" x="1226.5" y="50"/><text fill="#000000" font-family="sans-serif" font-size="14" lengthAdjust="spacing" textLength="84" x="1233.5" y="72.1074">robotSchema</text><rect fill="#E2E2F0" height="32.6211" rx="2.5" ry="2.5" style="stroke:#181818;stroke-width:0.5;" width="98" x="1226.5" y="786.4414"/><text fill="#000000" font-family="sans-serif" font-size="14" lengthAdjust="spacing" textLength="84" x="1233.5" y="808.5488">robotSchema</text><rect fill="#FFFFFF" height="652.5293" style="stroke:#181818;stroke-width:1.0;" width="10" x="109.5" y="116.9121"/><rect fill="#FFFFFF" height="31.291" style="stroke:#181818;stroke-width:1.0;" width="10" x="220.5" y="148.2031"/><rect fill="#FFFFFF" height="575.9473" style="stroke:#181818;stroke-width:1.0;" width="10" x="343.5" y="179.4941"/><rect fill="#FFFFFF" height="31.291" style="stroke:#181818;stroke-width:1.0;" width="10" x="459" y="210.7852"/><rect fill="#FFFFFF" height="482.0742" style="stroke:#181818;stroke-width:1.0;" width="10" x="567" y="242.0762"/><rect fill="#FFFFFF" height="61.291" style="stroke:#181818;stroke-width:1.0;" width="10" x="694" y="273.3672"/><rect fill="#FFFFFF" height="31.291" style="stroke:#181818;stroke-width:1.0;" width="10" x="694" y="397.2402"/><rect fill="#FFFFFF" height="61.291" style="stroke:#181818;stroke-width:1.0;" width="10" x="821" y="304.6582"/><rect fill="#FFFFFF" height="264.3281" style="stroke:#181818;stroke-width:1.0;" width="10" x="821" y="428.5313"/><rect fill="#FFFFFF" height="31.291" style="stroke:#181818;stroke-width:1.0;" width="10" x="938" y="491.1133"/><rect fill="#FFFFFF" height="45.291" style="stroke:#181818;stroke-width:1.0;" width="10" x="938" y="616.2773"/><polygon fill="#181818" points="97.5,112.9121,107.5,116.9121,97.5,120.9121,101.5,116.9121" style="stroke:#181818;stroke-width:1.0;"/><line style="stroke:#181818;stroke-width:1.0;" x1="22.5" x2="103.5" y1="116.9121" y2="116.9121"/><text fill="#000000" font-family="sans-serif" font-size="13" lengthAdjust="spacing" textLength="68" x="29.5" y="111.6494">inhibitRobot</text><polygon fill="#181818" points="208.5,144.2031,218.5,148.2031,208.5,152.2031,212.5,148.2031" style="stroke:#181818;stroke-width:1.0;"/><line style="stroke:#181818;stroke-width:1.0;" x1="119.5" x2="214.5" y1="148.2031" y2="148.2031"/><text fill="#000000" font-family="sans-serif" font-size="13" lengthAdjust="spacing" textLength="76" x="126.5" y="142.9404">inhibitRobot()</text><polygon fill="#181818" points="331.5,175.4941,341.5,179.4941,331.5,183.4941,335.5,179.4941" style="stroke:#181818;stroke-width:1.0;"/><line style="stroke:#181818;stroke-width:1.0;" x1="225.5" x2="337.5" y1="179.4941" y2="179.4941"/><text fill="#000000" font-family="sans-serif" font-size="13" lengthAdjust="spacing" textLength="76" x="232.5" y="174.2314">inhibitRobot()</text><polygon fill="#181818" points="447,206.7852,457,210.7852,447,214.7852,451,210.7852" style="stroke:#181818;stroke-width:1.0;"/><line style="stroke:#181818;stroke-width:1.0;" x1="353.5" x2="453" y1="210.7852" y2="210.7852"/><text fill="#000000" font-family="sans-serif" font-size="13" lengthAdjust="spacing" textLength="76" x="360.5" y="205.5225">inhibitRobot()</text><polygon fill="#181818" points="555,238.0762,565,242.0762,555,246.0762,559,242.0762" style="stroke:#181818;stroke-width:1.0;"/><line style="stroke:#181818;stroke-width:1.0;" x1="464" x2="561" y1="242.0762" y2="242.0762"/><text fill="#000000" font-family="sans-serif" font-size="13" lengthAdjust="spacing" textLength="76" x="471" y="236.8135">inhibitRobot()</text><polygon fill="#181818" points="682,269.3672,692,273.3672,682,277.3672,686,273.3672" style="stroke:#181818;stroke-width:1.0;"/><line style="stroke:#181818;stroke-width:1.0;" x1="577" x2="688" y1="273.3672" y2="273.3672"/><text fill="#000000" font-family="sans-serif" font-size="13" lengthAdjust="spacing" textLength="98" x="584" y="268.1045">findByDomainId()</text><polygon fill="#181818" points="809,300.6582,819,304.6582,809,308.6582,813,304.6582" style="stroke:#181818;stroke-width:1.0;"/><line style="stroke:#181818;stroke-width:1.0;" x1="704" x2="815" y1="304.6582" y2="304.6582"/><text fill="#000000" font-family="sans-serif" font-size="13" lengthAdjust="spacing" textLength="98" x="711" y="299.3955">findByDomainId()</text><polygon fill="#181818" points="588,361.9492,578,365.9492,588,369.9492,584,365.9492" style="stroke:#181818;stroke-width:1.0;"/><line style="stroke:#181818;stroke-width:1.0;stroke-dasharray:2.0,2.0;" x1="582" x2="825" y1="365.9492" y2="365.9492"/><text fill="#000000" font-family="sans-serif" font-size="13" lengthAdjust="spacing" textLength="29" x="594" y="360.6865">robot</text><polygon fill="#181818" points="682,393.2402,692,397.2402,682,401.2402,686,397.2402" style="stroke:#181818;stroke-width:1.0;"/><line style="stroke:#181818;stroke-width:1.0;" x1="577" x2="688" y1="397.2402" y2="397.2402"/><text fill="#000000" font-family="sans-serif" font-size="13" lengthAdjust="spacing" textLength="34" x="584" y="391.9775">save()</text><polygon fill="#181818" points="809,424.5313,819,428.5313,809,432.5313,813,428.5313" style="stroke:#181818;stroke-width:1.0;"/><line style="stroke:#181818;stroke-width:1.0;" x1="699" x2="815" y1="428.5313" y2="428.5313"/><text fill="#000000" font-family="sans-serif" font-size="13" lengthAdjust="spacing" textLength="34" x="706" y="423.2686">save()</text><polygon fill="#181818" points="1263.5,455.8223,1273.5,459.8223,1263.5,463.8223,1267.5,459.8223" style="stroke:#181818;stroke-width:1.0;"/><line style="stroke:#181818;stroke-width:1.0;" x1="831" x2="1269.5" y1="459.8223" y2="459.8223"/><text fill="#000000" font-family="sans-serif" font-size="13" lengthAdjust="spacing" textLength="52" x="838" y="454.5596">findOne()</text><polygon fill="#181818" points="926,487.1133,936,491.1133,926,495.1133,930,491.1133" style="stroke:#181818;stroke-width:1.0;"/><line style="stroke:#181818;stroke-width:1.0;" x1="831" x2="932" y1="491.1133" y2="491.1133"/><text fill="#000000" font-family="sans-serif" font-size="13" lengthAdjust="spacing" textLength="88" x="838" y="485.8506">toPersistence()</text><polygon fill="#181818" points="842,518.4043,832,522.4043,842,526.4043,838,522.4043" style="stroke:#181818;stroke-width:1.0;"/><line style="stroke:#181818;stroke-width:1.0;stroke-dasharray:2.0,2.0;" x1="836" x2="942" y1="522.4043" y2="522.4043"/><text fill="#000000" font-family="sans-serif" font-size="13" lengthAdjust="spacing" textLength="29" x="848" y="517.1416">robot</text><polygon fill="#181818" points="1263.5,549.6953,1273.5,553.6953,1263.5,557.6953,1267.5,553.6953" style="stroke:#181818;stroke-width:1.0;"/><line style="stroke:#181818;stroke-width:1.0;" x1="831" x2="1269.5" y1="553.6953" y2="553.6953"/><text fill="#000000" font-family="sans-serif" font-size="13" lengthAdjust="spacing" textLength="44" x="838" y="548.4326">create()</text><polygon fill="#181818" points="588,580.9863,578,584.9863,588,588.9863,584,584.9863" style="stroke:#181818;stroke-width:1.0;"/><line style="stroke:#181818;stroke-width:1.0;stroke-dasharray:2.0,2.0;" x1="582" x2="820" y1="584.9863" y2="584.9863"/><text fill="#000000" font-family="sans-serif" font-size="13" lengthAdjust="spacing" textLength="45" x="594" y="579.7236">boolean</text><polygon fill="#181818" points="926,612.2773,936,616.2773,926,620.2773,930,616.2773" style="stroke:#181818;stroke-width:1.0;"/><line style="stroke:#181818;stroke-width:1.0;" x1="831" x2="932" y1="616.2773" y2="616.2773"/><text fill="#000000" font-family="sans-serif" font-size="13" lengthAdjust="spacing" textLength="45" x="838" y="611.0146">toDTO()</text><polygon fill="#181818" points="1023,626.2773,1033,630.2773,1023,634.2773,1027,630.2773" style="stroke:#181818;stroke-width:1.0;"/><line style="stroke:#181818;stroke-width:1.0;" x1="948" x2="1029" y1="630.2773" y2="630.2773"/><polygon fill="#181818" points="842,657.5684,832,661.5684,842,665.5684,838,661.5684" style="stroke:#181818;stroke-width:1.0;"/><line style="stroke:#181818;stroke-width:1.0;stroke-dasharray:2.0,2.0;" x1="836" x2="942" y1="661.5684" y2="661.5684"/><text fill="#000000" font-family="sans-serif" font-size="13" lengthAdjust="spacing" textLength="55" x="848" y="656.3057">robotDTO</text><polygon fill="#181818" points="588,688.8594,578,692.8594,588,696.8594,584,692.8594" style="stroke:#181818;stroke-width:1.0;"/><line style="stroke:#181818;stroke-width:1.0;stroke-dasharray:2.0,2.0;" x1="582" x2="825" y1="692.8594" y2="692.8594"/><text fill="#000000" font-family="sans-serif" font-size="13" lengthAdjust="spacing" textLength="55" x="594" y="687.5967">robotDTO</text><polygon fill="#181818" points="364.5,720.1504,354.5,724.1504,364.5,728.1504,360.5,724.1504" style="stroke:#181818;stroke-width:1.0;"/><line style="stroke:#181818;stroke-width:1.0;stroke-dasharray:2.0,2.0;" x1="358.5" x2="571" y1="724.1504" y2="724.1504"/><text fill="#000000" font-family="sans-serif" font-size="13" lengthAdjust="spacing" textLength="55" x="370.5" y="718.8877">robotDTO</text><polygon fill="#181818" points="130.5,751.4414,120.5,755.4414,130.5,759.4414,126.5,755.4414" style="stroke:#181818;stroke-width:1.0;"/><line style="stroke:#181818;stroke-width:1.0;" x1="124.5" x2="347.5" y1="755.4414" y2="755.4414"/><text fill="#000000" font-family="sans-serif" font-size="13" lengthAdjust="spacing" textLength="157" x="136.5" y="750.1787">res.json(robotDTO).status()</text><polygon fill="#181818" points="33.5,765.4414,23.5,769.4414,33.5,773.4414,29.5,769.4414" style="stroke:#181818;stroke-width:1.0;"/><line style="stroke:#181818;stroke-width:1.0;" x1="27.5" x2="113.5" y1="769.4414" y2="769.4414"/><!--SRC=[bLMnSeCm3Dtv2hOc0s7FaA7Dag6NNDf-W6FKnZsmg6rorx-lSMAmiGrNDcIznzEp99wkIhLoMvPjJRZgcdf3iIab_7J0AHGL8r-2D5b6g4AHVqWGMKk4OfIrEZyNU45rnaw15pwS-_WBSYMmhcEOnDaT-0RYnYY4gDZ17NA65YFAfb6J-qhQ2CF-_HY9da189bLlHaGElK93igot9IzsZXlvDcVyoYvC6PRUFdOZEkuOvcHhxDIo2SDgFN84xWPOgsMEhe8qeI_NEH3XXxmhMrHjRz17MRr9ba2ivV6LsgYOa8yzega_6Q-UV_VO4COFLIZHD8s362vs2JwsN23NH4UM8YpOlBf0uUDIrKXoWt_Ny035PQOKU4Jtrd_OSUGzcvTa1qrdA7I6o9Kw3EEGN4nq1gOCa1b5L81EzGM5VbyGQo1yHhLU20jgTyxgcA-XprWe8z4I4sIgAw8JdoJmvYIoD-mE4o0ttnBvoZAjDr8HrKc_UQ9ROjXivgSHb61MuEFv0m00]--></g></svg>