<?xml version="1.0" encoding="us-ascii" standalone="no"?><svg xmlns="http://www.w3.org/2000/svg" xmlns:xlink="http://www.w3.org/1999/xlink" contentStyleType="text/css" height="1754px" preserveAspectRatio="none" style="width:2970px;height:1754px;background:#FFFFFF;" version="1.1" viewBox="0 0 2970 1754" width="2970px" zoomAndPan="magnify"><defs/><g><rect fill="#FFFFFF" height="1569.2227" style="stroke:#181818;stroke-width:1.0;" width="10" x="17.5" y="93.6211"/><rect fill="#FFFFFF" height="31.291" style="stroke:#181818;stroke-width:1.0;" width="10" x="387.5" y="116.9121"/><rect fill="#FFFFFF" height="61.291" style="stroke:#181818;stroke-width:1.0;" width="10" x="387.5" y="179.4941"/><rect fill="#FFFFFF" height="61.291" style="stroke:#181818;stroke-width:1.0;" width="10" x="387.5" y="1592.5527"/><rect fill="#FFFFFF" height="1411.7676" style="stroke:#181818;stroke-width:1.0;" width="10" x="735.5" y="210.7852"/><rect fill="#FFFFFF" height="1289.1855" style="stroke:#181818;stroke-width:1.0;" width="10" x="1083.5" y="272.0762"/><rect fill="#FFFFFF" height="31.291" style="stroke:#181818;stroke-width:1.0;" width="10" x="1213.5" y="303.3672"/><rect fill="#FFFFFF" height="1195.3125" style="stroke:#181818;stroke-width:1.0;" width="10" x="1355.5" y="334.6582"/><rect fill="#FFFFFF" height="31.291" style="stroke:#181818;stroke-width:1.0;" width="10" x="1490" y="365.9492"/><rect fill="#FFFFFF" height="1101.4395" style="stroke:#181818;stroke-width:1.0;" width="10" x="1617" y="397.2402"/><rect fill="#FFFFFF" height="61.291" style="stroke:#181818;stroke-width:1.0;" width="10" x="1769" y="924.0234"/><rect fill="#FFFFFF" height="61.291" style="stroke:#181818;stroke-width:1.0;" width="10" x="1769" y="1047.8965"/><rect fill="#FFFFFF" height="31.291" style="stroke:#181818;stroke-width:1.0;" width="10" x="1769" y="1234.3516"/><rect fill="#FFFFFF" height="61.291" style="stroke:#181818;stroke-width:1.0;" width="10" x="1921" y="955.3145"/><rect fill="#FFFFFF" height="61.291" style="stroke:#181818;stroke-width:1.0;" width="10" x="1921" y="1079.1875"/><rect fill="#FFFFFF" height="125.1641" style="stroke:#181818;stroke-width:1.0;" width="10" x="1921" y="1265.6426"/><rect fill="#FFFFFF" height="31.291" style="stroke:#181818;stroke-width:1.0;" width="10" x="2038" y="1328.2246"/><rect fill="#FFFFFF" height="45.291" style="stroke:#181818;stroke-width:1.0;" width="10" x="2038" y="1422.0977"/><rect fill="#FFFFFF" height="31.291" style="stroke:#181818;stroke-width:1.0;" width="10" x="2415" y="1171.7695"/><rect fill="#FFFFFF" height="61.291" style="stroke:#181818;stroke-width:1.0;" width="10" x="2619.5" y="459.8223"/><rect fill="#FFFFFF" height="61.291" style="stroke:#181818;stroke-width:1.0;" width="10" x="2619.5" y="583.6953"/><rect fill="#FFFFFF" height="61.291" style="stroke:#181818;stroke-width:1.0;" width="10" x="2716" y="707.5684"/><rect fill="#FFFFFF" height="61.291" style="stroke:#181818;stroke-width:1.0;" width="10" x="2716" y="831.4414"/><rect fill="#FFFFFF" height="61.291" style="stroke:#181818;stroke-width:1.0;" width="10" x="2814.5" y="428.5313"/><rect fill="#FFFFFF" height="61.291" style="stroke:#181818;stroke-width:1.0;" width="10" x="2814.5" y="552.4043"/><rect fill="#FFFFFF" height="61.291" style="stroke:#181818;stroke-width:1.0;" width="10" x="2917" y="676.2773"/><rect fill="#FFFFFF" height="61.291" style="stroke:#181818;stroke-width:1.0;" width="10" x="2917" y="800.1504"/><line style="stroke:#181818;stroke-width:0.5;stroke-dasharray:5.0,5.0;" x1="22" x2="22" y1="83.6211" y2="1671.8438"/><line style="stroke:#181818;stroke-width:0.5;stroke-dasharray:5.0,5.0;" x1="392" x2="392" y1="83.6211" y2="1671.8438"/><line style="stroke:#181818;stroke-width:0.5;stroke-dasharray:5.0,5.0;" x1="740" x2="740" y1="83.6211" y2="1671.8438"/><line style="stroke:#181818;stroke-width:0.5;stroke-dasharray:5.0,5.0;" x1="1088.5" x2="1088.5" y1="83.6211" y2="1671.8438"/><line style="stroke:#181818;stroke-width:0.5;stroke-dasharray:5.0,5.0;" x1="1218.5" x2="1218.5" y1="83.6211" y2="1671.8438"/><line style="stroke:#181818;stroke-width:0.5;stroke-dasharray:5.0,5.0;" x1="1360.5" x2="1360.5" y1="83.6211" y2="1671.8438"/><line style="stroke:#181818;stroke-width:0.5;stroke-dasharray:5.0,5.0;" x1="1494.5" x2="1494.5" y1="83.6211" y2="1671.8438"/><line style="stroke:#181818;stroke-width:0.5;stroke-dasharray:5.0,5.0;" x1="1621.5" x2="1621.5" y1="83.6211" y2="1671.8438"/><line style="stroke:#181818;stroke-width:0.5;stroke-dasharray:5.0,5.0;" x1="1774" x2="1774" y1="83.6211" y2="1671.8438"/><line style="stroke:#181818;stroke-width:0.5;stroke-dasharray:5.0,5.0;" x1="1926" x2="1926" y1="83.6211" y2="1671.8438"/><line style="stroke:#181818;stroke-width:0.5;stroke-dasharray:5.0,5.0;" x1="2043" x2="2043" y1="83.6211" y2="1671.8438"/><line style="stroke:#181818;stroke-width:0.5;stroke-dasharray:5.0,5.0;" x1="2174" x2="2174" y1="83.6211" y2="1671.8438"/><line style="stroke:#181818;stroke-width:0.5;stroke-dasharray:5.0,5.0;" x1="2316" x2="2316" y1="83.6211" y2="1671.8438"/><line style="stroke:#181818;stroke-width:0.5;stroke-dasharray:5.0,5.0;" x1="2420" x2="2420" y1="83.6211" y2="1671.8438"/><line style="stroke:#181818;stroke-width:0.5;stroke-dasharray:5.0,5.0;" x1="2515" x2="2515" y1="83.6211" y2="1671.8438"/><line style="stroke:#181818;stroke-width:0.5;stroke-dasharray:5.0,5.0;" x1="2624" x2="2624" y1="83.6211" y2="1671.8438"/><line style="stroke:#181818;stroke-width:0.5;stroke-dasharray:5.0,5.0;" x1="2721" x2="2721" y1="83.6211" y2="1671.8438"/><line style="stroke:#181818;stroke-width:0.5;stroke-dasharray:5.0,5.0;" x1="2819" x2="2819" y1="83.6211" y2="1671.8438"/><line style="stroke:#181818;stroke-width:0.5;stroke-dasharray:5.0,5.0;" x1="2922" x2="2922" y1="83.6211" y2="1671.8438"/><text fill="#000000" font-family="sans-serif" font-size="14" lengthAdjust="spacing" textLength="29" x="5" y="80.1074">User</text><ellipse cx="22.5" cy="13.5" fill="#E2E2F0" rx="8" ry="8" style="stroke:#181818;stroke-width:0.5;"/><path d="M22.5,21.5 L22.5,48.5 M9.5,29.5 L35.5,29.5 M22.5,48.5 L9.5,63.5 M22.5,48.5 L35.5,63.5 " fill="none" style="stroke:#181818;stroke-width:0.5;"/><text fill="#000000" font-family="sans-serif" font-size="14" lengthAdjust="spacing" textLength="29" x="5" y="1685.9512">User</text><ellipse cx="22.5" cy="1697.9648" fill="#E2E2F0" rx="8" ry="8" style="stroke:#181818;stroke-width:0.5;"/><path d="M22.5,1705.9648 L22.5,1732.9648 M9.5,1713.9648 L35.5,1713.9648 M22.5,1732.9648 L9.5,1747.9648 M22.5,1732.9648 L35.5,1747.9648 " fill="none" style="stroke:#181818;stroke-width:0.5;"/><rect fill="#E2E2F0" height="32.6211" rx="2.5" ry="2.5" style="stroke:#181818;stroke-width:0.5;" width="41" x="372" y="50"/><text fill="#000000" font-family="sans-serif" font-size="14" lengthAdjust="spacing" textLength="27" x="379" y="72.1074">SPA</text><rect fill="#E2E2F0" height="32.6211" rx="2.5" ry="2.5" style="stroke:#181818;stroke-width:0.5;" width="41" x="372" y="1670.8438"/><text fill="#000000" font-family="sans-serif" font-size="14" lengthAdjust="spacing" textLength="27" x="379" y="1692.9512">SPA</text><rect fill="#E2E2F0" height="32.6211" rx="2.5" ry="2.5" style="stroke:#181818;stroke-width:0.5;" width="35" x="723" y="50"/><text fill="#000000" font-family="sans-serif" font-size="14" lengthAdjust="spacing" textLength="21" x="730" y="72.1074">MD</text><rect fill="#E2E2F0" height="32.6211" rx="2.5" ry="2.5" style="stroke:#181818;stroke-width:0.5;" width="35" x="723" y="1670.8438"/><text fill="#000000" font-family="sans-serif" font-size="14" lengthAdjust="spacing" textLength="21" x="730" y="1692.9512">MD</text><rect fill="#E2E2F0" height="32.6211" rx="2.5" ry="2.5" style="stroke:#181818;stroke-width:0.5;" width="106" x="1035.5" y="50"/><text fill="#000000" font-family="sans-serif" font-size="14" lengthAdjust="spacing" textLength="92" x="1042.5" y="72.1074">passageRoute</text><rect fill="#E2E2F0" height="32.6211" rx="2.5" ry="2.5" style="stroke:#181818;stroke-width:0.5;" width="106" x="1035.5" y="1670.8438"/><text fill="#000000" font-family="sans-serif" font-size="14" lengthAdjust="spacing" textLength="92" x="1042.5" y="1692.9512">passageRoute</text><rect fill="#E2E2F0" height="32.6211" rx="2.5" ry="2.5" style="stroke:#181818;stroke-width:0.5;" width="134" x="1151.5" y="50"/><text fill="#000000" font-family="sans-serif" font-size="14" lengthAdjust="spacing" textLength="120" x="1158.5" y="72.1074">IPassageController</text><rect fill="#E2E2F0" height="32.6211" rx="2.5" ry="2.5" style="stroke:#181818;stroke-width:0.5;" width="134" x="1151.5" y="1670.8438"/><text fill="#000000" font-family="sans-serif" font-size="14" lengthAdjust="spacing" textLength="120" x="1158.5" y="1692.9512">IPassageController</text><rect fill="#E2E2F0" height="32.6211" rx="2.5" ry="2.5" style="stroke:#181818;stroke-width:0.5;" width="130" x="1295.5" y="50"/><text fill="#000000" font-family="sans-serif" font-size="14" lengthAdjust="spacing" textLength="116" x="1302.5" y="72.1074">passageController</text><rect fill="#E2E2F0" height="32.6211" rx="2.5" ry="2.5" style="stroke:#181818;stroke-width:0.5;" width="130" x="1295.5" y="1670.8438"/><text fill="#000000" font-family="sans-serif" font-size="14" lengthAdjust="spacing" textLength="116" x="1302.5" y="1692.9512">passageController</text><rect fill="#E2E2F0" height="32.6211" rx="2.5" ry="2.5" style="stroke:#181818;stroke-width:0.5;" width="119" x="1435.5" y="50"/><text fill="#000000" font-family="sans-serif" font-size="14" lengthAdjust="spacing" textLength="105" x="1442.5" y="72.1074">IPassageService</text><rect fill="#E2E2F0" height="32.6211" rx="2.5" ry="2.5" style="stroke:#181818;stroke-width:0.5;" width="119" x="1435.5" y="1670.8438"/><text fill="#000000" font-family="sans-serif" font-size="14" lengthAdjust="spacing" textLength="105" x="1442.5" y="1692.9512">IPassageService</text><rect fill="#E2E2F0" height="32.6211" rx="2.5" ry="2.5" style="stroke:#181818;stroke-width:0.5;" width="115" x="1564.5" y="50"/><text fill="#000000" font-family="sans-serif" font-size="14" lengthAdjust="spacing" textLength="101" x="1571.5" y="72.1074">passageService</text><rect fill="#E2E2F0" height="32.6211" rx="2.5" ry="2.5" style="stroke:#181818;stroke-width:0.5;" width="115" x="1564.5" y="1670.8438"/><text fill="#000000" font-family="sans-serif" font-size="14" lengthAdjust="spacing" textLength="101" x="1571.5" y="1692.9512">passageService</text><rect fill="#E2E2F0" height="32.6211" rx="2.5" ry="2.5" style="stroke:#181818;stroke-width:0.5;" width="106" x="1721" y="50"/><text fill="#000000" font-family="sans-serif" font-size="14" lengthAdjust="spacing" textLength="92" x="1728" y="72.1074">IPassageRepo</text><rect fill="#E2E2F0" height="32.6211" rx="2.5" ry="2.5" style="stroke:#181818;stroke-width:0.5;" width="106" x="1721" y="1670.8438"/><text fill="#000000" font-family="sans-serif" font-size="14" lengthAdjust="spacing" textLength="92" x="1728" y="1692.9512">IPassageRepo</text><rect fill="#E2E2F0" height="32.6211" rx="2.5" ry="2.5" style="stroke:#181818;stroke-width:0.5;" width="102" x="1875" y="50"/><text fill="#000000" font-family="sans-serif" font-size="14" lengthAdjust="spacing" textLength="88" x="1882" y="72.1074">passageRepo</text><rect fill="#E2E2F0" height="32.6211" rx="2.5" ry="2.5" style="stroke:#181818;stroke-width:0.5;" width="102" x="1875" y="1670.8438"/><text fill="#000000" font-family="sans-serif" font-size="14" lengthAdjust="spacing" textLength="88" x="1882" y="1692.9512">passageRepo</text><rect fill="#E2E2F0" height="32.6211" rx="2.5" ry="2.5" style="stroke:#181818;stroke-width:0.5;" width="96" x="1995" y="50"/><text fill="#000000" font-family="sans-serif" font-size="14" lengthAdjust="spacing" textLength="82" x="2002" y="72.1074">PassageMap</text><rect fill="#E2E2F0" height="32.6211" rx="2.5" ry="2.5" style="stroke:#181818;stroke-width:0.5;" width="96" x="1995" y="1670.8438"/><text fill="#000000" font-family="sans-serif" font-size="14" lengthAdjust="spacing" textLength="82" x="2002" y="1692.9512">PassageMap</text><rect fill="#E2E2F0" height="32.6211" rx="2.5" ry="2.5" style="stroke:#181818;stroke-width:0.5;" width="146" x="2101" y="50"/><text fill="#000000" font-family="sans-serif" font-size="14" lengthAdjust="spacing" textLength="132" x="2108" y="72.1074">IPassagePersistence</text><rect fill="#E2E2F0" height="32.6211" rx="2.5" ry="2.5" style="stroke:#181818;stroke-width:0.5;" width="146" x="2101" y="1670.8438"/><text fill="#000000" font-family="sans-serif" font-size="14" lengthAdjust="spacing" textLength="132" x="2108" y="1692.9512">IPassagePersistence</text><rect fill="#E2E2F0" height="32.6211" rx="2.5" ry="2.5" style="stroke:#181818;stroke-width:0.5;" width="119" x="2257" y="50"/><text fill="#000000" font-family="sans-serif" font-size="14" lengthAdjust="spacing" textLength="105" x="2264" y="72.1074">passageSchema</text><rect fill="#E2E2F0" height="32.6211" rx="2.5" ry="2.5" style="stroke:#181818;stroke-width:0.5;" width="119" x="2257" y="1670.8438"/><text fill="#000000" font-family="sans-serif" font-size="14" lengthAdjust="spacing" textLength="105" x="2264" y="1692.9512">passageSchema</text><rect fill="#E2E2F0" height="32.6211" rx="2.5" ry="2.5" style="stroke:#181818;stroke-width:0.5;" width="68" x="2386" y="50"/><text fill="#000000" font-family="sans-serif" font-size="14" lengthAdjust="spacing" textLength="54" x="2393" y="72.1074">passage</text><rect fill="#E2E2F0" height="32.6211" rx="2.5" ry="2.5" style="stroke:#181818;stroke-width:0.5;" width="68" x="2386" y="1670.8438"/><text fill="#000000" font-family="sans-serif" font-size="14" lengthAdjust="spacing" textLength="54" x="2393" y="1692.9512">passage</text><rect fill="#E2E2F0" height="32.6211" rx="2.5" ry="2.5" style="stroke:#181818;stroke-width:0.5;" width="102" x="2464" y="50"/><text fill="#000000" font-family="sans-serif" font-size="14" lengthAdjust="spacing" textLength="88" x="2471" y="72.1074">IPassageDTO</text><rect fill="#E2E2F0" height="32.6211" rx="2.5" ry="2.5" style="stroke:#181818;stroke-width:0.5;" width="102" x="2464" y="1670.8438"/><text fill="#000000" font-family="sans-serif" font-size="14" lengthAdjust="spacing" textLength="88" x="2471" y="1692.9512">IPassageDTO</text><rect fill="#E2E2F0" height="32.6211" rx="2.5" ry="2.5" style="stroke:#181818;stroke-width:0.5;" width="97" x="2576" y="50"/><text fill="#000000" font-family="sans-serif" font-size="14" lengthAdjust="spacing" textLength="83" x="2583" y="72.1074">buildingRepo</text><rect fill="#E2E2F0" height="32.6211" rx="2.5" ry="2.5" style="stroke:#181818;stroke-width:0.5;" width="97" x="2576" y="1670.8438"/><text fill="#000000" font-family="sans-serif" font-size="14" lengthAdjust="spacing" textLength="83" x="2583" y="1692.9512">buildingRepo</text><rect fill="#E2E2F0" height="32.6211" rx="2.5" ry="2.5" style="stroke:#181818;stroke-width:0.5;" width="76" x="2683" y="50"/><text fill="#000000" font-family="sans-serif" font-size="14" lengthAdjust="spacing" textLength="62" x="2690" y="72.1074">floorRepo</text><rect fill="#E2E2F0" height="32.6211" rx="2.5" ry="2.5" style="stroke:#181818;stroke-width:0.5;" width="76" x="2683" y="1670.8438"/><text fill="#000000" font-family="sans-serif" font-size="14" lengthAdjust="spacing" textLength="62" x="2690" y="1692.9512">floorRepo</text><rect fill="#E2E2F0" height="32.6211" rx="2.5" ry="2.5" style="stroke:#181818;stroke-width:0.5;" width="101" x="2769" y="50"/><text fill="#000000" font-family="sans-serif" font-size="14" lengthAdjust="spacing" textLength="87" x="2776" y="72.1074">IBuildingRepo</text><rect fill="#E2E2F0" height="32.6211" rx="2.5" ry="2.5" style="stroke:#181818;stroke-width:0.5;" width="101" x="2769" y="1670.8438"/><text fill="#000000" font-family="sans-serif" font-size="14" lengthAdjust="spacing" textLength="87" x="2776" y="1692.9512">IBuildingRepo</text><rect fill="#E2E2F0" height="32.6211" rx="2.5" ry="2.5" style="stroke:#181818;stroke-width:0.5;" width="84" x="2880" y="50"/><text fill="#000000" font-family="sans-serif" font-size="14" lengthAdjust="spacing" textLength="70" x="2887" y="72.1074">IFloorRepo</text><rect fill="#E2E2F0" height="32.6211" rx="2.5" ry="2.5" style="stroke:#181818;stroke-width:0.5;" width="84" x="2880" y="1670.8438"/><text fill="#000000" font-family="sans-serif" font-size="14" lengthAdjust="spacing" textLength="70" x="2887" y="1692.9512">IFloorRepo</text><rect fill="#FFFFFF" height="1569.2227" style="stroke:#181818;stroke-width:1.0;" width="10" x="17.5" y="93.6211"/><rect fill="#FFFFFF" height="31.291" style="stroke:#181818;stroke-width:1.0;" width="10" x="387.5" y="116.9121"/><rect fill="#FFFFFF" height="61.291" style="stroke:#181818;stroke-width:1.0;" width="10" x="387.5" y="179.4941"/><rect fill="#FFFFFF" height="61.291" style="stroke:#181818;stroke-width:1.0;" width="10" x="387.5" y="1592.5527"/><rect fill="#FFFFFF" height="1411.7676" style="stroke:#181818;stroke-width:1.0;" width="10" x="735.5" y="210.7852"/><rect fill="#FFFFFF" height="1289.1855" style="stroke:#181818;stroke-width:1.0;" width="10" x="1083.5" y="272.0762"/><rect fill="#FFFFFF" height="31.291" style="stroke:#181818;stroke-width:1.0;" width="10" x="1213.5" y="303.3672"/><rect fill="#FFFFFF" height="1195.3125" style="stroke:#181818;stroke-width:1.0;" width="10" x="1355.5" y="334.6582"/><rect fill="#FFFFFF" height="31.291" style="stroke:#181818;stroke-width:1.0;" width="10" x="1490" y="365.9492"/><rect fill="#FFFFFF" height="1101.4395" style="stroke:#181818;stroke-width:1.0;" width="10" x="1617" y="397.2402"/><rect fill="#FFFFFF" height="61.291" style="stroke:#181818;stroke-width:1.0;" width="10" x="1769" y="924.0234"/><rect fill="#FFFFFF" height="61.291" style="stroke:#181818;stroke-width:1.0;" width="10" x="1769" y="1047.8965"/><rect fill="#FFFFFF" height="31.291" style="stroke:#181818;stroke-width:1.0;" width="10" x="1769" y="1234.3516"/><rect fill="#FFFFFF" height="61.291" style="stroke:#181818;stroke-width:1.0;" width="10" x="1921" y="955.3145"/><rect fill="#FFFFFF" height="61.291" style="stroke:#181818;stroke-width:1.0;" width="10" x="1921" y="1079.1875"/><rect fill="#FFFFFF" height="125.1641" style="stroke:#181818;stroke-width:1.0;" width="10" x="1921" y="1265.6426"/><rect fill="#FFFFFF" height="31.291" style="stroke:#181818;stroke-width:1.0;" width="10" x="2038" y="1328.2246"/><rect fill="#FFFFFF" height="45.291" style="stroke:#181818;stroke-width:1.0;" width="10" x="2038" y="1422.0977"/><rect fill="#FFFFFF" height="31.291" style="stroke:#181818;stroke-width:1.0;" width="10" x="2415" y="1171.7695"/><rect fill="#FFFFFF" height="61.291" style="stroke:#181818;stroke-width:1.0;" width="10" x="2619.5" y="459.8223"/><rect fill="#FFFFFF" height="61.291" style="stroke:#181818;stroke-width:1.0;" width="10" x="2619.5" y="583.6953"/><rect fill="#FFFFFF" height="61.291" style="stroke:#181818;stroke-width:1.0;" width="10" x="2716" y="707.5684"/><rect fill="#FFFFFF" height="61.291" style="stroke:#181818;stroke-width:1.0;" width="10" x="2716" y="831.4414"/><rect fill="#FFFFFF" height="61.291" style="stroke:#181818;stroke-width:1.0;" width="10" x="2814.5" y="428.5313"/><rect fill="#FFFFFF" height="61.291" style="stroke:#181818;stroke-width:1.0;" width="10" x="2814.5" y="552.4043"/><rect fill="#FFFFFF" height="61.291" style="stroke:#181818;stroke-width:1.0;" width="10" x="2917" y="676.2773"/><rect fill="#FFFFFF" height="61.291" style="stroke:#181818;stroke-width:1.0;" width="10" x="2917" y="800.1504"/><polygon fill="#181818" points="375.5,112.9121,385.5,116.9121,375.5,120.9121,379.5,116.9121" style="stroke:#181818;stroke-width:1.0;"/><line style="stroke:#181818;stroke-width:1.0;" x1="27.5" x2="381.5" y1="116.9121" y2="116.9121"/><text fill="#000000" font-family="sans-serif" font-size="13" lengthAdjust="spacing" textLength="93" x="34.5" y="111.6494">Create Passage</text><polygon fill="#181818" points="38.5,144.2031,28.5,148.2031,38.5,152.2031,34.5,148.2031" style="stroke:#181818;stroke-width:1.0;"/><line style="stroke:#181818;stroke-width:1.0;stroke-dasharray:2.0,2.0;" x1="32.5" x2="391.5" y1="148.2031" y2="148.2031"/><text fill="#000000" font-family="sans-serif" font-size="13" lengthAdjust="spacing" textLength="84" x="44.5" y="142.9404">Requests data</text><polygon fill="#181818" points="375.5,175.4941,385.5,179.4941,375.5,183.4941,379.5,179.4941" style="stroke:#181818;stroke-width:1.0;"/><line style="stroke:#181818;stroke-width:1.0;" x1="27.5" x2="381.5" y1="179.4941" y2="179.4941"/><text fill="#000000" font-family="sans-serif" font-size="13" lengthAdjust="spacing" textLength="341" x="34.5" y="174.2314">Gives data {}building1,building2,pisobuilding1,pisobuilding2}</text><polygon fill="#181818" points="723.5,206.7852,733.5,210.7852,723.5,214.7852,727.5,210.7852" style="stroke:#181818;stroke-width:1.0;"/><line style="stroke:#181818;stroke-width:1.0;" x1="397.5" x2="729.5" y1="210.7852" y2="210.7852"/><text fill="#000000" font-family="sans-serif" font-size="13" lengthAdjust="spacing" textLength="319" x="404.5" y="205.5225">POST /{ building1,building2,pisobuilding1,pisobuilding2}</text><polygon fill="#181818" points="1071.5,268.0762,1081.5,272.0762,1071.5,276.0762,1075.5,272.0762" style="stroke:#181818;stroke-width:1.0;"/><line style="stroke:#181818;stroke-width:1.0;" x1="745.5" x2="1077.5" y1="272.0762" y2="272.0762"/><text fill="#000000" font-family="sans-serif" font-size="13" lengthAdjust="spacing" textLength="319" x="752.5" y="266.8135">POST /{ building1,building2,pisobuilding1,pisobuilding2}</text><polygon fill="#181818" points="1201.5,299.3672,1211.5,303.3672,1201.5,307.3672,1205.5,303.3672" style="stroke:#181818;stroke-width:1.0;"/><line style="stroke:#181818;stroke-width:1.0;" x1="1093.5" x2="1207.5" y1="303.3672" y2="303.3672"/><text fill="#000000" font-family="sans-serif" font-size="13" lengthAdjust="spacing" textLength="95" x="1100.5" y="298.1045">createPassage()</text><polygon fill="#181818" points="1343.5,330.6582,1353.5,334.6582,1343.5,338.6582,1347.5,334.6582" style="stroke:#181818;stroke-width:1.0;"/><line style="stroke:#181818;stroke-width:1.0;" x1="1218.5" x2="1349.5" y1="334.6582" y2="334.6582"/><text fill="#000000" font-family="sans-serif" font-size="13" lengthAdjust="spacing" textLength="95" x="1225.5" y="329.3955">createPassage()</text><polygon fill="#181818" points="1478,361.9492,1488,365.9492,1478,369.9492,1482,365.9492" style="stroke:#181818;stroke-width:1.0;"/><line style="stroke:#181818;stroke-width:1.0;" x1="1365.5" x2="1484" y1="365.9492" y2="365.9492"/><text fill="#000000" font-family="sans-serif" font-size="13" lengthAdjust="spacing" textLength="95" x="1372.5" y="360.6865">createPassage()</text><polygon fill="#181818" points="1605,393.2402,1615,397.2402,1605,401.2402,1609,397.2402" style="stroke:#181818;stroke-width:1.0;"/><line style="stroke:#181818;stroke-width:1.0;" x1="1495" x2="1611" y1="397.2402" y2="397.2402"/><text fill="#000000" font-family="sans-serif" font-size="13" lengthAdjust="spacing" textLength="95" x="1502" y="391.9775">createPassage()</text><polygon fill="#181818" points="2802.5,424.5313,2812.5,428.5313,2802.5,432.5313,2806.5,428.5313" style="stroke:#181818;stroke-width:1.0;"/><line style="stroke:#181818;stroke-width:1.0;" x1="1627" x2="2808.5" y1="428.5313" y2="428.5313"/><text fill="#000000" font-family="sans-serif" font-size="13" lengthAdjust="spacing" textLength="78" x="1634" y="423.2686">findByName()</text><polygon fill="#181818" points="2640.5,455.8223,2630.5,459.8223,2640.5,463.8223,2636.5,459.8223" style="stroke:#181818;stroke-width:1.0;"/><line style="stroke:#181818;stroke-width:1.0;" x1="2634.5" x2="2813.5" y1="459.8223" y2="459.8223"/><text fill="#000000" font-family="sans-serif" font-size="13" lengthAdjust="spacing" textLength="78" x="2646.5" y="454.5596">findByName()</text><polygon fill="#181818" points="1638,517.1133,1628,521.1133,1638,525.1133,1634,521.1133" style="stroke:#181818;stroke-width:1.0;"/><line style="stroke:#181818;stroke-width:1.0;stroke-dasharray:2.0,2.0;" x1="1632" x2="2623.5" y1="521.1133" y2="521.1133"/><text fill="#000000" font-family="sans-serif" font-size="13" lengthAdjust="spacing" textLength="44" x="1644" y="515.8506">building</text><polygon fill="#181818" points="2802.5,548.4043,2812.5,552.4043,2802.5,556.4043,2806.5,552.4043" style="stroke:#181818;stroke-width:1.0;"/><line style="stroke:#181818;stroke-width:1.0;" x1="1627" x2="2808.5" y1="552.4043" y2="552.4043"/><text fill="#000000" font-family="sans-serif" font-size="13" lengthAdjust="spacing" textLength="78" x="1634" y="547.1416">findByName()</text><polygon fill="#181818" points="2640.5,579.6953,2630.5,583.6953,2640.5,587.6953,2636.5,583.6953" style="stroke:#181818;stroke-width:1.0;"/><line style="stroke:#181818;stroke-width:1.0;" x1="2634.5" x2="2813.5" y1="583.6953" y2="583.6953"/><text fill="#000000" font-family="sans-serif" font-size="13" lengthAdjust="spacing" textLength="78" x="2646.5" y="578.4326">findByName()</text><polygon fill="#181818" points="1638,640.9863,1628,644.9863,1638,648.9863,1634,644.9863" style="stroke:#181818;stroke-width:1.0;"/><line style="stroke:#181818;stroke-width:1.0;stroke-dasharray:2.0,2.0;" x1="1632" x2="2623.5" y1="644.9863" y2="644.9863"/><text fill="#000000" font-family="sans-serif" font-size="13" lengthAdjust="spacing" textLength="44" x="1644" y="639.7236">building</text><polygon fill="#181818" points="2905,672.2773,2915,676.2773,2905,680.2773,2909,676.2773" style="stroke:#181818;stroke-width:1.0;"/><line style="stroke:#181818;stroke-width:1.0;" x1="1627" x2="2911" y1="676.2773" y2="676.2773"/><text fill="#000000" font-family="sans-serif" font-size="13" lengthAdjust="spacing" textLength="78" x="1634" y="671.0146">findByName()</text><polygon fill="#181818" points="2737,703.5684,2727,707.5684,2737,711.5684,2733,707.5684" style="stroke:#181818;stroke-width:1.0;"/><line style="stroke:#181818;stroke-width:1.0;" x1="2731" x2="2916" y1="707.5684" y2="707.5684"/><text fill="#000000" font-family="sans-serif" font-size="13" lengthAdjust="spacing" textLength="78" x="2743" y="702.3057">findByName()</text><polygon fill="#181818" points="1638,764.8594,1628,768.8594,1638,772.8594,1634,768.8594" style="stroke:#181818;stroke-width:1.0;"/><line style="stroke:#181818;stroke-width:1.0;stroke-dasharray:2.0,2.0;" x1="1632" x2="2720" y1="768.8594" y2="768.8594"/><text fill="#000000" font-family="sans-serif" font-size="13" lengthAdjust="spacing" textLength="24" x="1644" y="763.5967">floor</text><polygon fill="#181818" points="2905,796.1504,2915,800.1504,2905,804.1504,2909,800.1504" style="stroke:#181818;stroke-width:1.0;"/><line style="stroke:#181818;stroke-width:1.0;" x1="1627" x2="2911" y1="800.1504" y2="800.1504"/><text fill="#000000" font-family="sans-serif" font-size="13" lengthAdjust="spacing" textLength="78" x="1634" y="794.8877">findByName()</text><polygon fill="#181818" points="2737,827.4414,2727,831.4414,2737,835.4414,2733,831.4414" style="stroke:#181818;stroke-width:1.0;"/><line style="stroke:#181818;stroke-width:1.0;" x1="2731" x2="2916" y1="831.4414" y2="831.4414"/><text fill="#000000" font-family="sans-serif" font-size="13" lengthAdjust="spacing" textLength="78" x="2743" y="826.1787">findByName()</text><polygon fill="#181818" points="1638,888.7324,1628,892.7324,1638,896.7324,1634,892.7324" style="stroke:#181818;stroke-width:1.0;"/><line style="stroke:#181818;stroke-width:1.0;stroke-dasharray:2.0,2.0;" x1="1632" x2="2720" y1="892.7324" y2="892.7324"/><text fill="#000000" font-family="sans-serif" font-size="13" lengthAdjust="spacing" textLength="24" x="1644" y="887.4697">floor</text><polygon fill="#181818" points="1757,920.0234,1767,924.0234,1757,928.0234,1761,924.0234" style="stroke:#181818;stroke-width:1.0;"/><line style="stroke:#181818;stroke-width:1.0;" x1="1627" x2="1763" y1="924.0234" y2="924.0234"/><text fill="#000000" font-family="sans-serif" font-size="13" lengthAdjust="spacing" textLength="77" x="1634" y="918.7607">findByPisos()</text><polygon fill="#181818" points="1909,951.3145,1919,955.3145,1909,959.3145,1913,955.3145" style="stroke:#181818;stroke-width:1.0;"/><line style="stroke:#181818;stroke-width:1.0;" x1="1779" x2="1915" y1="955.3145" y2="955.3145"/><text fill="#000000" font-family="sans-serif" font-size="13" lengthAdjust="spacing" textLength="77" x="1786" y="950.0518">findByPisos()</text><polygon fill="#181818" points="1638,1012.6055,1628,1016.6055,1638,1020.6055,1634,1016.6055" style="stroke:#181818;stroke-width:1.0;"/><line style="stroke:#181818;stroke-width:1.0;stroke-dasharray:2.0,2.0;" x1="1632" x2="1925" y1="1016.6055" y2="1016.6055"/><text fill="#000000" font-family="sans-serif" font-size="13" lengthAdjust="spacing" textLength="45" x="1644" y="1011.3428">boolean</text><polygon fill="#181818" points="1757,1043.8965,1767,1047.8965,1757,1051.8965,1761,1047.8965" style="stroke:#181818;stroke-width:1.0;"/><line style="stroke:#181818;stroke-width:1.0;" x1="1627" x2="1763" y1="1047.8965" y2="1047.8965"/><text fill="#000000" font-family="sans-serif" font-size="13" lengthAdjust="spacing" textLength="123" x="1634" y="1042.6338">findByPisosReverse()</text><polygon fill="#181818" points="1909,1075.1875,1919,1079.1875,1909,1083.1875,1913,1079.1875" style="stroke:#181818;stroke-width:1.0;"/><line style="stroke:#181818;stroke-width:1.0;" x1="1779" x2="1915" y1="1079.1875" y2="1079.1875"/><text fill="#000000" font-family="sans-serif" font-size="13" lengthAdjust="spacing" textLength="123" x="1786" y="1073.9248">findByPisosReverse()</text><polygon fill="#181818" points="1638,1136.4785,1628,1140.4785,1638,1144.4785,1634,1140.4785" style="stroke:#181818;stroke-width:1.0;"/><line style="stroke:#181818;stroke-width:1.0;stroke-dasharray:2.0,2.0;" x1="1632" x2="1925" y1="1140.4785" y2="1140.4785"/><text fill="#000000" font-family="sans-serif" font-size="13" lengthAdjust="spacing" textLength="45" x="1644" y="1135.2158">boolean</text><polygon fill="#181818" points="2403,1167.7695,2413,1171.7695,2403,1175.7695,2407,1171.7695" style="stroke:#181818;stroke-width:1.0;"/><line style="stroke:#181818;stroke-width:1.0;" x1="1627" x2="2409" y1="1171.7695" y2="1171.7695"/><text fill="#000000" font-family="sans-serif" font-size="13" lengthAdjust="spacing" textLength="44" x="1634" y="1166.5068">create()</text><polygon fill="#181818" points="1638,1199.0605,1628,1203.0605,1638,1207.0605,1634,1203.0605" style="stroke:#181818;stroke-width:1.0;"/><line style="stroke:#181818;stroke-width:1.0;" x1="1632" x2="2419" y1="1203.0605" y2="1203.0605"/><text fill="#000000" font-family="sans-serif" font-size="13" lengthAdjust="spacing" textLength="49" x="1644" y="1197.7979">passage</text><polygon fill="#181818" points="1757,1230.3516,1767,1234.3516,1757,1238.3516,1761,1234.3516" style="stroke:#181818;stroke-width:1.0;"/><line style="stroke:#181818;stroke-width:1.0;" x1="1627" x2="1763" y1="1234.3516" y2="1234.3516"/><text fill="#000000" font-family="sans-serif" font-size="13" lengthAdjust="spacing" textLength="34" x="1634" y="1229.0889">save()</text><polygon fill="#181818" points="1909,1261.6426,1919,1265.6426,1909,1269.6426,1913,1265.6426" style="stroke:#181818;stroke-width:1.0;"/><line style="stroke:#181818;stroke-width:1.0;" x1="1774" x2="1915" y1="1265.6426" y2="1265.6426"/><text fill="#000000" font-family="sans-serif" font-size="13" lengthAdjust="spacing" textLength="34" x="1781" y="1260.3799">save()</text><polygon fill="#181818" points="2304.5,1292.9336,2314.5,1296.9336,2304.5,1300.9336,2308.5,1296.9336" style="stroke:#181818;stroke-width:1.0;"/><line style="stroke:#181818;stroke-width:1.0;" x1="1931" x2="2310.5" y1="1296.9336" y2="1296.9336"/><text fill="#000000" font-family="sans-serif" font-size="13" lengthAdjust="spacing" textLength="52" x="1938" y="1291.6709">findOne()</text><polygon fill="#181818" points="2026,1324.2246,2036,1328.2246,2026,1332.2246,2030,1328.2246" style="stroke:#181818;stroke-width:1.0;"/><line style="stroke:#181818;stroke-width:1.0;" x1="1931" x2="2032" y1="1328.2246" y2="1328.2246"/><text fill="#000000" font-family="sans-serif" font-size="13" lengthAdjust="spacing" textLength="88" x="1938" y="1322.9619">toPersistence()</text><polygon fill="#181818" points="1942,1355.5156,1932,1359.5156,1942,1363.5156,1938,1359.5156" style="stroke:#181818;stroke-width:1.0;"/><line style="stroke:#181818;stroke-width:1.0;" x1="1936" x2="2042" y1="1359.5156" y2="1359.5156"/><text fill="#000000" font-family="sans-serif" font-size="13" lengthAdjust="spacing" textLength="49" x="1948" y="1354.2529">passage</text><polygon fill="#181818" points="2304.5,1386.8066,2314.5,1390.8066,2304.5,1394.8066,2308.5,1390.8066" style="stroke:#181818;stroke-width:1.0;"/><line style="stroke:#181818;stroke-width:1.0;" x1="1926" x2="2310.5" y1="1390.8066" y2="1390.8066"/><text fill="#000000" font-family="sans-serif" font-size="13" lengthAdjust="spacing" textLength="44" x="1933" y="1385.5439">create()</text><polygon fill="#181818" points="2026,1418.0977,2036,1422.0977,2026,1426.0977,2030,1422.0977" style="stroke:#181818;stroke-width:1.0;"/><line style="stroke:#181818;stroke-width:1.0;" x1="1627" x2="2032" y1="1422.0977" y2="1422.0977"/><text fill="#000000" font-family="sans-serif" font-size="13" lengthAdjust="spacing" textLength="45" x="1634" y="1416.835">toDTO()</text><polygon fill="#181818" points="2503,1432.0977,2513,1436.0977,2503,1440.0977,2507,1436.0977" style="stroke:#181818;stroke-width:1.0;"/><line style="stroke:#181818;stroke-width:1.0;" x1="2048" x2="2509" y1="1436.0977" y2="1436.0977"/><polygon fill="#181818" points="1638,1463.3887,1628,1467.3887,1638,1471.3887,1634,1467.3887" style="stroke:#181818;stroke-width:1.0;"/><line style="stroke:#181818;stroke-width:1.0;" x1="1632" x2="2042" y1="1467.3887" y2="1467.3887"/><text fill="#000000" font-family="sans-serif" font-size="13" lengthAdjust="spacing" textLength="75" x="1644" y="1462.126">passageDTO</text><polygon fill="#181818" points="1376.5,1494.6797,1366.5,1498.6797,1376.5,1502.6797,1372.5,1498.6797" style="stroke:#181818;stroke-width:1.0;"/><line style="stroke:#181818;stroke-width:1.0;" x1="1370.5" x2="1621" y1="1498.6797" y2="1498.6797"/><text fill="#000000" font-family="sans-serif" font-size="13" lengthAdjust="spacing" textLength="75" x="1382.5" y="1493.417">passageDTO</text><polygon fill="#181818" points="1104.5,1525.9707,1094.5,1529.9707,1104.5,1533.9707,1100.5,1529.9707" style="stroke:#181818;stroke-width:1.0;"/><line style="stroke:#181818;stroke-width:1.0;" x1="1098.5" x2="1359.5" y1="1529.9707" y2="1529.9707"/><text fill="#000000" font-family="sans-serif" font-size="13" lengthAdjust="spacing" textLength="177" x="1110.5" y="1524.708">res.json(passageDTO).status()</text><polygon fill="#181818" points="756.5,1557.2617,746.5,1561.2617,756.5,1565.2617,752.5,1561.2617" style="stroke:#181818;stroke-width:1.0;"/><line style="stroke:#181818;stroke-width:1.0;" x1="750.5" x2="1087.5" y1="1561.2617" y2="1561.2617"/><text fill="#000000" font-family="sans-serif" font-size="13" lengthAdjust="spacing" textLength="44" x="762.5" y="1555.999">status()</text><polygon fill="#181818" points="408.5,1588.5527,398.5,1592.5527,408.5,1596.5527,404.5,1592.5527" style="stroke:#181818;stroke-width:1.0;"/><line style="stroke:#181818;stroke-width:1.0;" x1="402.5" x2="734.5" y1="1592.5527" y2="1592.5527"/><text fill="#000000" font-family="sans-serif" font-size="13" lengthAdjust="spacing" textLength="44" x="414.5" y="1587.29">status()</text><polygon fill="#181818" points="38.5,1649.8438,28.5,1653.8438,38.5,1657.8438,34.5,1653.8438" style="stroke:#181818;stroke-width:1.0;"/><line style="stroke:#181818;stroke-width:1.0;" x1="32.5" x2="391.5" y1="1653.8438" y2="1653.8438"/><text fill="#000000" font-family="sans-serif" font-size="13" lengthAdjust="spacing" textLength="104" x="44.5" y="1648.5811">Confirmation/Error</text><!--SRC=[vLRHRjiW57ttL_2sLcfYhOz-YBIsszI7Bb7IVG2rISfa6mOuqbJrtmUn7IxushFQXqdRInJ3lOTpk70v7vwDaJfBKrdIsZHLkSn5bMhsis5rpXO5fmT5goIXkH6AVDTC9P8gmtCkRJpPRJu5tmztmQUaMjC3suh6i63YVjFEt8hQA56M4QoSdEsJTqmTUSwmJ6ogJzioAL2MyNWN_q0bYhDXIdDjt3wX5F9dLb5i1aMxUrm7uqyDBmjU7mQizgKGwZJgYiAFrB2sBkw7B5Qs92GZjugvYGxSHxg2kOZ5OdNAig5RLsnjD2ceeKd1WjWEbBIeN_cHjN7avRLd-F6g_tTz9RaMVXn-NRyY95Rsm91iizuzalI5l1tG7hk8jyMrwF3yPUJzwqJdsN-unOPdskvOVgf3DtDnwQ6G6u00U0q1wW0Mg4U0O_x1lKAMZ2xO71dzXOjJlO1nC8Hy3nSpz_SwNkN-1bmOkyYUryNDhs-q2kd2g2JCiI1FSp22cmcv1zW1r0BRXZu2OaIt_lyK-QNlSECApo49YBQvv-Oubkcx9nJbuVOU3PDpceQf7kzV5W9UphEKZUsH6ci5hHgO0Zhn909yY96c0DbDd3WXIaPh2227-RFKRTdHll7i_I8HeB-ZjHivDs64KP-5jku-PhZW7pOs8veUtxgJNUhODarfZm1RKzOLPrqxr2ZGcpuRPGGmUP0yi8OWOK0SsQx0L8vJ10MQNTo8kdMKioX31ugA6PJVHKvA6fwumBxWCFWJZvgXrdDbH36z_A55VU4HBvVQKDDeTEE6nkVitfmH9HEfhUThRQKrc20sy9qWqPhIpkHsHjkklkUgeeQBElsiLDY0RUnl]--></g></svg>