<?xml version="1.0" encoding="UTF-8" standalone="no"?><svg xmlns="http://www.w3.org/2000/svg" xmlns:xlink="http://www.w3.org/1999/xlink" contentScriptType="application/ecmascript" contentStyleType="text/css" height="617px" preserveAspectRatio="none" style="width:1399px;height:617px;background:#FFFFFF;" version="1.1" viewBox="0 0 1399 617" width="1399px" zoomAndPan="magnify"><defs><filter height="300%" id="fbgf0j2xxyqys" width="300%" x="-1" y="-1"><feGaussianBlur result="blurOut" stdDeviation="2.0"/><feColorMatrix in="blurOut" result="blurOut2" type="matrix" values="0 0 0 0 0 0 0 0 0 0 0 0 0 0 0 0 0 0 .4 0"/><feOffset dx="4.0" dy="4.0" in="blurOut2" result="blurOut3"/><feBlend in="SourceGraphic" in2="blurOut3" mode="normal"/></filter></defs><g><rect fill="#FFFFFF" filter="url(#fbgf0j2xxyqys)" height="400.8672" style="stroke:#A80036;stroke-width:1.0;" width="10" x="87" y="121.9609"/><rect fill="#FFFFFF" filter="url(#fbgf0j2xxyqys)" height="30.3516" style="stroke:#A80036;stroke-width:1.0;" width="10" x="272" y="152.3125"/><rect fill="#FFFFFF" filter="url(#fbgf0j2xxyqys)" height="317.1641" style="stroke:#A80036;stroke-width:1.0;" width="10" x="450" y="182.6641"/><rect fill="#FFFFFF" filter="url(#fbgf0j2xxyqys)" height="30.3516" style="stroke:#A80036;stroke-width:1.0;" width="10" x="628" y="213.0156"/><rect fill="#FFFFFF" filter="url(#fbgf0j2xxyqys)" height="226.1094" style="stroke:#A80036;stroke-width:1.0;" width="10" x="806" y="243.3672"/><rect fill="#FFFFFF" filter="url(#fbgf0j2xxyqys)" height="60.3516" style="stroke:#A80036;stroke-width:1.0;" width="10" x="984" y="273.7188"/><rect fill="#FFFFFF" filter="url(#fbgf0j2xxyqys)" height="60.3516" style="stroke:#A80036;stroke-width:1.0;" width="10" x="1162" y="304.0703"/><rect fill="#FFFFFF" filter="url(#fbgf0j2xxyqys)" height="44.3516" style="stroke:#A80036;stroke-width:1.0;" width="10" x="1251" y="394.7734"/><line style="stroke:#A80036;stroke-width:1.0;stroke-dasharray:5.0,5.0;" x1="22" x2="22" y1="89.6094" y2="531.8281"/><line style="stroke:#A80036;stroke-width:1.0;stroke-dasharray:5.0,5.0;" x1="92" x2="92" y1="89.6094" y2="531.8281"/><line style="stroke:#A80036;stroke-width:1.0;stroke-dasharray:5.0,5.0;" x1="277" x2="277" y1="89.6094" y2="531.8281"/><line style="stroke:#A80036;stroke-width:1.0;stroke-dasharray:5.0,5.0;" x1="455" x2="455" y1="89.6094" y2="531.8281"/><line style="stroke:#A80036;stroke-width:1.0;stroke-dasharray:5.0,5.0;" x1="632.5" x2="632.5" y1="89.6094" y2="531.8281"/><line style="stroke:#A80036;stroke-width:1.0;stroke-dasharray:5.0,5.0;" x1="810.5" x2="810.5" y1="89.6094" y2="531.8281"/><line style="stroke:#A80036;stroke-width:1.0;stroke-dasharray:5.0,5.0;" x1="989" x2="989" y1="89.6094" y2="531.8281"/><line style="stroke:#A80036;stroke-width:1.0;stroke-dasharray:5.0,5.0;" x1="1167" x2="1167" y1="89.6094" y2="531.8281"/><line style="stroke:#A80036;stroke-width:1.0;stroke-dasharray:5.0,5.0;" x1="1256" x2="1256" y1="89.6094" y2="531.8281"/><line style="stroke:#A80036;stroke-width:1.0;stroke-dasharray:5.0,5.0;" x1="1347" x2="1347" y1="89.6094" y2="531.8281"/><text fill="#000000" font-family="sans-serif" font-size="14" lengthAdjust="spacing" textLength="29" x="5" y="86.5332">User</text><ellipse cx="22.5" cy="15" fill="#FEFECE" filter="url(#fbgf0j2xxyqys)" rx="8" ry="8" style="stroke:#A80036;stroke-width:2.0;"/><path d="M22.5,23 L22.5,50 M9.5,31 L35.5,31 M22.5,50 L9.5,65 M22.5,50 L35.5,65 " fill="none" filter="url(#fbgf0j2xxyqys)" style="stroke:#A80036;stroke-width:2.0;"/><text fill="#000000" font-family="sans-serif" font-size="14" lengthAdjust="spacing" textLength="29" x="5" y="545.3613">User</text><ellipse cx="22.5" cy="558.4375" fill="#FEFECE" filter="url(#fbgf0j2xxyqys)" rx="8" ry="8" style="stroke:#A80036;stroke-width:2.0;"/><path d="M22.5,566.4375 L22.5,593.4375 M9.5,574.4375 L35.5,574.4375 M22.5,593.4375 L9.5,608.4375 M22.5,593.4375 L35.5,608.4375 " fill="none" filter="url(#fbgf0j2xxyqys)" style="stroke:#A80036;stroke-width:2.0;"/><rect fill="#FEFECE" filter="url(#fbgf0j2xxyqys)" height="31.6094" style="stroke:#A80036;stroke-width:1.5;" width="80" x="50" y="53"/><text fill="#000000" font-family="sans-serif" font-size="14" lengthAdjust="spacing" textLength="66" x="57" y="74.5332">floorRoute</text><rect fill="#FEFECE" filter="url(#fbgf0j2xxyqys)" height="31.6094" style="stroke:#A80036;stroke-width:1.5;" width="80" x="50" y="530.8281"/><text fill="#000000" font-family="sans-serif" font-size="14" lengthAdjust="spacing" textLength="66" x="57" y="552.3613">floorRoute</text><rect fill="#FEFECE" filter="url(#fbgf0j2xxyqys)" height="31.6094" style="stroke:#A80036;stroke-width:1.5;" width="112" x="219" y="53"/><text fill="#000000" font-family="sans-serif" font-size="14" lengthAdjust="spacing" textLength="98" x="226" y="74.5332">IFloorController</text><rect fill="#FEFECE" filter="url(#fbgf0j2xxyqys)" height="31.6094" style="stroke:#A80036;stroke-width:1.5;" width="112" x="219" y="530.8281"/><text fill="#000000" font-family="sans-serif" font-size="14" lengthAdjust="spacing" textLength="98" x="226" y="552.3613">IFloorController</text><rect fill="#FEFECE" filter="url(#fbgf0j2xxyqys)" height="31.6094" style="stroke:#A80036;stroke-width:1.5;" width="104" x="401" y="53"/><text fill="#000000" font-family="sans-serif" font-size="14" lengthAdjust="spacing" textLength="90" x="408" y="74.5332">floorController</text><rect fill="#FEFECE" filter="url(#fbgf0j2xxyqys)" height="31.6094" style="stroke:#A80036;stroke-width:1.5;" width="104" x="401" y="530.8281"/><text fill="#000000" font-family="sans-serif" font-size="14" lengthAdjust="spacing" textLength="90" x="408" y="552.3613">floorController</text><rect fill="#FEFECE" filter="url(#fbgf0j2xxyqys)" height="31.6094" style="stroke:#A80036;stroke-width:1.5;" width="97" x="582.5" y="53"/><text fill="#000000" font-family="sans-serif" font-size="14" lengthAdjust="spacing" textLength="83" x="589.5" y="74.5332">IFloorService</text><rect fill="#FEFECE" filter="url(#fbgf0j2xxyqys)" height="31.6094" style="stroke:#A80036;stroke-width:1.5;" width="97" x="582.5" y="530.8281"/><text fill="#000000" font-family="sans-serif" font-size="14" lengthAdjust="spacing" textLength="83" x="589.5" y="552.3613">IFloorService</text><rect fill="#FEFECE" filter="url(#fbgf0j2xxyqys)" height="31.6094" style="stroke:#A80036;stroke-width:1.5;" width="89" x="764.5" y="53"/><text fill="#000000" font-family="sans-serif" font-size="14" lengthAdjust="spacing" textLength="75" x="771.5" y="74.5332">floorService</text><rect fill="#FEFECE" filter="url(#fbgf0j2xxyqys)" height="31.6094" style="stroke:#A80036;stroke-width:1.5;" width="89" x="764.5" y="530.8281"/><text fill="#000000" font-family="sans-serif" font-size="14" lengthAdjust="spacing" textLength="75" x="771.5" y="552.3613">floorService</text><rect fill="#FEFECE" filter="url(#fbgf0j2xxyqys)" height="31.6094" style="stroke:#A80036;stroke-width:1.5;" width="84" x="945" y="53"/><text fill="#000000" font-family="sans-serif" font-size="14" lengthAdjust="spacing" textLength="70" x="952" y="74.5332">IFloorRepo</text><rect fill="#FEFECE" filter="url(#fbgf0j2xxyqys)" height="31.6094" style="stroke:#A80036;stroke-width:1.5;" width="84" x="945" y="530.8281"/><text fill="#000000" font-family="sans-serif" font-size="14" lengthAdjust="spacing" textLength="70" x="952" y="552.3613">IFloorRepo</text><rect fill="#FEFECE" filter="url(#fbgf0j2xxyqys)" height="31.6094" style="stroke:#A80036;stroke-width:1.5;" width="76" x="1127" y="53"/><text fill="#000000" font-family="sans-serif" font-size="14" lengthAdjust="spacing" textLength="62" x="1134" y="74.5332">floorRepo</text><rect fill="#FEFECE" filter="url(#fbgf0j2xxyqys)" height="31.6094" style="stroke:#A80036;stroke-width:1.5;" width="76" x="1127" y="530.8281"/><text fill="#000000" font-family="sans-serif" font-size="14" lengthAdjust="spacing" textLength="62" x="1134" y="552.3613">floorRepo</text><rect fill="#FEFECE" filter="url(#fbgf0j2xxyqys)" height="31.6094" style="stroke:#A80036;stroke-width:1.5;" width="74" x="1217" y="53"/><text fill="#000000" font-family="sans-serif" font-size="14" lengthAdjust="spacing" textLength="60" x="1224" y="74.5332">FloorMap</text><rect fill="#FEFECE" filter="url(#fbgf0j2xxyqys)" height="31.6094" style="stroke:#A80036;stroke-width:1.5;" width="74" x="1217" y="530.8281"/><text fill="#000000" font-family="sans-serif" font-size="14" lengthAdjust="spacing" textLength="60" x="1224" y="552.3613">FloorMap</text><rect fill="#FEFECE" filter="url(#fbgf0j2xxyqys)" height="31.6094" style="stroke:#A80036;stroke-width:1.5;" width="80" x="1305" y="53"/><text fill="#000000" font-family="sans-serif" font-size="14" lengthAdjust="spacing" textLength="66" x="1312" y="74.5332">IFloorDTO</text><rect fill="#FEFECE" filter="url(#fbgf0j2xxyqys)" height="31.6094" style="stroke:#A80036;stroke-width:1.5;" width="80" x="1305" y="530.8281"/><text fill="#000000" font-family="sans-serif" font-size="14" lengthAdjust="spacing" textLength="66" x="1312" y="552.3613">IFloorDTO</text><rect fill="#FFFFFF" filter="url(#fbgf0j2xxyqys)" height="400.8672" style="stroke:#A80036;stroke-width:1.0;" width="10" x="87" y="121.9609"/><rect fill="#FFFFFF" filter="url(#fbgf0j2xxyqys)" height="30.3516" style="stroke:#A80036;stroke-width:1.0;" width="10" x="272" y="152.3125"/><rect fill="#FFFFFF" filter="url(#fbgf0j2xxyqys)" height="317.1641" style="stroke:#A80036;stroke-width:1.0;" width="10" x="450" y="182.6641"/><rect fill="#FFFFFF" filter="url(#fbgf0j2xxyqys)" height="30.3516" style="stroke:#A80036;stroke-width:1.0;" width="10" x="628" y="213.0156"/><rect fill="#FFFFFF" filter="url(#fbgf0j2xxyqys)" height="226.1094" style="stroke:#A80036;stroke-width:1.0;" width="10" x="806" y="243.3672"/><rect fill="#FFFFFF" filter="url(#fbgf0j2xxyqys)" height="60.3516" style="stroke:#A80036;stroke-width:1.0;" width="10" x="984" y="273.7188"/><rect fill="#FFFFFF" filter="url(#fbgf0j2xxyqys)" height="60.3516" style="stroke:#A80036;stroke-width:1.0;" width="10" x="1162" y="304.0703"/><rect fill="#FFFFFF" filter="url(#fbgf0j2xxyqys)" height="44.3516" style="stroke:#A80036;stroke-width:1.0;" width="10" x="1251" y="394.7734"/><polygon fill="#A80036" points="75,117.9609,85,121.9609,75,125.9609,79,121.9609" style="stroke:#A80036;stroke-width:1.0;"/><line style="stroke:#A80036;stroke-width:1.0;" x1="22.5" x2="81" y1="121.9609" y2="121.9609"/><text fill="#000000" font-family="sans-serif" font-size="13" lengthAdjust="spacing" textLength="34" x="29.5" y="117.1045">GET /</text><polygon fill="#A80036" points="260,148.3125,270,152.3125,260,156.3125,264,152.3125" style="stroke:#A80036;stroke-width:1.0;"/><line style="stroke:#A80036;stroke-width:1.0;" x1="97" x2="266" y1="152.3125" y2="152.3125"/><text fill="#000000" font-family="sans-serif" font-size="13" lengthAdjust="spacing" textLength="156" x="104" y="147.4561">findFloorsWithPassagese()</text><polygon fill="#A80036" points="438,178.6641,448,182.6641,438,186.6641,442,182.6641" style="stroke:#A80036;stroke-width:1.0;"/><line style="stroke:#A80036;stroke-width:1.0;" x1="277" x2="444" y1="182.6641" y2="182.6641"/><text fill="#000000" font-family="sans-serif" font-size="13" lengthAdjust="spacing" textLength="149" x="284" y="177.8076">findFloorsWithPassages()</text><polygon fill="#A80036" points="616,209.0156,626,213.0156,616,217.0156,620,213.0156" style="stroke:#A80036;stroke-width:1.0;"/><line style="stroke:#A80036;stroke-width:1.0;" x1="460" x2="622" y1="213.0156" y2="213.0156"/><text fill="#000000" font-family="sans-serif" font-size="13" lengthAdjust="spacing" textLength="149" x="467" y="208.1592">findFloorsWithPassages()</text><polygon fill="#A80036" points="794,239.3672,804,243.3672,794,247.3672,798,243.3672" style="stroke:#A80036;stroke-width:1.0;"/><line style="stroke:#A80036;stroke-width:1.0;" x1="633" x2="800" y1="243.3672" y2="243.3672"/><text fill="#000000" font-family="sans-serif" font-size="13" lengthAdjust="spacing" textLength="149" x="640" y="238.5107">findFloorsWithPassages()</text><polygon fill="#A80036" points="972,269.7188,982,273.7188,972,277.7188,976,273.7188" style="stroke:#A80036;stroke-width:1.0;"/><line style="stroke:#A80036;stroke-width:1.0;" x1="816" x2="978" y1="273.7188" y2="273.7188"/><text fill="#000000" font-family="sans-serif" font-size="13" lengthAdjust="spacing" textLength="149" x="823" y="268.8623">findFloorsWithPassages()</text><polygon fill="#A80036" points="1150,300.0703,1160,304.0703,1150,308.0703,1154,304.0703" style="stroke:#A80036;stroke-width:1.0;"/><line style="stroke:#A80036;stroke-width:1.0;" x1="994" x2="1156" y1="304.0703" y2="304.0703"/><text fill="#000000" font-family="sans-serif" font-size="13" lengthAdjust="spacing" textLength="149" x="1001" y="299.2139">findFloorsWithPassages()</text><polygon fill="#A80036" points="827,360.4219,817,364.4219,827,368.4219,823,364.4219" style="stroke:#A80036;stroke-width:1.0;"/><line style="stroke:#A80036;stroke-width:1.0;stroke-dasharray:2.0,2.0;" x1="821" x2="1166" y1="364.4219" y2="364.4219"/><text fill="#000000" font-family="sans-serif" font-size="13" lengthAdjust="spacing" textLength="32" x="833" y="359.5654">floor[]</text><polygon fill="#A80036" points="1239,390.7734,1249,394.7734,1239,398.7734,1243,394.7734" style="stroke:#A80036;stroke-width:1.0;"/><line style="stroke:#A80036;stroke-width:1.0;" x1="816" x2="1245" y1="394.7734" y2="394.7734"/><text fill="#000000" font-family="sans-serif" font-size="13" lengthAdjust="spacing" textLength="45" x="823" y="389.917">toDTO()</text><polygon fill="#A80036" points="1335,404.7734,1345,408.7734,1335,412.7734,1339,408.7734" style="stroke:#A80036;stroke-width:1.0;"/><line style="stroke:#A80036;stroke-width:1.0;" x1="1261" x2="1341" y1="408.7734" y2="408.7734"/><polygon fill="#A80036" points="827,435.125,817,439.125,827,443.125,823,439.125" style="stroke:#A80036;stroke-width:1.0;"/><line style="stroke:#A80036;stroke-width:1.0;stroke-dasharray:2.0,2.0;" x1="821" x2="1255" y1="439.125" y2="439.125"/><text fill="#000000" font-family="sans-serif" font-size="13" lengthAdjust="spacing" textLength="58" x="833" y="434.2686">floorDTO[]</text><polygon fill="#A80036" points="471,465.4766,461,469.4766,471,473.4766,467,469.4766" style="stroke:#A80036;stroke-width:1.0;"/><line style="stroke:#A80036;stroke-width:1.0;stroke-dasharray:2.0,2.0;" x1="465" x2="810" y1="469.4766" y2="469.4766"/><text fill="#000000" font-family="sans-serif" font-size="13" lengthAdjust="spacing" textLength="58" x="477" y="464.6201">floorDTO[]</text><polygon fill="#A80036" points="108,495.8281,98,499.8281,108,503.8281,104,499.8281" style="stroke:#A80036;stroke-width:1.0;"/><line style="stroke:#A80036;stroke-width:1.0;stroke-dasharray:2.0,2.0;" x1="102" x2="454" y1="499.8281" y2="499.8281"/><text fill="#000000" font-family="sans-serif" font-size="13" lengthAdjust="spacing" textLength="321" x="114" y="494.9717">floorController -&gt; floorRoute : res.json(floorDTO).status()</text><polygon fill="#A80036" points="33.5,509.8281,23.5,513.8281,33.5,517.8281,29.5,513.8281" style="stroke:#A80036;stroke-width:1.0;"/><line style="stroke:#A80036;stroke-width:1.0;stroke-dasharray:2.0,2.0;" x1="27.5" x2="86" y1="513.8281" y2="513.8281"/><!--MD5=[40150afe3ea285c379dd93578b54115b]
@startuml
'https://plantuml.com/sequence-diagram

actor User
participant floorRoute
participant IFloorController
participant floorController
participant IFloorService
participant floorService
participant IFloorRepo
participant floorRepo
participant FloorMap
participant IFloorDTO

User -> floorRoute : GET /
activate floorRoute
floorRoute -> IFloorController : findFloorsWithPassagese()
activate IFloorController
IFloorController -> floorController : findFloorsWithPassages()
deactivate IFloorController
activate floorController
floorController -> IFloorService : findFloorsWithPassages()
activate IFloorService
IFloorService -> floorService : findFloorsWithPassages()
deactivate IFloorService
activate floorService
floorService -> IFloorRepo : findFloorsWithPassages()
activate IFloorRepo
IFloorRepo -> floorRepo : findFloorsWithPassages()
activate floorRepo
deactivate IFloorRepo
floorRepo - -> floorService : floor[]
deactivate floorRepo
floorService -> FloorMap : toDTO()
activate FloorMap
FloorMap -> IFloorDTO
FloorMap - -> floorService : floorDTO[]
deactivate FloorMap
floorService - -> floorController: floorDTO[]
deactivate floorService
floorController - -> floorRoute: floorController -> floorRoute : res.json(floorDTO).status()
deactivate floorController
floorRoute - -> User
@enduml

@startuml

actor User
participant floorRoute
participant IFloorController
participant floorController
participant IFloorService
participant floorService
participant IFloorRepo
participant floorRepo
participant FloorMap
participant IFloorDTO

User -> floorRoute : GET /
activate floorRoute
floorRoute -> IFloorController : findFloorsWithPassagese()
activate IFloorController
IFloorController -> floorController : findFloorsWithPassages()
deactivate IFloorController
activate floorController
floorController -> IFloorService : findFloorsWithPassages()
activate IFloorService
IFloorService -> floorService : findFloorsWithPassages()
deactivate IFloorService
activate floorService
floorService -> IFloorRepo : findFloorsWithPassages()
activate IFloorRepo
IFloorRepo -> floorRepo : findFloorsWithPassages()
activate floorRepo
deactivate IFloorRepo
floorRepo - -> floorService : floor[]
deactivate floorRepo
floorService -> FloorMap : toDTO()
activate FloorMap
FloorMap -> IFloorDTO
FloorMap - -> floorService : floorDTO[]
deactivate FloorMap
floorService - -> floorController: floorDTO[]
deactivate floorService
floorController - -> floorRoute: floorController -> floorRoute : res.json(floorDTO).status()
deactivate floorController
floorRoute - -> User
@enduml

PlantUML version 1.2021.11(Sat Oct 02 14:26:11 BST 2021)
(GPL source distribution)
Java Runtime: OpenJDK Runtime Environment
JVM: OpenJDK 64-Bit Server VM
Default Encoding: Cp1252
Language: pt
Country: PT
--></g></svg>