<?xml version="1.0" encoding="us-ascii" standalone="no"?><svg xmlns="http://www.w3.org/2000/svg" xmlns:xlink="http://www.w3.org/1999/xlink" contentStyleType="text/css" height="801px" preserveAspectRatio="none" style="width:1783px;height:801px;background:#FFFFFF;" version="1.1" viewBox="0 0 1783 801" width="1783px" zoomAndPan="magnify"><defs/><g><rect fill="#FFFFFF" height="607.2383" style="stroke:#181818;stroke-width:1.0;" width="10" x="17.5" y="93.6211"/><rect fill="#FFFFFF" height="31.291" style="stroke:#181818;stroke-width:1.0;" width="10" x="797.5" y="116.9121"/><rect fill="#FFFFFF" height="521.3652" style="stroke:#181818;stroke-width:1.0;" width="10" x="797.5" y="179.4941"/><rect fill="#FFFFFF" height="458.7832" style="stroke:#181818;stroke-width:1.0;" width="10" x="1533.5" y="210.7852"/><rect fill="#FFFFFF" height="31.291" style="stroke:#181818;stroke-width:1.0;" width="10" x="1734.5" y="286.3672"/><rect fill="#FFFFFF" height="31.291" style="stroke:#181818;stroke-width:1.0;" width="10" x="1734.5" y="393.2402"/><rect fill="#FFFFFF" height="31.291" style="stroke:#181818;stroke-width:1.0;" width="10" x="1734.5" y="500.1133"/><rect fill="#FFFFFF" height="31.291" style="stroke:#181818;stroke-width:1.0;" width="10" x="1734.5" y="606.9863"/><line style="stroke:#181818;stroke-width:0.5;stroke-dasharray:5.0,5.0;" x1="22" x2="22" y1="83.6211" y2="718.8594"/><line style="stroke:#181818;stroke-width:0.5;stroke-dasharray:5.0,5.0;" x1="802" x2="802" y1="83.6211" y2="718.8594"/><line style="stroke:#181818;stroke-width:0.5;stroke-dasharray:5.0,5.0;" x1="1538.5" x2="1538.5" y1="83.6211" y2="718.8594"/><line style="stroke:#181818;stroke-width:0.5;stroke-dasharray:5.0,5.0;" x1="1739.5" x2="1739.5" y1="83.6211" y2="718.8594"/><text fill="#000000" font-family="sans-serif" font-size="14" lengthAdjust="spacing" textLength="29" x="5" y="80.1074">User</text><ellipse cx="22.5" cy="13.5" fill="#E2E2F0" rx="8" ry="8" style="stroke:#181818;stroke-width:0.5;"/><path d="M22.5,21.5 L22.5,48.5 M9.5,29.5 L35.5,29.5 M22.5,48.5 L9.5,63.5 M22.5,48.5 L35.5,63.5 " fill="none" style="stroke:#181818;stroke-width:0.5;"/><text fill="#000000" font-family="sans-serif" font-size="14" lengthAdjust="spacing" textLength="29" x="5" y="732.9668">User</text><ellipse cx="22.5" cy="744.9805" fill="#E2E2F0" rx="8" ry="8" style="stroke:#181818;stroke-width:0.5;"/><path d="M22.5,752.9805 L22.5,779.9805 M9.5,760.9805 L35.5,760.9805 M22.5,779.9805 L9.5,794.9805 M22.5,779.9805 L35.5,794.9805 " fill="none" style="stroke:#181818;stroke-width:0.5;"/><rect fill="#E2E2F0" height="32.6211" rx="2.5" ry="2.5" style="stroke:#181818;stroke-width:0.5;" width="41" x="782" y="50"/><text fill="#000000" font-family="sans-serif" font-size="14" lengthAdjust="spacing" textLength="27" x="789" y="72.1074">SPA</text><rect fill="#E2E2F0" height="32.6211" rx="2.5" ry="2.5" style="stroke:#181818;stroke-width:0.5;" width="41" x="782" y="717.8594"/><text fill="#000000" font-family="sans-serif" font-size="14" lengthAdjust="spacing" textLength="27" x="789" y="739.9668">SPA</text><rect fill="#E2E2F0" height="51.2422" rx="2.5" ry="2.5" style="stroke:#181818;stroke-width:0.5;" width="92" x="1492.5" y="31.3789"/><text fill="#000000" font-family="sans-serif" font-size="14" font-style="italic" lengthAdjust="spacing" textLength="78" x="1499.5" y="53.4863">&#171;Container&#187;</text><text fill="#000000" font-family="sans-serif" font-size="14" lengthAdjust="spacing" textLength="21" x="1528" y="72.1074">MD</text><rect fill="#E2E2F0" height="51.2422" rx="2.5" ry="2.5" style="stroke:#181818;stroke-width:0.5;" width="92" x="1492.5" y="717.8594"/><text fill="#000000" font-family="sans-serif" font-size="14" font-style="italic" lengthAdjust="spacing" textLength="78" x="1499.5" y="739.9668">&#171;Container&#187;</text><text fill="#000000" font-family="sans-serif" font-size="14" lengthAdjust="spacing" textLength="21" x="1528" y="758.5879">MD</text><rect fill="#E2E2F0" height="32.6211" rx="2.5" ry="2.5" style="stroke:#181818;stroke-width:0.5;" width="76" x="1701.5" y="50"/><text fill="#000000" font-family="sans-serif" font-size="14" lengthAdjust="spacing" textLength="62" x="1708.5" y="72.1074">MongoDB</text><rect fill="#E2E2F0" height="32.6211" rx="2.5" ry="2.5" style="stroke:#181818;stroke-width:0.5;" width="76" x="1701.5" y="717.8594"/><text fill="#000000" font-family="sans-serif" font-size="14" lengthAdjust="spacing" textLength="62" x="1708.5" y="739.9668">MongoDB</text><rect fill="#FFFFFF" height="607.2383" style="stroke:#181818;stroke-width:1.0;" width="10" x="17.5" y="93.6211"/><rect fill="#FFFFFF" height="31.291" style="stroke:#181818;stroke-width:1.0;" width="10" x="797.5" y="116.9121"/><rect fill="#FFFFFF" height="521.3652" style="stroke:#181818;stroke-width:1.0;" width="10" x="797.5" y="179.4941"/><rect fill="#FFFFFF" height="458.7832" style="stroke:#181818;stroke-width:1.0;" width="10" x="1533.5" y="210.7852"/><rect fill="#FFFFFF" height="31.291" style="stroke:#181818;stroke-width:1.0;" width="10" x="1734.5" y="286.3672"/><rect fill="#FFFFFF" height="31.291" style="stroke:#181818;stroke-width:1.0;" width="10" x="1734.5" y="393.2402"/><rect fill="#FFFFFF" height="31.291" style="stroke:#181818;stroke-width:1.0;" width="10" x="1734.5" y="500.1133"/><rect fill="#FFFFFF" height="31.291" style="stroke:#181818;stroke-width:1.0;" width="10" x="1734.5" y="606.9863"/><polygon fill="#181818" points="785.5,112.9121,795.5,116.9121,785.5,120.9121,789.5,116.9121" style="stroke:#181818;stroke-width:1.0;"/><line style="stroke:#181818;stroke-width:1.0;" x1="27.5" x2="791.5" y1="116.9121" y2="116.9121"/><text fill="#000000" font-family="sans-serif" font-size="13" font-weight="bold" lengthAdjust="spacing" textLength="7" x="34.5" y="111.6494">1</text><text fill="#000000" font-family="sans-serif" font-size="13" lengthAdjust="spacing" textLength="131" x="45.5" y="111.6494">Carregar mapa de piso</text><polygon fill="#181818" points="38.5,144.2031,28.5,148.2031,38.5,152.2031,34.5,148.2031" style="stroke:#181818;stroke-width:1.0;"/><line style="stroke:#181818;stroke-width:1.0;stroke-dasharray:2.0,2.0;" x1="32.5" x2="801.5" y1="148.2031" y2="148.2031"/><text fill="#000000" font-family="sans-serif" font-size="13" font-weight="bold" lengthAdjust="spacing" textLength="7" x="44.5" y="142.9404">2</text><text fill="#000000" font-family="sans-serif" font-size="13" lengthAdjust="spacing" textLength="97" x="55.5" y="142.9404">Pedido de dados</text><polygon fill="#181818" points="785.5,175.4941,795.5,179.4941,785.5,183.4941,789.5,179.4941" style="stroke:#181818;stroke-width:1.0;"/><line style="stroke:#181818;stroke-width:1.0;" x1="27.5" x2="791.5" y1="179.4941" y2="179.4941"/><text fill="#000000" font-family="sans-serif" font-size="13" font-weight="bold" lengthAdjust="spacing" textLength="7" x="34.5" y="174.2314">3</text><text fill="#000000" font-family="sans-serif" font-size="13" lengthAdjust="spacing" textLength="740" x="45.5" y="174.2314">Dar informa&#231;ao {id,map,passages:[{id,positionBuilding1,positionBuilding2}],elevator:{id,position},rooms:[{ id,position,distX,distY}]}</text><polygon fill="#181818" points="1521.5,206.7852,1531.5,210.7852,1521.5,214.7852,1525.5,210.7852" style="stroke:#181818;stroke-width:1.0;"/><line style="stroke:#181818;stroke-width:1.0;" x1="807.5" x2="1527.5" y1="210.7852" y2="210.7852"/><text fill="#000000" font-family="sans-serif" font-size="13" font-weight="bold" lengthAdjust="spacing" textLength="7" x="814.5" y="205.5225">4</text><text fill="#000000" font-family="sans-serif" font-size="13" lengthAdjust="spacing" textLength="696" x="825.5" y="205.5225">PATCH {id,map,passages:[{id,positionBuilding1,positionBuilding2}],elevator:{id,position},rooms:[{ id,position,distX,distY}]}</text><line style="stroke:#181818;stroke-width:1.0;" x1="1543.5" x2="1585.5" y1="242.0762" y2="242.0762"/><line style="stroke:#181818;stroke-width:1.0;" x1="1585.5" x2="1585.5" y1="242.0762" y2="255.0762"/><line style="stroke:#181818;stroke-width:1.0;" x1="1544.5" x2="1585.5" y1="255.0762" y2="255.0762"/><polygon fill="#181818" points="1554.5,251.0762,1544.5,255.0762,1554.5,259.0762,1550.5,255.0762" style="stroke:#181818;stroke-width:1.0;"/><text fill="#000000" font-family="sans-serif" font-size="13" font-weight="bold" lengthAdjust="spacing" textLength="7" x="1550.5" y="236.8135">5</text><text fill="#000000" font-family="sans-serif" font-size="13" lengthAdjust="spacing" textLength="166" x="1561.5" y="236.8135">check verifications passages</text><polygon fill="#181818" points="1722.5,282.3672,1732.5,286.3672,1722.5,290.3672,1726.5,286.3672" style="stroke:#181818;stroke-width:1.0;"/><line style="stroke:#181818;stroke-width:1.0;" x1="1543.5" x2="1728.5" y1="286.3672" y2="286.3672"/><text fill="#000000" font-family="sans-serif" font-size="13" font-weight="bold" lengthAdjust="spacing" textLength="7" x="1550.5" y="281.1045">6</text><text fill="#000000" font-family="sans-serif" font-size="13" lengthAdjust="spacing" textLength="88" x="1561.5" y="281.1045">Save passages</text><polygon fill="#181818" points="1554.5,313.6582,1544.5,317.6582,1554.5,321.6582,1550.5,317.6582" style="stroke:#181818;stroke-width:1.0;"/><line style="stroke:#181818;stroke-width:1.0;stroke-dasharray:2.0,2.0;" x1="1548.5" x2="1738.5" y1="317.6582" y2="317.6582"/><text fill="#000000" font-family="sans-serif" font-size="13" font-weight="bold" lengthAdjust="spacing" textLength="7" x="1560.5" y="312.3955">7</text><text fill="#000000" font-family="sans-serif" font-size="13" lengthAdjust="spacing" textLength="98" x="1571.5" y="312.3955">Return passages</text><line style="stroke:#181818;stroke-width:1.0;" x1="1543.5" x2="1585.5" y1="348.9492" y2="348.9492"/><line style="stroke:#181818;stroke-width:1.0;" x1="1585.5" x2="1585.5" y1="348.9492" y2="361.9492"/><line style="stroke:#181818;stroke-width:1.0;" x1="1544.5" x2="1585.5" y1="361.9492" y2="361.9492"/><polygon fill="#181818" points="1554.5,357.9492,1544.5,361.9492,1554.5,365.9492,1550.5,361.9492" style="stroke:#181818;stroke-width:1.0;"/><text fill="#000000" font-family="sans-serif" font-size="13" font-weight="bold" lengthAdjust="spacing" textLength="7" x="1550.5" y="343.6865">8</text><text fill="#000000" font-family="sans-serif" font-size="13" lengthAdjust="spacing" textLength="154" x="1561.5" y="343.6865">check verifications elevator</text><polygon fill="#181818" points="1722.5,389.2402,1732.5,393.2402,1722.5,397.2402,1726.5,393.2402" style="stroke:#181818;stroke-width:1.0;"/><line style="stroke:#181818;stroke-width:1.0;" x1="1543.5" x2="1728.5" y1="393.2402" y2="393.2402"/><text fill="#000000" font-family="sans-serif" font-size="13" font-weight="bold" lengthAdjust="spacing" textLength="7" x="1550.5" y="387.9775">9</text><text fill="#000000" font-family="sans-serif" font-size="13" lengthAdjust="spacing" textLength="76" x="1561.5" y="387.9775">Save elevator</text><polygon fill="#181818" points="1554.5,420.5313,1544.5,424.5313,1554.5,428.5313,1550.5,424.5313" style="stroke:#181818;stroke-width:1.0;"/><line style="stroke:#181818;stroke-width:1.0;stroke-dasharray:2.0,2.0;" x1="1548.5" x2="1738.5" y1="424.5313" y2="424.5313"/><text fill="#000000" font-family="sans-serif" font-size="13" font-weight="bold" lengthAdjust="spacing" textLength="14" x="1560.5" y="419.2686">10</text><text fill="#000000" font-family="sans-serif" font-size="13" lengthAdjust="spacing" textLength="86" x="1578.5" y="419.2686">Return elevator</text><line style="stroke:#181818;stroke-width:1.0;" x1="1543.5" x2="1585.5" y1="455.8223" y2="455.8223"/><line style="stroke:#181818;stroke-width:1.0;" x1="1585.5" x2="1585.5" y1="455.8223" y2="468.8223"/><line style="stroke:#181818;stroke-width:1.0;" x1="1544.5" x2="1585.5" y1="468.8223" y2="468.8223"/><polygon fill="#181818" points="1554.5,464.8223,1544.5,468.8223,1554.5,472.8223,1550.5,468.8223" style="stroke:#181818;stroke-width:1.0;"/><text fill="#000000" font-family="sans-serif" font-size="13" font-weight="bold" lengthAdjust="spacing" textLength="14" x="1550.5" y="450.5596">11</text><text fill="#000000" font-family="sans-serif" font-size="13" lengthAdjust="spacing" textLength="146" x="1568.5" y="450.5596">check verifications rooms</text><polygon fill="#181818" points="1722.5,496.1133,1732.5,500.1133,1722.5,504.1133,1726.5,500.1133" style="stroke:#181818;stroke-width:1.0;"/><line style="stroke:#181818;stroke-width:1.0;" x1="1543.5" x2="1728.5" y1="500.1133" y2="500.1133"/><text fill="#000000" font-family="sans-serif" font-size="13" font-weight="bold" lengthAdjust="spacing" textLength="14" x="1550.5" y="494.8506">12</text><text fill="#000000" font-family="sans-serif" font-size="13" lengthAdjust="spacing" textLength="68" x="1568.5" y="494.8506">Save rooms</text><polygon fill="#181818" points="1554.5,527.4043,1544.5,531.4043,1554.5,535.4043,1550.5,531.4043" style="stroke:#181818;stroke-width:1.0;"/><line style="stroke:#181818;stroke-width:1.0;stroke-dasharray:2.0,2.0;" x1="1548.5" x2="1738.5" y1="531.4043" y2="531.4043"/><text fill="#000000" font-family="sans-serif" font-size="13" font-weight="bold" lengthAdjust="spacing" textLength="14" x="1560.5" y="526.1416">13</text><text fill="#000000" font-family="sans-serif" font-size="13" lengthAdjust="spacing" textLength="78" x="1578.5" y="526.1416">Return rooms</text><line style="stroke:#181818;stroke-width:1.0;" x1="1543.5" x2="1585.5" y1="562.6953" y2="562.6953"/><line style="stroke:#181818;stroke-width:1.0;" x1="1585.5" x2="1585.5" y1="562.6953" y2="575.6953"/><line style="stroke:#181818;stroke-width:1.0;" x1="1544.5" x2="1585.5" y1="575.6953" y2="575.6953"/><polygon fill="#181818" points="1554.5,571.6953,1544.5,575.6953,1554.5,579.6953,1550.5,575.6953" style="stroke:#181818;stroke-width:1.0;"/><text fill="#000000" font-family="sans-serif" font-size="13" font-weight="bold" lengthAdjust="spacing" textLength="14" x="1550.5" y="557.4326">14</text><text fill="#000000" font-family="sans-serif" font-size="13" lengthAdjust="spacing" textLength="134" x="1568.5" y="557.4326">check verifications floor</text><polygon fill="#181818" points="1722.5,602.9863,1732.5,606.9863,1722.5,610.9863,1726.5,606.9863" style="stroke:#181818;stroke-width:1.0;"/><line style="stroke:#181818;stroke-width:1.0;" x1="1543.5" x2="1728.5" y1="606.9863" y2="606.9863"/><text fill="#000000" font-family="sans-serif" font-size="13" font-weight="bold" lengthAdjust="spacing" textLength="14" x="1550.5" y="601.7236">15</text><text fill="#000000" font-family="sans-serif" font-size="13" lengthAdjust="spacing" textLength="56" x="1568.5" y="601.7236">Save floor</text><polygon fill="#181818" points="1554.5,634.2773,1544.5,638.2773,1554.5,642.2773,1550.5,638.2773" style="stroke:#181818;stroke-width:1.0;"/><line style="stroke:#181818;stroke-width:1.0;stroke-dasharray:2.0,2.0;" x1="1548.5" x2="1738.5" y1="638.2773" y2="638.2773"/><text fill="#000000" font-family="sans-serif" font-size="13" font-weight="bold" lengthAdjust="spacing" textLength="14" x="1560.5" y="633.0146">16</text><text fill="#000000" font-family="sans-serif" font-size="13" lengthAdjust="spacing" textLength="66" x="1578.5" y="633.0146">Return floor</text><polygon fill="#181818" points="818.5,665.5684,808.5,669.5684,818.5,673.5684,814.5,669.5684" style="stroke:#181818;stroke-width:1.0;"/><line style="stroke:#181818;stroke-width:1.0;stroke-dasharray:2.0,2.0;" x1="812.5" x2="1537.5" y1="669.5684" y2="669.5684"/><text fill="#000000" font-family="sans-serif" font-size="13" font-weight="bold" lengthAdjust="spacing" textLength="14" x="824.5" y="664.3057">17</text><text fill="#000000" font-family="sans-serif" font-size="13" lengthAdjust="spacing" textLength="44" x="842.5" y="664.3057">status()</text><polygon fill="#181818" points="33.5,696.8594,23.5,700.8594,33.5,704.8594,29.5,700.8594" style="stroke:#181818;stroke-width:1.0;"/><line style="stroke:#181818;stroke-width:1.0;" x1="27.5" x2="801.5" y1="700.8594" y2="700.8594"/><text fill="#000000" font-family="sans-serif" font-size="13" font-weight="bold" lengthAdjust="spacing" textLength="14" x="39.5" y="695.5967">18</text><text fill="#000000" font-family="sans-serif" font-size="13" lengthAdjust="spacing" textLength="100" x="57.5" y="695.5967">Confirma&#231;ao/Erro</text><!--SRC=[nLJ1JiCm3BtlAt83f9O9ZjDKYQr8N2PD32GGsi4qNcVHnYL9Tq7x7Zw47oDfrtM53MqdBb4Il_VoRDSzMrfRc46_NsIWR9bdbmddVOFl9Qe4GqcGQiXxFIWjgp9_HUtsYMKj7etR5w0j9LGuhfXDRphdIIo6mp4h2wHGHr4to2hbU5I9qGeirdf-2IEd90PY35fZ2bhaK82GA0eotEBzSnuOXb75TOmfIfBieH8acvx43hf2ENGj7pjbKWlMENnz0eiFae5xAIZ064ZH35xyJS66BB4QbPH9KkdLhvlhzJp03Dqhh0Uxb7MWcNEl8tPk0qd6FbNhytg-xkPJ9nJvqhbiRXx6T_zkQnBtd9l6KxB4v4siKDE24l148nfd3Qxkh0FFO8Ljj5NSjBu1XetuFTfIgvQnqxujvsyhJSBxhMoZHrlPCawtKXLvluywTBI96dwwWqN6XofHXuvsKCCFEDWEbB5WItD-qG76pIUz6L7tFrZGPkJwjrhppo7TENhADm00]--></g></svg>