<?xml version="1.0" encoding="us-ascii" standalone="no"?><svg xmlns="http://www.w3.org/2000/svg" xmlns:xlink="http://www.w3.org/1999/xlink" contentStyleType="text/css" height="418px" preserveAspectRatio="none" style="width:811px;height:418px;background:#FFFFFF;" version="1.1" viewBox="0 0 811 418" width="811px" zoomAndPan="magnify"><defs/><g><rect fill="#FFFFFF" height="224.0371" style="stroke:#181818;stroke-width:1.0;" width="10" x="17.5" y="93.6211"/><rect fill="#FFFFFF" height="200.7461" style="stroke:#181818;stroke-width:1.0;" width="10" x="350.5" y="116.9121"/><rect fill="#FFFFFF" height="138.1641" style="stroke:#181818;stroke-width:1.0;" width="10" x="621.5" y="148.2031"/><rect fill="#FFFFFF" height="31.291" style="stroke:#181818;stroke-width:1.0;" width="10" x="762.5" y="223.7852"/><line style="stroke:#181818;stroke-width:0.5;stroke-dasharray:5.0,5.0;" x1="22" x2="22" y1="83.6211" y2="335.6582"/><line style="stroke:#181818;stroke-width:0.5;stroke-dasharray:5.0,5.0;" x1="355" x2="355" y1="83.6211" y2="335.6582"/><line style="stroke:#181818;stroke-width:0.5;stroke-dasharray:5.0,5.0;" x1="626.5" x2="626.5" y1="83.6211" y2="335.6582"/><line style="stroke:#181818;stroke-width:0.5;stroke-dasharray:5.0,5.0;" x1="767.5" x2="767.5" y1="83.6211" y2="335.6582"/><text fill="#000000" font-family="sans-serif" font-size="14" lengthAdjust="spacing" textLength="29" x="5" y="80.1074">User</text><ellipse cx="22.5" cy="13.5" fill="#E2E2F0" rx="8" ry="8" style="stroke:#181818;stroke-width:0.5;"/><path d="M22.5,21.5 L22.5,48.5 M9.5,29.5 L35.5,29.5 M22.5,48.5 L9.5,63.5 M22.5,48.5 L35.5,63.5 " fill="none" style="stroke:#181818;stroke-width:0.5;"/><text fill="#000000" font-family="sans-serif" font-size="14" lengthAdjust="spacing" textLength="29" x="5" y="349.7656">User</text><ellipse cx="22.5" cy="361.7793" fill="#E2E2F0" rx="8" ry="8" style="stroke:#181818;stroke-width:0.5;"/><path d="M22.5,369.7793 L22.5,396.7793 M9.5,377.7793 L35.5,377.7793 M22.5,396.7793 L9.5,411.7793 M22.5,396.7793 L35.5,411.7793 " fill="none" style="stroke:#181818;stroke-width:0.5;"/><rect fill="#E2E2F0" height="32.6211" rx="2.5" ry="2.5" style="stroke:#181818;stroke-width:0.5;" width="69" x="321" y="50"/><text fill="#000000" font-family="sans-serif" font-size="14" lengthAdjust="spacing" textLength="55" x="328" y="72.1074">Postman</text><rect fill="#E2E2F0" height="32.6211" rx="2.5" ry="2.5" style="stroke:#181818;stroke-width:0.5;" width="69" x="321" y="334.6582"/><text fill="#000000" font-family="sans-serif" font-size="14" lengthAdjust="spacing" textLength="55" x="328" y="356.7656">Postman</text><rect fill="#E2E2F0" height="51.2422" rx="2.5" ry="2.5" style="stroke:#181818;stroke-width:0.5;" width="92" x="580.5" y="31.3789"/><text fill="#000000" font-family="sans-serif" font-size="14" font-style="italic" lengthAdjust="spacing" textLength="78" x="587.5" y="53.4863">&#171;Container&#187;</text><text fill="#000000" font-family="sans-serif" font-size="14" lengthAdjust="spacing" textLength="46" x="603.5" y="72.1074">System</text><rect fill="#E2E2F0" height="51.2422" rx="2.5" ry="2.5" style="stroke:#181818;stroke-width:0.5;" width="92" x="580.5" y="334.6582"/><text fill="#000000" font-family="sans-serif" font-size="14" font-style="italic" lengthAdjust="spacing" textLength="78" x="587.5" y="356.7656">&#171;Container&#187;</text><text fill="#000000" font-family="sans-serif" font-size="14" lengthAdjust="spacing" textLength="46" x="603.5" y="375.3867">System</text><rect fill="#E2E2F0" height="32.6211" rx="2.5" ry="2.5" style="stroke:#181818;stroke-width:0.5;" width="76" x="729.5" y="50"/><text fill="#000000" font-family="sans-serif" font-size="14" lengthAdjust="spacing" textLength="62" x="736.5" y="72.1074">MongoDB</text><rect fill="#E2E2F0" height="32.6211" rx="2.5" ry="2.5" style="stroke:#181818;stroke-width:0.5;" width="76" x="729.5" y="334.6582"/><text fill="#000000" font-family="sans-serif" font-size="14" lengthAdjust="spacing" textLength="62" x="736.5" y="356.7656">MongoDB</text><rect fill="#FFFFFF" height="224.0371" style="stroke:#181818;stroke-width:1.0;" width="10" x="17.5" y="93.6211"/><rect fill="#FFFFFF" height="200.7461" style="stroke:#181818;stroke-width:1.0;" width="10" x="350.5" y="116.9121"/><rect fill="#FFFFFF" height="138.1641" style="stroke:#181818;stroke-width:1.0;" width="10" x="621.5" y="148.2031"/><rect fill="#FFFFFF" height="31.291" style="stroke:#181818;stroke-width:1.0;" width="10" x="762.5" y="223.7852"/><polygon fill="#181818" points="338.5,112.9121,348.5,116.9121,338.5,120.9121,342.5,116.9121" style="stroke:#181818;stroke-width:1.0;"/><line style="stroke:#181818;stroke-width:1.0;" x1="27.5" x2="344.5" y1="116.9121" y2="116.9121"/><text fill="#000000" font-family="sans-serif" font-size="13" font-weight="bold" lengthAdjust="spacing" textLength="7" x="34.5" y="111.6494">1</text><text fill="#000000" font-family="sans-serif" font-size="13" lengthAdjust="spacing" textLength="293" x="45.5" y="111.6494">Dar informa&#231;ao {id, building1,building2,piso1,piso2}</text><polygon fill="#181818" points="609.5,144.2031,619.5,148.2031,609.5,152.2031,613.5,148.2031" style="stroke:#181818;stroke-width:1.0;"/><line style="stroke:#181818;stroke-width:1.0;" x1="360.5" x2="615.5" y1="148.2031" y2="148.2031"/><text fill="#000000" font-family="sans-serif" font-size="13" font-weight="bold" lengthAdjust="spacing" textLength="7" x="367.5" y="142.9404">2</text><text fill="#000000" font-family="sans-serif" font-size="13" lengthAdjust="spacing" textLength="231" x="378.5" y="142.9404">PUT {id, building1,building2,piso1,piso2}</text><line style="stroke:#181818;stroke-width:1.0;" x1="631.5" x2="673.5" y1="179.4941" y2="179.4941"/><line style="stroke:#181818;stroke-width:1.0;" x1="673.5" x2="673.5" y1="179.4941" y2="192.4941"/><line style="stroke:#181818;stroke-width:1.0;" x1="632.5" x2="673.5" y1="192.4941" y2="192.4941"/><polygon fill="#181818" points="642.5,188.4941,632.5,192.4941,642.5,196.4941,638.5,192.4941" style="stroke:#181818;stroke-width:1.0;"/><text fill="#000000" font-family="sans-serif" font-size="13" font-weight="bold" lengthAdjust="spacing" textLength="7" x="638.5" y="174.2314">3</text><text fill="#000000" font-family="sans-serif" font-size="13" lengthAdjust="spacing" textLength="106" x="649.5" y="174.2314">check verifications</text><polygon fill="#181818" points="750.5,219.7852,760.5,223.7852,750.5,227.7852,754.5,223.7852" style="stroke:#181818;stroke-width:1.0;"/><line style="stroke:#181818;stroke-width:1.0;" x1="631.5" x2="756.5" y1="223.7852" y2="223.7852"/><text fill="#000000" font-family="sans-serif" font-size="13" font-weight="bold" lengthAdjust="spacing" textLength="7" x="638.5" y="218.5225">4</text><text fill="#000000" font-family="sans-serif" font-size="13" lengthAdjust="spacing" textLength="81" x="649.5" y="218.5225">Save passage</text><polygon fill="#181818" points="642.5,251.0762,632.5,255.0762,642.5,259.0762,638.5,255.0762" style="stroke:#181818;stroke-width:1.0;"/><line style="stroke:#181818;stroke-width:1.0;stroke-dasharray:2.0,2.0;" x1="636.5" x2="766.5" y1="255.0762" y2="255.0762"/><text fill="#000000" font-family="sans-serif" font-size="13" font-weight="bold" lengthAdjust="spacing" textLength="7" x="648.5" y="249.8135">5</text><text fill="#000000" font-family="sans-serif" font-size="13" lengthAdjust="spacing" textLength="91" x="659.5" y="249.8135">Return passage</text><polygon fill="#181818" points="371.5,282.3672,361.5,286.3672,371.5,290.3672,367.5,286.3672" style="stroke:#181818;stroke-width:1.0;"/><line style="stroke:#181818;stroke-width:1.0;stroke-dasharray:2.0,2.0;" x1="365.5" x2="625.5" y1="286.3672" y2="286.3672"/><text fill="#000000" font-family="sans-serif" font-size="13" font-weight="bold" lengthAdjust="spacing" textLength="7" x="377.5" y="281.1045">6</text><text fill="#000000" font-family="sans-serif" font-size="13" lengthAdjust="spacing" textLength="137" x="388.5" y="281.1045">Return passage (JSON)</text><polygon fill="#181818" points="33.5,313.6582,23.5,317.6582,33.5,321.6582,29.5,317.6582" style="stroke:#181818;stroke-width:1.0;"/><line style="stroke:#181818;stroke-width:1.0;" x1="27.5" x2="354.5" y1="317.6582" y2="317.6582"/><text fill="#000000" font-family="sans-serif" font-size="13" font-weight="bold" lengthAdjust="spacing" textLength="7" x="39.5" y="312.3955">7</text><text fill="#000000" font-family="sans-serif" font-size="13" lengthAdjust="spacing" textLength="133" x="50.5" y="312.3955">Show Passage (JSON)</text><!--SRC=[bP1DJiD034RtFOLtW9GGjSkeoWAwGW8YGW_WJjp48lF3p2G88Sx3GRWOQPgXYIeMR4QMvVV6_YvgxurBayGqg7mhcskXPUBejIKbA2uPAujoiS3MQzNA7Tc-5bvRsBg-DcWz2pOz2xbsNgAQzOftvqd2UdshbKTMPBDiDd2lLQKtDuEKE_Hqz1uUYBFWX1GsQ87LNbk9tr-euOFB27OjDoMhQXc5QXKPTdevlAlFapKi5uIzUzmjXNpx_5_TaLsCYgbCr2HUe2FBUnReMIit6HlFxUSAx0WCEeSLdRmXZZ0NJzLFv5khVg6Iph3mqIovEGQNTyNZmzMK7e-PH3F4t-zOwpV8_-H2ffFM0Vm1]--></g></svg>