<?xml version="1.0" encoding="us-ascii" standalone="no"?><svg xmlns="http://www.w3.org/2000/svg" xmlns:xlink="http://www.w3.org/1999/xlink" contentStyleType="text/css" height="1135px" preserveAspectRatio="none" style="width:1698px;height:1135px;background:#FFFFFF;" version="1.1" viewBox="0 0 1698 1135" width="1698px" zoomAndPan="magnify"><defs/><g><rect fill="#FFFFFF" height="949.8574" style="stroke:#181818;stroke-width:1.0;" width="10" x="17.5" y="93.6211"/><rect fill="#FFFFFF" height="31.291" style="stroke:#181818;stroke-width:1.0;" width="10" x="155.5" y="116.9121"/><rect fill="#FFFFFF" height="61.291" style="stroke:#181818;stroke-width:1.0;" width="10" x="155.5" y="179.4941"/><rect fill="#FFFFFF" height="70.291" style="stroke:#181818;stroke-width:1.0;" width="10" x="155.5" y="973.1875"/><rect fill="#FFFFFF" height="792.4023" style="stroke:#181818;stroke-width:1.0;" width="10" x="316.5" y="210.7852"/><rect fill="#FFFFFF" height="669.8203" style="stroke:#181818;stroke-width:1.0;" width="10" x="477.5" y="272.0762"/><rect fill="#FFFFFF" height="31.291" style="stroke:#181818;stroke-width:1.0;" width="10" x="588.5" y="303.3672"/><rect fill="#FFFFFF" height="575.9473" style="stroke:#181818;stroke-width:1.0;" width="10" x="711.5" y="334.6582"/><rect fill="#FFFFFF" height="31.291" style="stroke:#181818;stroke-width:1.0;" width="10" x="827" y="365.9492"/><rect fill="#FFFFFF" height="482.0742" style="stroke:#181818;stroke-width:1.0;" width="10" x="935" y="397.2402"/><rect fill="#FFFFFF" height="61.291" style="stroke:#181818;stroke-width:1.0;" width="10" x="1062" y="428.5313"/><rect fill="#FFFFFF" height="31.291" style="stroke:#181818;stroke-width:1.0;" width="10" x="1062" y="552.4043"/><rect fill="#FFFFFF" height="61.291" style="stroke:#181818;stroke-width:1.0;" width="10" x="1189" y="459.8223"/><rect fill="#FFFFFF" height="264.3281" style="stroke:#181818;stroke-width:1.0;" width="10" x="1189" y="583.6953"/><rect fill="#FFFFFF" height="31.291" style="stroke:#181818;stroke-width:1.0;" width="10" x="1306" y="646.2773"/><rect fill="#FFFFFF" height="45.291" style="stroke:#181818;stroke-width:1.0;" width="10" x="1306" y="771.4414"/><line style="stroke:#181818;stroke-width:0.5;stroke-dasharray:5.0,5.0;" x1="22" x2="22" y1="83.6211" y2="1052.4785"/><line style="stroke:#181818;stroke-width:0.5;stroke-dasharray:5.0,5.0;" x1="160" x2="160" y1="83.6211" y2="1052.4785"/><line style="stroke:#181818;stroke-width:0.5;stroke-dasharray:5.0,5.0;" x1="321" x2="321" y1="83.6211" y2="1052.4785"/><line style="stroke:#181818;stroke-width:0.5;stroke-dasharray:5.0,5.0;" x1="482" x2="482" y1="83.6211" y2="1052.4785"/><line style="stroke:#181818;stroke-width:0.5;stroke-dasharray:5.0,5.0;" x1="593" x2="593" y1="83.6211" y2="1052.4785"/><line style="stroke:#181818;stroke-width:0.5;stroke-dasharray:5.0,5.0;" x1="716" x2="716" y1="83.6211" y2="1052.4785"/><line style="stroke:#181818;stroke-width:0.5;stroke-dasharray:5.0,5.0;" x1="832" x2="832" y1="83.6211" y2="1052.4785"/><line style="stroke:#181818;stroke-width:0.5;stroke-dasharray:5.0,5.0;" x1="940" x2="940" y1="83.6211" y2="1052.4785"/><line style="stroke:#181818;stroke-width:0.5;stroke-dasharray:5.0,5.0;" x1="1066.5" x2="1066.5" y1="83.6211" y2="1052.4785"/><line style="stroke:#181818;stroke-width:0.5;stroke-dasharray:5.0,5.0;" x1="1193.5" x2="1193.5" y1="83.6211" y2="1052.4785"/><line style="stroke:#181818;stroke-width:0.5;stroke-dasharray:5.0,5.0;" x1="1310.5" x2="1310.5" y1="83.6211" y2="1052.4785"/><line style="stroke:#181818;stroke-width:0.5;stroke-dasharray:5.0,5.0;" x1="1402.5" x2="1402.5" y1="83.6211" y2="1052.4785"/><line style="stroke:#181818;stroke-width:0.5;stroke-dasharray:5.0,5.0;" x1="1519.5" x2="1519.5" y1="83.6211" y2="1052.4785"/><line style="stroke:#181818;stroke-width:0.5;stroke-dasharray:5.0,5.0;" x1="1643.5" x2="1643.5" y1="83.6211" y2="1052.4785"/><text fill="#000000" font-family="sans-serif" font-size="14" lengthAdjust="spacing" textLength="29" x="5" y="80.1074">User</text><ellipse cx="22.5" cy="13.5" fill="#E2E2F0" rx="8" ry="8" style="stroke:#181818;stroke-width:0.5;"/><path d="M22.5,21.5 L22.5,48.5 M9.5,29.5 L35.5,29.5 M22.5,48.5 L9.5,63.5 M22.5,48.5 L35.5,63.5 " fill="none" style="stroke:#181818;stroke-width:0.5;"/><text fill="#000000" font-family="sans-serif" font-size="14" lengthAdjust="spacing" textLength="29" x="5" y="1066.5859">User</text><ellipse cx="22.5" cy="1078.5996" fill="#E2E2F0" rx="8" ry="8" style="stroke:#181818;stroke-width:0.5;"/><path d="M22.5,1086.5996 L22.5,1113.5996 M9.5,1094.5996 L35.5,1094.5996 M22.5,1113.5996 L9.5,1128.5996 M22.5,1113.5996 L35.5,1128.5996 " fill="none" style="stroke:#181818;stroke-width:0.5;"/><rect fill="#E2E2F0" height="32.6211" rx="2.5" ry="2.5" style="stroke:#181818;stroke-width:0.5;" width="41" x="140" y="50"/><text fill="#000000" font-family="sans-serif" font-size="14" lengthAdjust="spacing" textLength="27" x="147" y="72.1074">SPA</text><rect fill="#E2E2F0" height="32.6211" rx="2.5" ry="2.5" style="stroke:#181818;stroke-width:0.5;" width="41" x="140" y="1051.4785"/><text fill="#000000" font-family="sans-serif" font-size="14" lengthAdjust="spacing" textLength="27" x="147" y="1073.5859">SPA</text><rect fill="#E2E2F0" height="32.6211" rx="2.5" ry="2.5" style="stroke:#181818;stroke-width:0.5;" width="35" x="304" y="50"/><text fill="#000000" font-family="sans-serif" font-size="14" lengthAdjust="spacing" textLength="21" x="311" y="72.1074">MD</text><rect fill="#E2E2F0" height="32.6211" rx="2.5" ry="2.5" style="stroke:#181818;stroke-width:0.5;" width="35" x="304" y="1051.4785"/><text fill="#000000" font-family="sans-serif" font-size="14" lengthAdjust="spacing" textLength="21" x="311" y="1073.5859">MD</text><rect fill="#E2E2F0" height="32.6211" rx="2.5" ry="2.5" style="stroke:#181818;stroke-width:0.5;" width="85" x="440" y="50"/><text fill="#000000" font-family="sans-serif" font-size="14" lengthAdjust="spacing" textLength="71" x="447" y="72.1074">robotRoute</text><rect fill="#E2E2F0" height="32.6211" rx="2.5" ry="2.5" style="stroke:#181818;stroke-width:0.5;" width="85" x="440" y="1051.4785"/><text fill="#000000" font-family="sans-serif" font-size="14" lengthAdjust="spacing" textLength="71" x="447" y="1073.5859">robotRoute</text><rect fill="#E2E2F0" height="32.6211" rx="2.5" ry="2.5" style="stroke:#181818;stroke-width:0.5;" width="117" x="535" y="50"/><text fill="#000000" font-family="sans-serif" font-size="14" lengthAdjust="spacing" textLength="103" x="542" y="72.1074">IRobotController</text><rect fill="#E2E2F0" height="32.6211" rx="2.5" ry="2.5" style="stroke:#181818;stroke-width:0.5;" width="117" x="535" y="1051.4785"/><text fill="#000000" font-family="sans-serif" font-size="14" lengthAdjust="spacing" textLength="103" x="542" y="1073.5859">IRobotController</text><rect fill="#E2E2F0" height="32.6211" rx="2.5" ry="2.5" style="stroke:#181818;stroke-width:0.5;" width="109" x="662" y="50"/><text fill="#000000" font-family="sans-serif" font-size="14" lengthAdjust="spacing" textLength="95" x="669" y="72.1074">robotController</text><rect fill="#E2E2F0" height="32.6211" rx="2.5" ry="2.5" style="stroke:#181818;stroke-width:0.5;" width="109" x="662" y="1051.4785"/><text fill="#000000" font-family="sans-serif" font-size="14" lengthAdjust="spacing" textLength="95" x="669" y="1073.5859">robotController</text><rect fill="#E2E2F0" height="32.6211" rx="2.5" ry="2.5" style="stroke:#181818;stroke-width:0.5;" width="102" x="781" y="50"/><text fill="#000000" font-family="sans-serif" font-size="14" lengthAdjust="spacing" textLength="88" x="788" y="72.1074">IRobotService</text><rect fill="#E2E2F0" height="32.6211" rx="2.5" ry="2.5" style="stroke:#181818;stroke-width:0.5;" width="102" x="781" y="1051.4785"/><text fill="#000000" font-family="sans-serif" font-size="14" lengthAdjust="spacing" textLength="88" x="788" y="1073.5859">IRobotService</text><rect fill="#E2E2F0" height="32.6211" rx="2.5" ry="2.5" style="stroke:#181818;stroke-width:0.5;" width="94" x="893" y="50"/><text fill="#000000" font-family="sans-serif" font-size="14" lengthAdjust="spacing" textLength="80" x="900" y="72.1074">robotService</text><rect fill="#E2E2F0" height="32.6211" rx="2.5" ry="2.5" style="stroke:#181818;stroke-width:0.5;" width="94" x="893" y="1051.4785"/><text fill="#000000" font-family="sans-serif" font-size="14" lengthAdjust="spacing" textLength="80" x="900" y="1073.5859">robotService</text><rect fill="#E2E2F0" height="32.6211" rx="2.5" ry="2.5" style="stroke:#181818;stroke-width:0.5;" width="89" x="1022.5" y="50"/><text fill="#000000" font-family="sans-serif" font-size="14" lengthAdjust="spacing" textLength="75" x="1029.5" y="72.1074">IRobotRepo</text><rect fill="#E2E2F0" height="32.6211" rx="2.5" ry="2.5" style="stroke:#181818;stroke-width:0.5;" width="89" x="1022.5" y="1051.4785"/><text fill="#000000" font-family="sans-serif" font-size="14" lengthAdjust="spacing" textLength="75" x="1029.5" y="1073.5859">IRobotRepo</text><rect fill="#E2E2F0" height="32.6211" rx="2.5" ry="2.5" style="stroke:#181818;stroke-width:0.5;" width="81" x="1153.5" y="50"/><text fill="#000000" font-family="sans-serif" font-size="14" lengthAdjust="spacing" textLength="67" x="1160.5" y="72.1074">robotRepo</text><rect fill="#E2E2F0" height="32.6211" rx="2.5" ry="2.5" style="stroke:#181818;stroke-width:0.5;" width="81" x="1153.5" y="1051.4785"/><text fill="#000000" font-family="sans-serif" font-size="14" lengthAdjust="spacing" textLength="67" x="1160.5" y="1073.5859">robotRepo</text><rect fill="#E2E2F0" height="32.6211" rx="2.5" ry="2.5" style="stroke:#181818;stroke-width:0.5;" width="79" x="1271.5" y="50"/><text fill="#000000" font-family="sans-serif" font-size="14" lengthAdjust="spacing" textLength="65" x="1278.5" y="72.1074">RobotMap</text><rect fill="#E2E2F0" height="32.6211" rx="2.5" ry="2.5" style="stroke:#181818;stroke-width:0.5;" width="79" x="1271.5" y="1051.4785"/><text fill="#000000" font-family="sans-serif" font-size="14" lengthAdjust="spacing" textLength="65" x="1278.5" y="1073.5859">RobotMap</text><rect fill="#E2E2F0" height="32.6211" rx="2.5" ry="2.5" style="stroke:#181818;stroke-width:0.5;" width="85" x="1360.5" y="50"/><text fill="#000000" font-family="sans-serif" font-size="14" lengthAdjust="spacing" textLength="71" x="1367.5" y="72.1074">IRobotDTO</text><rect fill="#E2E2F0" height="32.6211" rx="2.5" ry="2.5" style="stroke:#181818;stroke-width:0.5;" width="85" x="1360.5" y="1051.4785"/><text fill="#000000" font-family="sans-serif" font-size="14" lengthAdjust="spacing" textLength="71" x="1367.5" y="1073.5859">IRobotDTO</text><rect fill="#E2E2F0" height="32.6211" rx="2.5" ry="2.5" style="stroke:#181818;stroke-width:0.5;" width="129" x="1455.5" y="50"/><text fill="#000000" font-family="sans-serif" font-size="14" lengthAdjust="spacing" textLength="115" x="1462.5" y="72.1074">IRobotPersistence</text><rect fill="#E2E2F0" height="32.6211" rx="2.5" ry="2.5" style="stroke:#181818;stroke-width:0.5;" width="129" x="1455.5" y="1051.4785"/><text fill="#000000" font-family="sans-serif" font-size="14" lengthAdjust="spacing" textLength="115" x="1462.5" y="1073.5859">IRobotPersistence</text><rect fill="#E2E2F0" height="32.6211" rx="2.5" ry="2.5" style="stroke:#181818;stroke-width:0.5;" width="98" x="1594.5" y="50"/><text fill="#000000" font-family="sans-serif" font-size="14" lengthAdjust="spacing" textLength="84" x="1601.5" y="72.1074">robotSchema</text><rect fill="#E2E2F0" height="32.6211" rx="2.5" ry="2.5" style="stroke:#181818;stroke-width:0.5;" width="98" x="1594.5" y="1051.4785"/><text fill="#000000" font-family="sans-serif" font-size="14" lengthAdjust="spacing" textLength="84" x="1601.5" y="1073.5859">robotSchema</text><rect fill="#FFFFFF" height="949.8574" style="stroke:#181818;stroke-width:1.0;" width="10" x="17.5" y="93.6211"/><rect fill="#FFFFFF" height="31.291" style="stroke:#181818;stroke-width:1.0;" width="10" x="155.5" y="116.9121"/><rect fill="#FFFFFF" height="61.291" style="stroke:#181818;stroke-width:1.0;" width="10" x="155.5" y="179.4941"/><rect fill="#FFFFFF" height="70.291" style="stroke:#181818;stroke-width:1.0;" width="10" x="155.5" y="973.1875"/><rect fill="#FFFFFF" height="792.4023" style="stroke:#181818;stroke-width:1.0;" width="10" x="316.5" y="210.7852"/><rect fill="#FFFFFF" height="669.8203" style="stroke:#181818;stroke-width:1.0;" width="10" x="477.5" y="272.0762"/><rect fill="#FFFFFF" height="31.291" style="stroke:#181818;stroke-width:1.0;" width="10" x="588.5" y="303.3672"/><rect fill="#FFFFFF" height="575.9473" style="stroke:#181818;stroke-width:1.0;" width="10" x="711.5" y="334.6582"/><rect fill="#FFFFFF" height="31.291" style="stroke:#181818;stroke-width:1.0;" width="10" x="827" y="365.9492"/><rect fill="#FFFFFF" height="482.0742" style="stroke:#181818;stroke-width:1.0;" width="10" x="935" y="397.2402"/><rect fill="#FFFFFF" height="61.291" style="stroke:#181818;stroke-width:1.0;" width="10" x="1062" y="428.5313"/><rect fill="#FFFFFF" height="31.291" style="stroke:#181818;stroke-width:1.0;" width="10" x="1062" y="552.4043"/><rect fill="#FFFFFF" height="61.291" style="stroke:#181818;stroke-width:1.0;" width="10" x="1189" y="459.8223"/><rect fill="#FFFFFF" height="264.3281" style="stroke:#181818;stroke-width:1.0;" width="10" x="1189" y="583.6953"/><rect fill="#FFFFFF" height="31.291" style="stroke:#181818;stroke-width:1.0;" width="10" x="1306" y="646.2773"/><rect fill="#FFFFFF" height="45.291" style="stroke:#181818;stroke-width:1.0;" width="10" x="1306" y="771.4414"/><polygon fill="#181818" points="143.5,112.9121,153.5,116.9121,143.5,120.9121,147.5,116.9121" style="stroke:#181818;stroke-width:1.0;"/><line style="stroke:#181818;stroke-width:1.0;" x1="27.5" x2="149.5" y1="116.9121" y2="116.9121"/><text fill="#000000" font-family="sans-serif" font-size="13" lengthAdjust="spacing" textLength="72" x="34.5" y="111.6494">Inhibit Robot</text><polygon fill="#181818" points="38.5,144.2031,28.5,148.2031,38.5,152.2031,34.5,148.2031" style="stroke:#181818;stroke-width:1.0;"/><line style="stroke:#181818;stroke-width:1.0;stroke-dasharray:2.0,2.0;" x1="32.5" x2="159.5" y1="148.2031" y2="148.2031"/><text fill="#000000" font-family="sans-serif" font-size="13" lengthAdjust="spacing" textLength="84" x="44.5" y="142.9404">Requests data</text><polygon fill="#181818" points="143.5,175.4941,153.5,179.4941,143.5,183.4941,147.5,179.4941" style="stroke:#181818;stroke-width:1.0;"/><line style="stroke:#181818;stroke-width:1.0;" x1="27.5" x2="149.5" y1="179.4941" y2="179.4941"/><text fill="#000000" font-family="sans-serif" font-size="13" lengthAdjust="spacing" textLength="25" x="34.5" y="174.2314">data</text><polygon fill="#181818" points="304.5,206.7852,314.5,210.7852,304.5,214.7852,308.5,210.7852" style="stroke:#181818;stroke-width:1.0;"/><line style="stroke:#181818;stroke-width:1.0;" x1="165.5" x2="310.5" y1="210.7852" y2="210.7852"/><text fill="#000000" font-family="sans-serif" font-size="13" lengthAdjust="spacing" textLength="132" x="172.5" y="205.5225">PATCH/ {id,availability}</text><polygon fill="#181818" points="465.5,268.0762,475.5,272.0762,465.5,276.0762,469.5,272.0762" style="stroke:#181818;stroke-width:1.0;"/><line style="stroke:#181818;stroke-width:1.0;" x1="326.5" x2="471.5" y1="272.0762" y2="272.0762"/><text fill="#000000" font-family="sans-serif" font-size="13" lengthAdjust="spacing" textLength="132" x="333.5" y="266.8135">PATCH/ {id,availability}</text><polygon fill="#181818" points="576.5,299.3672,586.5,303.3672,576.5,307.3672,580.5,303.3672" style="stroke:#181818;stroke-width:1.0;"/><line style="stroke:#181818;stroke-width:1.0;" x1="487.5" x2="582.5" y1="303.3672" y2="303.3672"/><text fill="#000000" font-family="sans-serif" font-size="13" lengthAdjust="spacing" textLength="76" x="494.5" y="298.1045">inhibitRobot()</text><polygon fill="#181818" points="699.5,330.6582,709.5,334.6582,699.5,338.6582,703.5,334.6582" style="stroke:#181818;stroke-width:1.0;"/><line style="stroke:#181818;stroke-width:1.0;" x1="593.5" x2="705.5" y1="334.6582" y2="334.6582"/><text fill="#000000" font-family="sans-serif" font-size="13" lengthAdjust="spacing" textLength="76" x="600.5" y="329.3955">inhibitRobot()</text><polygon fill="#181818" points="815,361.9492,825,365.9492,815,369.9492,819,365.9492" style="stroke:#181818;stroke-width:1.0;"/><line style="stroke:#181818;stroke-width:1.0;" x1="721.5" x2="821" y1="365.9492" y2="365.9492"/><text fill="#000000" font-family="sans-serif" font-size="13" lengthAdjust="spacing" textLength="76" x="728.5" y="360.6865">inhibitRobot()</text><polygon fill="#181818" points="923,393.2402,933,397.2402,923,401.2402,927,397.2402" style="stroke:#181818;stroke-width:1.0;"/><line style="stroke:#181818;stroke-width:1.0;" x1="832" x2="929" y1="397.2402" y2="397.2402"/><text fill="#000000" font-family="sans-serif" font-size="13" lengthAdjust="spacing" textLength="76" x="839" y="391.9775">inhibitRobot()</text><polygon fill="#181818" points="1050,424.5313,1060,428.5313,1050,432.5313,1054,428.5313" style="stroke:#181818;stroke-width:1.0;"/><line style="stroke:#181818;stroke-width:1.0;" x1="945" x2="1056" y1="428.5313" y2="428.5313"/><text fill="#000000" font-family="sans-serif" font-size="13" lengthAdjust="spacing" textLength="98" x="952" y="423.2686">findByDomainId()</text><polygon fill="#181818" points="1177,455.8223,1187,459.8223,1177,463.8223,1181,459.8223" style="stroke:#181818;stroke-width:1.0;"/><line style="stroke:#181818;stroke-width:1.0;" x1="1072" x2="1183" y1="459.8223" y2="459.8223"/><text fill="#000000" font-family="sans-serif" font-size="13" lengthAdjust="spacing" textLength="98" x="1079" y="454.5596">findByDomainId()</text><polygon fill="#181818" points="956,517.1133,946,521.1133,956,525.1133,952,521.1133" style="stroke:#181818;stroke-width:1.0;"/><line style="stroke:#181818;stroke-width:1.0;stroke-dasharray:2.0,2.0;" x1="950" x2="1193" y1="521.1133" y2="521.1133"/><text fill="#000000" font-family="sans-serif" font-size="13" lengthAdjust="spacing" textLength="29" x="962" y="515.8506">robot</text><polygon fill="#181818" points="1050,548.4043,1060,552.4043,1050,556.4043,1054,552.4043" style="stroke:#181818;stroke-width:1.0;"/><line style="stroke:#181818;stroke-width:1.0;" x1="945" x2="1056" y1="552.4043" y2="552.4043"/><text fill="#000000" font-family="sans-serif" font-size="13" lengthAdjust="spacing" textLength="34" x="952" y="547.1416">save()</text><polygon fill="#181818" points="1177,579.6953,1187,583.6953,1177,587.6953,1181,583.6953" style="stroke:#181818;stroke-width:1.0;"/><line style="stroke:#181818;stroke-width:1.0;" x1="1067" x2="1183" y1="583.6953" y2="583.6953"/><text fill="#000000" font-family="sans-serif" font-size="13" lengthAdjust="spacing" textLength="34" x="1074" y="578.4326">save()</text><polygon fill="#181818" points="1631.5,610.9863,1641.5,614.9863,1631.5,618.9863,1635.5,614.9863" style="stroke:#181818;stroke-width:1.0;"/><line style="stroke:#181818;stroke-width:1.0;" x1="1199" x2="1637.5" y1="614.9863" y2="614.9863"/><text fill="#000000" font-family="sans-serif" font-size="13" lengthAdjust="spacing" textLength="52" x="1206" y="609.7236">findOne()</text><polygon fill="#181818" points="1294,642.2773,1304,646.2773,1294,650.2773,1298,646.2773" style="stroke:#181818;stroke-width:1.0;"/><line style="stroke:#181818;stroke-width:1.0;" x1="1199" x2="1300" y1="646.2773" y2="646.2773"/><text fill="#000000" font-family="sans-serif" font-size="13" lengthAdjust="spacing" textLength="88" x="1206" y="641.0146">toPersistence()</text><polygon fill="#181818" points="1210,673.5684,1200,677.5684,1210,681.5684,1206,677.5684" style="stroke:#181818;stroke-width:1.0;"/><line style="stroke:#181818;stroke-width:1.0;stroke-dasharray:2.0,2.0;" x1="1204" x2="1310" y1="677.5684" y2="677.5684"/><text fill="#000000" font-family="sans-serif" font-size="13" lengthAdjust="spacing" textLength="29" x="1216" y="672.3057">robot</text><polygon fill="#181818" points="1631.5,704.8594,1641.5,708.8594,1631.5,712.8594,1635.5,708.8594" style="stroke:#181818;stroke-width:1.0;"/><line style="stroke:#181818;stroke-width:1.0;" x1="1199" x2="1637.5" y1="708.8594" y2="708.8594"/><text fill="#000000" font-family="sans-serif" font-size="13" lengthAdjust="spacing" textLength="44" x="1206" y="703.5967">create()</text><polygon fill="#181818" points="956,736.1504,946,740.1504,956,744.1504,952,740.1504" style="stroke:#181818;stroke-width:1.0;"/><line style="stroke:#181818;stroke-width:1.0;stroke-dasharray:2.0,2.0;" x1="950" x2="1188" y1="740.1504" y2="740.1504"/><text fill="#000000" font-family="sans-serif" font-size="13" lengthAdjust="spacing" textLength="45" x="962" y="734.8877">boolean</text><polygon fill="#181818" points="1294,767.4414,1304,771.4414,1294,775.4414,1298,771.4414" style="stroke:#181818;stroke-width:1.0;"/><line style="stroke:#181818;stroke-width:1.0;" x1="1199" x2="1300" y1="771.4414" y2="771.4414"/><text fill="#000000" font-family="sans-serif" font-size="13" lengthAdjust="spacing" textLength="45" x="1206" y="766.1787">toDTO()</text><polygon fill="#181818" points="1391,781.4414,1401,785.4414,1391,789.4414,1395,785.4414" style="stroke:#181818;stroke-width:1.0;"/><line style="stroke:#181818;stroke-width:1.0;" x1="1316" x2="1397" y1="785.4414" y2="785.4414"/><polygon fill="#181818" points="1210,812.7324,1200,816.7324,1210,820.7324,1206,816.7324" style="stroke:#181818;stroke-width:1.0;"/><line style="stroke:#181818;stroke-width:1.0;stroke-dasharray:2.0,2.0;" x1="1204" x2="1310" y1="816.7324" y2="816.7324"/><text fill="#000000" font-family="sans-serif" font-size="13" lengthAdjust="spacing" textLength="55" x="1216" y="811.4697">robotDTO</text><polygon fill="#181818" points="956,844.0234,946,848.0234,956,852.0234,952,848.0234" style="stroke:#181818;stroke-width:1.0;"/><line style="stroke:#181818;stroke-width:1.0;stroke-dasharray:2.0,2.0;" x1="950" x2="1193" y1="848.0234" y2="848.0234"/><text fill="#000000" font-family="sans-serif" font-size="13" lengthAdjust="spacing" textLength="55" x="962" y="842.7607">robotDTO</text><polygon fill="#181818" points="732.5,875.3145,722.5,879.3145,732.5,883.3145,728.5,879.3145" style="stroke:#181818;stroke-width:1.0;"/><line style="stroke:#181818;stroke-width:1.0;stroke-dasharray:2.0,2.0;" x1="726.5" x2="939" y1="879.3145" y2="879.3145"/><text fill="#000000" font-family="sans-serif" font-size="13" lengthAdjust="spacing" textLength="55" x="738.5" y="874.0518">robotDTO</text><polygon fill="#181818" points="498.5,906.6055,488.5,910.6055,498.5,914.6055,494.5,910.6055" style="stroke:#181818;stroke-width:1.0;"/><line style="stroke:#181818;stroke-width:1.0;" x1="492.5" x2="715.5" y1="910.6055" y2="910.6055"/><text fill="#000000" font-family="sans-serif" font-size="13" lengthAdjust="spacing" textLength="157" x="504.5" y="905.3428">res.json(robotDTO).status()</text><polygon fill="#181818" points="337.5,937.8965,327.5,941.8965,337.5,945.8965,333.5,941.8965" style="stroke:#181818;stroke-width:1.0;"/><line style="stroke:#181818;stroke-width:1.0;" x1="331.5" x2="481.5" y1="941.8965" y2="941.8965"/><text fill="#000000" font-family="sans-serif" font-size="13" lengthAdjust="spacing" textLength="44" x="343.5" y="936.6338">status()</text><polygon fill="#181818" points="176.5,969.1875,166.5,973.1875,176.5,977.1875,172.5,973.1875" style="stroke:#181818;stroke-width:1.0;"/><line style="stroke:#181818;stroke-width:1.0;stroke-dasharray:2.0,2.0;" x1="170.5" x2="315.5" y1="973.1875" y2="973.1875"/><text fill="#000000" font-family="sans-serif" font-size="13" lengthAdjust="spacing" textLength="44" x="182.5" y="967.9248">status()</text><polygon fill="#181818" points="38.5,1030.4785,28.5,1034.4785,38.5,1038.4785,34.5,1034.4785" style="stroke:#181818;stroke-width:1.0;"/><line style="stroke:#181818;stroke-width:1.0;stroke-dasharray:2.0,2.0;" x1="32.5" x2="154.5" y1="1034.4785" y2="1034.4785"/><text fill="#000000" font-family="sans-serif" font-size="13" lengthAdjust="spacing" textLength="104" x="44.5" y="1029.2158">Confirmation/Error</text><!--SRC=[bLNHRjiW57ttL_2sLfhZTpzKwkf9ouFLAEq-uCQc2vCDxeL4gghz-y0sDXZiR94I2JZdSBXSJhwSbUfadcLT0rnTscPNYJQJzFr2UKNJci4lX3P9e582oKz9CUa05QjOf_7avV3eZSl26w8u2NKK5qMzwVtHp3y9hb0qpK8IDzO6uWl5Awjeo8ej39GZxKJ4sNAsnvRGHHIAr-V8x86YP5APMaNiL6VQGbyxTWL5X_AP7v8-cDBbPC_FxCJ6ZMUWAQl-abJZUdnEZkPAf9Aa1WL9JJtig6ae-G1OIccXiiZ9uV7rwKT6Fbdz5Qx06ZYnXgcFFpDUt-12l2oCtVagoR_8E3VlCBNEykwr6XkAq2_StSyQGPi4NEjhIyuvJI3estKMCDp8wxsRhcqh-YphTrKbC6jrVATs5XVYSxDhwJV6wsyVXMY1yNqTMkoxts5CbtoBFh-Tm6u_EwkauO7xeKj4dxTs6WbN-jzd64bncsiEFA7X3O_bUEP6pGFPnD089PmqSArEgJA1quNFe2WJPSDHXLH3VKDXlKz2D1JuXckTR3VSFZWPk7q6WxXnZ9MMM33NkYBwubS5l7SIoGsRPqZbxhSK_CugtU-a0dMHVlD4Ks9ADfElgwmX2iiYjSa_8RsiTMWwY4rkZ_y0ET7xlZ5iGJ71i- -80fFnynS0]--></g></svg>