<?xml version="1.0" encoding="us-ascii" standalone="no"?><svg xmlns="http://www.w3.org/2000/svg" xmlns:xlink="http://www.w3.org/1999/xlink" contentStyleType="text/css" height="1786px" preserveAspectRatio="none" style="width:2878px;height:1786px;background:#FFFFFF;" version="1.1" viewBox="0 0 2878 1786" width="2878px" zoomAndPan="magnify"><defs/><g><rect fill="#FFFFFF" height="1600.5137" style="stroke:#181818;stroke-width:1.0;" width="10" x="17.5" y="93.6211"/><rect fill="#FFFFFF" height="31.291" style="stroke:#181818;stroke-width:1.0;" width="10" x="365.5" y="116.9121"/><rect fill="#FFFFFF" height="61.291" style="stroke:#181818;stroke-width:1.0;" width="10" x="365.5" y="179.4941"/><rect fill="#FFFFFF" height="31.291" style="stroke:#181818;stroke-width:1.0;" width="10" x="365.5" y="1653.8438"/><rect fill="#FFFFFF" height="1443.0586" style="stroke:#181818;stroke-width:1.0;" width="10" x="717.5" y="210.7852"/><rect fill="#FFFFFF" height="1350.4766" style="stroke:#181818;stroke-width:1.0;" width="10" x="1069.5" y="272.0762"/><rect fill="#FFFFFF" height="31.291" style="stroke:#181818;stroke-width:1.0;" width="10" x="1199.5" y="303.3672"/><rect fill="#FFFFFF" height="1256.6035" style="stroke:#181818;stroke-width:1.0;" width="10" x="1341.5" y="334.6582"/><rect fill="#FFFFFF" height="31.291" style="stroke:#181818;stroke-width:1.0;" width="10" x="1476" y="365.9492"/><rect fill="#FFFFFF" height="1162.7305" style="stroke:#181818;stroke-width:1.0;" width="10" x="1603" y="397.2402"/><rect fill="#FFFFFF" height="61.291" style="stroke:#181818;stroke-width:1.0;" width="10" x="1755" y="924.0234"/><rect fill="#FFFFFF" height="61.291" style="stroke:#181818;stroke-width:1.0;" width="10" x="1755" y="1047.8965"/><rect fill="#FFFFFF" height="61.291" style="stroke:#181818;stroke-width:1.0;" width="10" x="1755" y="1171.7695"/><rect fill="#FFFFFF" height="31.291" style="stroke:#181818;stroke-width:1.0;" width="10" x="1755" y="1295.6426"/><rect fill="#FFFFFF" height="61.291" style="stroke:#181818;stroke-width:1.0;" width="10" x="1907" y="955.3145"/><rect fill="#FFFFFF" height="61.291" style="stroke:#181818;stroke-width:1.0;" width="10" x="1907" y="1079.1875"/><rect fill="#FFFFFF" height="61.291" style="stroke:#181818;stroke-width:1.0;" width="10" x="1907" y="1203.0605"/><rect fill="#FFFFFF" height="125.1641" style="stroke:#181818;stroke-width:1.0;" width="10" x="1907" y="1326.9336"/><rect fill="#FFFFFF" height="31.291" style="stroke:#181818;stroke-width:1.0;" width="10" x="2024" y="1389.5156"/><rect fill="#FFFFFF" height="45.291" style="stroke:#181818;stroke-width:1.0;" width="10" x="2024" y="1483.3887"/><rect fill="#FFFFFF" height="61.291" style="stroke:#181818;stroke-width:1.0;" width="10" x="2529.5" y="428.5313"/><rect fill="#FFFFFF" height="61.291" style="stroke:#181818;stroke-width:1.0;" width="10" x="2529.5" y="552.4043"/><rect fill="#FFFFFF" height="61.291" style="stroke:#181818;stroke-width:1.0;" width="10" x="2632" y="676.2773"/><rect fill="#FFFFFF" height="61.291" style="stroke:#181818;stroke-width:1.0;" width="10" x="2632" y="800.1504"/><rect fill="#FFFFFF" height="61.291" style="stroke:#181818;stroke-width:1.0;" width="10" x="2732.5" y="459.8223"/><rect fill="#FFFFFF" height="61.291" style="stroke:#181818;stroke-width:1.0;" width="10" x="2732.5" y="583.6953"/><rect fill="#FFFFFF" height="61.291" style="stroke:#181818;stroke-width:1.0;" width="10" x="2829" y="707.5684"/><rect fill="#FFFFFF" height="61.291" style="stroke:#181818;stroke-width:1.0;" width="10" x="2829" y="831.4414"/><line style="stroke:#181818;stroke-width:0.5;stroke-dasharray:5.0,5.0;" x1="22" x2="22" y1="83.6211" y2="1703.1348"/><line style="stroke:#181818;stroke-width:0.5;stroke-dasharray:5.0,5.0;" x1="370" x2="370" y1="83.6211" y2="1703.1348"/><line style="stroke:#181818;stroke-width:0.5;stroke-dasharray:5.0,5.0;" x1="722" x2="722" y1="83.6211" y2="1703.1348"/><line style="stroke:#181818;stroke-width:0.5;stroke-dasharray:5.0,5.0;" x1="1074.5" x2="1074.5" y1="83.6211" y2="1703.1348"/><line style="stroke:#181818;stroke-width:0.5;stroke-dasharray:5.0,5.0;" x1="1204.5" x2="1204.5" y1="83.6211" y2="1703.1348"/><line style="stroke:#181818;stroke-width:0.5;stroke-dasharray:5.0,5.0;" x1="1346.5" x2="1346.5" y1="83.6211" y2="1703.1348"/><line style="stroke:#181818;stroke-width:0.5;stroke-dasharray:5.0,5.0;" x1="1480.5" x2="1480.5" y1="83.6211" y2="1703.1348"/><line style="stroke:#181818;stroke-width:0.5;stroke-dasharray:5.0,5.0;" x1="1607.5" x2="1607.5" y1="83.6211" y2="1703.1348"/><line style="stroke:#181818;stroke-width:0.5;stroke-dasharray:5.0,5.0;" x1="1760" x2="1760" y1="83.6211" y2="1703.1348"/><line style="stroke:#181818;stroke-width:0.5;stroke-dasharray:5.0,5.0;" x1="1912" x2="1912" y1="83.6211" y2="1703.1348"/><line style="stroke:#181818;stroke-width:0.5;stroke-dasharray:5.0,5.0;" x1="2029" x2="2029" y1="83.6211" y2="1703.1348"/><line style="stroke:#181818;stroke-width:0.5;stroke-dasharray:5.0,5.0;" x1="2160" x2="2160" y1="83.6211" y2="1703.1348"/><line style="stroke:#181818;stroke-width:0.5;stroke-dasharray:5.0,5.0;" x1="2302" x2="2302" y1="83.6211" y2="1703.1348"/><line style="stroke:#181818;stroke-width:0.5;stroke-dasharray:5.0,5.0;" x1="2423" x2="2423" y1="83.6211" y2="1703.1348"/><line style="stroke:#181818;stroke-width:0.5;stroke-dasharray:5.0,5.0;" x1="2534" x2="2534" y1="83.6211" y2="1703.1348"/><line style="stroke:#181818;stroke-width:0.5;stroke-dasharray:5.0,5.0;" x1="2637" x2="2637" y1="83.6211" y2="1703.1348"/><line style="stroke:#181818;stroke-width:0.5;stroke-dasharray:5.0,5.0;" x1="2737" x2="2737" y1="83.6211" y2="1703.1348"/><line style="stroke:#181818;stroke-width:0.5;stroke-dasharray:5.0,5.0;" x1="2834" x2="2834" y1="83.6211" y2="1703.1348"/><text fill="#000000" font-family="sans-serif" font-size="14" lengthAdjust="spacing" textLength="29" x="5" y="80.1074">User</text><ellipse cx="22.5" cy="13.5" fill="#E2E2F0" rx="8" ry="8" style="stroke:#181818;stroke-width:0.5;"/><path d="M22.5,21.5 L22.5,48.5 M9.5,29.5 L35.5,29.5 M22.5,48.5 L9.5,63.5 M22.5,48.5 L35.5,63.5 " fill="none" style="stroke:#181818;stroke-width:0.5;"/><text fill="#000000" font-family="sans-serif" font-size="14" lengthAdjust="spacing" textLength="29" x="5" y="1717.2422">User</text><ellipse cx="22.5" cy="1729.2559" fill="#E2E2F0" rx="8" ry="8" style="stroke:#181818;stroke-width:0.5;"/><path d="M22.5,1737.2559 L22.5,1764.2559 M9.5,1745.2559 L35.5,1745.2559 M22.5,1764.2559 L9.5,1779.2559 M22.5,1764.2559 L35.5,1779.2559 " fill="none" style="stroke:#181818;stroke-width:0.5;"/><rect fill="#E2E2F0" height="32.6211" rx="2.5" ry="2.5" style="stroke:#181818;stroke-width:0.5;" width="41" x="350" y="50"/><text fill="#000000" font-family="sans-serif" font-size="14" lengthAdjust="spacing" textLength="27" x="357" y="72.1074">SPA</text><rect fill="#E2E2F0" height="32.6211" rx="2.5" ry="2.5" style="stroke:#181818;stroke-width:0.5;" width="41" x="350" y="1702.1348"/><text fill="#000000" font-family="sans-serif" font-size="14" lengthAdjust="spacing" textLength="27" x="357" y="1724.2422">SPA</text><rect fill="#E2E2F0" height="32.6211" rx="2.5" ry="2.5" style="stroke:#181818;stroke-width:0.5;" width="35" x="705" y="50"/><text fill="#000000" font-family="sans-serif" font-size="14" lengthAdjust="spacing" textLength="21" x="712" y="72.1074">MD</text><rect fill="#E2E2F0" height="32.6211" rx="2.5" ry="2.5" style="stroke:#181818;stroke-width:0.5;" width="35" x="705" y="1702.1348"/><text fill="#000000" font-family="sans-serif" font-size="14" lengthAdjust="spacing" textLength="21" x="712" y="1724.2422">MD</text><rect fill="#E2E2F0" height="32.6211" rx="2.5" ry="2.5" style="stroke:#181818;stroke-width:0.5;" width="106" x="1021.5" y="50"/><text fill="#000000" font-family="sans-serif" font-size="14" lengthAdjust="spacing" textLength="92" x="1028.5" y="72.1074">passageRoute</text><rect fill="#E2E2F0" height="32.6211" rx="2.5" ry="2.5" style="stroke:#181818;stroke-width:0.5;" width="106" x="1021.5" y="1702.1348"/><text fill="#000000" font-family="sans-serif" font-size="14" lengthAdjust="spacing" textLength="92" x="1028.5" y="1724.2422">passageRoute</text><rect fill="#E2E2F0" height="32.6211" rx="2.5" ry="2.5" style="stroke:#181818;stroke-width:0.5;" width="134" x="1137.5" y="50"/><text fill="#000000" font-family="sans-serif" font-size="14" lengthAdjust="spacing" textLength="120" x="1144.5" y="72.1074">IPassageController</text><rect fill="#E2E2F0" height="32.6211" rx="2.5" ry="2.5" style="stroke:#181818;stroke-width:0.5;" width="134" x="1137.5" y="1702.1348"/><text fill="#000000" font-family="sans-serif" font-size="14" lengthAdjust="spacing" textLength="120" x="1144.5" y="1724.2422">IPassageController</text><rect fill="#E2E2F0" height="32.6211" rx="2.5" ry="2.5" style="stroke:#181818;stroke-width:0.5;" width="130" x="1281.5" y="50"/><text fill="#000000" font-family="sans-serif" font-size="14" lengthAdjust="spacing" textLength="116" x="1288.5" y="72.1074">passageController</text><rect fill="#E2E2F0" height="32.6211" rx="2.5" ry="2.5" style="stroke:#181818;stroke-width:0.5;" width="130" x="1281.5" y="1702.1348"/><text fill="#000000" font-family="sans-serif" font-size="14" lengthAdjust="spacing" textLength="116" x="1288.5" y="1724.2422">passageController</text><rect fill="#E2E2F0" height="32.6211" rx="2.5" ry="2.5" style="stroke:#181818;stroke-width:0.5;" width="119" x="1421.5" y="50"/><text fill="#000000" font-family="sans-serif" font-size="14" lengthAdjust="spacing" textLength="105" x="1428.5" y="72.1074">IPassageService</text><rect fill="#E2E2F0" height="32.6211" rx="2.5" ry="2.5" style="stroke:#181818;stroke-width:0.5;" width="119" x="1421.5" y="1702.1348"/><text fill="#000000" font-family="sans-serif" font-size="14" lengthAdjust="spacing" textLength="105" x="1428.5" y="1724.2422">IPassageService</text><rect fill="#E2E2F0" height="32.6211" rx="2.5" ry="2.5" style="stroke:#181818;stroke-width:0.5;" width="115" x="1550.5" y="50"/><text fill="#000000" font-family="sans-serif" font-size="14" lengthAdjust="spacing" textLength="101" x="1557.5" y="72.1074">passageService</text><rect fill="#E2E2F0" height="32.6211" rx="2.5" ry="2.5" style="stroke:#181818;stroke-width:0.5;" width="115" x="1550.5" y="1702.1348"/><text fill="#000000" font-family="sans-serif" font-size="14" lengthAdjust="spacing" textLength="101" x="1557.5" y="1724.2422">passageService</text><rect fill="#E2E2F0" height="32.6211" rx="2.5" ry="2.5" style="stroke:#181818;stroke-width:0.5;" width="106" x="1707" y="50"/><text fill="#000000" font-family="sans-serif" font-size="14" lengthAdjust="spacing" textLength="92" x="1714" y="72.1074">IPassageRepo</text><rect fill="#E2E2F0" height="32.6211" rx="2.5" ry="2.5" style="stroke:#181818;stroke-width:0.5;" width="106" x="1707" y="1702.1348"/><text fill="#000000" font-family="sans-serif" font-size="14" lengthAdjust="spacing" textLength="92" x="1714" y="1724.2422">IPassageRepo</text><rect fill="#E2E2F0" height="32.6211" rx="2.5" ry="2.5" style="stroke:#181818;stroke-width:0.5;" width="102" x="1861" y="50"/><text fill="#000000" font-family="sans-serif" font-size="14" lengthAdjust="spacing" textLength="88" x="1868" y="72.1074">passageRepo</text><rect fill="#E2E2F0" height="32.6211" rx="2.5" ry="2.5" style="stroke:#181818;stroke-width:0.5;" width="102" x="1861" y="1702.1348"/><text fill="#000000" font-family="sans-serif" font-size="14" lengthAdjust="spacing" textLength="88" x="1868" y="1724.2422">passageRepo</text><rect fill="#E2E2F0" height="32.6211" rx="2.5" ry="2.5" style="stroke:#181818;stroke-width:0.5;" width="96" x="1981" y="50"/><text fill="#000000" font-family="sans-serif" font-size="14" lengthAdjust="spacing" textLength="82" x="1988" y="72.1074">PassageMap</text><rect fill="#E2E2F0" height="32.6211" rx="2.5" ry="2.5" style="stroke:#181818;stroke-width:0.5;" width="96" x="1981" y="1702.1348"/><text fill="#000000" font-family="sans-serif" font-size="14" lengthAdjust="spacing" textLength="82" x="1988" y="1724.2422">PassageMap</text><rect fill="#E2E2F0" height="32.6211" rx="2.5" ry="2.5" style="stroke:#181818;stroke-width:0.5;" width="146" x="2087" y="50"/><text fill="#000000" font-family="sans-serif" font-size="14" lengthAdjust="spacing" textLength="132" x="2094" y="72.1074">IPassagePersistence</text><rect fill="#E2E2F0" height="32.6211" rx="2.5" ry="2.5" style="stroke:#181818;stroke-width:0.5;" width="146" x="2087" y="1702.1348"/><text fill="#000000" font-family="sans-serif" font-size="14" lengthAdjust="spacing" textLength="132" x="2094" y="1724.2422">IPassagePersistence</text><rect fill="#E2E2F0" height="32.6211" rx="2.5" ry="2.5" style="stroke:#181818;stroke-width:0.5;" width="119" x="2243" y="50"/><text fill="#000000" font-family="sans-serif" font-size="14" lengthAdjust="spacing" textLength="105" x="2250" y="72.1074">passageSchema</text><rect fill="#E2E2F0" height="32.6211" rx="2.5" ry="2.5" style="stroke:#181818;stroke-width:0.5;" width="119" x="2243" y="1702.1348"/><text fill="#000000" font-family="sans-serif" font-size="14" lengthAdjust="spacing" textLength="105" x="2250" y="1724.2422">passageSchema</text><rect fill="#E2E2F0" height="32.6211" rx="2.5" ry="2.5" style="stroke:#181818;stroke-width:0.5;" width="102" x="2372" y="50"/><text fill="#000000" font-family="sans-serif" font-size="14" lengthAdjust="spacing" textLength="88" x="2379" y="72.1074">IPassageDTO</text><rect fill="#E2E2F0" height="32.6211" rx="2.5" ry="2.5" style="stroke:#181818;stroke-width:0.5;" width="102" x="2372" y="1702.1348"/><text fill="#000000" font-family="sans-serif" font-size="14" lengthAdjust="spacing" textLength="88" x="2379" y="1724.2422">IPassageDTO</text><rect fill="#E2E2F0" height="32.6211" rx="2.5" ry="2.5" style="stroke:#181818;stroke-width:0.5;" width="101" x="2484" y="50"/><text fill="#000000" font-family="sans-serif" font-size="14" lengthAdjust="spacing" textLength="87" x="2491" y="72.1074">IBuildingRepo</text><rect fill="#E2E2F0" height="32.6211" rx="2.5" ry="2.5" style="stroke:#181818;stroke-width:0.5;" width="101" x="2484" y="1702.1348"/><text fill="#000000" font-family="sans-serif" font-size="14" lengthAdjust="spacing" textLength="87" x="2491" y="1724.2422">IBuildingRepo</text><rect fill="#E2E2F0" height="32.6211" rx="2.5" ry="2.5" style="stroke:#181818;stroke-width:0.5;" width="84" x="2595" y="50"/><text fill="#000000" font-family="sans-serif" font-size="14" lengthAdjust="spacing" textLength="70" x="2602" y="72.1074">IFloorRepo</text><rect fill="#E2E2F0" height="32.6211" rx="2.5" ry="2.5" style="stroke:#181818;stroke-width:0.5;" width="84" x="2595" y="1702.1348"/><text fill="#000000" font-family="sans-serif" font-size="14" lengthAdjust="spacing" textLength="70" x="2602" y="1724.2422">IFloorRepo</text><rect fill="#E2E2F0" height="32.6211" rx="2.5" ry="2.5" style="stroke:#181818;stroke-width:0.5;" width="97" x="2689" y="50"/><text fill="#000000" font-family="sans-serif" font-size="14" lengthAdjust="spacing" textLength="83" x="2696" y="72.1074">buildingRepo</text><rect fill="#E2E2F0" height="32.6211" rx="2.5" ry="2.5" style="stroke:#181818;stroke-width:0.5;" width="97" x="2689" y="1702.1348"/><text fill="#000000" font-family="sans-serif" font-size="14" lengthAdjust="spacing" textLength="83" x="2696" y="1724.2422">buildingRepo</text><rect fill="#E2E2F0" height="32.6211" rx="2.5" ry="2.5" style="stroke:#181818;stroke-width:0.5;" width="76" x="2796" y="50"/><text fill="#000000" font-family="sans-serif" font-size="14" lengthAdjust="spacing" textLength="62" x="2803" y="72.1074">floorRepo</text><rect fill="#E2E2F0" height="32.6211" rx="2.5" ry="2.5" style="stroke:#181818;stroke-width:0.5;" width="76" x="2796" y="1702.1348"/><text fill="#000000" font-family="sans-serif" font-size="14" lengthAdjust="spacing" textLength="62" x="2803" y="1724.2422">floorRepo</text><rect fill="#FFFFFF" height="1600.5137" style="stroke:#181818;stroke-width:1.0;" width="10" x="17.5" y="93.6211"/><rect fill="#FFFFFF" height="31.291" style="stroke:#181818;stroke-width:1.0;" width="10" x="365.5" y="116.9121"/><rect fill="#FFFFFF" height="61.291" style="stroke:#181818;stroke-width:1.0;" width="10" x="365.5" y="179.4941"/><rect fill="#FFFFFF" height="31.291" style="stroke:#181818;stroke-width:1.0;" width="10" x="365.5" y="1653.8438"/><rect fill="#FFFFFF" height="1443.0586" style="stroke:#181818;stroke-width:1.0;" width="10" x="717.5" y="210.7852"/><rect fill="#FFFFFF" height="1350.4766" style="stroke:#181818;stroke-width:1.0;" width="10" x="1069.5" y="272.0762"/><rect fill="#FFFFFF" height="31.291" style="stroke:#181818;stroke-width:1.0;" width="10" x="1199.5" y="303.3672"/><rect fill="#FFFFFF" height="1256.6035" style="stroke:#181818;stroke-width:1.0;" width="10" x="1341.5" y="334.6582"/><rect fill="#FFFFFF" height="31.291" style="stroke:#181818;stroke-width:1.0;" width="10" x="1476" y="365.9492"/><rect fill="#FFFFFF" height="1162.7305" style="stroke:#181818;stroke-width:1.0;" width="10" x="1603" y="397.2402"/><rect fill="#FFFFFF" height="61.291" style="stroke:#181818;stroke-width:1.0;" width="10" x="1755" y="924.0234"/><rect fill="#FFFFFF" height="61.291" style="stroke:#181818;stroke-width:1.0;" width="10" x="1755" y="1047.8965"/><rect fill="#FFFFFF" height="61.291" style="stroke:#181818;stroke-width:1.0;" width="10" x="1755" y="1171.7695"/><rect fill="#FFFFFF" height="31.291" style="stroke:#181818;stroke-width:1.0;" width="10" x="1755" y="1295.6426"/><rect fill="#FFFFFF" height="61.291" style="stroke:#181818;stroke-width:1.0;" width="10" x="1907" y="955.3145"/><rect fill="#FFFFFF" height="61.291" style="stroke:#181818;stroke-width:1.0;" width="10" x="1907" y="1079.1875"/><rect fill="#FFFFFF" height="61.291" style="stroke:#181818;stroke-width:1.0;" width="10" x="1907" y="1203.0605"/><rect fill="#FFFFFF" height="125.1641" style="stroke:#181818;stroke-width:1.0;" width="10" x="1907" y="1326.9336"/><rect fill="#FFFFFF" height="31.291" style="stroke:#181818;stroke-width:1.0;" width="10" x="2024" y="1389.5156"/><rect fill="#FFFFFF" height="45.291" style="stroke:#181818;stroke-width:1.0;" width="10" x="2024" y="1483.3887"/><rect fill="#FFFFFF" height="61.291" style="stroke:#181818;stroke-width:1.0;" width="10" x="2529.5" y="428.5313"/><rect fill="#FFFFFF" height="61.291" style="stroke:#181818;stroke-width:1.0;" width="10" x="2529.5" y="552.4043"/><rect fill="#FFFFFF" height="61.291" style="stroke:#181818;stroke-width:1.0;" width="10" x="2632" y="676.2773"/><rect fill="#FFFFFF" height="61.291" style="stroke:#181818;stroke-width:1.0;" width="10" x="2632" y="800.1504"/><rect fill="#FFFFFF" height="61.291" style="stroke:#181818;stroke-width:1.0;" width="10" x="2732.5" y="459.8223"/><rect fill="#FFFFFF" height="61.291" style="stroke:#181818;stroke-width:1.0;" width="10" x="2732.5" y="583.6953"/><rect fill="#FFFFFF" height="61.291" style="stroke:#181818;stroke-width:1.0;" width="10" x="2829" y="707.5684"/><rect fill="#FFFFFF" height="61.291" style="stroke:#181818;stroke-width:1.0;" width="10" x="2829" y="831.4414"/><polygon fill="#181818" points="353.5,112.9121,363.5,116.9121,353.5,120.9121,357.5,116.9121" style="stroke:#181818;stroke-width:1.0;"/><line style="stroke:#181818;stroke-width:1.0;" x1="27.5" x2="359.5" y1="116.9121" y2="116.9121"/><text fill="#000000" font-family="sans-serif" font-size="13" lengthAdjust="spacing" textLength="96" x="34.5" y="111.6494">Update Passage</text><polygon fill="#181818" points="38.5,144.2031,28.5,148.2031,38.5,152.2031,34.5,148.2031" style="stroke:#181818;stroke-width:1.0;"/><line style="stroke:#181818;stroke-width:1.0;stroke-dasharray:2.0,2.0;" x1="32.5" x2="369.5" y1="148.2031" y2="148.2031"/><text fill="#000000" font-family="sans-serif" font-size="13" lengthAdjust="spacing" textLength="84" x="44.5" y="142.9404">Requests data</text><polygon fill="#181818" points="353.5,175.4941,363.5,179.4941,353.5,183.4941,357.5,179.4941" style="stroke:#181818;stroke-width:1.0;"/><line style="stroke:#181818;stroke-width:1.0;" x1="27.5" x2="359.5" y1="179.4941" y2="179.4941"/><text fill="#000000" font-family="sans-serif" font-size="13" lengthAdjust="spacing" textLength="319" x="34.5" y="174.2314">data {id, building1,building2,pisobuilding1,pisobuilding2}</text><polygon fill="#181818" points="705.5,206.7852,715.5,210.7852,705.5,214.7852,709.5,210.7852" style="stroke:#181818;stroke-width:1.0;"/><line style="stroke:#181818;stroke-width:1.0;" x1="375.5" x2="711.5" y1="210.7852" y2="210.7852"/><text fill="#000000" font-family="sans-serif" font-size="13" lengthAdjust="spacing" textLength="323" x="382.5" y="205.5225">PUT /{id, building1,building2,pisobuilding1,pisobuilding2}</text><polygon fill="#181818" points="1057.5,268.0762,1067.5,272.0762,1057.5,276.0762,1061.5,272.0762" style="stroke:#181818;stroke-width:1.0;"/><line style="stroke:#181818;stroke-width:1.0;" x1="727.5" x2="1063.5" y1="272.0762" y2="272.0762"/><text fill="#000000" font-family="sans-serif" font-size="13" lengthAdjust="spacing" textLength="323" x="734.5" y="266.8135">PUT /{id, building1,building2,pisobuilding1,pisobuilding2}</text><polygon fill="#181818" points="1187.5,299.3672,1197.5,303.3672,1187.5,307.3672,1191.5,303.3672" style="stroke:#181818;stroke-width:1.0;"/><line style="stroke:#181818;stroke-width:1.0;" x1="1079.5" x2="1193.5" y1="303.3672" y2="303.3672"/><text fill="#000000" font-family="sans-serif" font-size="13" lengthAdjust="spacing" textLength="98" x="1086.5" y="298.1045">updatePassage()</text><polygon fill="#181818" points="1329.5,330.6582,1339.5,334.6582,1329.5,338.6582,1333.5,334.6582" style="stroke:#181818;stroke-width:1.0;"/><line style="stroke:#181818;stroke-width:1.0;" x1="1204.5" x2="1335.5" y1="334.6582" y2="334.6582"/><text fill="#000000" font-family="sans-serif" font-size="13" lengthAdjust="spacing" textLength="98" x="1211.5" y="329.3955">updatePassage()</text><polygon fill="#181818" points="1464,361.9492,1474,365.9492,1464,369.9492,1468,365.9492" style="stroke:#181818;stroke-width:1.0;"/><line style="stroke:#181818;stroke-width:1.0;" x1="1351.5" x2="1470" y1="365.9492" y2="365.9492"/><text fill="#000000" font-family="sans-serif" font-size="13" lengthAdjust="spacing" textLength="98" x="1358.5" y="360.6865">updatePassage()</text><polygon fill="#181818" points="1591,393.2402,1601,397.2402,1591,401.2402,1595,397.2402" style="stroke:#181818;stroke-width:1.0;"/><line style="stroke:#181818;stroke-width:1.0;" x1="1481" x2="1597" y1="397.2402" y2="397.2402"/><text fill="#000000" font-family="sans-serif" font-size="13" lengthAdjust="spacing" textLength="98" x="1488" y="391.9775">updatePassage()</text><polygon fill="#181818" points="2517.5,424.5313,2527.5,428.5313,2517.5,432.5313,2521.5,428.5313" style="stroke:#181818;stroke-width:1.0;"/><line style="stroke:#181818;stroke-width:1.0;" x1="1613" x2="2523.5" y1="428.5313" y2="428.5313"/><text fill="#000000" font-family="sans-serif" font-size="13" lengthAdjust="spacing" textLength="78" x="1620" y="423.2686">findByName()</text><polygon fill="#181818" points="2720.5,455.8223,2730.5,459.8223,2720.5,463.8223,2724.5,459.8223" style="stroke:#181818;stroke-width:1.0;"/><line style="stroke:#181818;stroke-width:1.0;" x1="2539.5" x2="2726.5" y1="459.8223" y2="459.8223"/><text fill="#000000" font-family="sans-serif" font-size="13" lengthAdjust="spacing" textLength="78" x="2546.5" y="454.5596">findByName()</text><polygon fill="#181818" points="1624,517.1133,1614,521.1133,1624,525.1133,1620,521.1133" style="stroke:#181818;stroke-width:1.0;"/><line style="stroke:#181818;stroke-width:1.0;stroke-dasharray:2.0,2.0;" x1="1618" x2="2736.5" y1="521.1133" y2="521.1133"/><text fill="#000000" font-family="sans-serif" font-size="13" lengthAdjust="spacing" textLength="44" x="1630" y="515.8506">building</text><polygon fill="#181818" points="2517.5,548.4043,2527.5,552.4043,2517.5,556.4043,2521.5,552.4043" style="stroke:#181818;stroke-width:1.0;"/><line style="stroke:#181818;stroke-width:1.0;" x1="1613" x2="2523.5" y1="552.4043" y2="552.4043"/><text fill="#000000" font-family="sans-serif" font-size="13" lengthAdjust="spacing" textLength="78" x="1620" y="547.1416">findByName()</text><polygon fill="#181818" points="2720.5,579.6953,2730.5,583.6953,2720.5,587.6953,2724.5,583.6953" style="stroke:#181818;stroke-width:1.0;"/><line style="stroke:#181818;stroke-width:1.0;" x1="2539.5" x2="2726.5" y1="583.6953" y2="583.6953"/><text fill="#000000" font-family="sans-serif" font-size="13" lengthAdjust="spacing" textLength="78" x="2546.5" y="578.4326">findByName()</text><polygon fill="#181818" points="1624,640.9863,1614,644.9863,1624,648.9863,1620,644.9863" style="stroke:#181818;stroke-width:1.0;"/><line style="stroke:#181818;stroke-width:1.0;stroke-dasharray:2.0,2.0;" x1="1618" x2="2736.5" y1="644.9863" y2="644.9863"/><text fill="#000000" font-family="sans-serif" font-size="13" lengthAdjust="spacing" textLength="44" x="1630" y="639.7236">building</text><polygon fill="#181818" points="2620,672.2773,2630,676.2773,2620,680.2773,2624,676.2773" style="stroke:#181818;stroke-width:1.0;"/><line style="stroke:#181818;stroke-width:1.0;" x1="1613" x2="2626" y1="676.2773" y2="676.2773"/><text fill="#000000" font-family="sans-serif" font-size="13" lengthAdjust="spacing" textLength="78" x="1620" y="671.0146">findByName()</text><polygon fill="#181818" points="2817,703.5684,2827,707.5684,2817,711.5684,2821,707.5684" style="stroke:#181818;stroke-width:1.0;"/><line style="stroke:#181818;stroke-width:1.0;" x1="2642" x2="2823" y1="707.5684" y2="707.5684"/><text fill="#000000" font-family="sans-serif" font-size="13" lengthAdjust="spacing" textLength="78" x="2649" y="702.3057">findByName()</text><polygon fill="#181818" points="1624,764.8594,1614,768.8594,1624,772.8594,1620,768.8594" style="stroke:#181818;stroke-width:1.0;"/><line style="stroke:#181818;stroke-width:1.0;stroke-dasharray:2.0,2.0;" x1="1618" x2="2833" y1="768.8594" y2="768.8594"/><text fill="#000000" font-family="sans-serif" font-size="13" lengthAdjust="spacing" textLength="24" x="1630" y="763.5967">floor</text><polygon fill="#181818" points="2620,796.1504,2630,800.1504,2620,804.1504,2624,800.1504" style="stroke:#181818;stroke-width:1.0;"/><line style="stroke:#181818;stroke-width:1.0;" x1="1613" x2="2626" y1="800.1504" y2="800.1504"/><text fill="#000000" font-family="sans-serif" font-size="13" lengthAdjust="spacing" textLength="78" x="1620" y="794.8877">findByName()</text><polygon fill="#181818" points="2817,827.4414,2827,831.4414,2817,835.4414,2821,831.4414" style="stroke:#181818;stroke-width:1.0;"/><line style="stroke:#181818;stroke-width:1.0;" x1="2642" x2="2823" y1="831.4414" y2="831.4414"/><text fill="#000000" font-family="sans-serif" font-size="13" lengthAdjust="spacing" textLength="78" x="2649" y="826.1787">findByName()</text><polygon fill="#181818" points="1624,888.7324,1614,892.7324,1624,896.7324,1620,892.7324" style="stroke:#181818;stroke-width:1.0;"/><line style="stroke:#181818;stroke-width:1.0;stroke-dasharray:2.0,2.0;" x1="1618" x2="2833" y1="892.7324" y2="892.7324"/><text fill="#000000" font-family="sans-serif" font-size="13" lengthAdjust="spacing" textLength="24" x="1630" y="887.4697">floor</text><polygon fill="#181818" points="1743,920.0234,1753,924.0234,1743,928.0234,1747,924.0234" style="stroke:#181818;stroke-width:1.0;"/><line style="stroke:#181818;stroke-width:1.0;" x1="1613" x2="1749" y1="924.0234" y2="924.0234"/><text fill="#000000" font-family="sans-serif" font-size="13" lengthAdjust="spacing" textLength="77" x="1620" y="918.7607">findByPisos()</text><polygon fill="#181818" points="1895,951.3145,1905,955.3145,1895,959.3145,1899,955.3145" style="stroke:#181818;stroke-width:1.0;"/><line style="stroke:#181818;stroke-width:1.0;" x1="1765" x2="1901" y1="955.3145" y2="955.3145"/><text fill="#000000" font-family="sans-serif" font-size="13" lengthAdjust="spacing" textLength="77" x="1772" y="950.0518">findByPisos()</text><polygon fill="#181818" points="1624,1012.6055,1614,1016.6055,1624,1020.6055,1620,1016.6055" style="stroke:#181818;stroke-width:1.0;"/><line style="stroke:#181818;stroke-width:1.0;stroke-dasharray:2.0,2.0;" x1="1618" x2="1911" y1="1016.6055" y2="1016.6055"/><text fill="#000000" font-family="sans-serif" font-size="13" lengthAdjust="spacing" textLength="45" x="1630" y="1011.3428">boolean</text><polygon fill="#181818" points="1743,1043.8965,1753,1047.8965,1743,1051.8965,1747,1047.8965" style="stroke:#181818;stroke-width:1.0;"/><line style="stroke:#181818;stroke-width:1.0;" x1="1613" x2="1749" y1="1047.8965" y2="1047.8965"/><text fill="#000000" font-family="sans-serif" font-size="13" lengthAdjust="spacing" textLength="123" x="1620" y="1042.6338">findByPisosReverse()</text><polygon fill="#181818" points="1895,1075.1875,1905,1079.1875,1895,1083.1875,1899,1079.1875" style="stroke:#181818;stroke-width:1.0;"/><line style="stroke:#181818;stroke-width:1.0;" x1="1765" x2="1901" y1="1079.1875" y2="1079.1875"/><text fill="#000000" font-family="sans-serif" font-size="13" lengthAdjust="spacing" textLength="123" x="1772" y="1073.9248">findByPisosReverse()</text><polygon fill="#181818" points="1624,1136.4785,1614,1140.4785,1624,1144.4785,1620,1140.4785" style="stroke:#181818;stroke-width:1.0;"/><line style="stroke:#181818;stroke-width:1.0;stroke-dasharray:2.0,2.0;" x1="1618" x2="1911" y1="1140.4785" y2="1140.4785"/><text fill="#000000" font-family="sans-serif" font-size="13" lengthAdjust="spacing" textLength="45" x="1630" y="1135.2158">boolean</text><polygon fill="#181818" points="1743,1167.7695,1753,1171.7695,1743,1175.7695,1747,1171.7695" style="stroke:#181818;stroke-width:1.0;"/><line style="stroke:#181818;stroke-width:1.0;" x1="1613" x2="1749" y1="1171.7695" y2="1171.7695"/><text fill="#000000" font-family="sans-serif" font-size="13" lengthAdjust="spacing" textLength="98" x="1620" y="1166.5068">findByDomainId()</text><polygon fill="#181818" points="1895,1199.0605,1905,1203.0605,1895,1207.0605,1899,1203.0605" style="stroke:#181818;stroke-width:1.0;"/><line style="stroke:#181818;stroke-width:1.0;" x1="1765" x2="1901" y1="1203.0605" y2="1203.0605"/><text fill="#000000" font-family="sans-serif" font-size="13" lengthAdjust="spacing" textLength="98" x="1772" y="1197.7979">findByDomainId()</text><polygon fill="#181818" points="1624,1260.3516,1614,1264.3516,1624,1268.3516,1620,1264.3516" style="stroke:#181818;stroke-width:1.0;"/><line style="stroke:#181818;stroke-width:1.0;stroke-dasharray:2.0,2.0;" x1="1618" x2="1911" y1="1264.3516" y2="1264.3516"/><text fill="#000000" font-family="sans-serif" font-size="13" lengthAdjust="spacing" textLength="49" x="1630" y="1259.0889">passage</text><polygon fill="#181818" points="1743,1291.6426,1753,1295.6426,1743,1299.6426,1747,1295.6426" style="stroke:#181818;stroke-width:1.0;"/><line style="stroke:#181818;stroke-width:1.0;" x1="1613" x2="1749" y1="1295.6426" y2="1295.6426"/><text fill="#000000" font-family="sans-serif" font-size="13" lengthAdjust="spacing" textLength="34" x="1620" y="1290.3799">save()</text><polygon fill="#181818" points="1895,1322.9336,1905,1326.9336,1895,1330.9336,1899,1326.9336" style="stroke:#181818;stroke-width:1.0;"/><line style="stroke:#181818;stroke-width:1.0;" x1="1760" x2="1901" y1="1326.9336" y2="1326.9336"/><text fill="#000000" font-family="sans-serif" font-size="13" lengthAdjust="spacing" textLength="34" x="1767" y="1321.6709">save()</text><polygon fill="#181818" points="2290.5,1354.2246,2300.5,1358.2246,2290.5,1362.2246,2294.5,1358.2246" style="stroke:#181818;stroke-width:1.0;"/><line style="stroke:#181818;stroke-width:1.0;" x1="1917" x2="2296.5" y1="1358.2246" y2="1358.2246"/><text fill="#000000" font-family="sans-serif" font-size="13" lengthAdjust="spacing" textLength="52" x="1924" y="1352.9619">findOne()</text><polygon fill="#181818" points="2012,1385.5156,2022,1389.5156,2012,1393.5156,2016,1389.5156" style="stroke:#181818;stroke-width:1.0;"/><line style="stroke:#181818;stroke-width:1.0;" x1="1917" x2="2018" y1="1389.5156" y2="1389.5156"/><text fill="#000000" font-family="sans-serif" font-size="13" lengthAdjust="spacing" textLength="88" x="1924" y="1384.2529">toPersistence()</text><polygon fill="#181818" points="1928,1416.8066,1918,1420.8066,1928,1424.8066,1924,1420.8066" style="stroke:#181818;stroke-width:1.0;"/><line style="stroke:#181818;stroke-width:1.0;stroke-dasharray:2.0,2.0;" x1="1922" x2="2028" y1="1420.8066" y2="1420.8066"/><text fill="#000000" font-family="sans-serif" font-size="13" lengthAdjust="spacing" textLength="49" x="1934" y="1415.5439">passage</text><polygon fill="#181818" points="2290.5,1448.0977,2300.5,1452.0977,2290.5,1456.0977,2294.5,1452.0977" style="stroke:#181818;stroke-width:1.0;"/><line style="stroke:#181818;stroke-width:1.0;" x1="1912" x2="2296.5" y1="1452.0977" y2="1452.0977"/><text fill="#000000" font-family="sans-serif" font-size="13" lengthAdjust="spacing" textLength="44" x="1919" y="1446.835">create()</text><polygon fill="#181818" points="2012,1479.3887,2022,1483.3887,2012,1487.3887,2016,1483.3887" style="stroke:#181818;stroke-width:1.0;"/><line style="stroke:#181818;stroke-width:1.0;" x1="1613" x2="2018" y1="1483.3887" y2="1483.3887"/><text fill="#000000" font-family="sans-serif" font-size="13" lengthAdjust="spacing" textLength="45" x="1620" y="1478.126">toDTO()</text><polygon fill="#181818" points="2411,1493.3887,2421,1497.3887,2411,1501.3887,2415,1497.3887" style="stroke:#181818;stroke-width:1.0;"/><line style="stroke:#181818;stroke-width:1.0;" x1="2034" x2="2417" y1="1497.3887" y2="1497.3887"/><polygon fill="#181818" points="1624,1524.6797,1614,1528.6797,1624,1532.6797,1620,1528.6797" style="stroke:#181818;stroke-width:1.0;"/><line style="stroke:#181818;stroke-width:1.0;stroke-dasharray:2.0,2.0;" x1="1618" x2="2028" y1="1528.6797" y2="1528.6797"/><text fill="#000000" font-family="sans-serif" font-size="13" lengthAdjust="spacing" textLength="75" x="1630" y="1523.417">passageDTO</text><polygon fill="#181818" points="1362.5,1555.9707,1352.5,1559.9707,1362.5,1563.9707,1358.5,1559.9707" style="stroke:#181818;stroke-width:1.0;"/><line style="stroke:#181818;stroke-width:1.0;stroke-dasharray:2.0,2.0;" x1="1356.5" x2="1607" y1="1559.9707" y2="1559.9707"/><text fill="#000000" font-family="sans-serif" font-size="13" lengthAdjust="spacing" textLength="75" x="1368.5" y="1554.708">passageDTO</text><polygon fill="#181818" points="1090.5,1587.2617,1080.5,1591.2617,1090.5,1595.2617,1086.5,1591.2617" style="stroke:#181818;stroke-width:1.0;"/><line style="stroke:#181818;stroke-width:1.0;stroke-dasharray:2.0,2.0;" x1="1084.5" x2="1345.5" y1="1591.2617" y2="1591.2617"/><text fill="#000000" font-family="sans-serif" font-size="13" lengthAdjust="spacing" textLength="177" x="1096.5" y="1585.999">res.json(passageDTO).status()</text><polygon fill="#181818" points="738.5,1618.5527,728.5,1622.5527,738.5,1626.5527,734.5,1622.5527" style="stroke:#181818;stroke-width:1.0;"/><line style="stroke:#181818;stroke-width:1.0;stroke-dasharray:2.0,2.0;" x1="732.5" x2="1073.5" y1="1622.5527" y2="1622.5527"/><text fill="#000000" font-family="sans-serif" font-size="13" lengthAdjust="spacing" textLength="44" x="744.5" y="1617.29">status()</text><polygon fill="#181818" points="386.5,1649.8438,376.5,1653.8438,386.5,1657.8438,382.5,1653.8438" style="stroke:#181818;stroke-width:1.0;"/><line style="stroke:#181818;stroke-width:1.0;stroke-dasharray:2.0,2.0;" x1="380.5" x2="721.5" y1="1653.8438" y2="1653.8438"/><text fill="#000000" font-family="sans-serif" font-size="13" lengthAdjust="spacing" textLength="44" x="392.5" y="1648.5811">status()</text><polygon fill="#181818" points="38.5,1681.1348,28.5,1685.1348,38.5,1689.1348,34.5,1685.1348" style="stroke:#181818;stroke-width:1.0;"/><line style="stroke:#181818;stroke-width:1.0;stroke-dasharray:2.0,2.0;" x1="32.5" x2="369.5" y1="1685.1348" y2="1685.1348"/><text fill="#000000" font-family="sans-serif" font-size="13" lengthAdjust="spacing" textLength="104" x="44.5" y="1679.8721">Confirmation/Error</text><!--SRC=[vLRBRjim4BpxAtXh0bWMagCE1fgw1Nnm8pZn1p0IvR2GH8Qa31H5_xsazU13Ay68SoZQWms9t1tEaDpLV7fLYiiaZdc9QzLKvIfZLIp9MqFgZ4GvnKU1gyK2Pue9T914B3WMYcQKwtZqb7xstdSRxvLZAV6Hx5cZY3UnJTkPBwnMWfLb0CjdP_la9o9ED2DG9ZJLf-q9Po3BSBoBts4EugH4I2gLsIUGGlPAAWncRfuV_V67XfOvhOyZ2jjl9MDYDFmo5LyCuUR4w0ahqXwQ-KFHMfzNWWuyD-CT6Hje3bF_K1IjpqaeGNjp4QIII6VWHKwys0xJFEjG4u5-qNmviBjRza_tIqubi-Fks_rlWC5QtwG4fOTd55y9gMzaG7ktCVZkrVoObOBBRb_CSkCBhxUiEHz4DtDpQw60yW00h0eFTGJhw0U0G_vUqG5B1jLtYOo-6iDKAs0Q323VmuNCRT67gtW5fXSfQ9q__FoEAv-kLuP-ZWPvkGJ3gqoNkuVjGKNGDlGHBaPGzV-doA4XJYkqFTE9rhb3SvpAjDtJ5MNX2ei6oJbFkwc5qxp_NI7EPtMGakeUAQ5MqAfnKvnUF8lWVgM1fk2ocxbnZ9K4rou07-TVf6vFJje0aEj50a1_aTODgp2jj_bLEY6G3z7O3RnFOu8aFhtt0BlKAUPpT0B0rYXsU_LO6zGWq1fH7QMOOpnTyevTTHAY4NDWppodEyqnGPaWEjxNFR_X0NTjVI_WlFQiCgncT0bCwAocWTM4SO9nO7FXUgB0JMeaGUJgXsJrZOMyNKc5LIF1lHjxhiuudesmkMtJkQtVDAPsiE9GjFR1SqPVCoYegB2Yh8w_2k7tVnty1m00]--></g></svg>